<?xml version="1.0" standalone="no"?>
<!DOCTYPE svg PUBLIC "-//W3C//DTD SVG 1.1//EN" "http://www.w3.org/Graphics/SVG/1.1/DTD/svg11.dtd" >
<svg xmlns="http://www.w3.org/2000/svg">
<metadata>
Adient Sans is a licensed version of FS Albert Copyright (c) 2002 by Fontsmith Ltd. All rights reserved. This font may not be altered in any way without prior permission of Fontsmith Ltd.
</metadata>
<defs>
<font id="AdientSansWeb-Light" horiz-adv-x="540" >
  <font-face 
    font-family="Adient Sans Web Light"
    font-weight="300"
    font-stretch="normal"
    units-per-em="1000"
    panose-1="2 11 5 3 4 4 2 6 2 3"
    ascent="800"
    descent="-200"
    x-height="482"
    cap-height="687"
    bbox="-348 -220 1000 998"
    underline-thickness="56"
    underline-position="-44"
    unicode-range="U+000D-FB02"
  />
<missing-glyph horiz-adv-x="535" 
d="M20 693h495v-693h-495v693zM436 644h-337l169 -253zM238 347l-168 252v-505zM466 599l-169 -252l169 -253v505zM436 50l-168 252l-169 -252h337z" />
    <glyph glyph-name="fi" unicode="fi" horiz-adv-x="483" 
d="M89 18v417h-61q-5 0 -7 2t-2 8v27q0 6 2 8t9 2h59v14q0 90 36 145q50 76 151 76q27 0 57.5 -4t47.5 -11q7 -3 9 -6.5t1 -9.5l-5 -27q-2 -6 -6 -6l-9 2q-44 14 -94 14q-61 0 -91 -40q-33 -43 -33 -132v-15h235q16 0 16 -18v-446q0 -18 -16 -18h-32q-15 0 -15 18v417h-188
v-417q0 -18 -16 -18h-32q-16 0 -16 18z" />
    <glyph glyph-name="fl" unicode="fl" horiz-adv-x="486" 
d="M89 18v417h-61q-5 0 -7 2t-2 8v27q0 6 2 8t9 2h59v14q0 67 7.5 103t31.5 66q19 24 52.5 38t76.5 14q25 0 57 -5t56 -11q33 8 36 8q12 0 12 -16v-675q0 -18 -16 -18h-32q-15 0 -15 18v640q-16 4 -44 7.5t-50 3.5q-59 0 -85 -37q-15 -22 -19 -52.5t-4 -79.5v-18h120
q7 0 9.5 -2t2.5 -8v-26q0 -7 -2.5 -9t-8.5 -2h-121v-417q0 -18 -16 -18h-32q-16 0 -16 18z" />
    <glyph glyph-name="f_f.liga" unicode="ff" horiz-adv-x="613" 
d="M89 17v418h-59q-6 0 -8.5 2t-2.5 8v27q0 6 2.5 8t8.5 2h59v2q0 55 3 79q7 67 46 104.5t105 37.5q33 0 65 -11q8 -3 10 -6.5t0 -10.5l-8 -24q-3 -9 -16 -6q-27 8 -50 8q-91 0 -91 -137v-36h208v14q0 55 3 79q7 67 46 104.5t105 37.5q46 0 83 -15q7 -3 9.5 -6.5t0.5 -10.5
l-7 -23q-4 -11 -17 -6q-30 11 -64 11q-53 0 -74 -33t-21 -104v-48h131q6 0 8.5 -2t2.5 -8v-27q0 -6 -2.5 -8t-8.5 -2h-131v-418q0 -17 -16 -17h-32q-16 0 -16 17v418h-208v-418q0 -17 -16 -17h-32q-16 0 -16 17z" />
    <glyph glyph-name="f_f_i.liga" unicode="ffi" horiz-adv-x="750" 
d="M89 17v418h-59q-6 0 -8.5 2t-2.5 8v27q0 6 2.5 8t8.5 2h59v2q0 55 3 79q7 67 46 104.5t105 37.5q33 0 65 -11q8 -3 10 -6.5t0 -10.5l-8 -24q-3 -9 -16 -6q-27 8 -50 8q-91 0 -91 -137v-36h208v14q0 90 36 145q50 76 151 76q27 0 56 -4.5t46 -11.5q7 -3 9.5 -6.5t0.5 -9.5
l-7 -23q-1 -6 -6 -7.5t-10 0.5q-39 14 -88 14q-61 0 -91 -40q-33 -43 -33 -132v-15h228q18 0 18 -18v-447q0 -17 -16 -17h-32q-16 0 -16 17v418h-182v-418q0 -17 -16 -17h-32q-16 0 -16 17v418h-208v-418q0 -17 -16 -17h-32q-16 0 -16 17z" />
    <glyph glyph-name="f_f_l.liga" unicode="ffl" horiz-adv-x="768" 
d="M89 17v418h-59q-6 0 -8.5 2t-2.5 8v27q0 6 2.5 8t8.5 2h59v4q0 53 3 77q7 67 46 104.5t105 37.5q33 0 65 -11q8 -3 10 -6.5t0 -10.5l-8 -24q-3 -9 -16 -6q-27 8 -50 8q-91 0 -91 -137v-36h208v14q0 67 7.5 103t31.5 66q20 24 53 38.5t76 14.5q30 0 65.5 -5t57.5 -12l29 7
q2 1 6 1q13 0 13 -16v-676q0 -17 -16 -17h-32q-16 0 -16 17v641q-18 5 -48 8.5t-55 3.5q-59 0 -85 -38q-15 -22 -19 -52.5t-4 -79.5v-18h121q6 0 8.5 -2t2.5 -8v-27q0 -6 -2.5 -8t-8.5 -2h-121v-418q0 -17 -16 -17h-32q-16 0 -16 17v418h-208v-418q0 -17 -16 -17h-32
q-16 0 -16 17z" />
    <glyph glyph-name=".notdef" horiz-adv-x="535" 
d="M20 693h495v-693h-495v693zM436 644h-337l169 -253zM238 347l-168 252v-505zM466 599l-169 -252l169 -253v505zM436 50l-168 252l-169 -252h337z" />
    <glyph glyph-name=".null" horiz-adv-x="0" 
 />
    <glyph glyph-name="nonmarkingreturn" unicode="&#xd;" horiz-adv-x="220" 
 />
    <glyph glyph-name="space" unicode=" " horiz-adv-x="220" 
 />
    <glyph glyph-name="A" unicode="A" horiz-adv-x="584" 
d="M7 8q0 3 2 9l255 660q3 10 13 10h36q8 0 12 -9l249 -662l2 -8q0 -8 -12 -8h-47q-12 0 -15.5 2.5t-7.5 12.5l-75 209h-263l-78 -210q-4 -9 -7.5 -11.5t-13.5 -2.5h-43q-7 0 -7 8zM401 276l-110 310l-116 -310h226z" />
    <glyph glyph-name="Aacute" unicode="&#xc1;" horiz-adv-x="584" 
d="M7 8q0 3 2 9l255 660q3 10 13 10h36q8 0 12 -9l249 -662l2 -8q0 -8 -12 -8h-47q-12 0 -15.5 2.5t-7.5 12.5l-75 209h-263l-78 -210q-4 -9 -7.5 -11.5t-13.5 -2.5h-43q-7 0 -7 8zM401 276l-110 310l-116 -310h226zM217 760l-9 14q-3 6 -3 9q0 7 7 11l147 90q5 4 12 4
t13 -9l17 -27q3 -6 3 -11q0 -7 -9 -12l-158 -74q-6 -2 -8 -2q-8 0 -12 7z" />
    <glyph glyph-name="Abreve" unicode="&#x102;" horiz-adv-x="584" 
d="M7 8q0 3 2 9l255 660q3 10 13 10h36q8 0 12 -9l249 -662l2 -8q0 -8 -12 -8h-47q-12 0 -15.5 2.5t-7.5 12.5l-75 209h-263l-78 -210q-4 -9 -7.5 -11.5t-13.5 -2.5h-43q-7 0 -7 8zM401 276l-110 310l-116 -310h226zM221 776q-22 13 -37.5 35t-15.5 45q0 8 3.5 10t11.5 2h21
q10 0 13.5 -2.5t8.5 -11.5q23 -46 69 -46q49 0 71 46q5 9 8.5 11.5t13.5 2.5h19q8 0 11.5 -2t3.5 -10q0 -24 -16 -46.5t-39 -35.5q-31 -17 -70 -17q-43 0 -76 19z" />
    <glyph glyph-name="uni01CD" unicode="&#x1cd;" horiz-adv-x="584" 
d="M7 8q0 3 2 9l255 660q3 10 13 10h36q8 0 12 -9l249 -662l2 -8q0 -8 -12 -8h-47q-12 0 -15.5 2.5t-7.5 12.5l-75 209h-263l-78 -210q-4 -9 -7.5 -11.5t-13.5 -2.5h-43q-7 0 -7 8zM401 276l-110 310l-116 -310h226zM275 754l-118 107q-6 5 -6 11t4 10l9 10q6 6 11 6
q3 0 9 -4l111 -83l111 83q5 4 10 4q6 0 10 -6l8 -10q5 -7 5 -11q0 -5 -6 -10l-118 -107q-6 -6 -14 -6h-12q-8 0 -14 6z" />
    <glyph glyph-name="Acircumflex" unicode="&#xc2;" horiz-adv-x="584" 
d="M7 8q0 3 2 9l255 660q3 10 13 10h36q8 0 12 -9l249 -662l2 -8q0 -8 -12 -8h-47q-12 0 -15.5 2.5t-7.5 12.5l-75 209h-263l-78 -210q-4 -9 -7.5 -11.5t-13.5 -2.5h-43q-7 0 -7 8zM401 276l-110 310l-116 -310h226zM164 764l-8 10q-5 7 -5 11t6 10l118 107q8 6 14 6h12
q6 0 14 -6l118 -107q6 -4 6 -12q0 -5 -4 -9l-9 -10q-6 -6 -10 -6q-5 0 -10 4l-111 83l-111 -83q-5 -4 -10 -4q-6 0 -10 6z" />
    <glyph glyph-name="Adieresis" unicode="&#xc4;" horiz-adv-x="584" 
d="M7 8q0 3 2 9l255 660q3 10 13 10h36q8 0 12 -9l249 -662l2 -8q0 -8 -12 -8h-47q-12 0 -15.5 2.5t-7.5 12.5l-75 209h-263l-78 -210q-4 -9 -7.5 -11.5t-13.5 -2.5h-43q-7 0 -7 8zM401 276l-110 310l-116 -310h226zM177 791q-15 12 -15 32q0 21 14.5 33t33.5 12t32.5 -12.5
t13.5 -32.5t-14 -32t-32 -12t-33 12zM349 791q-15 12 -15 32q0 21 14.5 33t33.5 12t32.5 -12.5t13.5 -32.5t-14 -32t-32 -12t-33 12z" />
    <glyph glyph-name="Agrave" unicode="&#xc0;" horiz-adv-x="584" 
d="M7 8q0 3 2 9l255 660q3 10 13 10h36q8 0 12 -9l249 -662l2 -8q0 -8 -12 -8h-47q-12 0 -15.5 2.5t-7.5 12.5l-75 209h-263l-78 -210q-4 -9 -7.5 -11.5t-13.5 -2.5h-43q-7 0 -7 8zM401 276l-110 310l-116 -310h226zM362 759l-158 74q-9 5 -9 12q0 5 3 11l17 27q6 9 13 9
t12 -4l147 -90q7 -4 7 -11q0 -3 -3 -9l-9 -14q-4 -7 -12 -7q-2 0 -8 2z" />
    <glyph glyph-name="Amacron" unicode="&#x100;" horiz-adv-x="584" 
d="M7 8q0 3 2 9l255 660q3 10 13 10h36q8 0 12 -9l249 -662l2 -8q0 -8 -12 -8h-47q-12 0 -15.5 2.5t-7.5 12.5l-75 209h-263l-78 -210q-4 -9 -7.5 -11.5t-13.5 -2.5h-43q-7 0 -7 8zM401 276l-110 310l-116 -310h226zM172 784.5q-5 4.5 -5 16.5v17q0 11 5 15.5t21 4.5h200
q18 0 23.5 -4t5.5 -16v-17q0 -12 -5.5 -16.5t-23.5 -4.5h-200q-16 0 -21 4.5z" />
    <glyph glyph-name="Aogonek" unicode="&#x104;" horiz-adv-x="584" 
d="M435.5 -177q-24.5 23 -24.5 55q0 41 25.5 72t62.5 51l-80 223h-263l-78 -210q-4 -9 -7.5 -11.5t-13.5 -2.5h-43q-7 0 -7 7q0 6 2 10l255 660q3 10 13 10h36q8 0 12 -9l249 -662l2 -8q0 -5 -3 -6.5t-9 -2.5q-17 -2 -33.5 -11t-28.5 -21q-19 -19 -25.5 -37.5t-6.5 -40.5
q0 -42 57 -42q10 0 26.5 2.5t27.5 6.5l3 1q9 0 10 -7l4 -14q1 -2 1 -6q0 -11 -12 -15q-16 -6 -39 -10.5t-42 -4.5q-46 0 -70.5 23zM401 276l-110 310l-116 -310h226z" />
    <glyph glyph-name="Aring" unicode="&#xc5;" horiz-adv-x="584" 
d="M7 8q0 3 2 9l255 660q3 10 13 10h36q8 0 12 -9l249 -662l2 -8q0 -8 -12 -8h-47q-12 0 -15.5 2.5t-7.5 12.5l-75 209h-263l-78 -210q-4 -9 -7.5 -11.5t-13.5 -2.5h-43q-7 0 -7 8zM401 276l-110 310l-116 -310h226zM238.5 762.5q-24.5 23.5 -24.5 55.5t24.5 56t56.5 24
q33 0 56.5 -24t23.5 -56t-23.5 -55.5t-56.5 -23.5q-32 0 -56.5 23.5zM317.5 795.5q9.5 9.5 9.5 22.5q0 14 -9.5 23t-22.5 9q-14 0 -23.5 -9.5t-9.5 -22.5t9.5 -22.5t23.5 -9.5q13 0 22.5 9.5z" />
    <glyph glyph-name="Aringacute" unicode="&#x1fa;" horiz-adv-x="584" 
d="M204 870l-9 14q-3 6 -3 9q0 7 7 11l147 90q5 4 12 4t13 -9l17 -27q3 -6 3 -11q0 -7 -9 -12l-158 -74q-6 -2 -8 -2q-8 0 -12 7zM235.5 730.5q-24.5 23.5 -24.5 55.5t24.5 56t56.5 24q33 0 56.5 -24t23.5 -56t-23.5 -55.5t-56.5 -23.5q-32 0 -56.5 23.5zM315 763.5
q9 9.5 9 22.5q0 14 -9 23t-23 9t-23.5 -9.5t-9.5 -22.5t9.5 -22.5t23.5 -9.5t23 9.5zM7 8q0 3 2 9l255 660q3 10 13 10h36q8 0 12 -9l249 -662l2 -8q0 -8 -12 -8h-47q-12 0 -15.5 2.5t-7.5 12.5l-75 209h-263l-78 -210q-4 -9 -7.5 -11.5t-13.5 -2.5h-43q-7 0 -7 8zM401 276
l-110 310l-116 -310h226z" />
    <glyph glyph-name="Atilde" unicode="&#xc3;" horiz-adv-x="584" 
d="M7 8q0 3 2 9l255 660q3 10 13 10h36q8 0 12 -9l249 -662l2 -8q0 -8 -12 -8h-47q-12 0 -15.5 2.5t-7.5 12.5l-75 209h-263l-78 -210q-4 -9 -7.5 -11.5t-13.5 -2.5h-43q-7 0 -7 8zM401 276l-110 310l-116 -310h226zM316 776.5q-12 4.5 -29 13.5q-30 17 -49 17
q-16 0 -29.5 -6t-33.5 -18q-11 -6 -16 -6q-7 0 -11 10l-8 18q-4 10 -4 11q0 7 14 16q52 32 90 32q24 0 64 -20q32 -15 45 -15q14 0 28 6.5t34 20.5q9 5 15 5q9 0 14 -9l8 -11q5 -8 5 -12q0 -8 -8 -14q-56 -43 -104 -43q-13 0 -25 4.5z" />
    <glyph glyph-name="AE" unicode="&#xc6;" horiz-adv-x="850" 
d="M8.5 2q-2.5 2 -2.5 6q0 3 3 9l431 656q10 14 27 14h324q8 0 11 -2.5t3 -9.5v-4l-3 -25q-1 -8 -6 -10.5t-17 -2.5h-271v-242h239q9 0 13 -3.5t4 -11.5v-24q0 -9 -3.5 -12t-12.5 -3h-240v-283h282q10 0 13.5 -2.5t3.5 -10.5v-27q0 -8 -3.5 -11t-13.5 -3h-333
q-11 0 -14.5 3.5t-3.5 14.5v207h-225l-138 -211q-6 -9 -9 -11.5t-12 -2.5h-41q-3 0 -5.5 2zM439 277v299l-195 -299h195z" />
    <glyph glyph-name="AEacute" unicode="&#x1fc;" horiz-adv-x="850" 
d="M8.5 2q-2.5 2 -2.5 6q0 3 3 9l431 656q10 14 27 14h324q8 0 11 -2.5t3 -9.5v-4l-3 -25q-1 -8 -6 -10.5t-17 -2.5h-271v-242h239q9 0 13 -3.5t4 -11.5v-24q0 -9 -3.5 -12t-12.5 -3h-240v-283h282q10 0 13.5 -2.5t3.5 -10.5v-27q0 -8 -3.5 -11t-13.5 -3h-333
q-11 0 -14.5 3.5t-3.5 14.5v207h-225l-138 -211q-6 -9 -9 -11.5t-12 -2.5h-41q-3 0 -5.5 2zM439 277v299l-195 -299h195zM564 760l-9 14q-3 6 -3 9q0 7 7 11l147 90q5 4 12 4t13 -9l17 -27q3 -6 3 -11q0 -7 -9 -12l-158 -74q-6 -2 -8 -2q-8 0 -12 7z" />
    <glyph glyph-name="B" unicode="B" horiz-adv-x="549" 
d="M80.5 3q-3.5 3 -3.5 14v651q0 11 4.5 15t18.5 4h126q103 0 163.5 -39.5t60.5 -127.5q0 -57 -33 -99.5t-92 -54.5v-1q76 -2 126.5 -48t50.5 -122q0 -107 -68 -151t-184 -44h-155q-11 0 -14.5 3zM224 387q67 0 111.5 27.5t44.5 104.5q0 66 -44 90t-120 24h-69v-246h77z
M242 54q90 0 139 31.5t49 108.5q0 139 -188 139h-95v-279h95z" />
    <glyph glyph-name="C" unicode="C" horiz-adv-x="579" 
d="M186.5 38.5q-68.5 47.5 -102 128t-33.5 177.5q0 93 36.5 174t106.5 130.5t166 49.5q105 0 180 -46q11 -6 11 -13q0 -4 -3 -9l-13 -24q-5 -8 -10 -8q-4 0 -9 3q-68 42 -151 42q-50 0 -94.5 -21t-75.5 -59q-35 -43 -51.5 -98.5t-16.5 -115.5q0 -79 24.5 -148t78 -112.5
t134.5 -43.5q39 0 83.5 10.5t78.5 28.5q5 3 10 3q6 0 9 -8l9 -21q2 -3 2 -9q0 -8 -12 -14q-87 -44 -189 -44q-100 0 -168.5 47.5z" />
    <glyph glyph-name="Cacute" unicode="&#x106;" horiz-adv-x="579" 
d="M186.5 38.5q-68.5 47.5 -102 128t-33.5 177.5q0 93 36.5 174t106.5 130.5t166 49.5q105 0 180 -46q11 -6 11 -13q0 -4 -3 -9l-13 -24q-5 -8 -10 -8q-4 0 -9 3q-68 42 -151 42q-50 0 -94.5 -21t-75.5 -59q-35 -43 -51.5 -98.5t-16.5 -115.5q0 -79 24.5 -148t78 -112.5
t134.5 -43.5q39 0 83.5 10.5t78.5 28.5q5 3 10 3q6 0 9 -8l9 -21q2 -3 2 -9q0 -8 -12 -14q-87 -44 -189 -44q-100 0 -168.5 47.5zM282 760l-9 14q-3 6 -3 9q0 7 7 11l147 90q5 4 12 4t13 -9l17 -27q3 -6 3 -11q0 -7 -9 -12l-158 -74q-6 -2 -8 -2q-8 0 -12 7z" />
    <glyph glyph-name="Ccaron" unicode="&#x10c;" horiz-adv-x="579" 
d="M186.5 38.5q-68.5 47.5 -102 128t-33.5 177.5q0 93 36.5 174t106.5 130.5t166 49.5q105 0 180 -46q11 -6 11 -13q0 -4 -3 -9l-13 -24q-5 -8 -10 -8q-4 0 -9 3q-68 42 -151 42q-50 0 -94.5 -21t-75.5 -59q-35 -43 -51.5 -98.5t-16.5 -115.5q0 -79 24.5 -148t78 -112.5
t134.5 -43.5q39 0 83.5 10.5t78.5 28.5q5 3 10 3q6 0 9 -8l9 -21q2 -3 2 -9q0 -8 -12 -14q-87 -44 -189 -44q-100 0 -168.5 47.5zM340 754l-118 107q-6 5 -6 11t4 10l9 10q6 6 11 6q3 0 9 -4l111 -83l111 83q5 4 10 4q6 0 10 -6l8 -10q5 -7 5 -11q0 -5 -6 -10l-118 -107
q-6 -6 -14 -6h-12q-8 0 -14 6z" />
    <glyph glyph-name="Ccedilla" unicode="&#xc7;" horiz-adv-x="579" 
d="M556 49q0 -8 -12 -14q-87 -44 -189 -44h-10l-2 -41h8q36 0 61.5 -16.5t25.5 -54.5q0 -33 -23 -55t-69 -22q-18 0 -31 2.5t-30 9.5q-14 6 -14 12q0 3 1 5l4 12q3 8 8 8l9 -2q12 -4 27.5 -7t25.5 -3q17 0 30.5 9t14.5 26v4q0 17 -13.5 26.5t-39.5 9.5h-16q-14 0 -19.5 6
t-5.5 17q0 9 1 14l4 44q-83 12 -139.5 61.5t-84 124.5t-27.5 163q0 93 36.5 174t106.5 130.5t166 49.5q105 0 180 -46q11 -6 11 -13q0 -4 -3 -9l-13 -24q-5 -8 -10 -8q-4 0 -9 3q-68 42 -151 42q-50 0 -94.5 -21t-75.5 -59q-35 -43 -51.5 -98.5t-16.5 -115.5
q0 -79 24.5 -148t78 -112.5t134.5 -43.5q39 0 83.5 10.5t78.5 28.5q5 3 10 3q6 0 9 -8l9 -21q2 -3 2 -9z" />
    <glyph glyph-name="Ccircumflex" unicode="&#x108;" horiz-adv-x="579" 
d="M186.5 38.5q-68.5 47.5 -102 128t-33.5 177.5q0 93 36.5 174t106.5 130.5t166 49.5q105 0 180 -46q11 -6 11 -13q0 -4 -3 -9l-13 -24q-5 -8 -10 -8q-4 0 -9 3q-68 42 -151 42q-50 0 -94.5 -21t-75.5 -59q-35 -43 -51.5 -98.5t-16.5 -115.5q0 -79 24.5 -148t78 -112.5
t134.5 -43.5q39 0 83.5 10.5t78.5 28.5q5 3 10 3q6 0 9 -8l9 -21q2 -3 2 -9q0 -8 -12 -14q-87 -44 -189 -44q-100 0 -168.5 47.5zM229 764l-8 10q-5 7 -5 11t6 10l118 107q8 6 14 6h12q6 0 14 -6l118 -107q6 -4 6 -12q0 -5 -4 -9l-9 -10q-6 -6 -10 -6q-5 0 -10 4l-111 83
l-111 -83q-5 -4 -10 -4q-6 0 -10 6z" />
    <glyph glyph-name="Cdotaccent" unicode="&#x10a;" horiz-adv-x="579" 
d="M186.5 38.5q-68.5 47.5 -102 128t-33.5 177.5q0 93 36.5 174t106.5 130.5t166 49.5q105 0 180 -46q11 -6 11 -13q0 -4 -3 -9l-13 -24q-5 -8 -10 -8q-4 0 -9 3q-68 42 -151 42q-50 0 -94.5 -21t-75.5 -59q-35 -43 -51.5 -98.5t-16.5 -115.5q0 -79 24.5 -148t78 -112.5
t134.5 -43.5q39 0 83.5 10.5t78.5 28.5q5 3 10 3q6 0 9 -8l9 -21q2 -3 2 -9q0 -8 -12 -14q-87 -44 -189 -44q-100 0 -168.5 47.5zM316 793.5q-20 16.5 -20 43.5q0 28 19.5 44.5t45.5 16.5q25 0 44 -16.5t19 -43.5t-19.5 -44t-43.5 -17q-25 0 -45 16.5z" />
    <glyph glyph-name="D" unicode="D" horiz-adv-x="653" 
d="M81.5 4.5q-4.5 4.5 -4.5 16.5v639q0 15 6.5 21t21.5 6h112q104 0 156.5 -10t97.5 -39q63 -41 98 -119t35 -180q0 -84 -25.5 -153t-73.5 -114q-76 -72 -245 -72h-160q-14 0 -18.5 4.5zM236 54q82 0 131 11.5t83 46.5q79 79 79 228q0 77 -23 141t-66 100q-36 29 -82 40.5
t-106 11.5h-105v-579h89z" />
    <glyph glyph-name="Eth" unicode="&#xd0;" horiz-adv-x="655" 
d="M83.5 4.5q-4.5 4.5 -4.5 16.5v284h-59q-12 0 -16 3t-4 12v26q0 9 3.5 12t13.5 3h62v299q0 15 6.5 21t21.5 6h112q104 0 156.5 -10t97.5 -39q63 -41 98 -119t35 -180q0 -84 -25.5 -153t-73.5 -114q-76 -72 -245 -72h-160q-14 0 -18.5 4.5zM238 54q82 0 131 11.5t83 46.5
q79 79 79 228q0 77 -23 141t-66 100q-36 29 -82 40.5t-106 11.5h-105v-272h112q13 0 16.5 -3t3.5 -14v-20q0 -11 -3.5 -15t-13.5 -4h-115v-251h89z" />
    <glyph glyph-name="Dcaron" unicode="&#x10e;" horiz-adv-x="653" 
d="M81.5 4.5q-4.5 4.5 -4.5 16.5v639q0 15 6.5 21t21.5 6h112q104 0 156.5 -10t97.5 -39q63 -41 98 -119t35 -180q0 -84 -25.5 -153t-73.5 -114q-76 -72 -245 -72h-160q-14 0 -18.5 4.5zM236 54q82 0 131 11.5t83 46.5q79 79 79 228q0 77 -23 141t-66 100q-36 29 -82 40.5
t-106 11.5h-105v-579h89zM307 754l-118 107q-6 5 -6 11t4 10l9 10q6 6 11 6q3 0 9 -4l111 -83l111 83q5 4 10 4q6 0 10 -6l8 -10q5 -7 5 -11q0 -5 -6 -10l-118 -107q-6 -6 -14 -6h-12q-8 0 -14 6z" />
    <glyph glyph-name="Dcroat" unicode="&#x110;" horiz-adv-x="655" 
d="M83.5 4.5q-4.5 4.5 -4.5 16.5v284h-59q-12 0 -16 3t-4 12v26q0 9 3.5 12t13.5 3h62v299q0 15 6.5 21t21.5 6h112q104 0 156.5 -10t97.5 -39q63 -41 98 -119t35 -180q0 -84 -25.5 -153t-73.5 -114q-76 -72 -245 -72h-160q-14 0 -18.5 4.5zM238 54q82 0 131 11.5t83 46.5
q79 79 79 228q0 77 -23 141t-66 100q-36 29 -82 40.5t-106 11.5h-105v-272h112q13 0 16.5 -3t3.5 -14v-20q0 -11 -3.5 -15t-13.5 -4h-115v-251h89z" />
    <glyph glyph-name="E" unicode="E" horiz-adv-x="489" 
d="M80.5 3.5q-3.5 3.5 -3.5 14.5v652q0 10 3.5 13.5t13.5 3.5h335q9 0 12 -3.5t2 -12.5l-3 -25q-1 -8 -6 -10.5t-17 -2.5h-270v-242h238q9 0 13 -3.5t4 -11.5v-24q0 -9 -3.5 -12t-12.5 -3h-239v-283h281q10 0 14 -2.5t4 -10.5v-27q0 -8 -3.5 -11t-13.5 -3h-334
q-11 0 -14.5 3.5z" />
    <glyph glyph-name="Eacute" unicode="&#xc9;" horiz-adv-x="489" 
d="M80.5 3.5q-3.5 3.5 -3.5 14.5v652q0 10 3.5 13.5t13.5 3.5h335q9 0 12 -3.5t2 -12.5l-3 -25q-1 -8 -6 -10.5t-17 -2.5h-270v-242h238q9 0 13 -3.5t4 -11.5v-24q0 -9 -3.5 -12t-12.5 -3h-239v-283h281q10 0 14 -2.5t4 -10.5v-27q0 -8 -3.5 -11t-13.5 -3h-334
q-11 0 -14.5 3.5zM188 760l-9 14q-3 6 -3 9q0 7 7 11l147 90q5 4 12 4t13 -9l17 -27q3 -6 3 -11q0 -7 -9 -12l-158 -74q-6 -2 -8 -2q-8 0 -12 7z" />
    <glyph glyph-name="Ebreve" unicode="&#x114;" horiz-adv-x="489" 
d="M80.5 3.5q-3.5 3.5 -3.5 14.5v652q0 10 3.5 13.5t13.5 3.5h335q9 0 12 -3.5t2 -12.5l-3 -25q-1 -8 -6 -10.5t-17 -2.5h-270v-242h238q9 0 13 -3.5t4 -11.5v-24q0 -9 -3.5 -12t-12.5 -3h-239v-283h281q10 0 14 -2.5t4 -10.5v-27q0 -8 -3.5 -11t-13.5 -3h-334
q-11 0 -14.5 3.5zM192 776q-22 13 -37.5 35t-15.5 45q0 8 3.5 10t11.5 2h21q10 0 13.5 -2.5t8.5 -11.5q23 -46 69 -46q49 0 71 46q5 9 8.5 11.5t13.5 2.5h19q8 0 11.5 -2t3.5 -10q0 -24 -16 -46.5t-39 -35.5q-31 -17 -70 -17q-43 0 -76 19z" />
    <glyph glyph-name="Ecaron" unicode="&#x11a;" horiz-adv-x="489" 
d="M80.5 3.5q-3.5 3.5 -3.5 14.5v652q0 10 3.5 13.5t13.5 3.5h335q9 0 12 -3.5t2 -12.5l-3 -25q-1 -8 -6 -10.5t-17 -2.5h-270v-242h238q9 0 13 -3.5t4 -11.5v-24q0 -9 -3.5 -12t-12.5 -3h-239v-283h281q10 0 14 -2.5t4 -10.5v-27q0 -8 -3.5 -11t-13.5 -3h-334
q-11 0 -14.5 3.5zM246 754l-118 107q-6 5 -6 11t4 10l9 10q6 6 11 6q3 0 9 -4l111 -83l111 83q5 4 10 4q6 0 10 -6l8 -10q5 -7 5 -11q0 -5 -6 -10l-118 -107q-6 -6 -14 -6h-12q-8 0 -14 6z" />
    <glyph glyph-name="Ecircumflex" unicode="&#xca;" horiz-adv-x="489" 
d="M80.5 3.5q-3.5 3.5 -3.5 14.5v652q0 10 3.5 13.5t13.5 3.5h335q9 0 12 -3.5t2 -12.5l-3 -25q-1 -8 -6 -10.5t-17 -2.5h-270v-242h238q9 0 13 -3.5t4 -11.5v-24q0 -9 -3.5 -12t-12.5 -3h-239v-283h281q10 0 14 -2.5t4 -10.5v-27q0 -8 -3.5 -11t-13.5 -3h-334
q-11 0 -14.5 3.5zM135 764l-8 10q-5 7 -5 11t6 10l118 107q8 6 14 6h12q6 0 14 -6l118 -107q6 -4 6 -12q0 -5 -4 -9l-9 -10q-6 -6 -10 -6q-5 0 -10 4l-111 83l-111 -83q-5 -4 -10 -4q-6 0 -10 6z" />
    <glyph glyph-name="Edieresis" unicode="&#xcb;" horiz-adv-x="489" 
d="M80.5 3.5q-3.5 3.5 -3.5 14.5v652q0 10 3.5 13.5t13.5 3.5h335q9 0 12 -3.5t2 -12.5l-3 -25q-1 -8 -6 -10.5t-17 -2.5h-270v-242h238q9 0 13 -3.5t4 -11.5v-24q0 -9 -3.5 -12t-12.5 -3h-239v-283h281q10 0 14 -2.5t4 -10.5v-27q0 -8 -3.5 -11t-13.5 -3h-334
q-11 0 -14.5 3.5zM148 791q-15 12 -15 32q0 21 14.5 33t33.5 12t32.5 -12.5t13.5 -32.5t-14 -32t-32 -12t-33 12zM320 791q-15 12 -15 32q0 21 14.5 33t33.5 12t32.5 -12.5t13.5 -32.5t-14 -32t-32 -12t-33 12z" />
    <glyph glyph-name="Edotaccent" unicode="&#x116;" horiz-adv-x="489" 
d="M80.5 3.5q-3.5 3.5 -3.5 14.5v652q0 10 3.5 13.5t13.5 3.5h335q9 0 12 -3.5t2 -12.5l-3 -25q-1 -8 -6 -10.5t-17 -2.5h-270v-242h238q9 0 13 -3.5t4 -11.5v-24q0 -9 -3.5 -12t-12.5 -3h-239v-283h281q10 0 14 -2.5t4 -10.5v-27q0 -8 -3.5 -11t-13.5 -3h-334
q-11 0 -14.5 3.5zM222 793.5q-20 16.5 -20 43.5q0 28 19.5 44.5t45.5 16.5q25 0 44 -16.5t19 -43.5t-19.5 -44t-43.5 -17q-25 0 -45 16.5z" />
    <glyph glyph-name="Egrave" unicode="&#xc8;" horiz-adv-x="489" 
d="M80.5 3.5q-3.5 3.5 -3.5 14.5v652q0 10 3.5 13.5t13.5 3.5h335q9 0 12 -3.5t2 -12.5l-3 -25q-1 -8 -6 -10.5t-17 -2.5h-270v-242h238q9 0 13 -3.5t4 -11.5v-24q0 -9 -3.5 -12t-12.5 -3h-239v-283h281q10 0 14 -2.5t4 -10.5v-27q0 -8 -3.5 -11t-13.5 -3h-334
q-11 0 -14.5 3.5zM333 759l-158 74q-9 5 -9 12q0 5 3 11l17 27q6 9 13 9t12 -4l147 -90q7 -4 7 -11q0 -3 -3 -9l-9 -14q-4 -7 -12 -7q-2 0 -8 2z" />
    <glyph glyph-name="Emacron" unicode="&#x112;" horiz-adv-x="489" 
d="M80.5 3.5q-3.5 3.5 -3.5 14.5v652q0 10 3.5 13.5t13.5 3.5h335q9 0 12 -3.5t2 -12.5l-3 -25q-1 -8 -6 -10.5t-17 -2.5h-270v-242h238q9 0 13 -3.5t4 -11.5v-24q0 -9 -3.5 -12t-12.5 -3h-239v-283h281q10 0 14 -2.5t4 -10.5v-27q0 -8 -3.5 -11t-13.5 -3h-334
q-11 0 -14.5 3.5zM143 784.5q-5 4.5 -5 16.5v17q0 11 5 15.5t21 4.5h200q18 0 23.5 -4t5.5 -16v-17q0 -12 -5.5 -16.5t-23.5 -4.5h-200q-16 0 -21 4.5z" />
    <glyph glyph-name="Eogonek" unicode="&#x118;" horiz-adv-x="489" 
d="M230.5 -177q-24.5 23 -24.5 55q0 73 96 122h-207q-11 0 -14.5 3.5t-3.5 14.5v652q0 10 3.5 13.5t13.5 3.5h335q9 0 12 -3.5t2 -12.5l-3 -25q-1 -8 -6 -10.5t-17 -2.5h-270v-242h238q9 0 13 -3.5t4 -11.5v-24q0 -9 -3.5 -12t-12.5 -3h-239v-283h281q10 0 14 -2.5t4 -10.5
v-27q0 -8 -3.5 -11t-13.5 -3h-73q-48 -36 -68.5 -61.5t-20.5 -49.5q0 -42 55 -42q10 0 26.5 2.5t27.5 6.5l3 1q9 0 10 -7l4 -14q1 -2 1 -6q0 -11 -12 -15q-16 -6 -39 -10.5t-42 -4.5q-46 0 -70.5 23z" />
    <glyph glyph-name="F" unicode="F" horiz-adv-x="480" 
d="M80 3.5q-3 3.5 -3 15.5v651q0 10 3.5 13.5t13.5 3.5h335q8 0 11.5 -3.5t2.5 -12.5l-3 -25q-1 -8 -6 -10.5t-17 -2.5h-270v-242h238q9 0 13 -3.5t4 -11.5v-24q0 -9 -3.5 -12t-12.5 -3h-239v-318q0 -12 -3 -15.5t-14 -3.5h-36q-11 0 -14 3.5z" />
    <glyph glyph-name="G" unicode="G" horiz-adv-x="642" 
d="M130 86.5q-79 95.5 -79 257.5q0 101 39 181.5t114.5 126.5t179.5 46q35 0 78 -8t77 -22q11 -4 11 -9q0 -1 -2 -9l-8 -28q-2 -6 -4 -8t-6 -2l-9 2q-29 12 -69 19.5t-68 7.5q-85 0 -143 -40.5t-86.5 -107.5t-28.5 -148q0 -79 24 -147.5t77.5 -111.5t136.5 -43q80 0 136 30
v264h-115q-10 0 -13 2.5t-3 13.5v25q0 8 3 10.5t12 2.5h169q10 0 13 -3t3 -14v-300q0 -18 -3 -24t-17 -14q-34 -20 -84.5 -32.5t-94.5 -12.5q-161 0 -240 95.5z" />
    <glyph glyph-name="Gbreve" unicode="&#x11e;" horiz-adv-x="642" 
d="M130 86.5q-79 95.5 -79 257.5q0 101 39 181.5t114.5 126.5t179.5 46q35 0 78 -8t77 -22q11 -4 11 -9q0 -1 -2 -9l-8 -28q-2 -6 -4 -8t-6 -2l-9 2q-29 12 -69 19.5t-68 7.5q-85 0 -143 -40.5t-86.5 -107.5t-28.5 -148q0 -79 24 -147.5t77.5 -111.5t136.5 -43q80 0 136 30
v264h-115q-10 0 -13 2.5t-3 13.5v25q0 8 3 10.5t12 2.5h169q10 0 13 -3t3 -14v-300q0 -18 -3 -24t-17 -14q-34 -20 -84.5 -32.5t-94.5 -12.5q-161 0 -240 95.5zM281 776q-22 13 -37.5 35t-15.5 45q0 8 3.5 10t11.5 2h21q10 0 13.5 -2.5t8.5 -11.5q23 -46 69 -46q49 0 71 46
q5 9 8.5 11.5t13.5 2.5h19q8 0 11.5 -2t3.5 -10q0 -24 -16 -46.5t-39 -35.5q-31 -17 -70 -17q-43 0 -76 19z" />
    <glyph glyph-name="Gcircumflex" unicode="&#x11c;" horiz-adv-x="642" 
d="M130 86.5q-79 95.5 -79 257.5q0 101 39 181.5t114.5 126.5t179.5 46q35 0 78 -8t77 -22q11 -4 11 -9q0 -1 -2 -9l-8 -28q-2 -6 -4 -8t-6 -2l-9 2q-29 12 -69 19.5t-68 7.5q-85 0 -143 -40.5t-86.5 -107.5t-28.5 -148q0 -79 24 -147.5t77.5 -111.5t136.5 -43q80 0 136 30
v264h-115q-10 0 -13 2.5t-3 13.5v25q0 8 3 10.5t12 2.5h169q10 0 13 -3t3 -14v-300q0 -18 -3 -24t-17 -14q-34 -20 -84.5 -32.5t-94.5 -12.5q-161 0 -240 95.5zM224 764l-8 10q-5 7 -5 11t6 10l118 107q8 6 14 6h12q6 0 14 -6l118 -107q6 -4 6 -12q0 -5 -4 -9l-9 -10
q-6 -6 -10 -6q-5 0 -10 4l-111 83l-111 -83q-5 -4 -10 -4q-6 0 -10 6z" />
    <glyph glyph-name="Gcommaaccent" unicode="&#x122;" horiz-adv-x="642" 
d="M130 86.5q-79 95.5 -79 257.5q0 101 39 181.5t114.5 126.5t179.5 46q35 0 78 -8t77 -22q11 -4 11 -9q0 -1 -2 -9l-8 -28q-2 -6 -4 -8t-6 -2l-9 2q-29 12 -69 19.5t-68 7.5q-85 0 -143 -40.5t-86.5 -107.5t-28.5 -148q0 -79 24 -147.5t77.5 -111.5t136.5 -43q80 0 136 30
v264h-115q-10 0 -13 2.5t-3 13.5v25q0 8 3 10.5t12 2.5h169q10 0 13 -3t3 -14v-300q0 -18 -3 -24t-17 -14q-34 -20 -84.5 -32.5t-94.5 -12.5q-161 0 -240 95.5zM327 -193l-4 4q-3 3 -3 7q0 2 4 6q25 25 25 50q0 10 -12 24q-5 6 -8.5 12.5t-3.5 13.5q0 16 10.5 26t26.5 10
q17 0 28 -14t11 -32q0 -30 -16.5 -61t-40.5 -47q-5 -4 -9 -4q-6 0 -8 5z" />
    <glyph glyph-name="Gdotaccent" unicode="&#x120;" horiz-adv-x="642" 
d="M130 86.5q-79 95.5 -79 257.5q0 101 39 181.5t114.5 126.5t179.5 46q35 0 78 -8t77 -22q11 -4 11 -9q0 -1 -2 -9l-8 -28q-2 -6 -4 -8t-6 -2l-9 2q-29 12 -69 19.5t-68 7.5q-85 0 -143 -40.5t-86.5 -107.5t-28.5 -148q0 -79 24 -147.5t77.5 -111.5t136.5 -43q80 0 136 30
v264h-115q-10 0 -13 2.5t-3 13.5v25q0 8 3 10.5t12 2.5h169q10 0 13 -3t3 -14v-300q0 -18 -3 -24t-17 -14q-34 -20 -84.5 -32.5t-94.5 -12.5q-161 0 -240 95.5zM311 793.5q-20 16.5 -20 43.5q0 28 19.5 44.5t45.5 16.5q25 0 44 -16.5t19 -43.5t-19.5 -44t-43.5 -17
q-25 0 -45 16.5z" />
    <glyph glyph-name="H" unicode="H" horiz-adv-x="639" 
d="M77 18v651q0 18 16 18h38q16 0 16 -18v-278h346v278q0 18 16 18h38q15 0 15 -18v-651q0 -18 -15 -18h-38q-16 0 -16 18v319h-346v-319q0 -18 -16 -18h-38q-16 0 -16 18z" />
    <glyph glyph-name="Hbar" unicode="&#x126;" horiz-adv-x="639" 
d="M77 18v496h-40q-12 0 -16 3t-4 12v26q0 9 3.5 12t13.5 3h43v99q0 18 16 18h38q16 0 16 -18v-99h346v99q0 18 16 18h38q15 0 15 -18v-99h45q13 0 16.5 -3t3.5 -14v-20q0 -11 -3.5 -15t-13.5 -4h-48v-496q0 -18 -15 -18h-38q-16 0 -16 18v319h-346v-319q0 -18 -16 -18h-38
q-16 0 -16 18zM493 391v123h-346v-123h346z" />
    <glyph glyph-name="Hcircumflex" unicode="&#x124;" horiz-adv-x="639" 
d="M77 18v651q0 18 16 18h38q16 0 16 -18v-278h346v278q0 18 16 18h38q15 0 15 -18v-651q0 -18 -15 -18h-38q-16 0 -16 18v319h-346v-319q0 -18 -16 -18h-38q-16 0 -16 18zM189 764l-8 10q-5 7 -5 11t6 10l118 107q8 6 14 6h12q6 0 14 -6l118 -107q6 -4 6 -12q0 -5 -4 -9
l-9 -10q-6 -6 -10 -6q-5 0 -10 4l-111 83l-111 -83q-5 -4 -10 -4q-6 0 -10 6z" />
    <glyph glyph-name="I" unicode="I" horiz-adv-x="349" 
d="M65.5 2.5q-2.5 2.5 -2.5 9.5v28q0 6 2 8t10 2h64v588h-67q-8 0 -10 2t-2 9v26q0 7 2 9.5t9 2.5h199q9 0 11.5 -2.5t2.5 -8.5v-25q0 -9 -2 -11t-12 -2h-64v-588h64q8 0 11 -2.5t3 -8.5v-25q0 -9 -2 -11.5t-9 -2.5h-198q-7 0 -9.5 2.5z" />
    <glyph glyph-name="IJ" unicode="&#x132;" horiz-adv-x="712" 
d="M65.5 2.5q-2.5 2.5 -2.5 9.5v28q0 6 2 8t10 2h64v588h-67q-8 0 -10 2t-2 9v26q0 7 2 9.5t9 2.5h199q9 0 11.5 -2.5t2.5 -8.5v-25q0 -9 -2 -11t-12 -2h-64v-588h64q8 0 11 -2.5t3 -8.5v-25q0 -9 -2 -11.5t-9 -2.5h-198q-7 0 -9.5 2.5zM428.5 -7q-17.5 2 -26.5 5q-7 2 -8 5
t0 10l6 32q1 8 4 9t10 -1q25 -5 48 -5q28 0 51 9.5t33 26.5q19 34 19 124v430h-111q-11 0 -14 2.5t-3 11.5v23q0 7 3.5 9.5t14.5 2.5h162q16 0 16 -17v-438q0 -78 -10 -126t-42 -77q-43 -38 -124 -38q-11 0 -28.5 2z" />
    <glyph glyph-name="Iacute" unicode="&#xcd;" horiz-adv-x="349" 
d="M65.5 2.5q-2.5 2.5 -2.5 9.5v28q0 6 2 8t10 2h64v588h-67q-8 0 -10 2t-2 9v26q0 7 2 9.5t9 2.5h199q9 0 11.5 -2.5t2.5 -8.5v-25q0 -9 -2 -11t-12 -2h-64v-588h64q8 0 11 -2.5t3 -8.5v-25q0 -9 -2 -11.5t-9 -2.5h-198q-7 0 -9.5 2.5zM97 760l-9 14q-3 6 -3 9q0 7 7 11
l147 90q5 4 12 4t13 -9l17 -27q3 -6 3 -11q0 -7 -9 -12l-158 -74q-6 -2 -8 -2q-8 0 -12 7z" />
    <glyph glyph-name="Ibreve" unicode="&#x12c;" horiz-adv-x="349" 
d="M65.5 2.5q-2.5 2.5 -2.5 9.5v28q0 6 2 8t10 2h64v588h-67q-8 0 -10 2t-2 9v26q0 7 2 9.5t9 2.5h199q9 0 11.5 -2.5t2.5 -8.5v-25q0 -9 -2 -11t-12 -2h-64v-588h64q8 0 11 -2.5t3 -8.5v-25q0 -9 -2 -11.5t-9 -2.5h-198q-7 0 -9.5 2.5zM101 776q-22 13 -37.5 35t-15.5 45
q0 8 3.5 10t11.5 2h21q10 0 13.5 -2.5t8.5 -11.5q23 -46 69 -46q49 0 71 46q5 9 8.5 11.5t13.5 2.5h19q8 0 11.5 -2t3.5 -10q0 -24 -16 -46.5t-39 -35.5q-31 -17 -70 -17q-43 0 -76 19z" />
    <glyph glyph-name="Icircumflex" unicode="&#xce;" horiz-adv-x="349" 
d="M65.5 2.5q-2.5 2.5 -2.5 9.5v28q0 6 2 8t10 2h64v588h-67q-8 0 -10 2t-2 9v26q0 7 2 9.5t9 2.5h199q9 0 11.5 -2.5t2.5 -8.5v-25q0 -9 -2 -11t-12 -2h-64v-588h64q8 0 11 -2.5t3 -8.5v-25q0 -9 -2 -11.5t-9 -2.5h-198q-7 0 -9.5 2.5zM44 764l-8 10q-5 7 -5 11t6 10
l118 107q8 6 14 6h12q6 0 14 -6l118 -107q6 -4 6 -12q0 -5 -4 -9l-9 -10q-6 -6 -10 -6q-5 0 -10 4l-111 83l-111 -83q-5 -4 -10 -4q-6 0 -10 6z" />
    <glyph glyph-name="Idieresis" unicode="&#xcf;" horiz-adv-x="349" 
d="M65.5 2.5q-2.5 2.5 -2.5 9.5v28q0 6 2 8t10 2h64v588h-67q-8 0 -10 2t-2 9v26q0 7 2 9.5t9 2.5h199q9 0 11.5 -2.5t2.5 -8.5v-25q0 -9 -2 -11t-12 -2h-64v-588h64q8 0 11 -2.5t3 -8.5v-25q0 -9 -2 -11.5t-9 -2.5h-198q-7 0 -9.5 2.5zM57 791q-15 12 -15 32q0 21 14.5 33
t33.5 12t32.5 -12.5t13.5 -32.5t-14 -32t-32 -12t-33 12zM229 791q-15 12 -15 32q0 21 14.5 33t33.5 12t32.5 -12.5t13.5 -32.5t-14 -32t-32 -12t-33 12z" />
    <glyph glyph-name="Idotaccent" unicode="&#x130;" horiz-adv-x="349" 
d="M65.5 2.5q-2.5 2.5 -2.5 9.5v28q0 6 2 8t10 2h64v588h-67q-8 0 -10 2t-2 9v26q0 7 2 9.5t9 2.5h199q9 0 11.5 -2.5t2.5 -8.5v-25q0 -9 -2 -11t-12 -2h-64v-588h64q8 0 11 -2.5t3 -8.5v-25q0 -9 -2 -11.5t-9 -2.5h-198q-7 0 -9.5 2.5zM131 793.5q-20 16.5 -20 43.5
q0 28 19.5 44.5t45.5 16.5q25 0 44 -16.5t19 -43.5t-19.5 -44t-43.5 -17q-25 0 -45 16.5z" />
    <glyph glyph-name="Igrave" unicode="&#xcc;" horiz-adv-x="349" 
d="M65.5 2.5q-2.5 2.5 -2.5 9.5v28q0 6 2 8t10 2h64v588h-67q-8 0 -10 2t-2 9v26q0 7 2 9.5t9 2.5h199q9 0 11.5 -2.5t2.5 -8.5v-25q0 -9 -2 -11t-12 -2h-64v-588h64q8 0 11 -2.5t3 -8.5v-25q0 -9 -2 -11.5t-9 -2.5h-198q-7 0 -9.5 2.5zM242 759l-158 74q-9 5 -9 12
q0 5 3 11l17 27q6 9 13 9t12 -4l147 -90q7 -4 7 -11q0 -3 -3 -9l-9 -14q-4 -7 -12 -7q-2 0 -8 2z" />
    <glyph glyph-name="Imacron" unicode="&#x12a;" horiz-adv-x="349" 
d="M65.5 2.5q-2.5 2.5 -2.5 9.5v28q0 6 2 8t10 2h64v588h-67q-8 0 -10 2t-2 9v26q0 7 2 9.5t9 2.5h199q9 0 11.5 -2.5t2.5 -8.5v-25q0 -9 -2 -11t-12 -2h-64v-588h64q8 0 11 -2.5t3 -8.5v-25q0 -9 -2 -11.5t-9 -2.5h-198q-7 0 -9.5 2.5zM52 784.5q-5 4.5 -5 16.5v17
q0 11 5 15.5t21 4.5h200q18 0 23.5 -4t5.5 -16v-17q0 -12 -5.5 -16.5t-23.5 -4.5h-200q-16 0 -21 4.5z" />
    <glyph glyph-name="Iogonek" unicode="&#x12e;" horiz-adv-x="349" 
d="M80.5 -177q-24.5 23 -24.5 55q0 73 96 122h-77q-7 0 -9.5 2.5t-2.5 9.5v28q0 6 2 8t10 2h64v588h-67q-8 0 -10 2t-2 9v26q0 7 2 9.5t9 2.5h199q9 0 11.5 -2.5t2.5 -8.5v-25q0 -9 -2 -11t-12 -2h-64v-588h64q8 0 11 -2.5t3 -8.5v-25q0 -9 -2 -11.5t-9 -2.5h-67
q-48 -36 -68.5 -61.5t-20.5 -49.5q0 -42 55 -42q10 0 26.5 2.5t27.5 6.5l3 1q9 0 10 -7l4 -14q1 -2 1 -6q0 -11 -12 -15q-16 -6 -39 -10.5t-42 -4.5q-46 0 -70.5 23z" />
    <glyph glyph-name="Itilde" unicode="&#x128;" horiz-adv-x="349" 
d="M65.5 2.5q-2.5 2.5 -2.5 9.5v28q0 6 2 8t10 2h64v588h-67q-8 0 -10 2t-2 9v26q0 7 2 9.5t9 2.5h199q9 0 11.5 -2.5t2.5 -8.5v-25q0 -9 -2 -11t-12 -2h-64v-588h64q8 0 11 -2.5t3 -8.5v-25q0 -9 -2 -11.5t-9 -2.5h-198q-7 0 -9.5 2.5zM196 776.5q-12 4.5 -29 13.5
q-30 17 -49 17q-16 0 -29.5 -6t-33.5 -18q-11 -6 -16 -6q-7 0 -11 10l-8 18q-4 10 -4 11q0 7 14 16q52 32 90 32q24 0 64 -20q32 -15 45 -15q14 0 28 6.5t34 20.5q9 5 15 5q9 0 14 -9l8 -11q5 -8 5 -12q0 -8 -8 -14q-56 -43 -104 -43q-13 0 -25 4.5z" />
    <glyph glyph-name="J" unicode="J" horiz-adv-x="363" 
d="M79.5 -7q-17.5 2 -26.5 5q-7 2 -8 5t0 10l6 32q1 8 4 9t10 -1q25 -5 48 -5q28 0 51 9.5t33 26.5q19 34 19 124v430h-111q-11 0 -14 2.5t-3 11.5v23q0 7 3.5 9.5t14.5 2.5h162q16 0 16 -17v-438q0 -78 -10 -126t-42 -77q-43 -38 -124 -38q-11 0 -28.5 2z" />
    <glyph glyph-name="Jcircumflex" unicode="&#x134;" horiz-adv-x="363" 
d="M79.5 -7q-17.5 2 -26.5 5q-7 2 -8 5t0 10l6 32q1 8 4 9t10 -1q25 -5 48 -5q28 0 51 9.5t33 26.5q19 34 19 124v430h-111q-11 0 -14 2.5t-3 11.5v23q0 7 3.5 9.5t14.5 2.5h162q16 0 16 -17v-438q0 -78 -10 -126t-42 -77q-43 -38 -124 -38q-11 0 -28.5 2zM51 764l-8 10
q-5 7 -5 11t6 10l118 107q8 6 14 6h12q6 0 14 -6l118 -107q6 -4 6 -12q0 -5 -4 -9l-9 -10q-6 -6 -10 -6q-5 0 -10 4l-111 83l-111 -83q-5 -4 -10 -4q-6 0 -10 6z" />
    <glyph glyph-name="K" unicode="K" horiz-adv-x="517" 
d="M77 18v651q0 18 16 18h38q16 0 16 -18v-294h1l262 302q9 10 23 10h43q6 0 7.5 -5t-2.5 -9l-272 -315l293 -339q6 -6 6 -12q0 -7 -9 -7h-49q-12 0 -18 3t-14 12l-270 314h-1v-311q0 -18 -16 -18h-38q-16 0 -16 18z" />
    <glyph glyph-name="Kcommaaccent" unicode="&#x136;" horiz-adv-x="517" 
d="M77 18v651q0 18 16 18h38q16 0 16 -18v-294h1l262 302q9 10 23 10h43q6 0 7.5 -5t-2.5 -9l-272 -315l293 -339q6 -6 6 -12q0 -7 -9 -7h-49q-12 0 -18 3t-14 12l-270 314h-1v-311q0 -18 -16 -18h-38q-16 0 -16 18zM237 -193l-4 4q-3 3 -3 7q0 2 4 6q25 25 25 50
q0 10 -12 24q-5 6 -8.5 12.5t-3.5 13.5q0 16 10.5 26t26.5 10q17 0 28 -14t11 -32q0 -30 -16.5 -61t-40.5 -47q-5 -4 -9 -4q-6 0 -8 5z" />
    <glyph glyph-name="L" unicode="L" horiz-adv-x="428" 
d="M77 18v651q0 18 16 18h38q16 0 16 -18v-615h250q10 0 13 -2.5t3 -9.5v-29q0 -8 -2.5 -10.5t-10.5 -2.5h-307q-16 0 -16 18z" />
    <glyph glyph-name="Lacute" unicode="&#x139;" horiz-adv-x="428" 
d="M77 18v651q0 18 16 18h38q16 0 16 -18v-615h250q10 0 13 -2.5t3 -9.5v-29q0 -8 -2.5 -10.5t-10.5 -2.5h-307q-16 0 -16 18zM80 760l-9 14q-3 6 -3 9q0 7 7 11l147 90q5 4 12 4t13 -9l17 -27q3 -6 3 -11q0 -7 -9 -12l-158 -74q-6 -2 -8 -2q-8 0 -12 7z" />
    <glyph glyph-name="Lcaron" unicode="&#x13d;" horiz-adv-x="428" 
d="M283 538l-4 4q-3 3 -3 7q0 2 4 6q25 25 25 50q0 10 -12 24q-5 6 -8.5 12.5t-3.5 13.5q0 16 10.5 26t26.5 10q17 0 28 -14t11 -32q0 -30 -16.5 -61t-40.5 -47q-5 -4 -9 -4q-5 0 -8 5zM77 18v651q0 18 16 18h38q16 0 16 -18v-615h250q10 0 13 -2.5t3 -9.5v-29
q0 -8 -2.5 -10.5t-10.5 -2.5h-307q-16 0 -16 18z" />
    <glyph glyph-name="Lcommaaccent" unicode="&#x13b;" horiz-adv-x="428" 
d="M77 18v651q0 18 16 18h38q16 0 16 -18v-615h250q10 0 13 -2.5t3 -9.5v-29q0 -8 -2.5 -10.5t-10.5 -2.5h-307q-16 0 -16 18zM225 -193l-4 4q-3 3 -3 7q0 2 4 6q25 25 25 50q0 10 -12 24q-5 6 -8.5 12.5t-3.5 13.5q0 16 10.5 26t26.5 10q17 0 28 -14t11 -32
q0 -30 -16.5 -61t-40.5 -47q-5 -4 -9 -4q-6 0 -8 5z" />
    <glyph glyph-name="Ldot" unicode="&#x13f;" horiz-adv-x="428" 
d="M77 18v651q0 18 16 18h38q16 0 16 -18v-615h250q10 0 13 -2.5t3 -9.5v-29q0 -8 -2.5 -10.5t-10.5 -2.5h-307q-16 0 -16 18zM272 332.5q-20 16.5 -20 43.5q0 28 19.5 44.5t45.5 16.5q25 0 44 -16.5t19 -43.5t-19.5 -44t-43.5 -17q-25 0 -45 16.5z" />
    <glyph glyph-name="Lslash" unicode="&#x141;" horiz-adv-x="428" 
d="M77 18v253l-53 -52q-7 -7 -13 -7q-7 0 -7 10v26q0 7 3 12t7.5 9t6.5 6l56 56v338q0 18 16 18h38q16 0 16 -18v-269l65 65q8 8 13 8q3 0 5 -4t2 -10v-21q0 -9 -3 -14t-7.5 -9.5l-6.5 -6.5l-68 -67v-287h250q10 0 13 -2.5t3 -9.5v-29q0 -8 -2.5 -10.5t-10.5 -2.5h-307
q-16 0 -16 18z" />
    <glyph glyph-name="M" unicode="M" horiz-adv-x="814" 
d="M80 3.5q-3 3.5 -3 11.5l21 655q0 11 2.5 14t9.5 3h33q10 0 14.5 -2.5t6.5 -8.5l250 -576h1l232 575q3 8 5.5 10t9.5 2h39q7 0 9.5 -3t2.5 -11l24 -656v-3q0 -8 -3.5 -11t-11.5 -3h-42q-8 0 -10.5 3.5t-3.5 13.5l-20 531h-1l-207 -539q-2 -5 -5 -7t-8 -2h-33q-5 0 -8 2
t-6 9l-221 537l-14 -535q0 -8 -3 -10.5t-12 -2.5h-38q-7 0 -10 3.5z" />
    <glyph glyph-name="N" unicode="N" horiz-adv-x="672" 
d="M77 18v651q0 18 16 18h25q7 0 12 -2.5t10 -10.5l391 -556h2v551q0 10 3.5 14t11.5 4h31q9 0 12.5 -3.5t3.5 -13.5v-652q0 -10 -2.5 -14t-10.5 -4h-32q-8 0 -13.5 4t-12.5 14l-382 542h-2v-542q0 -18 -16 -18h-31q-16 0 -16 18z" />
    <glyph glyph-name="Nacute" unicode="&#x143;" horiz-adv-x="672" 
d="M77 18v651q0 18 16 18h25q7 0 12 -2.5t10 -10.5l391 -556h2v551q0 10 3.5 14t11.5 4h31q9 0 12.5 -3.5t3.5 -13.5v-652q0 -10 -2.5 -14t-10.5 -4h-32q-8 0 -13.5 4t-12.5 14l-382 542h-2v-542q0 -18 -16 -18h-31q-16 0 -16 18zM258 760l-9 14q-3 6 -3 9q0 7 7 11l147 90
q5 4 12 4t13 -9l17 -27q3 -6 3 -11q0 -7 -9 -12l-158 -74q-6 -2 -8 -2q-8 0 -12 7z" />
    <glyph glyph-name="Ncaron" unicode="&#x147;" horiz-adv-x="672" 
d="M77 18v651q0 18 16 18h25q7 0 12 -2.5t10 -10.5l391 -556h2v551q0 10 3.5 14t11.5 4h31q9 0 12.5 -3.5t3.5 -13.5v-652q0 -10 -2.5 -14t-10.5 -4h-32q-8 0 -13.5 4t-12.5 14l-382 542h-2v-542q0 -18 -16 -18h-31q-16 0 -16 18zM316 754l-118 107q-6 5 -6 11t4 10l9 10
q6 6 11 6q3 0 9 -4l111 -83l111 83q5 4 10 4q6 0 10 -6l8 -10q5 -7 5 -11q0 -5 -6 -10l-118 -107q-6 -6 -14 -6h-12q-8 0 -14 6z" />
    <glyph glyph-name="Ncommaaccent" unicode="&#x145;" horiz-adv-x="672" 
d="M77 18v651q0 18 16 18h25q7 0 12 -2.5t10 -10.5l391 -556h2v551q0 10 3.5 14t11.5 4h31q9 0 12.5 -3.5t3.5 -13.5v-652q0 -10 -2.5 -14t-10.5 -4h-32q-8 0 -13.5 4t-12.5 14l-382 542h-2v-542q0 -18 -16 -18h-31q-16 0 -16 18zM292 -193l-4 4q-3 3 -3 7q0 2 4 6
q25 25 25 50q0 10 -12 24q-5 6 -8.5 12.5t-3.5 13.5q0 16 10.5 26t26.5 10q17 0 28 -14t11 -32q0 -30 -16.5 -61t-40.5 -47q-5 -4 -9 -4q-6 0 -8 5z" />
    <glyph glyph-name="Eng" unicode="&#x14a;" horiz-adv-x="662" 
d="M378 -193q-7 1 -9.5 4.5t-0.5 10.5l5 28q2 12 11 9q22 -5 39 -5q24 0 44.5 8.5t29.5 24.5q18 27 18 100v27l-369 551h-2v-550q0 -9 -3 -12t-11 -3h-37q-9 0 -12.5 3t-3.5 11v659q0 14 15 14h37q11 0 19 -11l368 -548h2v545q0 14 13 14h43q11 0 11 -14v-662
q0 -66 -10.5 -109t-38.5 -68q-40 -32 -113 -32q-20 0 -45 5z" />
    <glyph glyph-name="Ntilde" unicode="&#xd1;" horiz-adv-x="672" 
d="M77 18v651q0 18 16 18h25q7 0 12 -2.5t10 -10.5l391 -556h2v551q0 10 3.5 14t11.5 4h31q9 0 12.5 -3.5t3.5 -13.5v-652q0 -10 -2.5 -14t-10.5 -4h-32q-8 0 -13.5 4t-12.5 14l-382 542h-2v-542q0 -18 -16 -18h-31q-16 0 -16 18zM357 776.5q-12 4.5 -29 13.5q-30 17 -49 17
q-16 0 -29.5 -6t-33.5 -18q-11 -6 -16 -6q-7 0 -11 10l-8 18q-4 10 -4 11q0 7 14 16q52 32 90 32q24 0 64 -20q32 -15 45 -15q14 0 28 6.5t34 20.5q9 5 15 5q9 0 14 -9l8 -11q5 -8 5 -12q0 -8 -8 -14q-56 -43 -104 -43q-13 0 -25 4.5z" />
    <glyph glyph-name="O" unicode="O" horiz-adv-x="662" 
d="M185 33q-62 42 -95 120.5t-33 187.5q0 107 36.5 188t101.5 125t147 44q86 0 148 -43.5t94.5 -122.5t32.5 -184q0 -111 -37.5 -191.5t-102 -123t-145.5 -42.5q-85 0 -147 42zM442.5 84.5q47.5 37.5 73.5 105t26 155.5q0 138 -52.5 217t-149.5 79q-61 0 -108.5 -38.5
t-73.5 -106t-26 -152.5q0 -137 54 -217t149 -80q60 0 107.5 37.5z" />
    <glyph glyph-name="Oacute" unicode="&#xd3;" horiz-adv-x="662" 
d="M185 33q-62 42 -95 120.5t-33 187.5q0 107 36.5 188t101.5 125t147 44q86 0 148 -43.5t94.5 -122.5t32.5 -184q0 -111 -37.5 -191.5t-102 -123t-145.5 -42.5q-85 0 -147 42zM442.5 84.5q47.5 37.5 73.5 105t26 155.5q0 138 -52.5 217t-149.5 79q-61 0 -108.5 -38.5
t-73.5 -106t-26 -152.5q0 -137 54 -217t149 -80q60 0 107.5 37.5zM253 760l-9 14q-3 6 -3 9q0 7 7 11l147 90q5 4 12 4t13 -9l17 -27q3 -6 3 -11q0 -7 -9 -12l-158 -74q-6 -2 -8 -2q-8 0 -12 7z" />
    <glyph glyph-name="Obreve" unicode="&#x14e;" horiz-adv-x="662" 
d="M185 33q-62 42 -95 120.5t-33 187.5q0 107 36.5 188t101.5 125t147 44q86 0 148 -43.5t94.5 -122.5t32.5 -184q0 -111 -37.5 -191.5t-102 -123t-145.5 -42.5q-85 0 -147 42zM442.5 84.5q47.5 37.5 73.5 105t26 155.5q0 138 -52.5 217t-149.5 79q-61 0 -108.5 -38.5
t-73.5 -106t-26 -152.5q0 -137 54 -217t149 -80q60 0 107.5 37.5zM257 776q-22 13 -37.5 35t-15.5 45q0 8 3.5 10t11.5 2h21q10 0 13.5 -2.5t8.5 -11.5q23 -46 69 -46q49 0 71 46q5 9 8.5 11.5t13.5 2.5h19q8 0 11.5 -2t3.5 -10q0 -24 -16 -46.5t-39 -35.5q-31 -17 -70 -17
q-43 0 -76 19z" />
    <glyph glyph-name="Ocircumflex" unicode="&#xd4;" horiz-adv-x="662" 
d="M185 33q-62 42 -95 120.5t-33 187.5q0 107 36.5 188t101.5 125t147 44q86 0 148 -43.5t94.5 -122.5t32.5 -184q0 -111 -37.5 -191.5t-102 -123t-145.5 -42.5q-85 0 -147 42zM442.5 84.5q47.5 37.5 73.5 105t26 155.5q0 138 -52.5 217t-149.5 79q-61 0 -108.5 -38.5
t-73.5 -106t-26 -152.5q0 -137 54 -217t149 -80q60 0 107.5 37.5zM200 764l-8 10q-5 7 -5 11t6 10l118 107q8 6 14 6h12q6 0 14 -6l118 -107q6 -4 6 -12q0 -5 -4 -9l-9 -10q-6 -6 -10 -6q-5 0 -10 4l-111 83l-111 -83q-5 -4 -10 -4q-6 0 -10 6z" />
    <glyph glyph-name="Odieresis" unicode="&#xd6;" horiz-adv-x="662" 
d="M185 33q-62 42 -95 120.5t-33 187.5q0 107 36.5 188t101.5 125t147 44q86 0 148 -43.5t94.5 -122.5t32.5 -184q0 -111 -37.5 -191.5t-102 -123t-145.5 -42.5q-85 0 -147 42zM442.5 84.5q47.5 37.5 73.5 105t26 155.5q0 138 -52.5 217t-149.5 79q-61 0 -108.5 -38.5
t-73.5 -106t-26 -152.5q0 -137 54 -217t149 -80q60 0 107.5 37.5zM213 791q-15 12 -15 32q0 21 14.5 33t33.5 12t32.5 -12.5t13.5 -32.5t-14 -32t-32 -12t-33 12zM385 791q-15 12 -15 32q0 21 14.5 33t33.5 12t32.5 -12.5t13.5 -32.5t-14 -32t-32 -12t-33 12z" />
    <glyph glyph-name="Ograve" unicode="&#xd2;" horiz-adv-x="662" 
d="M185 33q-62 42 -95 120.5t-33 187.5q0 107 36.5 188t101.5 125t147 44q86 0 148 -43.5t94.5 -122.5t32.5 -184q0 -111 -37.5 -191.5t-102 -123t-145.5 -42.5q-85 0 -147 42zM442.5 84.5q47.5 37.5 73.5 105t26 155.5q0 138 -52.5 217t-149.5 79q-61 0 -108.5 -38.5
t-73.5 -106t-26 -152.5q0 -137 54 -217t149 -80q60 0 107.5 37.5zM398 759l-158 74q-9 5 -9 12q0 5 3 11l17 27q6 9 13 9t12 -4l147 -90q7 -4 7 -11q0 -3 -3 -9l-9 -14q-4 -7 -12 -7q-2 0 -8 2z" />
    <glyph glyph-name="Ohungarumlaut" unicode="&#x150;" horiz-adv-x="662" 
d="M185 33q-62 42 -95 120.5t-33 187.5q0 107 36.5 188t101.5 125t147 44q86 0 148 -43.5t94.5 -122.5t32.5 -184q0 -111 -37.5 -191.5t-102 -123t-145.5 -42.5q-85 0 -147 42zM442.5 84.5q47.5 37.5 73.5 105t26 155.5q0 138 -52.5 217t-149.5 79q-61 0 -108.5 -38.5
t-73.5 -106t-26 -152.5q0 -137 54 -217t149 -80q60 0 107.5 37.5zM157 769l-9 14q-1 2 -2.5 4.5t-1.5 4.5q0 6 8 11l147 90q5 4 11 4q7 0 13 -9l17 -27q4 -8 4 -11q0 -7 -9 -12l-158 -74q-6 -2 -9 -2q-7 0 -11 7zM382 769l-9 14q-3 6 -3 9q0 7 7 11l147 90q5 4 11 4
q8 0 14 -9l17 -27q3 -6 3 -11q0 -7 -9 -12l-158 -74q-6 -2 -8 -2q-8 0 -12 7z" />
    <glyph glyph-name="Omacron" unicode="&#x14c;" horiz-adv-x="662" 
d="M185 33q-62 42 -95 120.5t-33 187.5q0 107 36.5 188t101.5 125t147 44q86 0 148 -43.5t94.5 -122.5t32.5 -184q0 -111 -37.5 -191.5t-102 -123t-145.5 -42.5q-85 0 -147 42zM442.5 84.5q47.5 37.5 73.5 105t26 155.5q0 138 -52.5 217t-149.5 79q-61 0 -108.5 -38.5
t-73.5 -106t-26 -152.5q0 -137 54 -217t149 -80q60 0 107.5 37.5zM208 784.5q-5 4.5 -5 16.5v17q0 11 5 15.5t21 4.5h200q18 0 23.5 -4t5.5 -16v-17q0 -12 -5.5 -16.5t-23.5 -4.5h-200q-16 0 -21 4.5z" />
    <glyph glyph-name="Oslash" unicode="&#xd8;" horiz-adv-x="666" 
d="M121.5 -41q-1.5 1 -3.5 2l-18 9q-11 5 -11 12q0 2 2 6l49 79q-42 45 -64.5 115t-22.5 159q0 107 36.5 187.5t101.5 124.5t147 44q94 0 161 -53l41 66q5 8 9 13t8 5q2 0 6 -2l18 -11q12 -7 12 -12q0 -2 -2 -6l-55 -90q77 -95 77 -259q0 -111 -37.5 -191.5t-102 -123
t-145.5 -42.5q-87 0 -149 42l-36 -59q-9 -16 -17 -16q-3 0 -4.5 1zM465 589q-52 55 -129 55q-61 0 -108.5 -39t-73.5 -107.5t-26 -153.5q0 -135 51 -215zM438 81.5q47 38.5 73.5 107t26.5 156.5q0 120 -42 199l-283 -456q48 -45 118 -45q60 0 107 38.5z" />
    <glyph glyph-name="Oslashacute" unicode="&#x1fe;" horiz-adv-x="666" 
d="M121.5 -41q-1.5 1 -3.5 2l-18 9q-11 5 -11 12q0 2 2 6l49 79q-42 45 -64.5 115t-22.5 159q0 107 36.5 187.5t101.5 124.5t147 44q94 0 161 -53l41 66q5 8 9 13t8 5q2 0 6 -2l18 -11q12 -7 12 -12q0 -2 -2 -6l-55 -90q77 -95 77 -259q0 -111 -37.5 -191.5t-102 -123
t-145.5 -42.5q-87 0 -149 42l-36 -59q-9 -16 -17 -16q-3 0 -4.5 1zM465 589q-52 55 -129 55q-61 0 -108.5 -39t-73.5 -107.5t-26 -153.5q0 -135 51 -215zM438 81.5q47 38.5 73.5 107t26.5 156.5q0 120 -42 199l-283 -456q48 -45 118 -45q60 0 107 38.5zM255 760l-9 14
q-3 6 -3 9q0 7 7 11l147 90q5 4 12 4t13 -9l17 -27q3 -6 3 -11q0 -7 -9 -12l-158 -74q-6 -2 -8 -2q-8 0 -12 7z" />
    <glyph glyph-name="Otilde" unicode="&#xd5;" horiz-adv-x="662" 
d="M185 33q-62 42 -95 120.5t-33 187.5q0 107 36.5 188t101.5 125t147 44q86 0 148 -43.5t94.5 -122.5t32.5 -184q0 -111 -37.5 -191.5t-102 -123t-145.5 -42.5q-85 0 -147 42zM442.5 84.5q47.5 37.5 73.5 105t26 155.5q0 138 -52.5 217t-149.5 79q-61 0 -108.5 -38.5
t-73.5 -106t-26 -152.5q0 -137 54 -217t149 -80q60 0 107.5 37.5zM352 776.5q-12 4.5 -29 13.5q-30 17 -49 17q-16 0 -29.5 -6t-33.5 -18q-11 -6 -16 -6q-7 0 -11 10l-8 18q-4 10 -4 11q0 7 14 16q52 32 90 32q24 0 64 -20q32 -15 45 -15q14 0 28 6.5t34 20.5q9 5 15 5
q9 0 14 -9l8 -11q5 -8 5 -12q0 -8 -8 -14q-56 -43 -104 -43q-13 0 -25 4.5z" />
    <glyph glyph-name="OE" unicode="&#x152;" horiz-adv-x="914" 
d="M122.5 82.5q-69.5 91.5 -69.5 258.5q0 108 36.5 189t101.5 124.5t147 43.5q111 0 163 -69v41q0 10 3.5 13.5t13.5 3.5h335q14 0 14 -12v-4l-3 -24q-1 -8 -6 -10.5t-17 -2.5h-271v-243h239q9 0 13 -3.5t4 -11.5v-24q0 -9 -3.5 -12t-12.5 -3h-240v-283h282q10 0 13.5 -2.5
t3.5 -10.5v-27q0 -8 -3 -11t-13 -3h-334q-11 0 -14.5 3.5t-3.5 14.5v42q-35 -33 -83 -51t-98 -18q-128 0 -197.5 91.5zM423.5 68.5q47.5 21.5 77.5 58.5v430q-22 36 -64 60.5t-101 24.5q-61 0 -108.5 -38.5t-73.5 -106t-26 -153.5q0 -135 52.5 -216t146.5 -81
q49 0 96.5 21.5z" />
    <glyph glyph-name="P" unicode="P" horiz-adv-x="494" 
d="M77 18v651q0 18 16 18h121q112 0 180.5 -48.5t68.5 -156.5q0 -70 -32.5 -117.5t-88 -71t-124.5 -23.5h-71v-252q0 -18 -16 -18h-38q-16 0 -16 18zM214 324q82 0 129.5 38.5t47.5 119.5q0 84 -49.5 117.5t-137.5 33.5h-57v-309h67z" />
    <glyph glyph-name="Thorn" unicode="&#xde;" horiz-adv-x="516" 
d="M58 18v658q0 8 3.5 10.5t12.5 4.5l25 4h5q15 0 15 -18v-160q25 30 67.5 48.5t86.5 18.5q93 0 147 -55t54 -172q0 -103 -55 -165t-158 -62q-40 0 -78 16t-61 46v-176q0 -16 -19 -16h-29q-16 0 -16 18zM408 357q0 92 -38.5 134.5t-106.5 42.5q-40 0 -80 -21t-61 -53v-198
q17 -35 55.5 -58.5t79.5 -23.5q151 0 151 177z" />
    <glyph glyph-name="Q" unicode="Q" horiz-adv-x="656" 
d="M551 -99q-27 12 -57 35q-7 5 -30.5 22.5t-45.5 26t-47 8.5l-22 -1q-8 -1 -23 -1q-96 0 -158 49t-89.5 127.5t-27.5 172.5q0 91 31 173t95.5 133.5t158.5 51.5q96 0 157.5 -49.5t89.5 -129t28 -172.5q0 -104 -38.5 -192.5t-121.5 -132.5q18 -6 36.5 -16.5t34.5 -21.5
q10 -7 30 -19q28 -17 74 -28q8 -2 11.5 -4.5t3.5 -9.5q0 -4 -2 -13l-4 -18q-1 -7 -3.5 -9t-7.5 -2t-8 1q-38 7 -65 19zM447.5 92.5q46.5 45.5 67.5 114t21 137.5q0 119 -46.5 207.5t-155.5 88.5q-72 0 -118.5 -46t-68 -114t-21.5 -137q0 -73 19 -140t64 -111.5t120 -44.5
q72 0 118.5 45.5z" />
    <glyph glyph-name="R" unicode="R" horiz-adv-x="530" 
d="M77 18v651q0 18 16 18h140q115 0 175.5 -47t60.5 -148q0 -71 -42 -119.5t-105 -66.5l163 -288q4 -5 4 -11q0 -7 -10 -7h-45q-17 0 -26 16l-153 279h-108v-277q0 -18 -16 -18h-38q-16 0 -16 18zM233 349q72 0 117.5 37.5t45.5 105.5q0 75 -44.5 108t-132.5 33h-72v-284h86
z" />
    <glyph glyph-name="Racute" unicode="&#x154;" horiz-adv-x="530" 
d="M77 18v651q0 18 16 18h140q115 0 175.5 -47t60.5 -148q0 -71 -42 -119.5t-105 -66.5l163 -288q4 -5 4 -11q0 -7 -10 -7h-45q-17 0 -26 16l-153 279h-108v-277q0 -18 -16 -18h-38q-16 0 -16 18zM233 349q72 0 117.5 37.5t45.5 105.5q0 75 -44.5 108t-132.5 33h-72v-284h86
zM187 760l-9 14q-3 6 -3 9q0 7 7 11l147 90q5 4 12 4t13 -9l17 -27q3 -6 3 -11q0 -7 -9 -12l-158 -74q-6 -2 -8 -2q-8 0 -12 7z" />
    <glyph glyph-name="Rcaron" unicode="&#x158;" horiz-adv-x="530" 
d="M77 18v651q0 18 16 18h140q115 0 175.5 -47t60.5 -148q0 -71 -42 -119.5t-105 -66.5l163 -288q4 -5 4 -11q0 -7 -10 -7h-45q-17 0 -26 16l-153 279h-108v-277q0 -18 -16 -18h-38q-16 0 -16 18zM233 349q72 0 117.5 37.5t45.5 105.5q0 75 -44.5 108t-132.5 33h-72v-284h86
zM245 754l-118 107q-6 5 -6 11t4 10l9 10q6 6 11 6q3 0 9 -4l111 -83l111 83q5 4 10 4q6 0 10 -6l8 -10q5 -7 5 -11q0 -5 -6 -10l-118 -107q-6 -6 -14 -6h-12q-8 0 -14 6z" />
    <glyph glyph-name="Rcommaaccent" unicode="&#x156;" horiz-adv-x="530" 
d="M77 18v651q0 18 16 18h140q115 0 175.5 -47t60.5 -148q0 -71 -42 -119.5t-105 -66.5l163 -288q4 -5 4 -11q0 -7 -10 -7h-45q-17 0 -26 16l-153 279h-108v-277q0 -18 -16 -18h-38q-16 0 -16 18zM233 349q72 0 117.5 37.5t45.5 105.5q0 75 -44.5 108t-132.5 33h-72v-284h86
zM241 -193l-4 4q-3 3 -3 7q0 2 4 6q25 25 25 50q0 10 -12 24q-5 6 -8.5 12.5t-3.5 13.5q0 16 10.5 26t26.5 10q17 0 28 -14t11 -32q0 -30 -16.5 -61t-40.5 -47q-5 -4 -9 -4q-6 0 -8 5z" />
    <glyph glyph-name="S" unicode="S" horiz-adv-x="486" 
d="M65 17q-17 6 -12 21l10 33q3 9 11 9q6 0 10 -2q77 -28 138 -28q64 0 109 31t45 93q0 43 -25 72.5t-72 56.5l-124 70q-50 28 -78 67.5t-28 88.5q0 53 28.5 91.5t74.5 58t98 19.5q42 0 77 -6t70 -21q9 -4 12 -9t0 -13l-10 -28q-3 -9 -12 -9q-3 0 -9 2q-70 28 -124 28
q-58 0 -95 -28q-18 -13 -28.5 -32t-10.5 -41q0 -41 21.5 -68t61.5 -50l104 -59q68 -38 103 -79.5t35 -106.5q0 -61 -31 -103t-82 -63t-112 -21q-75 0 -155 26z" />
    <glyph glyph-name="Sacute" unicode="&#x15a;" horiz-adv-x="486" 
d="M65 17q-17 6 -12 21l10 33q3 9 11 9q6 0 10 -2q77 -28 138 -28q64 0 109 31t45 93q0 43 -25 72.5t-72 56.5l-124 70q-50 28 -78 67.5t-28 88.5q0 53 28.5 91.5t74.5 58t98 19.5q42 0 77 -6t70 -21q9 -4 12 -9t0 -13l-10 -28q-3 -9 -12 -9q-3 0 -9 2q-70 28 -124 28
q-58 0 -95 -28q-18 -13 -28.5 -32t-10.5 -41q0 -41 21.5 -68t61.5 -50l104 -59q68 -38 103 -79.5t35 -106.5q0 -61 -31 -103t-82 -63t-112 -21q-75 0 -155 26zM165 760l-9 14q-3 6 -3 9q0 7 7 11l147 90q5 4 12 4t13 -9l17 -27q3 -6 3 -11q0 -7 -9 -12l-158 -74q-6 -2 -8 -2
q-8 0 -12 7z" />
    <glyph glyph-name="Scaron" unicode="&#x160;" horiz-adv-x="486" 
d="M65 17q-17 6 -12 21l10 33q3 9 11 9q6 0 10 -2q77 -28 138 -28q64 0 109 31t45 93q0 43 -25 72.5t-72 56.5l-124 70q-50 28 -78 67.5t-28 88.5q0 53 28.5 91.5t74.5 58t98 19.5q42 0 77 -6t70 -21q9 -4 12 -9t0 -13l-10 -28q-3 -9 -12 -9q-3 0 -9 2q-70 28 -124 28
q-58 0 -95 -28q-18 -13 -28.5 -32t-10.5 -41q0 -41 21.5 -68t61.5 -50l104 -59q68 -38 103 -79.5t35 -106.5q0 -61 -31 -103t-82 -63t-112 -21q-75 0 -155 26zM223 754l-118 107q-6 5 -6 11t4 10l9 10q6 6 11 6q3 0 9 -4l111 -83l111 83q5 4 10 4q6 0 10 -6l8 -10
q5 -7 5 -11q0 -5 -6 -10l-118 -107q-6 -6 -14 -6h-12q-8 0 -14 6z" />
    <glyph glyph-name="Scedilla" unicode="&#x15e;" horiz-adv-x="486" 
d="M386.5 44.5q-58.5 -47.5 -146.5 -52.5l-2 -42h8q36 0 61.5 -16.5t25.5 -54.5q0 -33 -23 -55t-69 -22q-18 0 -31 2.5t-30 9.5q-14 6 -14 12q0 3 1 5l4 12q3 8 8 8l9 -2q12 -4 27.5 -7t25.5 -3q17 0 30.5 9t14.5 26v4q0 17 -13.5 26.5t-39.5 9.5h-16q-14 0 -19.5 6t-5.5 17
q0 9 1 14l4 41q-63 3 -132 25q-17 6 -12 21l10 33q3 9 11 9q6 0 10 -2q77 -28 138 -28q64 0 109 31t45 93q0 43 -25 72.5t-72 56.5l-124 70q-50 28 -78 67.5t-28 88.5q0 53 28.5 91.5t74.5 58t98 19.5q42 0 77 -6t70 -21q9 -4 12 -9t0 -13l-10 -28q-3 -9 -12 -9q-3 0 -9 2
q-70 28 -124 28q-58 0 -95 -28q-18 -13 -28.5 -32t-10.5 -41q0 -41 21.5 -68t61.5 -50l104 -59q68 -38 103 -79.5t35 -106.5q0 -86 -58.5 -133.5z" />
    <glyph glyph-name="Scircumflex" unicode="&#x15c;" horiz-adv-x="486" 
d="M65 17q-17 6 -12 21l10 33q3 9 11 9q6 0 10 -2q77 -28 138 -28q64 0 109 31t45 93q0 43 -25 72.5t-72 56.5l-124 70q-50 28 -78 67.5t-28 88.5q0 53 28.5 91.5t74.5 58t98 19.5q42 0 77 -6t70 -21q9 -4 12 -9t0 -13l-10 -28q-3 -9 -12 -9q-3 0 -9 2q-70 28 -124 28
q-58 0 -95 -28q-18 -13 -28.5 -32t-10.5 -41q0 -41 21.5 -68t61.5 -50l104 -59q68 -38 103 -79.5t35 -106.5q0 -61 -31 -103t-82 -63t-112 -21q-75 0 -155 26zM112 764l-8 10q-5 7 -5 11t6 10l118 107q8 6 14 6h12q6 0 14 -6l118 -107q6 -4 6 -12q0 -5 -4 -9l-9 -10
q-6 -6 -10 -6q-5 0 -10 4l-111 83l-111 -83q-5 -4 -10 -4q-6 0 -10 6z" />
    <glyph glyph-name="Scommaaccent" unicode="&#x218;" horiz-adv-x="486" 
d="M65 17q-17 6 -12 21l10 33q3 9 11 9q6 0 10 -2q77 -28 138 -28q64 0 109 31t45 93q0 43 -25 72.5t-72 56.5l-124 70q-50 28 -78 67.5t-28 88.5q0 53 28.5 91.5t74.5 58t98 19.5q42 0 77 -6t70 -21q9 -4 12 -9t0 -13l-10 -28q-3 -9 -12 -9q-3 0 -9 2q-70 28 -124 28
q-58 0 -95 -28q-18 -13 -28.5 -32t-10.5 -41q0 -41 21.5 -68t61.5 -50l104 -59q68 -38 103 -79.5t35 -106.5q0 -61 -31 -103t-82 -63t-112 -21q-75 0 -155 26zM216 -193l-4 4q-3 3 -3 7q0 2 4 6q25 25 25 50q0 10 -12 24q-5 6 -8.5 12.5t-3.5 13.5q0 16 10.5 26t26.5 10
q17 0 28 -14t11 -32q0 -30 -16.5 -61t-40.5 -47q-5 -4 -9 -4q-6 0 -8 5z" />
    <glyph glyph-name="T" unicode="T" horiz-adv-x="531" 
d="M226 18v615h-196q-8 0 -10.5 2t-2.5 9v31q0 7 2 9.5t9 2.5h472q9 0 12 -2.5t2 -8.5l-5 -30q-1 -9 -5.5 -11t-15.5 -2h-193v-615q0 -18 -16 -18h-37q-16 0 -16 18z" />
    <glyph glyph-name="Tbar" unicode="&#x166;" horiz-adv-x="531" 
d="M226 18v285h-83q-12 0 -16 3t-4 12v26q0 9 3.5 12t13.5 3h86v274h-196q-8 0 -10.5 2t-2.5 9v31q0 7 2 9.5t9 2.5h472q9 0 12 -2.5t2 -8.5l-5 -30q-1 -9 -5.5 -11t-15.5 -2h-193v-274h89q13 0 16.5 -3t3.5 -14v-20q0 -11 -3.5 -15t-13.5 -4h-92v-285q0 -18 -16 -18h-37
q-16 0 -16 18z" />
    <glyph glyph-name="Tcaron" unicode="&#x164;" horiz-adv-x="531" 
d="M226 18v615h-196q-8 0 -10.5 2t-2.5 9v31q0 7 2 9.5t9 2.5h472q9 0 12 -2.5t2 -8.5l-5 -30q-1 -9 -5.5 -11t-15.5 -2h-193v-615q0 -18 -16 -18h-37q-16 0 -16 18zM241 754l-118 107q-6 5 -6 11t4 10l9 10q6 6 11 6q3 0 9 -4l111 -83l111 83q5 4 10 4q6 0 10 -6l8 -10
q5 -7 5 -11q0 -5 -6 -10l-118 -107q-6 -6 -14 -6h-12q-8 0 -14 6z" />
    <glyph glyph-name="uni0162" unicode="&#x162;" horiz-adv-x="531" 
d="M226 18v615h-196q-8 0 -10.5 2t-2.5 9v31q0 7 2 9.5t9 2.5h472q9 0 12 -2.5t2 -8.5l-5 -30q-1 -9 -5.5 -11t-15.5 -2h-193v-615q0 -18 -16 -18h-37q-16 0 -16 18zM225 -193l-4 4q-3 3 -3 7q0 2 4 6q25 25 25 50q0 10 -12 24q-5 6 -8.5 12.5t-3.5 13.5q0 16 10.5 26
t26.5 10q17 0 28 -14t11 -32q0 -30 -16.5 -61t-40.5 -47q-5 -4 -9 -4q-6 0 -8 5z" />
    <glyph glyph-name="uni021A" unicode="&#x21a;" horiz-adv-x="531" 
d="M226 18v615h-196q-8 0 -10.5 2t-2.5 9v31q0 7 2 9.5t9 2.5h472q9 0 12 -2.5t2 -8.5l-5 -30q-1 -9 -5.5 -11t-15.5 -2h-193v-615q0 -18 -16 -18h-37q-16 0 -16 18zM225 -193l-4 4q-3 3 -3 7q0 2 4 6q25 25 25 50q0 10 -12 24q-5 6 -8.5 12.5t-3.5 13.5q0 16 10.5 26
t26.5 10q17 0 28 -14t11 -32q0 -30 -16.5 -61t-40.5 -47q-5 -4 -9 -4q-6 0 -8 5z" />
    <glyph glyph-name="U" unicode="U" horiz-adv-x="681" 
d="M123 84q-25 39 -35.5 93.5t-10.5 128.5v363q0 18 16 18h38q16 0 16 -18v-355q0 -54 4.5 -93.5t16.5 -70.5q19 -49 60.5 -74.5t113.5 -25.5q67 0 109.5 26t60.5 71q13 33 18 74t5 94v354q0 18 16 18h37q16 0 16 -18v-372q0 -147 -62 -225q-31 -39 -81 -60t-118 -21
q-160 0 -220 93z" />
    <glyph glyph-name="Uacute" unicode="&#xda;" horiz-adv-x="681" 
d="M123 84q-25 39 -35.5 93.5t-10.5 128.5v363q0 18 16 18h38q16 0 16 -18v-355q0 -54 4.5 -93.5t16.5 -70.5q19 -49 60.5 -74.5t113.5 -25.5q67 0 109.5 26t60.5 71q13 33 18 74t5 94v354q0 18 16 18h37q16 0 16 -18v-372q0 -147 -62 -225q-31 -39 -81 -60t-118 -21
q-160 0 -220 93zM263 760l-9 14q-3 6 -3 9q0 7 7 11l147 90q5 4 12 4t13 -9l17 -27q3 -6 3 -11q0 -7 -9 -12l-158 -74q-6 -2 -8 -2q-8 0 -12 7z" />
    <glyph glyph-name="Ubreve" unicode="&#x16c;" horiz-adv-x="681" 
d="M123 84q-25 39 -35.5 93.5t-10.5 128.5v363q0 18 16 18h38q16 0 16 -18v-355q0 -54 4.5 -93.5t16.5 -70.5q19 -49 60.5 -74.5t113.5 -25.5q67 0 109.5 26t60.5 71q13 33 18 74t5 94v354q0 18 16 18h37q16 0 16 -18v-372q0 -147 -62 -225q-31 -39 -81 -60t-118 -21
q-160 0 -220 93zM267 776q-22 13 -37.5 35t-15.5 45q0 8 3.5 10t11.5 2h21q10 0 13.5 -2.5t8.5 -11.5q23 -46 69 -46q49 0 71 46q5 9 8.5 11.5t13.5 2.5h19q8 0 11.5 -2t3.5 -10q0 -24 -16 -46.5t-39 -35.5q-31 -17 -70 -17q-43 0 -76 19z" />
    <glyph glyph-name="Ucircumflex" unicode="&#xdb;" horiz-adv-x="681" 
d="M123 84q-25 39 -35.5 93.5t-10.5 128.5v363q0 18 16 18h38q16 0 16 -18v-355q0 -54 4.5 -93.5t16.5 -70.5q19 -49 60.5 -74.5t113.5 -25.5q67 0 109.5 26t60.5 71q13 33 18 74t5 94v354q0 18 16 18h37q16 0 16 -18v-372q0 -147 -62 -225q-31 -39 -81 -60t-118 -21
q-160 0 -220 93zM210 764l-8 10q-5 7 -5 11t6 10l118 107q8 6 14 6h12q6 0 14 -6l118 -107q6 -4 6 -12q0 -5 -4 -9l-9 -10q-6 -6 -10 -6q-5 0 -10 4l-111 83l-111 -83q-5 -4 -10 -4q-6 0 -10 6z" />
    <glyph glyph-name="Udieresis" unicode="&#xdc;" horiz-adv-x="681" 
d="M123 84q-25 39 -35.5 93.5t-10.5 128.5v363q0 18 16 18h38q16 0 16 -18v-355q0 -54 4.5 -93.5t16.5 -70.5q19 -49 60.5 -74.5t113.5 -25.5q67 0 109.5 26t60.5 71q13 33 18 74t5 94v354q0 18 16 18h37q16 0 16 -18v-372q0 -147 -62 -225q-31 -39 -81 -60t-118 -21
q-160 0 -220 93zM223 791q-15 12 -15 32q0 21 14.5 33t33.5 12t32.5 -12.5t13.5 -32.5t-14 -32t-32 -12t-33 12zM395 791q-15 12 -15 32q0 21 14.5 33t33.5 12t32.5 -12.5t13.5 -32.5t-14 -32t-32 -12t-33 12z" />
    <glyph glyph-name="Ugrave" unicode="&#xd9;" horiz-adv-x="681" 
d="M123 84q-25 39 -35.5 93.5t-10.5 128.5v363q0 18 16 18h38q16 0 16 -18v-355q0 -54 4.5 -93.5t16.5 -70.5q19 -49 60.5 -74.5t113.5 -25.5q67 0 109.5 26t60.5 71q13 33 18 74t5 94v354q0 18 16 18h37q16 0 16 -18v-372q0 -147 -62 -225q-31 -39 -81 -60t-118 -21
q-160 0 -220 93zM408 759l-158 74q-9 5 -9 12q0 5 3 11l17 27q6 9 13 9t12 -4l147 -90q7 -4 7 -11q0 -3 -3 -9l-9 -14q-4 -7 -12 -7q-2 0 -8 2z" />
    <glyph glyph-name="Uhungarumlaut" unicode="&#x170;" horiz-adv-x="681" 
d="M123 84q-25 39 -35.5 93.5t-10.5 128.5v363q0 18 16 18h38q16 0 16 -18v-355q0 -54 4.5 -93.5t16.5 -70.5q19 -49 60.5 -74.5t113.5 -25.5q67 0 109.5 26t60.5 71q13 33 18 74t5 94v354q0 18 16 18h37q16 0 16 -18v-372q0 -147 -62 -225q-31 -39 -81 -60t-118 -21
q-160 0 -220 93zM167 769l-9 14q-1 2 -2.5 4.5t-1.5 4.5q0 6 8 11l147 90q5 4 11 4q7 0 13 -9l17 -27q4 -8 4 -11q0 -7 -9 -12l-158 -74q-6 -2 -9 -2q-7 0 -11 7zM392 769l-9 14q-3 6 -3 9q0 7 7 11l147 90q5 4 11 4q8 0 14 -9l17 -27q3 -6 3 -11q0 -7 -9 -12l-158 -74
q-6 -2 -8 -2q-8 0 -12 7z" />
    <glyph glyph-name="Umacron" unicode="&#x16a;" horiz-adv-x="681" 
d="M123 84q-25 39 -35.5 93.5t-10.5 128.5v363q0 18 16 18h38q16 0 16 -18v-355q0 -54 4.5 -93.5t16.5 -70.5q19 -49 60.5 -74.5t113.5 -25.5q67 0 109.5 26t60.5 71q13 33 18 74t5 94v354q0 18 16 18h37q16 0 16 -18v-372q0 -147 -62 -225q-31 -39 -81 -60t-118 -21
q-160 0 -220 93zM218 784.5q-5 4.5 -5 16.5v17q0 11 5 15.5t21 4.5h200q18 0 23.5 -4t5.5 -16v-17q0 -12 -5.5 -16.5t-23.5 -4.5h-200q-16 0 -21 4.5z" />
    <glyph glyph-name="Uogonek" unicode="&#x172;" horiz-adv-x="681" 
d="M269.5 -177q-24.5 23 -24.5 55q0 67 80 114q-146 4 -202 92q-25 39 -35.5 93.5t-10.5 128.5v363q0 18 16 18h38q16 0 16 -18v-355q0 -54 4.5 -93.5t16.5 -70.5q19 -49 60.5 -74.5t113.5 -25.5q67 0 109.5 26t60.5 71q13 33 18 74t5 94v354q0 18 16 18h37q16 0 16 -18
v-372q0 -147 -62 -225q-55 -68 -156 -78q-43 -34 -61.5 -57.5t-18.5 -47.5q0 -42 55 -42q10 0 26.5 2.5t27.5 6.5l3 1q9 0 10 -7l4 -14q1 -2 1 -6q0 -11 -12 -15q-16 -6 -39 -10.5t-42 -4.5q-46 0 -70.5 23z" />
    <glyph glyph-name="Uring" unicode="&#x16e;" horiz-adv-x="681" 
d="M123 84q-25 39 -35.5 93.5t-10.5 128.5v363q0 18 16 18h38q16 0 16 -18v-355q0 -54 4.5 -93.5t16.5 -70.5q19 -49 60.5 -74.5t113.5 -25.5q67 0 109.5 26t60.5 71q13 33 18 74t5 94v354q0 18 16 18h37q16 0 16 -18v-372q0 -147 -62 -225q-31 -39 -81 -60t-118 -21
q-160 0 -220 93zM284.5 762.5q-24.5 23.5 -24.5 55.5t24.5 56t56.5 24q33 0 56.5 -24t23.5 -56t-23.5 -55.5t-56.5 -23.5q-32 0 -56.5 23.5zM363.5 795.5q9.5 9.5 9.5 22.5q0 14 -9.5 23t-22.5 9q-14 0 -23.5 -9.5t-9.5 -22.5t9.5 -22.5t23.5 -9.5q13 0 22.5 9.5z" />
    <glyph glyph-name="Utilde" unicode="&#x168;" horiz-adv-x="681" 
d="M123 84q-25 39 -35.5 93.5t-10.5 128.5v363q0 18 16 18h38q16 0 16 -18v-355q0 -54 4.5 -93.5t16.5 -70.5q19 -49 60.5 -74.5t113.5 -25.5q67 0 109.5 26t60.5 71q13 33 18 74t5 94v354q0 18 16 18h37q16 0 16 -18v-372q0 -147 -62 -225q-31 -39 -81 -60t-118 -21
q-160 0 -220 93zM362 776.5q-12 4.5 -29 13.5q-30 17 -49 17q-16 0 -29.5 -6t-33.5 -18q-11 -6 -16 -6q-7 0 -11 10l-8 18q-4 10 -4 11q0 7 14 16q52 32 90 32q24 0 64 -20q32 -15 45 -15q14 0 28 6.5t34 20.5q9 5 15 5q9 0 14 -9l8 -11q5 -8 5 -12q0 -8 -8 -14
q-56 -43 -104 -43q-13 0 -25 4.5z" />
    <glyph glyph-name="V" unicode="V" horiz-adv-x="582" 
d="M261.5 3.5q-4.5 3.5 -8.5 15.5l-233 646q-3 6 -3 12q0 10 13 10h42q14 0 19 -3.5t9 -14.5l198 -566h1l192 565q4 12 9 15.5t17 3.5h31q21 0 14 -18l-228 -652q-4 -10 -9 -13.5t-14 -3.5h-36q-9 0 -13.5 3.5z" />
    <glyph glyph-name="W" unicode="W" horiz-adv-x="863" 
d="M216 3.5q-4 3.5 -8 15.5l-188 646q-2 8 -2 12q0 10 12 10h42q14 0 19.5 -3.5t8.5 -14.5l152 -566h1l139 565q3 12 8 15.5t18 3.5h30q17 0 21 -18l145 -566h1l156 565q4 12 8.5 15.5t17.5 3.5h31q21 0 15 -18l-194 -652q-3 -10 -8 -13.5t-14 -3.5h-36q-10 0 -14.5 3.5
t-7.5 15.5l-139 555h-1l-141 -557q-2 -10 -7.5 -13.5t-15.5 -3.5h-35q-10 0 -14 3.5z" />
    <glyph glyph-name="Wacute" unicode="&#x1e82;" horiz-adv-x="863" 
d="M216 3.5q-4 3.5 -8 15.5l-188 646q-2 8 -2 12q0 10 12 10h42q14 0 19.5 -3.5t8.5 -14.5l152 -566h1l139 565q3 12 8 15.5t18 3.5h30q17 0 21 -18l145 -566h1l156 565q4 12 8.5 15.5t17.5 3.5h31q21 0 15 -18l-194 -652q-3 -10 -8 -13.5t-14 -3.5h-36q-10 0 -14.5 3.5
t-7.5 15.5l-139 555h-1l-141 -557q-2 -10 -7.5 -13.5t-15.5 -3.5h-35q-10 0 -14 3.5zM354 760l-9 14q-3 6 -3 9q0 7 7 11l147 90q5 4 12 4t13 -9l17 -27q3 -6 3 -11q0 -7 -9 -12l-158 -74q-6 -2 -8 -2q-8 0 -12 7z" />
    <glyph glyph-name="Wcircumflex" unicode="&#x174;" horiz-adv-x="863" 
d="M216 3.5q-4 3.5 -8 15.5l-188 646q-2 8 -2 12q0 10 12 10h42q14 0 19.5 -3.5t8.5 -14.5l152 -566h1l139 565q3 12 8 15.5t18 3.5h30q17 0 21 -18l145 -566h1l156 565q4 12 8.5 15.5t17.5 3.5h31q21 0 15 -18l-194 -652q-3 -10 -8 -13.5t-14 -3.5h-36q-10 0 -14.5 3.5
t-7.5 15.5l-139 555h-1l-141 -557q-2 -10 -7.5 -13.5t-15.5 -3.5h-35q-10 0 -14 3.5zM301 764l-8 10q-5 7 -5 11t6 10l118 107q8 6 14 6h12q6 0 14 -6l118 -107q6 -4 6 -12q0 -5 -4 -9l-9 -10q-6 -6 -10 -6q-5 0 -10 4l-111 83l-111 -83q-5 -4 -10 -4q-6 0 -10 6z" />
    <glyph glyph-name="Wdieresis" unicode="&#x1e84;" horiz-adv-x="863" 
d="M216 3.5q-4 3.5 -8 15.5l-188 646q-2 8 -2 12q0 10 12 10h42q14 0 19.5 -3.5t8.5 -14.5l152 -566h1l139 565q3 12 8 15.5t18 3.5h30q17 0 21 -18l145 -566h1l156 565q4 12 8.5 15.5t17.5 3.5h31q21 0 15 -18l-194 -652q-3 -10 -8 -13.5t-14 -3.5h-36q-10 0 -14.5 3.5
t-7.5 15.5l-139 555h-1l-141 -557q-2 -10 -7.5 -13.5t-15.5 -3.5h-35q-10 0 -14 3.5zM314 791q-15 12 -15 32q0 21 14.5 33t33.5 12t32.5 -12.5t13.5 -32.5t-14 -32t-32 -12t-33 12zM486 791q-15 12 -15 32q0 21 14.5 33t33.5 12t32.5 -12.5t13.5 -32.5t-14 -32t-32 -12
t-33 12z" />
    <glyph glyph-name="Wgrave" unicode="&#x1e80;" horiz-adv-x="863" 
d="M216 3.5q-4 3.5 -8 15.5l-188 646q-2 8 -2 12q0 10 12 10h42q14 0 19.5 -3.5t8.5 -14.5l152 -566h1l139 565q3 12 8 15.5t18 3.5h30q17 0 21 -18l145 -566h1l156 565q4 12 8.5 15.5t17.5 3.5h31q21 0 15 -18l-194 -652q-3 -10 -8 -13.5t-14 -3.5h-36q-10 0 -14.5 3.5
t-7.5 15.5l-139 555h-1l-141 -557q-2 -10 -7.5 -13.5t-15.5 -3.5h-35q-10 0 -14 3.5zM499 759l-158 74q-9 5 -9 12q0 5 3 11l17 27q6 9 13 9t12 -4l147 -90q7 -4 7 -11q0 -3 -3 -9l-9 -14q-4 -7 -12 -7q-2 0 -8 2z" />
    <glyph glyph-name="X" unicode="X" horiz-adv-x="533" 
d="M20 7q0 5 5 13l207 337l-188 314q-2 3 -2 7t3 6.5t7 2.5h46q9 0 12.5 -2.5t9.5 -11.5l150 -253l146 253q5 9 9.5 11.5t12.5 2.5h44q10 0 10 -7q0 -4 -3 -9l-186 -306l204 -339q6 -10 6 -16q0 -10 -14 -10h-37q-12 0 -19.5 4t-13.5 14l-164 283l-164 -281q-7 -12 -13 -16
t-19 -4h-35q-14 0 -14 7z" />
    <glyph glyph-name="Y" unicode="Y" horiz-adv-x="522" 
d="M234 3.5q-3 3.5 -3 12.5v247l-212 406q-3 6 -3 9q0 9 15 9h33q13 0 19 -3.5t11 -12.5l176 -348h1l168 345q6 13 10.5 16t17.5 3h24q7 0 10.5 -1.5t3.5 -5.5q0 -3 -5 -15l-200 -401v-249q0 -9 -2.5 -12t-10.5 -3h-43q-7 0 -10 3.5z" />
    <glyph glyph-name="Yacute" unicode="&#xdd;" horiz-adv-x="522" 
d="M234 3.5q-3 3.5 -3 12.5v247l-212 406q-3 6 -3 9q0 9 15 9h33q13 0 19 -3.5t11 -12.5l176 -348h1l168 345q6 13 10.5 16t17.5 3h24q7 0 10.5 -1.5t3.5 -5.5q0 -3 -5 -15l-200 -401v-249q0 -9 -2.5 -12t-10.5 -3h-43q-7 0 -10 3.5zM183 760l-9 14q-3 6 -3 9q0 7 7 11
l147 90q5 4 12 4t13 -9l17 -27q3 -6 3 -11q0 -7 -9 -12l-158 -74q-6 -2 -8 -2q-8 0 -12 7z" />
    <glyph glyph-name="Ycircumflex" unicode="&#x176;" horiz-adv-x="522" 
d="M234 3.5q-3 3.5 -3 12.5v247l-212 406q-3 6 -3 9q0 9 15 9h33q13 0 19 -3.5t11 -12.5l176 -348h1l168 345q6 13 10.5 16t17.5 3h24q7 0 10.5 -1.5t3.5 -5.5q0 -3 -5 -15l-200 -401v-249q0 -9 -2.5 -12t-10.5 -3h-43q-7 0 -10 3.5zM130 764l-8 10q-5 7 -5 11t6 10l118 107
q8 6 14 6h12q6 0 14 -6l118 -107q6 -4 6 -12q0 -5 -4 -9l-9 -10q-6 -6 -10 -6q-5 0 -10 4l-111 83l-111 -83q-5 -4 -10 -4q-6 0 -10 6z" />
    <glyph glyph-name="Ydieresis" unicode="&#x178;" horiz-adv-x="522" 
d="M234 3.5q-3 3.5 -3 12.5v247l-212 406q-3 6 -3 9q0 9 15 9h33q13 0 19 -3.5t11 -12.5l176 -348h1l168 345q6 13 10.5 16t17.5 3h24q7 0 10.5 -1.5t3.5 -5.5q0 -3 -5 -15l-200 -401v-249q0 -9 -2.5 -12t-10.5 -3h-43q-7 0 -10 3.5zM143 791q-15 12 -15 32q0 21 14.5 33
t33.5 12t32.5 -12.5t13.5 -32.5t-14 -32t-32 -12t-33 12zM315 791q-15 12 -15 32q0 21 14.5 33t33.5 12t32.5 -12.5t13.5 -32.5t-14 -32t-32 -12t-33 12z" />
    <glyph glyph-name="Ygrave" unicode="&#x1ef2;" horiz-adv-x="522" 
d="M234 3.5q-3 3.5 -3 12.5v247l-212 406q-3 6 -3 9q0 9 15 9h33q13 0 19 -3.5t11 -12.5l176 -348h1l168 345q6 13 10.5 16t17.5 3h24q7 0 10.5 -1.5t3.5 -5.5q0 -3 -5 -15l-200 -401v-249q0 -9 -2.5 -12t-10.5 -3h-43q-7 0 -10 3.5zM328 759l-158 74q-9 5 -9 12q0 5 3 11
l17 27q6 9 13 9t12 -4l147 -90q7 -4 7 -11q0 -3 -3 -9l-9 -14q-4 -7 -12 -7q-2 0 -8 2z" />
    <glyph glyph-name="Z" unicode="Z" horiz-adv-x="511" 
d="M21.5 2.5q-2.5 2.5 -2.5 8.5v17q0 10 7 22l370 583h-321q-13 0 -16 2t-3 10v30q0 8 2 10t11 2h398q9 0 12.5 -2.5t3.5 -9.5v-13q0 -13 -7 -25l-372 -583h369q9 0 12 -2t3 -9v-30q0 -8 -2.5 -10.5t-11.5 -2.5h-443q-7 0 -9.5 2.5z" />
    <glyph glyph-name="Zacute" unicode="&#x179;" horiz-adv-x="511" 
d="M21.5 2.5q-2.5 2.5 -2.5 8.5v17q0 10 7 22l370 583h-321q-13 0 -16 2t-3 10v30q0 8 2 10t11 2h398q9 0 12.5 -2.5t3.5 -9.5v-13q0 -13 -7 -25l-372 -583h369q9 0 12 -2t3 -9v-30q0 -8 -2.5 -10.5t-11.5 -2.5h-443q-7 0 -9.5 2.5zM188 760l-9 14q-3 6 -3 9q0 7 7 11
l147 90q5 4 12 4t13 -9l17 -27q3 -6 3 -11q0 -7 -9 -12l-158 -74q-6 -2 -8 -2q-8 0 -12 7z" />
    <glyph glyph-name="Zcaron" unicode="&#x17d;" horiz-adv-x="511" 
d="M21.5 2.5q-2.5 2.5 -2.5 8.5v17q0 10 7 22l370 583h-321q-13 0 -16 2t-3 10v30q0 8 2 10t11 2h398q9 0 12.5 -2.5t3.5 -9.5v-13q0 -13 -7 -25l-372 -583h369q9 0 12 -2t3 -9v-30q0 -8 -2.5 -10.5t-11.5 -2.5h-443q-7 0 -9.5 2.5zM246 754l-118 107q-6 5 -6 11t4 10l9 10
q6 6 11 6q3 0 9 -4l111 -83l111 83q5 4 10 4q6 0 10 -6l8 -10q5 -7 5 -11q0 -5 -6 -10l-118 -107q-6 -6 -14 -6h-12q-8 0 -14 6z" />
    <glyph glyph-name="Zdotaccent" unicode="&#x17b;" horiz-adv-x="511" 
d="M21.5 2.5q-2.5 2.5 -2.5 8.5v17q0 10 7 22l370 583h-321q-13 0 -16 2t-3 10v30q0 8 2 10t11 2h398q9 0 12.5 -2.5t3.5 -9.5v-13q0 -13 -7 -25l-372 -583h369q9 0 12 -2t3 -9v-30q0 -8 -2.5 -10.5t-11.5 -2.5h-443q-7 0 -9.5 2.5zM222 793.5q-20 16.5 -20 43.5
q0 28 19.5 44.5t45.5 16.5q25 0 44 -16.5t19 -43.5t-19.5 -44t-43.5 -17q-25 0 -45 16.5z" />
    <glyph glyph-name="a" unicode="a" horiz-adv-x="519" 
d="M123 24.5q-44 33.5 -65 88.5t-21 120q0 80 28 138.5t76 89.5t107 31q38 0 75.5 -16t61.5 -47l1 37q0 16 18 16h30q15 0 15 -18v-351q0 -19 0.5 -34.5t3.5 -20.5q5 -12 21 -12h7q6 0 8.5 -2t2.5 -9v-25q0 -6 -2.5 -8t-9.5 -2h-38q-28 0 -42 20.5t-14 51.5v13
q-15 -38 -60 -66t-94 -28q-65 0 -109 33.5zM329 80.5q40 35.5 56 85.5v192q-19 39 -55.5 61.5t-77.5 22.5q-43 0 -77 -24.5t-53 -71t-19 -109.5q0 -61 18 -104.5t49 -65.5t67 -22q52 0 92 35.5z" />
    <glyph glyph-name="aacute" unicode="&#xe1;" horiz-adv-x="519" 
d="M123 24.5q-44 33.5 -65 88.5t-21 120q0 80 28 138.5t76 89.5t107 31q38 0 75.5 -16t61.5 -47l1 37q0 16 18 16h30q15 0 15 -18v-351q0 -19 0.5 -34.5t3.5 -20.5q5 -12 21 -12h7q6 0 8.5 -2t2.5 -9v-25q0 -6 -2.5 -8t-9.5 -2h-38q-28 0 -42 20.5t-14 51.5v13
q-15 -38 -60 -66t-94 -28q-65 0 -109 33.5zM329 80.5q40 35.5 56 85.5v192q-19 39 -55.5 61.5t-77.5 22.5q-43 0 -77 -24.5t-53 -71t-19 -109.5q0 -61 18 -104.5t49 -65.5t67 -22q52 0 92 35.5zM178 560l-9 14q-3 6 -3 9q0 7 7 11l147 90q5 4 12 4t13 -9l17 -27q3 -6 3 -11
q0 -7 -9 -12l-158 -74q-6 -2 -8 -2q-8 0 -12 7z" />
    <glyph glyph-name="abreve" unicode="&#x103;" horiz-adv-x="519" 
d="M123 24.5q-44 33.5 -65 88.5t-21 120q0 80 28 138.5t76 89.5t107 31q38 0 75.5 -16t61.5 -47l1 37q0 16 18 16h30q15 0 15 -18v-351q0 -19 0.5 -34.5t3.5 -20.5q5 -12 21 -12h7q6 0 8.5 -2t2.5 -9v-25q0 -6 -2.5 -8t-9.5 -2h-38q-28 0 -42 20.5t-14 51.5v13
q-15 -38 -60 -66t-94 -28q-65 0 -109 33.5zM329 80.5q40 35.5 56 85.5v192q-19 39 -55.5 61.5t-77.5 22.5q-43 0 -77 -24.5t-53 -71t-19 -109.5q0 -61 18 -104.5t49 -65.5t67 -22q52 0 92 35.5zM182 576q-22 13 -37.5 35t-15.5 45q0 8 3.5 10t11.5 2h21q10 0 13.5 -2.5
t8.5 -11.5q23 -46 69 -46q49 0 71 46q5 9 8.5 11.5t13.5 2.5h19q8 0 11.5 -2t3.5 -10q0 -24 -16 -46.5t-39 -35.5q-31 -17 -70 -17q-43 0 -76 19z" />
    <glyph glyph-name="uni01CE" unicode="&#x1ce;" horiz-adv-x="519" 
d="M123 24.5q-44 33.5 -65 88.5t-21 120q0 80 28 138.5t76 89.5t107 31q38 0 75.5 -16t61.5 -47l1 37q0 16 18 16h30q15 0 15 -18v-351q0 -19 0.5 -34.5t3.5 -20.5q5 -12 21 -12h7q6 0 8.5 -2t2.5 -9v-25q0 -6 -2.5 -8t-9.5 -2h-38q-28 0 -42 20.5t-14 51.5v13
q-15 -38 -60 -66t-94 -28q-65 0 -109 33.5zM329 80.5q40 35.5 56 85.5v192q-19 39 -55.5 61.5t-77.5 22.5q-43 0 -77 -24.5t-53 -71t-19 -109.5q0 -61 18 -104.5t49 -65.5t67 -22q52 0 92 35.5zM236 554l-118 107q-6 5 -6 11t4 10l9 10q6 6 11 6q3 0 9 -4l111 -83l111 83
q5 4 10 4q6 0 10 -6l8 -10q5 -7 5 -11q0 -5 -6 -10l-118 -107q-6 -6 -14 -6h-12q-8 0 -14 6z" />
    <glyph glyph-name="acircumflex" unicode="&#xe2;" horiz-adv-x="519" 
d="M123 24.5q-44 33.5 -65 88.5t-21 120q0 80 28 138.5t76 89.5t107 31q38 0 75.5 -16t61.5 -47l1 37q0 16 18 16h30q15 0 15 -18v-351q0 -19 0.5 -34.5t3.5 -20.5q5 -12 21 -12h7q6 0 8.5 -2t2.5 -9v-25q0 -6 -2.5 -8t-9.5 -2h-38q-28 0 -42 20.5t-14 51.5v13
q-15 -38 -60 -66t-94 -28q-65 0 -109 33.5zM329 80.5q40 35.5 56 85.5v192q-19 39 -55.5 61.5t-77.5 22.5q-43 0 -77 -24.5t-53 -71t-19 -109.5q0 -61 18 -104.5t49 -65.5t67 -22q52 0 92 35.5zM125 564l-8 10q-5 7 -5 11t6 10l118 107q8 6 14 6h12q6 0 14 -6l118 -107
q6 -4 6 -12q0 -5 -4 -9l-9 -10q-6 -6 -10 -6q-5 0 -10 4l-111 83l-111 -83q-5 -4 -10 -4q-6 0 -10 6z" />
    <glyph glyph-name="adieresis" unicode="&#xe4;" horiz-adv-x="519" 
d="M123 24.5q-44 33.5 -65 88.5t-21 120q0 80 28 138.5t76 89.5t107 31q38 0 75.5 -16t61.5 -47l1 37q0 16 18 16h30q15 0 15 -18v-351q0 -19 0.5 -34.5t3.5 -20.5q5 -12 21 -12h7q6 0 8.5 -2t2.5 -9v-25q0 -6 -2.5 -8t-9.5 -2h-38q-28 0 -42 20.5t-14 51.5v13
q-15 -38 -60 -66t-94 -28q-65 0 -109 33.5zM329 80.5q40 35.5 56 85.5v192q-19 39 -55.5 61.5t-77.5 22.5q-43 0 -77 -24.5t-53 -71t-19 -109.5q0 -61 18 -104.5t49 -65.5t67 -22q52 0 92 35.5zM138 591q-15 12 -15 32q0 21 14.5 33t33.5 12t32.5 -12.5t13.5 -32.5t-14 -32
t-32 -12t-33 12zM310 591q-15 12 -15 32q0 21 14.5 33t33.5 12t32.5 -12.5t13.5 -32.5t-14 -32t-32 -12t-33 12z" />
    <glyph glyph-name="agrave" unicode="&#xe0;" horiz-adv-x="519" 
d="M123 24.5q-44 33.5 -65 88.5t-21 120q0 80 28 138.5t76 89.5t107 31q38 0 75.5 -16t61.5 -47l1 37q0 16 18 16h30q15 0 15 -18v-351q0 -19 0.5 -34.5t3.5 -20.5q5 -12 21 -12h7q6 0 8.5 -2t2.5 -9v-25q0 -6 -2.5 -8t-9.5 -2h-38q-28 0 -42 20.5t-14 51.5v13
q-15 -38 -60 -66t-94 -28q-65 0 -109 33.5zM329 80.5q40 35.5 56 85.5v192q-19 39 -55.5 61.5t-77.5 22.5q-43 0 -77 -24.5t-53 -71t-19 -109.5q0 -61 18 -104.5t49 -65.5t67 -22q52 0 92 35.5zM323 559l-158 74q-9 5 -9 12q0 5 3 11l17 27q6 9 13 9t12 -4l147 -90
q7 -4 7 -11q0 -3 -3 -9l-9 -14q-4 -7 -12 -7q-2 0 -8 2z" />
    <glyph glyph-name="amacron" unicode="&#x101;" horiz-adv-x="519" 
d="M123 24.5q-44 33.5 -65 88.5t-21 120q0 80 28 138.5t76 89.5t107 31q38 0 75.5 -16t61.5 -47l1 37q0 16 18 16h30q15 0 15 -18v-351q0 -19 0.5 -34.5t3.5 -20.5q5 -12 21 -12h7q6 0 8.5 -2t2.5 -9v-25q0 -6 -2.5 -8t-9.5 -2h-38q-28 0 -42 20.5t-14 51.5v13
q-15 -38 -60 -66t-94 -28q-65 0 -109 33.5zM329 80.5q40 35.5 56 85.5v192q-19 39 -55.5 61.5t-77.5 22.5q-43 0 -77 -24.5t-53 -71t-19 -109.5q0 -61 18 -104.5t49 -65.5t67 -22q52 0 92 35.5zM133 584.5q-5 4.5 -5 16.5v17q0 11 5 15.5t21 4.5h200q18 0 23.5 -4t5.5 -16
v-17q0 -12 -5.5 -16.5t-23.5 -4.5h-200q-16 0 -21 4.5z" />
    <glyph glyph-name="aogonek" unicode="&#x105;" horiz-adv-x="519" 
d="M355.5 -177q-24.5 23 -24.5 55q0 73 96 122v1q-18 3 -29.5 23t-11.5 48v13q-15 -38 -60 -66t-94 -28q-65 0 -109 33.5t-65 88.5t-21 120q0 80 28 138.5t76 89.5t107 31q38 0 75.5 -16t61.5 -47l1 37q0 16 18 16h30q15 0 15 -18v-351q0 -19 0.5 -34.5t3.5 -20.5
q5 -12 21 -12h7q6 0 8.5 -2t2.5 -9v-25q0 -6 -2.5 -8t-7 -5t-6.5 -4q-19 -12 -28 -19q-56 -46 -56 -85q0 -42 55 -42q10 0 26.5 2.5t27.5 6.5l3 1q9 0 10 -7l4 -14q1 -2 1 -6q0 -11 -12 -15q-16 -6 -39 -10.5t-42 -4.5q-46 0 -70.5 23zM329 80.5q40 35.5 56 85.5v192
q-19 39 -55.5 61.5t-77.5 22.5q-43 0 -77 -24.5t-53 -71t-19 -109.5q0 -61 18 -104.5t49 -65.5t67 -22q52 0 92 35.5z" />
    <glyph glyph-name="aring" unicode="&#xe5;" horiz-adv-x="519" 
d="M123 24.5q-44 33.5 -65 88.5t-21 120q0 80 28 138.5t76 89.5t107 31q38 0 75.5 -16t61.5 -47l1 37q0 16 18 16h30q15 0 15 -18v-351q0 -19 0.5 -34.5t3.5 -20.5q5 -12 21 -12h7q6 0 8.5 -2t2.5 -9v-25q0 -6 -2.5 -8t-9.5 -2h-38q-28 0 -42 20.5t-14 51.5v13
q-15 -38 -60 -66t-94 -28q-65 0 -109 33.5zM329 80.5q40 35.5 56 85.5v192q-19 39 -55.5 61.5t-77.5 22.5q-43 0 -77 -24.5t-53 -71t-19 -109.5q0 -61 18 -104.5t49 -65.5t67 -22q52 0 92 35.5zM199.5 562.5q-24.5 23.5 -24.5 55.5t24.5 56t56.5 24q33 0 56.5 -24t23.5 -56
t-23.5 -55.5t-56.5 -23.5q-32 0 -56.5 23.5zM278.5 595.5q9.5 9.5 9.5 22.5q0 14 -9.5 23t-22.5 9q-14 0 -23.5 -9.5t-9.5 -22.5t9.5 -22.5t23.5 -9.5q13 0 22.5 9.5z" />
    <glyph glyph-name="aringacute" unicode="&#x1fb;" horiz-adv-x="519" 
d="M172 691l-9 14q-3 6 -3 9q0 7 7 11l147 90q5 4 12 4t13 -9l17 -27q3 -6 3 -11q0 -7 -9 -12l-158 -74q-6 -2 -8 -2q-8 0 -12 7zM203.5 543.5q-24.5 23.5 -24.5 55.5t24.5 56t56.5 24q33 0 56.5 -24t23.5 -56t-23.5 -55.5t-56.5 -23.5q-32 0 -56.5 23.5zM283 576.5
q9 9.5 9 22.5q0 14 -9 23t-23 9t-23.5 -9.5t-9.5 -22.5t9.5 -22.5t23.5 -9.5t23 9.5zM123 24.5q-44 33.5 -65 88.5t-21 120q0 80 28 138.5t76 89.5t107 31q38 0 75.5 -16t61.5 -47l1 37q0 16 18 16h30q15 0 15 -18v-351q0 -19 0.5 -34.5t3.5 -20.5q5 -12 21 -12h7
q6 0 8.5 -2t2.5 -9v-25q0 -6 -2.5 -8t-9.5 -2h-38q-28 0 -42 20.5t-14 51.5v13q-15 -38 -60 -66t-94 -28q-65 0 -109 33.5zM329 80.5q40 35.5 56 85.5v192q-19 39 -55.5 61.5t-77.5 22.5q-43 0 -77 -24.5t-53 -71t-19 -109.5q0 -61 18 -104.5t49 -65.5t67 -22q52 0 92 35.5z
" />
    <glyph glyph-name="atilde" unicode="&#xe3;" horiz-adv-x="519" 
d="M123 24.5q-44 33.5 -65 88.5t-21 120q0 80 28 138.5t76 89.5t107 31q38 0 75.5 -16t61.5 -47l1 37q0 16 18 16h30q15 0 15 -18v-351q0 -19 0.5 -34.5t3.5 -20.5q5 -12 21 -12h7q6 0 8.5 -2t2.5 -9v-25q0 -6 -2.5 -8t-9.5 -2h-38q-28 0 -42 20.5t-14 51.5v13
q-15 -38 -60 -66t-94 -28q-65 0 -109 33.5zM329 80.5q40 35.5 56 85.5v192q-19 39 -55.5 61.5t-77.5 22.5q-43 0 -77 -24.5t-53 -71t-19 -109.5q0 -61 18 -104.5t49 -65.5t67 -22q52 0 92 35.5zM277 576.5q-12 4.5 -29 13.5q-30 17 -49 17q-16 0 -29.5 -6t-33.5 -18
q-11 -6 -16 -6q-7 0 -11 10l-8 18q-4 10 -4 11q0 7 14 16q52 32 90 32q24 0 64 -20q32 -15 45 -15q14 0 28 6.5t34 20.5q9 5 15 5q9 0 14 -9l8 -11q5 -8 5 -12q0 -8 -8 -14q-56 -43 -104 -43q-13 0 -25 4.5z" />
    <glyph glyph-name="ae" unicode="&#xe6;" horiz-adv-x="758" 
d="M78 26.5q-43 36.5 -43 102.5q0 30 12 56t32 44q39 36 94 50t123 14h29v34q0 60 -23.5 89.5t-78.5 29.5q-28 0 -63.5 -10t-70.5 -30q-5 -3 -8 -3q-4 0 -7 6l-9 20q-2 4 -2 6q0 6 8 11q38 23 80 34.5t77 11.5q72 0 112 -35q9 -8 18.5 -20.5t14.5 -23.5q28 38 69.5 58.5
t94.5 20.5q58 0 100 -27t64 -74t22 -106v-29q-1 -11 -7 -14t-21 -3h-317q0 -85 43 -139.5t125 -54.5q32 0 67 6.5t58 16.5q6 2 7 2q8 0 10 -9l5 -23q1 -3 1 -8q0 -7 -10 -11q-28 -13 -69 -20.5t-75 -7.5q-75 0 -126 34q-20 13 -32 26q-3 3 -7 8t-9 11q-26 -34 -73.5 -57
t-110.5 -23q-61 0 -104 36.5zM658 284q1 7 1 20q0 60 -32 99.5t-92 39.5q-67 0 -107.5 -46t-47.5 -113h278zM281 60q41 21 65 47q-24 56 -24 135v10h-26q-77 0 -135.5 -27t-58.5 -94q0 -45 28 -68.5t66 -23.5q44 0 85 21z" />
    <glyph glyph-name="aeacute" unicode="&#x1fd;" horiz-adv-x="758" 
d="M78 26.5q-43 36.5 -43 102.5q0 30 12 56t32 44q39 36 94 50t123 14h29v34q0 60 -23.5 89.5t-78.5 29.5q-28 0 -63.5 -10t-70.5 -30q-5 -3 -8 -3q-4 0 -7 6l-9 20q-2 4 -2 6q0 6 8 11q38 23 80 34.5t77 11.5q72 0 112 -35q9 -8 18.5 -20.5t14.5 -23.5q28 38 69.5 58.5
t94.5 20.5q58 0 100 -27t64 -74t22 -106v-29q-1 -11 -7 -14t-21 -3h-317q0 -85 43 -139.5t125 -54.5q32 0 67 6.5t58 16.5q6 2 7 2q8 0 10 -9l5 -23q1 -3 1 -8q0 -7 -10 -11q-28 -13 -69 -20.5t-75 -7.5q-75 0 -126 34q-20 13 -32 26q-3 3 -7 8t-9 11q-26 -34 -73.5 -57
t-110.5 -23q-61 0 -104 36.5zM658 284q1 7 1 20q0 60 -32 99.5t-92 39.5q-67 0 -107.5 -46t-47.5 -113h278zM281 60q41 21 65 47q-24 56 -24 135v10h-26q-77 0 -135.5 -27t-58.5 -94q0 -45 28 -68.5t66 -23.5q44 0 85 21zM321 560l-9 14q-3 6 -3 9q0 7 7 11l147 90q5 4 12 4
t13 -9l17 -27q3 -6 3 -11q0 -7 -9 -12l-158 -74q-6 -2 -8 -2q-8 0 -12 7z" />
    <glyph glyph-name="b" unicode="b" horiz-adv-x="525" 
d="M189 9.5q-37 18.5 -61 46.5l-1 -38q0 -10 -4 -14t-15 -4h-25q-9 0 -12.5 3t-3.5 12v671q0 9 2.5 13t10.5 5l28 4l11 1q12 0 12 -16v-264q25 27 65 45t86 18q101 0 151.5 -70.5t50.5 -178.5q0 -70 -24 -127t-73 -91t-121 -34q-40 0 -77 18.5zM379 96.5q39 55.5 39 141.5
q0 95 -36.5 149t-109.5 54q-37 0 -76 -20t-65 -49v-254q22 -35 57.5 -56t74.5 -21q77 0 116 55.5z" />
    <glyph glyph-name="c" unicode="c" horiz-adv-x="422" 
d="M98.5 59.5q-57.5 68.5 -57.5 183.5q0 71 28 128t80.5 89t124.5 32q31 0 66 -8.5t59 -21.5q9 -4 9 -11l-2 -8l-6 -18q-1 -4 -3.5 -7.5t-6.5 -3.5q-1 0 -7 2q-58 27 -110 27q-75 0 -120.5 -54t-45.5 -144q0 -88 39.5 -147t123.5 -59q30 0 62 7t54 17q6 2 8 2q6 0 9 -9
l5 -18q1 -2 1 -7q0 -6 -10 -12q-60 -28 -129 -28q-114 0 -171.5 68.5z" />
    <glyph glyph-name="cacute" unicode="&#x107;" horiz-adv-x="422" 
d="M98.5 59.5q-57.5 68.5 -57.5 183.5q0 71 28 128t80.5 89t124.5 32q31 0 66 -8.5t59 -21.5q9 -4 9 -11l-2 -8l-6 -18q-1 -4 -3.5 -7.5t-6.5 -3.5q-1 0 -7 2q-58 27 -110 27q-75 0 -120.5 -54t-45.5 -144q0 -88 39.5 -147t123.5 -59q30 0 62 7t54 17q6 2 8 2q6 0 9 -9
l5 -18q1 -2 1 -7q0 -6 -10 -12q-60 -28 -129 -28q-114 0 -171.5 68.5zM186 560l-9 14q-3 6 -3 9q0 7 7 11l147 90q5 4 12 4t13 -9l17 -27q3 -6 3 -11q0 -7 -9 -12l-158 -74q-6 -2 -8 -2q-8 0 -12 7z" />
    <glyph glyph-name="ccaron" unicode="&#x10d;" horiz-adv-x="422" 
d="M98.5 59.5q-57.5 68.5 -57.5 183.5q0 71 28 128t80.5 89t124.5 32q31 0 66 -8.5t59 -21.5q9 -4 9 -11l-2 -8l-6 -18q-1 -4 -3.5 -7.5t-6.5 -3.5q-1 0 -7 2q-58 27 -110 27q-75 0 -120.5 -54t-45.5 -144q0 -88 39.5 -147t123.5 -59q30 0 62 7t54 17q6 2 8 2q6 0 9 -9
l5 -18q1 -2 1 -7q0 -6 -10 -12q-60 -28 -129 -28q-114 0 -171.5 68.5zM244 554l-118 107q-6 5 -6 11t4 10l9 10q6 6 11 6q3 0 9 -4l111 -83l111 83q5 4 10 4q6 0 10 -6l8 -10q5 -7 5 -11q0 -5 -6 -10l-118 -107q-6 -6 -14 -6h-12q-8 0 -14 6z" />
    <glyph glyph-name="ccedilla" unicode="&#xe7;" horiz-adv-x="422" 
d="M409 31q0 -6 -10 -12q-57 -26 -124 -28l-2 -41h8q36 0 61.5 -16.5t25.5 -54.5q0 -33 -23 -55t-69 -22q-18 0 -31 2.5t-30 9.5q-14 6 -14 12q0 3 1 5l4 12q3 8 8 8l9 -2q12 -4 27.5 -7t25.5 -3q17 0 30.5 9t14.5 26v4q0 17 -13.5 26.5t-39.5 9.5h-16q-14 0 -19.5 6
t-5.5 17q0 9 1 14l4 42q-95 12 -143 78.5t-48 171.5q0 71 28 128t80.5 89t124.5 32q31 0 66 -8.5t59 -21.5q9 -4 9 -11l-2 -8l-6 -18q-1 -4 -3.5 -7.5t-6.5 -3.5q-1 0 -7 2q-58 27 -110 27q-75 0 -120.5 -54t-45.5 -144q0 -88 39.5 -147t123.5 -59q30 0 62 7t54 17q6 2 8 2
q6 0 9 -9l5 -18q1 -2 1 -7z" />
    <glyph glyph-name="ccircumflex" unicode="&#x109;" horiz-adv-x="422" 
d="M98.5 59.5q-57.5 68.5 -57.5 183.5q0 71 28 128t80.5 89t124.5 32q31 0 66 -8.5t59 -21.5q9 -4 9 -11l-2 -8l-6 -18q-1 -4 -3.5 -7.5t-6.5 -3.5q-1 0 -7 2q-58 27 -110 27q-75 0 -120.5 -54t-45.5 -144q0 -88 39.5 -147t123.5 -59q30 0 62 7t54 17q6 2 8 2q6 0 9 -9
l5 -18q1 -2 1 -7q0 -6 -10 -12q-60 -28 -129 -28q-114 0 -171.5 68.5zM133 564l-8 10q-5 7 -5 11t6 10l118 107q8 6 14 6h12q6 0 14 -6l118 -107q6 -4 6 -12q0 -5 -4 -9l-9 -10q-6 -6 -10 -6q-5 0 -10 4l-111 83l-111 -83q-5 -4 -10 -4q-6 0 -10 6z" />
    <glyph glyph-name="cdotaccent" unicode="&#x10b;" horiz-adv-x="422" 
d="M98.5 59.5q-57.5 68.5 -57.5 183.5q0 71 28 128t80.5 89t124.5 32q31 0 66 -8.5t59 -21.5q9 -4 9 -11l-2 -8l-6 -18q-1 -4 -3.5 -7.5t-6.5 -3.5q-1 0 -7 2q-58 27 -110 27q-75 0 -120.5 -54t-45.5 -144q0 -88 39.5 -147t123.5 -59q30 0 62 7t54 17q6 2 8 2q6 0 9 -9
l5 -18q1 -2 1 -7q0 -6 -10 -12q-60 -28 -129 -28q-114 0 -171.5 68.5zM220 593.5q-20 16.5 -20 43.5q0 28 19.5 44.5t45.5 16.5q25 0 44 -16.5t19 -43.5t-19.5 -44t-43.5 -17q-25 0 -45 16.5z" />
    <glyph glyph-name="d" unicode="d" horiz-adv-x="526" 
d="M91.5 62q-50.5 71 -50.5 178q0 75 28 132t77.5 88.5t112.5 31.5q37 0 75.5 -16.5t60.5 -44.5v255q0 9 2.5 13t10.5 5l40 5h1q10 0 10 -16v-675q0 -8 -3.5 -13t-8.5 -5h-29q-11 0 -15 4t-4 14l-1 42q-26 -32 -67.5 -50.5t-86.5 -18.5q-102 0 -152.5 71zM333.5 63
q40.5 22 61.5 54v243q-17 35 -54 58.5t-77 23.5q-72 0 -114.5 -53t-42.5 -147q0 -91 39.5 -146t107.5 -55q39 0 79.5 22z" />
    <glyph glyph-name="eth" unicode="&#xf0;" horiz-adv-x="521" 
d="M95 60.5q-54 69.5 -54 181.5q0 71 26 127.5t76 89.5t120 33q42 0 78 -11q-17 48 -55.5 84.5t-82.5 57.5l-37 -77q-4 -7 -7 -7t-9 3l-18 9q-7 4 -7 8t3 8l38 73q-49 16 -87 22q-12 1 -12 11v4l3 17q1 9 4.5 11t11.5 2h8q46 -4 100 -18l34 66q5 8 8 8t7 -3l18 -10
q7 -4 7 -8t-2 -7l-32 -63q78 -36 134 -108.5t85 -158t29 -161.5q0 -69 -25.5 -127t-76 -92t-123.5 -34q-108 0 -162 69.5zM377 97q38 58 38 143t-36.5 144t-115.5 59q-82 0 -119 -58.5t-37 -140.5q0 -86 35.5 -145.5t115.5 -59.5q81 0 119 58z" />
    <glyph glyph-name="dcaron" unicode="&#x10f;" horiz-adv-x="526" 
d="M91.5 62q-50.5 71 -50.5 178q0 75 28 132t77.5 88.5t112.5 31.5q37 0 75.5 -16.5t60.5 -44.5v255q0 9 2.5 13t10.5 5l40 5h1q10 0 10 -16v-675q0 -8 -3.5 -13t-8.5 -5h-29q-11 0 -15 4t-4 14l-1 42q-26 -32 -67.5 -50.5t-86.5 -18.5q-102 0 -152.5 71zM513 556l-4 4
q-3 3 -3 7q0 2 4 6q25 25 25 50q0 10 -12 24q-5 6 -8.5 12.5t-3.5 13.5q0 16 10.5 26t26.5 10q17 0 28 -14t11 -32q0 -30 -16.5 -61t-40.5 -47q-5 -4 -9 -4q-5 0 -8 5zM333.5 63q40.5 22 61.5 54v243q-17 35 -54 58.5t-77 23.5q-72 0 -114.5 -53t-42.5 -147q0 -91 39.5 -146
t107.5 -55q39 0 79.5 22z" />
    <glyph glyph-name="dcroat" unicode="&#x111;" horiz-adv-x="526" 
d="M91.5 62q-50.5 71 -50.5 178q0 75 28 132t77.5 88.5t112.5 31.5q37 0 75.5 -16.5t60.5 -44.5v147h-88q-15 0 -20.5 5.5t-5.5 18.5v7q0 12 5 17t21 5h88v55q0 9 2.5 13t10.5 5l40 5h1q10 0 10 -16v-63h37q18 0 23.5 -4.5t5.5 -17.5v-8q0 -13 -6 -18.5t-23 -5.5h-37v-558
q0 -8 -3.5 -13t-8.5 -5h-29q-11 0 -15 4t-4 14l-1 42q-26 -32 -67.5 -50.5t-86.5 -18.5q-102 0 -152.5 71zM333.5 63q40.5 22 61.5 54v243q-17 35 -54 58.5t-77 23.5q-72 0 -114.5 -53t-42.5 -147q0 -91 39.5 -146t107.5 -55q39 0 79.5 22z" />
    <glyph glyph-name="e" unicode="e" horiz-adv-x="487" 
d="M99.5 59q-58.5 68 -58.5 183q0 70 27.5 127t78.5 90t119 33q58 0 100 -27t64 -74t22 -106v-19q0 -17 -5 -22t-23 -5h-317q0 -85 43 -139.5t125 -54.5q32 0 67 6.5t58 16.5q6 2 8 2q8 0 9 -9l5 -23q1 -2 1 -7q0 -8 -10 -12q-28 -13 -69 -20.5t-75 -7.5q-111 0 -169.5 68z
M387 284q1 7 1 20q0 60 -32 99.5t-92 39.5q-67 0 -107.5 -46t-47.5 -113h278z" />
    <glyph glyph-name="eacute" unicode="&#xe9;" horiz-adv-x="487" 
d="M99.5 59q-58.5 68 -58.5 183q0 70 27.5 127t78.5 90t119 33q58 0 100 -27t64 -74t22 -106v-19q0 -17 -5 -22t-23 -5h-317q0 -85 43 -139.5t125 -54.5q32 0 67 6.5t58 16.5q6 2 8 2q8 0 9 -9l5 -23q1 -2 1 -7q0 -8 -10 -12q-28 -13 -69 -20.5t-75 -7.5q-111 0 -169.5 68z
M387 284q1 7 1 20q0 60 -32 99.5t-92 39.5q-67 0 -107.5 -46t-47.5 -113h278zM178 560l-9 14q-3 6 -3 9q0 7 7 11l147 90q5 4 12 4t13 -9l17 -27q3 -6 3 -11q0 -7 -9 -12l-158 -74q-6 -2 -8 -2q-8 0 -12 7z" />
    <glyph glyph-name="ebreve" unicode="&#x115;" horiz-adv-x="487" 
d="M99.5 59q-58.5 68 -58.5 183q0 70 27.5 127t78.5 90t119 33q58 0 100 -27t64 -74t22 -106v-19q0 -17 -5 -22t-23 -5h-317q0 -85 43 -139.5t125 -54.5q32 0 67 6.5t58 16.5q6 2 8 2q8 0 9 -9l5 -23q1 -2 1 -7q0 -8 -10 -12q-28 -13 -69 -20.5t-75 -7.5q-111 0 -169.5 68z
M387 284q1 7 1 20q0 60 -32 99.5t-92 39.5q-67 0 -107.5 -46t-47.5 -113h278zM182 576q-22 13 -37.5 35t-15.5 45q0 8 3.5 10t11.5 2h21q10 0 13.5 -2.5t8.5 -11.5q23 -46 69 -46q49 0 71 46q5 9 8.5 11.5t13.5 2.5h19q8 0 11.5 -2t3.5 -10q0 -24 -16 -46.5t-39 -35.5
q-31 -17 -70 -17q-43 0 -76 19z" />
    <glyph glyph-name="ecaron" unicode="&#x11b;" horiz-adv-x="487" 
d="M99.5 59q-58.5 68 -58.5 183q0 70 27.5 127t78.5 90t119 33q58 0 100 -27t64 -74t22 -106v-19q0 -17 -5 -22t-23 -5h-317q0 -85 43 -139.5t125 -54.5q32 0 67 6.5t58 16.5q6 2 8 2q8 0 9 -9l5 -23q1 -2 1 -7q0 -8 -10 -12q-28 -13 -69 -20.5t-75 -7.5q-111 0 -169.5 68z
M387 284q1 7 1 20q0 60 -32 99.5t-92 39.5q-67 0 -107.5 -46t-47.5 -113h278zM236 554l-118 107q-6 5 -6 11t4 10l9 10q6 6 11 6q3 0 9 -4l111 -83l111 83q5 4 10 4q6 0 10 -6l8 -10q5 -7 5 -11q0 -5 -6 -10l-118 -107q-6 -6 -14 -6h-12q-8 0 -14 6z" />
    <glyph glyph-name="ecircumflex" unicode="&#xea;" horiz-adv-x="487" 
d="M99.5 59q-58.5 68 -58.5 183q0 70 27.5 127t78.5 90t119 33q58 0 100 -27t64 -74t22 -106v-19q0 -17 -5 -22t-23 -5h-317q0 -85 43 -139.5t125 -54.5q32 0 67 6.5t58 16.5q6 2 8 2q8 0 9 -9l5 -23q1 -2 1 -7q0 -8 -10 -12q-28 -13 -69 -20.5t-75 -7.5q-111 0 -169.5 68z
M387 284q1 7 1 20q0 60 -32 99.5t-92 39.5q-67 0 -107.5 -46t-47.5 -113h278zM125 564l-8 10q-5 7 -5 11t6 10l118 107q8 6 14 6h12q6 0 14 -6l118 -107q6 -4 6 -12q0 -5 -4 -9l-9 -10q-6 -6 -10 -6q-5 0 -10 4l-111 83l-111 -83q-5 -4 -10 -4q-6 0 -10 6z" />
    <glyph glyph-name="edieresis" unicode="&#xeb;" horiz-adv-x="487" 
d="M99.5 59q-58.5 68 -58.5 183q0 70 27.5 127t78.5 90t119 33q58 0 100 -27t64 -74t22 -106v-19q0 -17 -5 -22t-23 -5h-317q0 -85 43 -139.5t125 -54.5q32 0 67 6.5t58 16.5q6 2 8 2q8 0 9 -9l5 -23q1 -2 1 -7q0 -8 -10 -12q-28 -13 -69 -20.5t-75 -7.5q-111 0 -169.5 68z
M387 284q1 7 1 20q0 60 -32 99.5t-92 39.5q-67 0 -107.5 -46t-47.5 -113h278zM138 591q-15 12 -15 32q0 21 14.5 33t33.5 12t32.5 -12.5t13.5 -32.5t-14 -32t-32 -12t-33 12zM310 591q-15 12 -15 32q0 21 14.5 33t33.5 12t32.5 -12.5t13.5 -32.5t-14 -32t-32 -12t-33 12z
" />
    <glyph glyph-name="edotaccent" unicode="&#x117;" horiz-adv-x="487" 
d="M99.5 59q-58.5 68 -58.5 183q0 70 27.5 127t78.5 90t119 33q58 0 100 -27t64 -74t22 -106v-19q0 -17 -5 -22t-23 -5h-317q0 -85 43 -139.5t125 -54.5q32 0 67 6.5t58 16.5q6 2 8 2q8 0 9 -9l5 -23q1 -2 1 -7q0 -8 -10 -12q-28 -13 -69 -20.5t-75 -7.5q-111 0 -169.5 68z
M387 284q1 7 1 20q0 60 -32 99.5t-92 39.5q-67 0 -107.5 -46t-47.5 -113h278zM212 593.5q-20 16.5 -20 43.5q0 28 19.5 44.5t45.5 16.5q25 0 44 -16.5t19 -43.5t-19.5 -44t-43.5 -17q-25 0 -45 16.5z" />
    <glyph glyph-name="egrave" unicode="&#xe8;" horiz-adv-x="487" 
d="M99.5 59q-58.5 68 -58.5 183q0 70 27.5 127t78.5 90t119 33q58 0 100 -27t64 -74t22 -106v-19q0 -17 -5 -22t-23 -5h-317q0 -85 43 -139.5t125 -54.5q32 0 67 6.5t58 16.5q6 2 8 2q8 0 9 -9l5 -23q1 -2 1 -7q0 -8 -10 -12q-28 -13 -69 -20.5t-75 -7.5q-111 0 -169.5 68z
M387 284q1 7 1 20q0 60 -32 99.5t-92 39.5q-67 0 -107.5 -46t-47.5 -113h278zM323 559l-158 74q-9 5 -9 12q0 5 3 11l17 27q6 9 13 9t12 -4l147 -90q7 -4 7 -11q0 -3 -3 -9l-9 -14q-4 -7 -12 -7q-2 0 -8 2z" />
    <glyph glyph-name="emacron" unicode="&#x113;" horiz-adv-x="487" 
d="M99.5 59q-58.5 68 -58.5 183q0 70 27.5 127t78.5 90t119 33q58 0 100 -27t64 -74t22 -106v-19q0 -17 -5 -22t-23 -5h-317q0 -85 43 -139.5t125 -54.5q32 0 67 6.5t58 16.5q6 2 8 2q8 0 9 -9l5 -23q1 -2 1 -7q0 -8 -10 -12q-28 -13 -69 -20.5t-75 -7.5q-111 0 -169.5 68z
M387 284q1 7 1 20q0 60 -32 99.5t-92 39.5q-67 0 -107.5 -46t-47.5 -113h278zM133 584.5q-5 4.5 -5 16.5v17q0 11 5 15.5t21 4.5h200q18 0 23.5 -4t5.5 -16v-17q0 -12 -5.5 -16.5t-23.5 -4.5h-200q-16 0 -21 4.5z" />
    <glyph glyph-name="eogonek" unicode="&#x119;" horiz-adv-x="487" 
d="M196.5 -177q-24.5 23 -24.5 55q0 38 22 65t58 48v2q-103 6 -157 72.5t-54 176.5q0 70 27.5 127t78.5 90t119 33q58 0 100 -27t64 -74t22 -106v-19q0 -17 -5 -22t-23 -5h-317q0 -85 43 -139.5t125 -54.5q32 0 67 6.5t58 16.5q6 2 7 2q8 0 10 -9l5 -23q1 -3 1 -8
q0 -7 -10 -11q-19 -9 -44 -15q-70 -16 -105 -47q-33 -28 -33 -64q0 -23 15.5 -34.5t41.5 -11.5q10 0 26.5 2.5t27.5 6.5l3 1q9 0 10 -7l4 -14q1 -2 1 -6q0 -11 -12 -15q-16 -6 -39 -10.5t-42 -4.5q-46 0 -70.5 23zM387 284q1 7 1 20q0 60 -32 99.5t-92 39.5
q-67 0 -107.5 -46t-47.5 -113h278z" />
    <glyph glyph-name="f" unicode="f" horiz-adv-x="341" 
d="M89 18v417h-61q-5 0 -7 2t-2 8v27q0 6 2 8t9 2h59v14q0 55 3 79q7 67 46 104.5t105 37.5q41 0 82 -15q8 -4 10 -7t0 -9l-7 -27q-2 -6 -7 -6l-8 2q-12 5 -30.5 8.5t-34.5 3.5q-53 0 -74 -33t-21 -104v-48h130q7 0 9.5 -2t2.5 -8v-26q0 -7 -2.5 -9t-8.5 -2h-131v-417
q0 -18 -16 -18h-32q-16 0 -16 18z" />
    <glyph glyph-name="g" unicode="g" horiz-adv-x="526" 
d="M172 -210q-38 10 -69 25q-7 4 -9 8t0 10l10 26q2 6 7.5 8t11.5 -1q69 -32 119 -32q38 0 66 8.5t47 28.5q41 43 41 144v49q-25 -30 -67 -47t-83 -17q-102 0 -153 68.5t-51 174.5q0 68 25 125t74 90.5t118 33.5q40 0 77 -15.5t60 -45.5l1 35q0 9 4.5 12.5t13.5 3.5h30
q15 0 15 -18v-442q0 -68 -16 -116t-50 -78q-56 -48 -152 -48q-32 0 -70 10zM333.5 72.5q41.5 20.5 62.5 51.5v236q-17 35 -55 58.5t-79 23.5q-73 0 -113.5 -53.5t-40.5 -141.5q0 -81 34 -138t110 -57q40 0 81.5 20.5z" />
    <glyph glyph-name="gbreve" unicode="&#x11f;" horiz-adv-x="526" 
d="M172 -210q-38 10 -69 25q-7 4 -9 8t0 10l10 26q2 6 7.5 8t11.5 -1q69 -32 119 -32q38 0 66 8.5t47 28.5q41 43 41 144v49q-25 -30 -67 -47t-83 -17q-102 0 -153 68.5t-51 174.5q0 68 25 125t74 90.5t118 33.5q40 0 77 -15.5t60 -45.5l1 35q0 9 4.5 12.5t13.5 3.5h30
q15 0 15 -18v-442q0 -68 -16 -116t-50 -78q-56 -48 -152 -48q-32 0 -70 10zM333.5 72.5q41.5 20.5 62.5 51.5v236q-17 35 -55 58.5t-79 23.5q-73 0 -113.5 -53.5t-40.5 -141.5q0 -81 34 -138t110 -57q40 0 81.5 20.5zM189 576q-22 13 -37.5 35t-15.5 45q0 8 3.5 10t11.5 2
h21q10 0 13.5 -2.5t8.5 -11.5q23 -46 69 -46q49 0 71 46q5 9 8.5 11.5t13.5 2.5h19q8 0 11.5 -2t3.5 -10q0 -24 -16 -46.5t-39 -35.5q-31 -17 -70 -17q-43 0 -76 19z" />
    <glyph glyph-name="gcircumflex" unicode="&#x11d;" horiz-adv-x="526" 
d="M172 -210q-38 10 -69 25q-7 4 -9 8t0 10l10 26q2 6 7.5 8t11.5 -1q69 -32 119 -32q38 0 66 8.5t47 28.5q41 43 41 144v49q-25 -30 -67 -47t-83 -17q-102 0 -153 68.5t-51 174.5q0 68 25 125t74 90.5t118 33.5q40 0 77 -15.5t60 -45.5l1 35q0 9 4.5 12.5t13.5 3.5h30
q15 0 15 -18v-442q0 -68 -16 -116t-50 -78q-56 -48 -152 -48q-32 0 -70 10zM333.5 72.5q41.5 20.5 62.5 51.5v236q-17 35 -55 58.5t-79 23.5q-73 0 -113.5 -53.5t-40.5 -141.5q0 -81 34 -138t110 -57q40 0 81.5 20.5zM132 564l-8 10q-5 7 -5 11t6 10l118 107q8 6 14 6h12
q6 0 14 -6l118 -107q6 -4 6 -12q0 -5 -4 -9l-9 -10q-6 -6 -10 -6q-5 0 -10 4l-111 83l-111 -83q-5 -4 -10 -4q-6 0 -10 6z" />
    <glyph glyph-name="gcommaaccent" unicode="&#x123;" horiz-adv-x="526" 
d="M232 568q-11 14 -11 32q0 30 16.5 61t40.5 47q5 4 9 4q6 0 8 -5l4 -4q3 -3 3 -7q0 -2 -4 -6q-25 -25 -25 -50q0 -10 12 -24q5 -6 8.5 -12.5t3.5 -13.5q0 -16 -10.5 -26t-26.5 -10q-17 0 -28 14zM172 -210q-38 10 -69 25q-7 4 -9 8t0 10l10 26q2 6 7.5 8t11.5 -1
q69 -32 119 -32q38 0 66 8.5t47 28.5q41 43 41 144v49q-25 -30 -67 -47t-83 -17q-102 0 -153 68.5t-51 174.5q0 68 25 125t74 90.5t118 33.5q40 0 77 -15.5t60 -45.5l1 35q0 9 4.5 12.5t13.5 3.5h30q15 0 15 -18v-442q0 -68 -16 -116t-50 -78q-56 -48 -152 -48q-32 0 -70 10
zM333.5 72.5q41.5 20.5 62.5 51.5v236q-17 35 -55 58.5t-79 23.5q-73 0 -113.5 -53.5t-40.5 -141.5q0 -81 34 -138t110 -57q40 0 81.5 20.5z" />
    <glyph glyph-name="gdotaccent" unicode="&#x121;" horiz-adv-x="526" 
d="M172 -210q-38 10 -69 25q-7 4 -9 8t0 10l10 26q2 6 7.5 8t11.5 -1q69 -32 119 -32q38 0 66 8.5t47 28.5q41 43 41 144v49q-25 -30 -67 -47t-83 -17q-102 0 -153 68.5t-51 174.5q0 68 25 125t74 90.5t118 33.5q40 0 77 -15.5t60 -45.5l1 35q0 9 4.5 12.5t13.5 3.5h30
q15 0 15 -18v-442q0 -68 -16 -116t-50 -78q-56 -48 -152 -48q-32 0 -70 10zM333.5 72.5q41.5 20.5 62.5 51.5v236q-17 35 -55 58.5t-79 23.5q-73 0 -113.5 -53.5t-40.5 -141.5q0 -81 34 -138t110 -57q40 0 81.5 20.5zM219 593.5q-20 16.5 -20 43.5q0 28 19.5 44.5t45.5 16.5
q25 0 44 -16.5t19 -43.5t-19.5 -44t-43.5 -17q-25 0 -45 16.5z" />
    <glyph glyph-name="h" unicode="h" horiz-adv-x="523" 
d="M67 18v668q0 9 2.5 13t10.5 5l39 5q12 0 12 -16v-263q34 30 78.5 46t88.5 16q84 0 121 -46.5t37 -133.5v-294q0 -18 -16 -18h-32q-16 0 -16 18v285q0 67 -23.5 103t-86.5 36q-37 0 -79.5 -18.5t-71.5 -45.5v-360q0 -18 -16 -18h-32q-16 0 -16 18z" />
    <glyph glyph-name="hbar" unicode="&#x127;" horiz-adv-x="523" 
d="M67 18v546h-37q-12 0 -16 3t-4 12v26q0 9 3.5 12t13.5 3h40v66q0 9 2.5 13t10.5 5l39 5q12 0 12 -16v-73h140q13 0 16.5 -3t3.5 -14v-20q0 -11 -3.5 -15t-13.5 -4h-143v-134q34 30 78.5 46t88.5 16q84 0 121 -46.5t37 -133.5v-294q0 -18 -16 -18h-32q-16 0 -16 18v285
q0 67 -23.5 103t-86.5 36q-37 0 -79.5 -18.5t-71.5 -45.5v-360q0 -18 -16 -18h-32q-16 0 -16 18z" />
    <glyph glyph-name="hcircumflex" unicode="&#x125;" horiz-adv-x="523" 
d="M67 18v668q0 9 2.5 13t10.5 5l39 5q12 0 12 -16v-263q34 30 78.5 46t88.5 16q84 0 121 -46.5t37 -133.5v-294q0 -18 -16 -18h-32q-16 0 -16 18v285q0 67 -23.5 103t-86.5 36q-37 0 -79.5 -18.5t-71.5 -45.5v-360q0 -18 -16 -18h-32q-16 0 -16 18zM-33 706l-8 10
q-5 7 -5 11t6 10l118 107q8 6 14 6h12q6 0 14 -6l118 -107q6 -4 6 -12q0 -5 -4 -9l-9 -10q-6 -6 -10 -6q-5 0 -10 4l-111 83l-111 -83q-5 -4 -10 -4t-10 6z" />
    <glyph glyph-name="i" unicode="i" horiz-adv-x="220" 
d="M80 566q-12 11 -12 28t12 28t29 11q18 0 30 -11t12 -28t-12 -28t-30 -11q-17 0 -29 11zM77 18v446q0 18 16 18h32q16 0 16 -18v-446q0 -18 -16 -18h-32q-16 0 -16 18z" />
    <glyph glyph-name="dotlessi" unicode="&#x131;" horiz-adv-x="220" 
d="M77 18v446q0 18 16 18h32q16 0 16 -18v-446q0 -18 -16 -18h-32q-16 0 -16 18z" />
    <glyph glyph-name="iacute" unicode="&#xed;" horiz-adv-x="220" 
d="M77 18v446q0 18 16 18h32q16 0 16 -18v-446q0 -18 -16 -18h-32q-16 0 -16 18zM32 560l-9 14q-3 6 -3 9q0 7 7 11l147 90q5 4 12 4t13 -9l17 -27q3 -6 3 -11q0 -7 -9 -12l-158 -74q-6 -2 -8 -2q-8 0 -12 7z" />
    <glyph glyph-name="ibreve" unicode="&#x12d;" horiz-adv-x="220" 
d="M77 18v446q0 18 16 18h32q16 0 16 -18v-446q0 -18 -16 -18h-32q-16 0 -16 18zM36 576q-22 13 -37.5 35t-15.5 45q0 8 3.5 10t11.5 2h21q10 0 13.5 -2.5t8.5 -11.5q23 -46 69 -46q49 0 71 46q5 9 8.5 11.5t13.5 2.5h19q8 0 11.5 -2t3.5 -10q0 -24 -16 -46.5t-39 -35.5
q-31 -17 -70 -17q-43 0 -76 19z" />
    <glyph glyph-name="icircumflex" unicode="&#xee;" horiz-adv-x="220" 
d="M77 18v446q0 18 16 18h32q16 0 16 -18v-446q0 -18 -16 -18h-32q-16 0 -16 18zM-21 564l-8 10q-5 7 -5 11t6 10l118 107q8 6 14 6h12q6 0 14 -6l118 -107q6 -4 6 -12q0 -5 -4 -9l-9 -10q-6 -6 -10 -6q-5 0 -10 4l-111 83l-111 -83q-5 -4 -10 -4q-6 0 -10 6z" />
    <glyph glyph-name="idieresis" unicode="&#xef;" horiz-adv-x="220" 
d="M77 18v446q0 18 16 18h32q16 0 16 -18v-446q0 -18 -16 -18h-32q-16 0 -16 18zM-8 591q-15 12 -15 32q0 21 14.5 33t33.5 12t32.5 -12.5t13.5 -32.5t-14 -32t-32 -12t-33 12zM164 591q-15 12 -15 32q0 21 14.5 33t33.5 12t32.5 -12.5t13.5 -32.5t-14 -32t-32 -12t-33 12z
" />
    <glyph glyph-name="i.loclTRK" horiz-adv-x="220" 
d="M77 18v446q0 18 16 18h32q16 0 16 -18v-446q0 -18 -16 -18h-32q-16 0 -16 18zM66 593.5q-20 16.5 -20 43.5q0 28 19.5 44.5t45.5 16.5q25 0 44 -16.5t19 -43.5t-19.5 -44t-43.5 -17q-25 0 -45 16.5z" />
    <glyph glyph-name="igrave" unicode="&#xec;" horiz-adv-x="220" 
d="M77 18v446q0 18 16 18h32q16 0 16 -18v-446q0 -18 -16 -18h-32q-16 0 -16 18zM177 559l-158 74q-9 5 -9 12q0 5 3 11l17 27q6 9 13 9t12 -4l147 -90q7 -4 7 -11q0 -3 -3 -9l-9 -14q-4 -7 -12 -7q-2 0 -8 2z" />
    <glyph glyph-name="ij" unicode="&#x133;" horiz-adv-x="466" 
d="M80 566q-12 11 -12 28t12 28t29 11q18 0 30 -11t12 -28t-12 -28t-30 -11q-17 0 -29 11zM77 18v446q0 18 16 18h32q16 0 16 -18v-446q0 -18 -16 -18h-32q-16 0 -16 18zM329 566q-12 11 -12 28t12 28t29 11t29 -11t12 -28t-12 -28t-29 -11t-29 11zM169 -214q-6 1 -8 4.5
t-1 10.5l4 25q1 9 11 7q25 -4 47 -4q46 0 72 32q18 22 24.5 59.5t6.5 94.5v449q0 18 16 18h33q15 0 15 -18v-438q0 -69 -10 -117t-36 -78q-21 -26 -49.5 -38.5t-75.5 -12.5q-20 0 -49 6z" />
    <glyph glyph-name="imacron" unicode="&#x12b;" horiz-adv-x="220" 
d="M77 18v446q0 18 16 18h32q16 0 16 -18v-446q0 -18 -16 -18h-32q-16 0 -16 18zM-13 584.5q-5 4.5 -5 16.5v17q0 11 5 15.5t21 4.5h200q18 0 23.5 -4t5.5 -16v-17q0 -12 -5.5 -16.5t-23.5 -4.5h-200q-16 0 -21 4.5z" />
    <glyph glyph-name="iogonek" unicode="&#x12f;" horiz-adv-x="220" 
d="M80 566q-12 11 -12 28t12 28t29 11q18 0 30 -11t12 -28t-12 -28t-30 -11q-17 0 -29 11zM5 -172q-24 24 -24 60q0 41 26.5 67t69.5 47v462q0 18 16 18h32q16 0 16 -18v-446q0 -9 -2 -14t-8 -7q-22 -7 -41 -19q-25 -16 -36.5 -37t-11.5 -42q0 -23 14.5 -35.5t40.5 -12.5
q10 0 26.5 2.5t27.5 6.5l3 1q9 0 10 -7l4 -14q1 -2 1 -6q0 -11 -12 -15q-16 -6 -39 -10.5t-42 -4.5q-47 0 -71 24z" />
    <glyph glyph-name="itilde" unicode="&#x129;" horiz-adv-x="220" 
d="M77 18v446q0 18 16 18h32q16 0 16 -18v-446q0 -18 -16 -18h-32q-16 0 -16 18zM131 576.5q-12 4.5 -29 13.5q-30 17 -49 17q-16 0 -29.5 -6t-33.5 -18q-11 -6 -16 -6q-7 0 -11 10l-8 18q-4 10 -4 11q0 7 14 16q52 32 90 32q24 0 64 -20q32 -15 45 -15q14 0 28 6.5t34 20.5
q9 5 15 5q9 0 14 -9l8 -11q5 -8 5 -12q0 -8 -8 -14q-56 -43 -104 -43q-13 0 -25 4.5z" />
    <glyph glyph-name="j" unicode="j" horiz-adv-x="246" 
d="M109 566q-12 11 -12 28t12 28t29 11t29 -11t12 -28t-12 -28t-29 -11t-29 11zM-51 -214q-6 1 -8 4.5t-1 10.5l4 25q1 9 11 7q25 -4 47 -4q46 0 72 32q18 22 24.5 59.5t6.5 94.5v449q0 18 16 18h33q15 0 15 -18v-438q0 -69 -10 -117t-36 -78q-21 -26 -49.5 -38.5
t-75.5 -12.5q-20 0 -49 6z" />
    <glyph glyph-name="uni0237" unicode="&#x237;" horiz-adv-x="246" 
d="M-51 -214q-6 1 -8 4.5t-1 10.5l4 25q1 9 11 7q25 -4 47 -4q46 0 72 32q18 22 24.5 59.5t6.5 94.5v449q0 18 16 18h33q15 0 15 -18v-438q0 -69 -10 -117t-36 -78q-21 -26 -49.5 -38.5t-75.5 -12.5q-20 0 -49 6z" />
    <glyph glyph-name="jcircumflex" unicode="&#x135;" horiz-adv-x="246" 
d="M-51 -214q-6 1 -8 4.5t-1 10.5l4 25q1 9 11 7q25 -4 47 -4q46 0 72 32q18 22 24.5 59.5t6.5 94.5v449q0 18 16 18h33q15 0 15 -18v-438q0 -69 -10 -117t-36 -78q-21 -26 -49.5 -38.5t-75.5 -12.5q-20 0 -49 6zM-8 564l-8 10q-5 7 -5 11t6 10l118 107q8 6 14 6h12
q6 0 14 -6l118 -107q6 -4 6 -12q0 -5 -4 -9l-9 -10q-6 -6 -10 -6q-5 0 -10 4l-111 83l-111 -83q-5 -4 -10 -4q-6 0 -10 6z" />
    <glyph glyph-name="k" unicode="k" horiz-adv-x="415" 
d="M67 18v668q0 9 2.5 13t10.5 5l39 5q12 0 12 -16v-404h2l169 183q9 10 18 10h50q7 0 7 -4q0 -2 -4 -8l-167 -180l189 -269q5 -8 5 -13q0 -8 -14 -8h-37q-18 0 -28 14l-161 233l-29 -30v-199q0 -18 -16 -18h-32q-16 0 -16 18z" />
    <glyph glyph-name="kcommaaccent" unicode="&#x137;" horiz-adv-x="415" 
d="M67 18v668q0 9 2.5 13t10.5 5l39 5q12 0 12 -16v-404h2l169 183q9 10 18 10h50q7 0 7 -4q0 -2 -4 -8l-167 -180l189 -269q5 -8 5 -13q0 -8 -14 -8h-37q-18 0 -28 14l-161 233l-29 -30v-199q0 -18 -16 -18h-32q-16 0 -16 18zM184 -193l-4 4q-3 3 -3 7q0 2 4 6q25 25 25 50
q0 10 -12 24q-5 6 -8.5 12.5t-3.5 13.5q0 16 10.5 26t26.5 10q17 0 28 -14t11 -32q0 -30 -16.5 -61t-40.5 -47q-5 -4 -9 -4q-6 0 -8 5z" />
    <glyph glyph-name="kgreenlandic" unicode="&#x138;" horiz-adv-x="433" 
d="M67 14v455q0 13 13 13h39q7 0 9.5 -3t2.5 -10v-203h2l192 208q5 5 11 6.5t16 1.5h37q5 0 6.5 -4t-2.5 -9l-172 -185l195 -268q3 -4 3 -9q0 -7 -9 -7h-46q-9 0 -13 2t-9 9l-166 230l-45 -45v-182q0 -9 -4.5 -11.5t-14.5 -2.5h-33q-12 0 -12 14z" />
    <glyph glyph-name="l" unicode="l" horiz-adv-x="199" 
d="M67 18v668q0 9 2.5 13t10.5 5l39 5q12 0 12 -16v-675q0 -18 -16 -18h-32q-16 0 -16 18z" />
    <glyph glyph-name="lacute" unicode="&#x13a;" horiz-adv-x="199" 
d="M67 18v668q0 9 2.5 13t10.5 5l39 5q12 0 12 -16v-675q0 -18 -16 -18h-32q-16 0 -16 18zM22 746l-9 14q-3 6 -3 9q0 7 7 11l147 90q5 4 12 4t13 -9l17 -27q3 -6 3 -11q0 -7 -9 -12l-158 -74q-6 -2 -8 -2q-8 0 -12 7z" />
    <glyph glyph-name="lcaron" unicode="&#x13e;" horiz-adv-x="259" 
d="M67 18v668q0 9 2.5 13t10.5 5l39 5q12 0 12 -16v-675q0 -18 -16 -18h-32q-16 0 -16 18zM185 550l-4 4q-3 3 -3 7q0 2 4 6q25 25 25 50q0 10 -12 24q-5 6 -8.5 12.5t-3.5 13.5q0 16 10.5 26t26.5 10q17 0 28 -14t11 -32q0 -30 -16.5 -61t-40.5 -47q-5 -4 -9 -4q-5 0 -8 5z
" />
    <glyph glyph-name="lcommaaccent" unicode="&#x13c;" horiz-adv-x="199" 
d="M67 18v668q0 9 2.5 13t10.5 5l39 5q12 0 12 -16v-675q0 -18 -16 -18h-32q-16 0 -16 18zM66 -193l-4 4q-3 3 -3 7q0 2 4 6q25 25 25 50q0 10 -12 24q-5 6 -8.5 12.5t-3.5 13.5q0 16 10.5 26t26.5 10q17 0 28 -14t11 -32q0 -30 -16.5 -61t-40.5 -47q-5 -4 -9 -4q-6 0 -8 5z
" />
    <glyph glyph-name="ldot" unicode="&#x140;" horiz-adv-x="302" 
d="M67 18v668q0 9 2.5 13t10.5 5l39 5q12 0 12 -16v-675q0 -18 -16 -18h-32q-16 0 -16 18zM204 316.5q-20 16.5 -20 43.5q0 28 19.5 44.5t45.5 16.5q25 0 44 -16.5t19 -43.5t-19.5 -44t-43.5 -17q-25 0 -45 16.5z" />
    <glyph glyph-name="lslash" unicode="&#x142;" horiz-adv-x="228" 
d="M77 18v257l-57 -56q-7 -7 -13 -7q-7 0 -7 10v26q0 7 3 12t7.5 9t6.5 6l60 60v351q0 9 2.5 13t10.5 5l35 5h4q12 0 12 -16v-295l67 67q8 8 13 8q3 0 5 -4t2 -10v-21q0 -9 -3 -14t-7.5 -9.5l-6.5 -6.5l-70 -69v-321q0 -18 -16 -18h-32q-16 0 -16 18z" />
    <glyph glyph-name="m" unicode="m" horiz-adv-x="813" 
d="M67 18v446q0 18 16 18h31q16 0 16 -18l1 -34q32 30 72.5 46t82.5 16t77 -14.5t55 -46.5q34 29 77.5 45t87.5 16q163 0 163 -180v-294q0 -18 -16 -18h-32q-16 0 -16 18v285q0 68 -25 103.5t-90 35.5q-31 0 -66.5 -13.5t-65.5 -35.5q10 -34 10 -81v-294q0 -18 -16 -18h-32
q-16 0 -16 18v285q0 66 -23.5 102.5t-85.5 36.5q-36 0 -73 -17.5t-68 -46.5v-360q0 -18 -16 -18h-32q-16 0 -16 18z" />
    <glyph glyph-name="n" unicode="n" horiz-adv-x="523" 
d="M67 18v446q0 18 16 18h31q16 0 16 -18l1 -34q34 30 78.5 46t88.5 16q84 0 121 -46.5t37 -133.5v-294q0 -18 -16 -18h-32q-16 0 -16 18v285q0 68 -23.5 103.5t-87.5 35.5q-36 0 -78.5 -18.5t-71.5 -45.5v-360q0 -18 -16 -18h-32q-16 0 -16 18z" />
    <glyph glyph-name="nacute" unicode="&#x144;" horiz-adv-x="523" 
d="M67 18v446q0 18 16 18h31q16 0 16 -18l1 -34q34 30 78.5 46t88.5 16q84 0 121 -46.5t37 -133.5v-294q0 -18 -16 -18h-32q-16 0 -16 18v285q0 68 -23.5 103.5t-87.5 35.5q-36 0 -78.5 -18.5t-71.5 -45.5v-360q0 -18 -16 -18h-32q-16 0 -16 18zM194 560l-9 14q-3 6 -3 9
q0 7 7 11l147 90q5 4 12 4t13 -9l17 -27q3 -6 3 -11q0 -7 -9 -12l-158 -74q-6 -2 -8 -2q-8 0 -12 7z" />
    <glyph glyph-name="napostrophe" unicode="&#x149;" horiz-adv-x="523" 
d="M67 18v446q0 18 16 18h31q16 0 16 -18l1 -34q34 30 78.5 46t88.5 16q84 0 121 -46.5t37 -133.5v-294q0 -18 -16 -18h-32q-16 0 -16 18v285q0 68 -23.5 103.5t-87.5 35.5q-36 0 -78.5 -18.5t-71.5 -45.5v-360q0 -18 -16 -18h-32q-16 0 -16 18zM-10 550l-4 4q-3 3 -3 7
q0 2 4 6q25 25 25 50q0 10 -12 24q-5 6 -8.5 12.5t-3.5 13.5q0 16 10.5 26t26.5 10q17 0 28 -14t11 -32q0 -30 -16.5 -61t-40.5 -47q-5 -4 -9 -4q-6 0 -8 5z" />
    <glyph glyph-name="ncaron" unicode="&#x148;" horiz-adv-x="523" 
d="M67 18v446q0 18 16 18h31q16 0 16 -18l1 -34q34 30 78.5 46t88.5 16q84 0 121 -46.5t37 -133.5v-294q0 -18 -16 -18h-32q-16 0 -16 18v285q0 68 -23.5 103.5t-87.5 35.5q-36 0 -78.5 -18.5t-71.5 -45.5v-360q0 -18 -16 -18h-32q-16 0 -16 18zM252 554l-118 107
q-6 5 -6 11t4 10l9 10q6 6 11 6q3 0 9 -4l111 -83l111 83q5 4 10 4q6 0 10 -6l8 -10q5 -7 5 -11q0 -5 -6 -10l-118 -107q-6 -6 -14 -6h-12q-8 0 -14 6z" />
    <glyph glyph-name="ncommaaccent" unicode="&#x146;" horiz-adv-x="523" 
d="M67 18v446q0 18 16 18h31q16 0 16 -18l1 -34q34 30 78.5 46t88.5 16q84 0 121 -46.5t37 -133.5v-294q0 -18 -16 -18h-32q-16 0 -16 18v285q0 68 -23.5 103.5t-87.5 35.5q-36 0 -78.5 -18.5t-71.5 -45.5v-360q0 -18 -16 -18h-32q-16 0 -16 18zM223 -193l-4 4q-3 3 -3 7
q0 2 4 6q25 25 25 50q0 10 -12 24q-5 6 -8.5 12.5t-3.5 13.5q0 16 10.5 26t26.5 10q17 0 28 -14t11 -32q0 -30 -16.5 -61t-40.5 -47q-5 -4 -9 -4q-6 0 -8 5z" />
    <glyph glyph-name="eng" unicode="&#x14b;" horiz-adv-x="515" 
d="M242 -171q-7 2 -9 5.5t0 9.5l5 23q2 11 12 9q23 -4 41 -4q41 0 61 26t25.5 64.5t5.5 95.5v244q0 65 -21.5 99.5t-82.5 34.5q-37 0 -77.5 -18.5t-70.5 -48.5v-354q0 -15 -13 -15h-39q-12 0 -12 14v454q0 14 12 14h37q12 0 13 -12v-44q72 66 169 66q79 0 114.5 -45.5
t35.5 -129.5v-248q0 -119 -33 -182.5t-126 -63.5q-27 0 -47 6z" />
    <glyph glyph-name="ntilde" unicode="&#xf1;" horiz-adv-x="523" 
d="M67 18v446q0 18 16 18h31q16 0 16 -18l1 -34q34 30 78.5 46t88.5 16q84 0 121 -46.5t37 -133.5v-294q0 -18 -16 -18h-32q-16 0 -16 18v285q0 68 -23.5 103.5t-87.5 35.5q-36 0 -78.5 -18.5t-71.5 -45.5v-360q0 -18 -16 -18h-32q-16 0 -16 18zM293 576.5q-12 4.5 -29 13.5
q-30 17 -49 17q-16 0 -29.5 -6t-33.5 -18q-11 -6 -16 -6q-7 0 -11 10l-8 18q-4 10 -4 11q0 7 14 16q52 32 90 32q24 0 64 -20q32 -15 45 -15q14 0 28 6.5t34 20.5q9 5 15 5q9 0 14 -9l8 -11q5 -8 5 -12q0 -8 -8 -14q-56 -43 -104 -43q-13 0 -25 4.5z" />
    <glyph glyph-name="o" unicode="o" horiz-adv-x="522" 
d="M95 60.5q-54 69.5 -54 181.5q0 71 26 127.5t76 89.5t120 33q108 0 163 -68.5t55 -181.5q0 -71 -26 -128t-77 -90t-121 -33q-108 0 -162 69.5zM377 97q38 58 38 143t-36.5 144t-115.5 59q-82 0 -119 -58.5t-37 -140.5q0 -86 35.5 -145.5t115.5 -59.5q81 0 119 58z" />
    <glyph glyph-name="oacute" unicode="&#xf3;" horiz-adv-x="522" 
d="M95 60.5q-54 69.5 -54 181.5q0 71 26 127.5t76 89.5t120 33q108 0 163 -68.5t55 -181.5q0 -71 -26 -128t-77 -90t-121 -33q-108 0 -162 69.5zM377 97q38 58 38 143t-36.5 144t-115.5 59q-82 0 -119 -58.5t-37 -140.5q0 -86 35.5 -145.5t115.5 -59.5q81 0 119 58zM183 560
l-9 14q-3 6 -3 9q0 7 7 11l147 90q5 4 12 4t13 -9l17 -27q3 -6 3 -11q0 -7 -9 -12l-158 -74q-6 -2 -8 -2q-8 0 -12 7z" />
    <glyph glyph-name="obreve" unicode="&#x14f;" horiz-adv-x="522" 
d="M95 60.5q-54 69.5 -54 181.5q0 71 26 127.5t76 89.5t120 33q108 0 163 -68.5t55 -181.5q0 -71 -26 -128t-77 -90t-121 -33q-108 0 -162 69.5zM377 97q38 58 38 143t-36.5 144t-115.5 59q-82 0 -119 -58.5t-37 -140.5q0 -86 35.5 -145.5t115.5 -59.5q81 0 119 58zM187 576
q-22 13 -37.5 35t-15.5 45q0 8 3.5 10t11.5 2h21q10 0 13.5 -2.5t8.5 -11.5q23 -46 69 -46q49 0 71 46q5 9 8.5 11.5t13.5 2.5h19q8 0 11.5 -2t3.5 -10q0 -24 -16 -46.5t-39 -35.5q-31 -17 -70 -17q-43 0 -76 19z" />
    <glyph glyph-name="ocircumflex" unicode="&#xf4;" horiz-adv-x="522" 
d="M95 60.5q-54 69.5 -54 181.5q0 71 26 127.5t76 89.5t120 33q108 0 163 -68.5t55 -181.5q0 -71 -26 -128t-77 -90t-121 -33q-108 0 -162 69.5zM377 97q38 58 38 143t-36.5 144t-115.5 59q-82 0 -119 -58.5t-37 -140.5q0 -86 35.5 -145.5t115.5 -59.5q81 0 119 58zM130 564
l-8 10q-5 7 -5 11t6 10l118 107q8 6 14 6h12q6 0 14 -6l118 -107q6 -4 6 -12q0 -5 -4 -9l-9 -10q-6 -6 -10 -6q-5 0 -10 4l-111 83l-111 -83q-5 -4 -10 -4q-6 0 -10 6z" />
    <glyph glyph-name="odieresis" unicode="&#xf6;" horiz-adv-x="522" 
d="M95 60.5q-54 69.5 -54 181.5q0 71 26 127.5t76 89.5t120 33q108 0 163 -68.5t55 -181.5q0 -71 -26 -128t-77 -90t-121 -33q-108 0 -162 69.5zM377 97q38 58 38 143t-36.5 144t-115.5 59q-82 0 -119 -58.5t-37 -140.5q0 -86 35.5 -145.5t115.5 -59.5q81 0 119 58zM143 591
q-15 12 -15 32q0 21 14.5 33t33.5 12t32.5 -12.5t13.5 -32.5t-14 -32t-32 -12t-33 12zM315 591q-15 12 -15 32q0 21 14.5 33t33.5 12t32.5 -12.5t13.5 -32.5t-14 -32t-32 -12t-33 12z" />
    <glyph glyph-name="ograve" unicode="&#xf2;" horiz-adv-x="522" 
d="M95 60.5q-54 69.5 -54 181.5q0 71 26 127.5t76 89.5t120 33q108 0 163 -68.5t55 -181.5q0 -71 -26 -128t-77 -90t-121 -33q-108 0 -162 69.5zM377 97q38 58 38 143t-36.5 144t-115.5 59q-82 0 -119 -58.5t-37 -140.5q0 -86 35.5 -145.5t115.5 -59.5q81 0 119 58zM328 559
l-158 74q-9 5 -9 12q0 5 3 11l17 27q6 9 13 9t12 -4l147 -90q7 -4 7 -11q0 -3 -3 -9l-9 -14q-4 -7 -12 -7q-2 0 -8 2z" />
    <glyph glyph-name="ohungarumlaut" unicode="&#x151;" horiz-adv-x="522" 
d="M95 60.5q-54 69.5 -54 181.5q0 71 26 127.5t76 89.5t120 33q108 0 163 -68.5t55 -181.5q0 -71 -26 -128t-77 -90t-121 -33q-108 0 -162 69.5zM377 97q38 58 38 143t-36.5 144t-115.5 59q-82 0 -119 -58.5t-37 -140.5q0 -86 35.5 -145.5t115.5 -59.5q81 0 119 58zM87 569
l-9 14q-1 2 -2.5 4.5t-1.5 4.5q0 6 8 11l147 90q5 4 11 4q7 0 13 -9l17 -27q4 -8 4 -11q0 -7 -9 -12l-158 -74q-6 -2 -9 -2q-7 0 -11 7zM312 569l-9 14q-3 6 -3 9q0 7 7 11l147 90q5 4 11 4q8 0 14 -9l17 -27q3 -6 3 -11q0 -7 -9 -12l-158 -74q-6 -2 -8 -2q-8 0 -12 7z" />
    <glyph glyph-name="omacron" unicode="&#x14d;" horiz-adv-x="522" 
d="M95 60.5q-54 69.5 -54 181.5q0 71 26 127.5t76 89.5t120 33q108 0 163 -68.5t55 -181.5q0 -71 -26 -128t-77 -90t-121 -33q-108 0 -162 69.5zM377 97q38 58 38 143t-36.5 144t-115.5 59q-82 0 -119 -58.5t-37 -140.5q0 -86 35.5 -145.5t115.5 -59.5q81 0 119 58z
M138 584.5q-5 4.5 -5 16.5v17q0 11 5 15.5t21 4.5h200q18 0 23.5 -4t5.5 -16v-17q0 -12 -5.5 -16.5t-23.5 -4.5h-200q-16 0 -21 4.5z" />
    <glyph glyph-name="oslash" unicode="&#xf8;" horiz-adv-x="526" 
d="M126.5 -24q-1.5 1 -3.5 2l-18 9q-11 5 -11 11q0 2 2 6l22 35q-37 34 -56 87t-19 117q0 70 26 126.5t76.5 89.5t120.5 33t116 -28l17 26q6 8 10 13t8 5q2 0 6 -2l18 -10q12 -7 12 -12q0 -2 -2 -6l-29 -47q61 -67 61 -188q0 -70 -26 -127.5t-77 -91t-121 -33.5
q-56 0 -99 20l-12 -20q-9 -16 -17 -16q-3 0 -4.5 1zM352 415q-35 30 -87 30q-82 0 -119 -59.5t-37 -140.5q0 -44 10 -84.5t31 -69.5zM378.5 96.5q38.5 59.5 38.5 144.5q0 78 -31 133l-198 -318q32 -19 72 -19q80 0 118.5 59.5z" />
    <glyph glyph-name="oslashacute" unicode="&#x1ff;" horiz-adv-x="526" 
d="M126.5 -24q-1.5 1 -3.5 2l-18 9q-11 5 -11 11q0 2 2 6l22 35q-37 34 -56 87t-19 117q0 70 26 126.5t76.5 89.5t120.5 33t116 -28l17 26q6 8 10 13t8 5q2 0 6 -2l18 -10q12 -7 12 -12q0 -2 -2 -6l-29 -47q61 -67 61 -188q0 -70 -26 -127.5t-77 -91t-121 -33.5
q-56 0 -99 20l-12 -20q-9 -16 -17 -16q-3 0 -4.5 1zM352 415q-35 30 -87 30q-82 0 -119 -59.5t-37 -140.5q0 -44 10 -84.5t31 -69.5zM378.5 96.5q38.5 59.5 38.5 144.5q0 78 -31 133l-198 -318q32 -19 72 -19q80 0 118.5 59.5zM185 560l-9 14q-3 6 -3 9q0 7 7 11l147 90
q5 4 12 4t13 -9l17 -27q3 -6 3 -11q0 -7 -9 -12l-158 -74q-6 -2 -8 -2q-8 0 -12 7z" />
    <glyph glyph-name="otilde" unicode="&#xf5;" horiz-adv-x="522" 
d="M95 60.5q-54 69.5 -54 181.5q0 71 26 127.5t76 89.5t120 33q108 0 163 -68.5t55 -181.5q0 -71 -26 -128t-77 -90t-121 -33q-108 0 -162 69.5zM377 97q38 58 38 143t-36.5 144t-115.5 59q-82 0 -119 -58.5t-37 -140.5q0 -86 35.5 -145.5t115.5 -59.5q81 0 119 58z
M282 576.5q-12 4.5 -29 13.5q-30 17 -49 17q-16 0 -29.5 -6t-33.5 -18q-11 -6 -16 -6q-7 0 -11 10l-8 18q-4 10 -4 11q0 7 14 16q52 32 90 32q24 0 64 -20q32 -15 45 -15q14 0 28 6.5t34 20.5q9 5 15 5q9 0 14 -9l8 -11q5 -8 5 -12q0 -8 -8 -14q-56 -43 -104 -43
q-13 0 -25 4.5z" />
    <glyph glyph-name="oe" unicode="&#x153;" horiz-adv-x="860" 
d="M98 60q-55 70 -55 181q0 70 26 127t76.5 90.5t120.5 33.5q132 0 179 -113q28 53 77 83t115 30q57 0 99.5 -27.5t64.5 -74.5t22 -106q0 -20 -1 -29q-1 -11 -7 -14t-21 -3h-316q0 -39 9.5 -77t28.5 -66t53 -43.5t75 -15.5q31 0 67 7t59 17q6 2 7 2q8 0 10 -9l5 -17
q1 -3 1 -8q0 -7 -10 -11q-28 -13 -68 -20t-75 -7q-50 0 -93.5 16t-69.5 44q-20 22 -36 53q-55 -113 -181 -113q-107 0 -162 70zM757 283q1 7 1 19q0 61 -32 102.5t-92 41.5q-67 0 -107 -47.5t-47 -115.5h277zM379 95q38 59 38 144q0 83 -37 144.5t-115 61.5
q-81 0 -118.5 -60t-37.5 -142q0 -85 36 -146t116 -61t118 59z" />
    <glyph glyph-name="p" unicode="p" horiz-adv-x="525" 
d="M66 -197v664q0 9 3.5 12t12.5 3h25q11 0 15.5 -4t4.5 -14v-39q25 30 67.5 48.5t86.5 18.5q91 0 147 -64t56 -184q0 -69 -25 -126.5t-74 -92t-117 -34.5q-40 0 -77.5 16t-60.5 46v-252q0 -16 -19 -16h-29q-16 0 -16 18zM377.5 96.5q40.5 55.5 40.5 147.5q0 98 -40 148
t-107 50q-40 0 -80 -21t-61 -53v-245q17 -35 55 -58.5t79 -23.5q73 0 113.5 55.5z" />
    <glyph glyph-name="thorn" unicode="&#xfe;" horiz-adv-x="516" 
d="M58 -197v884q0 8 3.5 10.5t12.5 4.5l25 4h5q15 0 15 -18v-263q25 30 67.5 48.5t86.5 18.5q91 0 147 -64t56 -184q0 -69 -25 -126.5t-74 -92t-117 -34.5q-40 0 -77.5 16t-60.5 46v-252q0 -16 -19 -16h-29q-16 0 -16 18zM369.5 96.5q40.5 55.5 40.5 147.5q0 98 -40 148
t-107 50q-40 0 -80 -21t-61 -53v-245q17 -35 55 -58.5t79 -23.5q73 0 113.5 55.5z" />
    <glyph glyph-name="q" unicode="q" horiz-adv-x="526" 
d="M398.5 -211.5q-3.5 3.5 -3.5 12.5v259q-27 -32 -68 -50.5t-86 -18.5q-101 0 -150.5 71t-49.5 178q0 69 25 126t74.5 91.5t117.5 34.5q40 0 77 -15.5t60 -45.5l1 35q0 9 4.5 12.5t13.5 3.5h30q15 0 15 -18v-661q0 -10 -2 -14t-10 -4h-36q-9 0 -12.5 3.5zM332 65
q41 23 63 55v239q-18 35 -55 59t-78 24q-80 0 -117.5 -57.5t-37.5 -142.5q0 -92 38 -146t106 -54q40 0 81 23z" />
    <glyph glyph-name="r" unicode="r" horiz-adv-x="293" 
d="M67 18v446q0 18 16 18h31q16 0 16 -18l1 -35q17 25 47 44t65 19q14 0 29 -3q10 -1 8 -11l-5 -33q-2 -10 -10 -8q-20 4 -32 4q-27 0 -54.5 -18.5t-47.5 -48.5v-356q0 -18 -16 -18h-32q-16 0 -16 18z" />
    <glyph glyph-name="racute" unicode="&#x155;" horiz-adv-x="293" 
d="M67 18v446q0 18 16 18h31q16 0 16 -18l1 -35q17 25 47 44t65 19q14 0 29 -3q10 -1 8 -11l-5 -33q-2 -10 -10 -8q-20 4 -32 4q-27 0 -54.5 -18.5t-47.5 -48.5v-356q0 -18 -16 -18h-32q-16 0 -16 18zM99 560l-9 14q-3 6 -3 9q0 7 7 11l147 90q5 4 12 4t13 -9l17 -27
q3 -6 3 -11q0 -7 -9 -12l-158 -74q-6 -2 -8 -2q-8 0 -12 7z" />
    <glyph glyph-name="rcaron" unicode="&#x159;" horiz-adv-x="293" 
d="M67 18v446q0 18 16 18h31q16 0 16 -18l1 -35q17 25 47 44t65 19q14 0 29 -3q10 -1 8 -11l-5 -33q-2 -10 -10 -8q-20 4 -32 4q-27 0 -54.5 -18.5t-47.5 -48.5v-356q0 -18 -16 -18h-32q-16 0 -16 18zM157 554l-118 107q-6 5 -6 11t4 10l9 10q6 6 11 6q3 0 9 -4l111 -83
l111 83q5 4 10 4q6 0 10 -6l8 -10q5 -7 5 -11q0 -5 -6 -10l-118 -107q-6 -6 -14 -6h-12q-8 0 -14 6z" />
    <glyph glyph-name="rcommaaccent" unicode="&#x157;" horiz-adv-x="293" 
d="M67 18v446q0 18 16 18h31q16 0 16 -18l1 -35q17 25 47 44t65 19q14 0 29 -3q10 -1 8 -11l-5 -33q-2 -10 -10 -8q-20 4 -32 4q-27 0 -54.5 -18.5t-47.5 -48.5v-356q0 -18 -16 -18h-32q-16 0 -16 18zM67 -193l-4 4q-3 3 -3 7q0 2 4 6q25 25 25 50q0 10 -12 24
q-5 6 -8.5 12.5t-3.5 13.5q0 16 10.5 26t26.5 10q17 0 28 -14t11 -32q0 -30 -16.5 -61t-40.5 -47q-5 -4 -9 -4q-6 0 -8 5z" />
    <glyph glyph-name="s" unicode="s" horiz-adv-x="376" 
d="M100 0q-35 9 -58 21q-6 3 -8 6t0 8l12 31q2 5 4.5 6t6.5 -1q26 -13 58 -21.5t57 -8.5q51 0 81 23.5t30 64.5q0 32 -21.5 52.5t-62.5 37.5l-60 24q-103 41 -103 121q0 59 46 93.5t114 34.5q63 0 121 -27q6 -3 7.5 -5t-0.5 -6l-10 -28q-2 -7 -5.5 -8t-9.5 2
q-21 10 -50.5 17t-52.5 7q-43 0 -68.5 -20t-25.5 -52q0 -30 16.5 -47t53.5 -32l71 -30q47 -20 75 -51t28 -75q0 -64 -48.5 -105t-128.5 -41q-34 0 -69 9z" />
    <glyph glyph-name="sacute" unicode="&#x15b;" horiz-adv-x="376" 
d="M100 0q-35 9 -58 21q-6 3 -8 6t0 8l12 31q2 5 4.5 6t6.5 -1q26 -13 58 -21.5t57 -8.5q51 0 81 23.5t30 64.5q0 32 -21.5 52.5t-62.5 37.5l-60 24q-103 41 -103 121q0 59 46 93.5t114 34.5q63 0 121 -27q6 -3 7.5 -5t-0.5 -6l-10 -28q-2 -7 -5.5 -8t-9.5 2
q-21 10 -50.5 17t-52.5 7q-43 0 -68.5 -20t-25.5 -52q0 -30 16.5 -47t53.5 -32l71 -30q47 -20 75 -51t28 -75q0 -64 -48.5 -105t-128.5 -41q-34 0 -69 9zM110 560l-9 14q-3 6 -3 9q0 7 7 11l147 90q5 4 12 4t13 -9l17 -27q3 -6 3 -11q0 -7 -9 -12l-158 -74q-6 -2 -8 -2
q-8 0 -12 7z" />
    <glyph glyph-name="scaron" unicode="&#x161;" horiz-adv-x="376" 
d="M100 0q-35 9 -58 21q-6 3 -8 6t0 8l12 31q2 5 4.5 6t6.5 -1q26 -13 58 -21.5t57 -8.5q51 0 81 23.5t30 64.5q0 32 -21.5 52.5t-62.5 37.5l-60 24q-103 41 -103 121q0 59 46 93.5t114 34.5q63 0 121 -27q6 -3 7.5 -5t-0.5 -6l-10 -28q-2 -7 -5.5 -8t-9.5 2
q-21 10 -50.5 17t-52.5 7q-43 0 -68.5 -20t-25.5 -52q0 -30 16.5 -47t53.5 -32l71 -30q47 -20 75 -51t28 -75q0 -64 -48.5 -105t-128.5 -41q-34 0 -69 9zM168 554l-118 107q-6 5 -6 11t4 10l9 10q6 6 11 6q3 0 9 -4l111 -83l111 83q5 4 10 4q6 0 10 -6l8 -10q5 -7 5 -11
q0 -5 -6 -10l-118 -107q-6 -6 -14 -6h-12q-8 0 -14 6z" />
    <glyph glyph-name="scedilla" unicode="&#x15f;" horiz-adv-x="376" 
d="M301 34.5q-45 -40.5 -121 -43.5l-2 -41h8q36 0 61.5 -16.5t25.5 -54.5q0 -33 -23 -55t-69 -22q-18 0 -31 2.5t-30 9.5q-14 6 -14 12q0 3 1 5l4 12q3 8 8 8l9 -2q12 -4 27.5 -7t25.5 -3q17 0 30.5 9t14.5 26v4q0 17 -13.5 26.5t-39.5 9.5h-16q-14 0 -19.5 6t-5.5 17
q0 9 1 14l4 42q-52 7 -95 28q-6 3 -8 6t0 8l12 31q2 5 4.5 6t6.5 -1q26 -13 58 -21.5t57 -8.5q51 0 81 23.5t30 64.5q0 32 -21.5 52.5t-62.5 37.5l-60 24q-103 41 -103 121q0 59 46 93.5t114 34.5q63 0 121 -27q6 -3 7.5 -5t-0.5 -6l-10 -28q-2 -7 -5.5 -8t-9.5 2
q-21 10 -50.5 17t-52.5 7q-43 0 -68.5 -20t-25.5 -52q0 -30 16.5 -47t53.5 -32l71 -30q47 -20 75 -51t28 -75q0 -62 -45 -102.5z" />
    <glyph glyph-name="scircumflex" unicode="&#x15d;" horiz-adv-x="376" 
d="M100 0q-35 9 -58 21q-6 3 -8 6t0 8l12 31q2 5 4.5 6t6.5 -1q26 -13 58 -21.5t57 -8.5q51 0 81 23.5t30 64.5q0 32 -21.5 52.5t-62.5 37.5l-60 24q-103 41 -103 121q0 59 46 93.5t114 34.5q63 0 121 -27q6 -3 7.5 -5t-0.5 -6l-10 -28q-2 -7 -5.5 -8t-9.5 2
q-21 10 -50.5 17t-52.5 7q-43 0 -68.5 -20t-25.5 -52q0 -30 16.5 -47t53.5 -32l71 -30q47 -20 75 -51t28 -75q0 -64 -48.5 -105t-128.5 -41q-34 0 -69 9zM57 564l-8 10q-5 7 -5 11t6 10l118 107q8 6 14 6h12q6 0 14 -6l118 -107q6 -4 6 -12q0 -5 -4 -9l-9 -10q-6 -6 -10 -6
q-5 0 -10 4l-111 83l-111 -83q-5 -4 -10 -4q-6 0 -10 6z" />
    <glyph glyph-name="scommaaccent" unicode="&#x219;" horiz-adv-x="376" 
d="M100 0q-35 9 -58 21q-6 3 -8 6t0 8l12 31q2 5 4.5 6t6.5 -1q26 -13 58 -21.5t57 -8.5q51 0 81 23.5t30 64.5q0 32 -21.5 52.5t-62.5 37.5l-60 24q-103 41 -103 121q0 59 46 93.5t114 34.5q63 0 121 -27q6 -3 7.5 -5t-0.5 -6l-10 -28q-2 -7 -5.5 -8t-9.5 2
q-21 10 -50.5 17t-52.5 7q-43 0 -68.5 -20t-25.5 -52q0 -30 16.5 -47t53.5 -32l71 -30q47 -20 75 -51t28 -75q0 -64 -48.5 -105t-128.5 -41q-34 0 -69 9zM156 -193l-4 4q-3 3 -3 7q0 2 4 6q25 25 25 50q0 10 -12 24q-5 6 -8.5 12.5t-3.5 13.5q0 16 10.5 26t26.5 10
q17 0 28 -14t11 -32q0 -30 -16.5 -61t-40.5 -47q-5 -4 -9 -4q-6 0 -8 5z" />
    <glyph glyph-name="germandbls" unicode="&#xdf;" horiz-adv-x="541" 
d="M67 -77v584q0 102 51.5 156t141.5 54q85 0 139.5 -44.5t54.5 -127.5q0 -53 -33 -99t-85 -59v-1q46 -5 83.5 -30.5t59 -65.5t21.5 -88q0 -68 -31 -116t-80.5 -71.5t-106.5 -23.5h-7q-34 0 -42 1q-14 1 -18 4t-4 11v16q0 11 4 14t15 3h2l44 -1q81 0 119 47t38 118
q0 49 -25 82.5t-63 50t-78 16.5h-36q-14 0 -17 2t-3 11v22q0 9 2.5 11.5t12.5 2.5h16q32 0 66 16.5t56.5 48t22.5 73.5q0 128 -132 128q-57 0 -90.5 -40t-33.5 -112v-593q0 -18 -16 -18h-32q-16 0 -16 18z" />
    <glyph glyph-name="longs" unicode="&#x17f;" horiz-adv-x="274" 
d="M89 17v418h-59q-6 0 -8.5 2t-2.5 8v27q0 6 2.5 8t8.5 2h59v14q0 55 3 79q7 67 46 104.5t105 37.5q21 0 43.5 -4t38.5 -11q7 -3 9.5 -6.5t0.5 -10.5l-6 -23q-3 -12 -16 -7q-33 12 -65 12q-53 0 -74 -33t-21 -104v-513q0 -17 -16 -17h-32q-16 0 -16 17z" />
    <glyph glyph-name="t" unicode="t" horiz-adv-x="327" 
d="M161 -0.5q-28 8.5 -44 25.5q-19 20 -24.5 48t-5.5 77v285h-59q-7 0 -9 2t-2 8v27q0 7 2 8.5t7 1.5h61v117q0 9 2.5 13t10.5 5l35 5h4q12 0 12 -16v-124h121q6 0 8.5 -2t2.5 -9v-26q0 -6 -2.5 -8t-9.5 -2h-120v-295q0 -30 4 -49t16 -31q19 -19 59 -19q31 0 62 11q2 1 7 1
q7 0 8 -7l5 -25l1 -5q0 -6 -11 -10q-41 -15 -82 -15q-31 0 -59 8.5z" />
    <glyph glyph-name="tbar" unicode="&#x167;" horiz-adv-x="327" 
d="M161 -0.5q-28 8.5 -44 25.5q-19 20 -24.5 48t-5.5 77v73h-51q-12 0 -16 3t-4 12v20q0 9 3.5 12t13.5 3h54v162h-59q-7 0 -9 2t-2 8v27q0 7 2 8.5t7 1.5h61v117q0 9 2.5 13t10.5 5l35 5h4q12 0 12 -16v-124h121q6 0 8.5 -2t2.5 -9v-26q0 -6 -2.5 -8t-9.5 -2h-120v-162h103
q13 0 16.5 -3t3.5 -14v-14q0 -11 -3.5 -15t-13.5 -4h-106v-83q0 -30 4 -49t16 -31q19 -19 59 -19q31 0 62 11q2 1 7 1q7 0 8 -7l5 -25l1 -5q0 -6 -11 -10q-41 -15 -82 -15q-31 0 -59 8.5z" />
    <glyph glyph-name="tcaron" unicode="&#x165;" horiz-adv-x="327" 
d="M224 550l-4 4q-3 3 -3 7q0 2 4 6q25 25 25 50q0 10 -12 24q-5 6 -8.5 12.5t-3.5 13.5q0 16 10.5 26t26.5 10q17 0 28 -14t11 -32q0 -30 -16.5 -61t-40.5 -47q-5 -4 -9 -4q-5 0 -8 5zM161 -0.5q-28 8.5 -44 25.5q-19 20 -24.5 48t-5.5 77v285h-59q-7 0 -9 2t-2 8v27
q0 7 2 8.5t7 1.5h61v117q0 9 2.5 13t10.5 5l35 5h4q12 0 12 -16v-124h121q6 0 8.5 -2t2.5 -9v-26q0 -6 -2.5 -8t-9.5 -2h-120v-295q0 -30 4 -49t16 -31q19 -19 59 -19q31 0 62 11q2 1 7 1q7 0 8 -7l5 -25l1 -5q0 -6 -11 -10q-41 -15 -82 -15q-31 0 -59 8.5z" />
    <glyph glyph-name="uni0163" unicode="&#x163;" horiz-adv-x="327" 
d="M161 -0.5q-28 8.5 -44 25.5q-19 20 -24.5 48t-5.5 77v285h-59q-7 0 -9 2t-2 8v27q0 7 2 8.5t7 1.5h61v117q0 9 2.5 13t10.5 5l35 5h4q12 0 12 -16v-124h121q6 0 8.5 -2t2.5 -9v-26q0 -6 -2.5 -8t-9.5 -2h-120v-295q0 -30 4 -49t16 -31q19 -19 59 -19q31 0 62 11q2 1 7 1
q7 0 8 -7l5 -25l1 -5q0 -6 -11 -10q-41 -15 -82 -15q-31 0 -59 8.5zM180 -193l-4 4q-3 3 -3 7q0 2 4 6q25 25 25 50q0 10 -12 24q-5 6 -8.5 12.5t-3.5 13.5q0 16 10.5 26t26.5 10q17 0 28 -14t11 -32q0 -30 -16.5 -61t-40.5 -47q-5 -4 -9 -4q-6 0 -8 5z" />
    <glyph glyph-name="uni021B" unicode="&#x21b;" horiz-adv-x="327" 
d="M161 -0.5q-28 8.5 -44 25.5q-19 20 -24.5 48t-5.5 77v285h-59q-7 0 -9 2t-2 8v27q0 7 2 8.5t7 1.5h61v117q0 9 2.5 13t10.5 5l35 5h4q12 0 12 -16v-124h121q6 0 8.5 -2t2.5 -9v-26q0 -6 -2.5 -8t-9.5 -2h-120v-295q0 -30 4 -49t16 -31q19 -19 59 -19q31 0 62 11q2 1 7 1
q7 0 8 -7l5 -25l1 -5q0 -6 -11 -10q-41 -15 -82 -15q-31 0 -59 8.5zM180 -193l-4 4q-3 3 -3 7q0 2 4 6q25 25 25 50q0 10 -12 24q-5 6 -8.5 12.5t-3.5 13.5q0 16 10.5 26t26.5 10q17 0 28 -14t11 -32q0 -30 -16.5 -61t-40.5 -47q-5 -4 -9 -4q-6 0 -8 5z" />
    <glyph glyph-name="u" unicode="u" horiz-adv-x="513" 
d="M112 31q-45 45 -45 142v291q0 18 16 18h32q16 0 16 -18v-282q0 -77 29 -110q12 -13 32.5 -21t48.5 -8q34 0 74.5 20t66.5 46v355q0 18 16 18h32q16 0 16 -18v-446q0 -18 -16 -18h-31q-16 0 -16 18l-1 35q-70 -62 -157 -62q-71 0 -113 40z" />
    <glyph glyph-name="uacute" unicode="&#xfa;" horiz-adv-x="513" 
d="M112 31q-45 45 -45 142v291q0 18 16 18h32q16 0 16 -18v-282q0 -77 29 -110q12 -13 32.5 -21t48.5 -8q34 0 74.5 20t66.5 46v355q0 18 16 18h32q16 0 16 -18v-446q0 -18 -16 -18h-31q-16 0 -16 18l-1 35q-70 -62 -157 -62q-71 0 -113 40zM179 560l-9 14q-3 6 -3 9
q0 7 7 11l147 90q5 4 12 4t13 -9l17 -27q3 -6 3 -11q0 -7 -9 -12l-158 -74q-6 -2 -8 -2q-8 0 -12 7z" />
    <glyph glyph-name="ubreve" unicode="&#x16d;" horiz-adv-x="513" 
d="M112 31q-45 45 -45 142v291q0 18 16 18h32q16 0 16 -18v-282q0 -77 29 -110q12 -13 32.5 -21t48.5 -8q34 0 74.5 20t66.5 46v355q0 18 16 18h32q16 0 16 -18v-446q0 -18 -16 -18h-31q-16 0 -16 18l-1 35q-70 -62 -157 -62q-71 0 -113 40zM183 576q-22 13 -37.5 35
t-15.5 45q0 8 3.5 10t11.5 2h21q10 0 13.5 -2.5t8.5 -11.5q23 -46 69 -46q49 0 71 46q5 9 8.5 11.5t13.5 2.5h19q8 0 11.5 -2t3.5 -10q0 -24 -16 -46.5t-39 -35.5q-31 -17 -70 -17q-43 0 -76 19z" />
    <glyph glyph-name="ucircumflex" unicode="&#xfb;" horiz-adv-x="513" 
d="M112 31q-45 45 -45 142v291q0 18 16 18h32q16 0 16 -18v-282q0 -77 29 -110q12 -13 32.5 -21t48.5 -8q34 0 74.5 20t66.5 46v355q0 18 16 18h32q16 0 16 -18v-446q0 -18 -16 -18h-31q-16 0 -16 18l-1 35q-70 -62 -157 -62q-71 0 -113 40zM126 564l-8 10q-5 7 -5 11t6 10
l118 107q8 6 14 6h12q6 0 14 -6l118 -107q6 -4 6 -12q0 -5 -4 -9l-9 -10q-6 -6 -10 -6q-5 0 -10 4l-111 83l-111 -83q-5 -4 -10 -4q-6 0 -10 6z" />
    <glyph glyph-name="udieresis" unicode="&#xfc;" horiz-adv-x="513" 
d="M112 31q-45 45 -45 142v291q0 18 16 18h32q16 0 16 -18v-282q0 -77 29 -110q12 -13 32.5 -21t48.5 -8q34 0 74.5 20t66.5 46v355q0 18 16 18h32q16 0 16 -18v-446q0 -18 -16 -18h-31q-16 0 -16 18l-1 35q-70 -62 -157 -62q-71 0 -113 40zM139 591q-15 12 -15 32
q0 21 14.5 33t33.5 12t32.5 -12.5t13.5 -32.5t-14 -32t-32 -12t-33 12zM311 591q-15 12 -15 32q0 21 14.5 33t33.5 12t32.5 -12.5t13.5 -32.5t-14 -32t-32 -12t-33 12z" />
    <glyph glyph-name="ugrave" unicode="&#xf9;" horiz-adv-x="513" 
d="M112 31q-45 45 -45 142v291q0 18 16 18h32q16 0 16 -18v-282q0 -77 29 -110q12 -13 32.5 -21t48.5 -8q34 0 74.5 20t66.5 46v355q0 18 16 18h32q16 0 16 -18v-446q0 -18 -16 -18h-31q-16 0 -16 18l-1 35q-70 -62 -157 -62q-71 0 -113 40zM324 559l-158 74q-9 5 -9 12
q0 5 3 11l17 27q6 9 13 9t12 -4l147 -90q7 -4 7 -11q0 -3 -3 -9l-9 -14q-4 -7 -12 -7q-2 0 -8 2z" />
    <glyph glyph-name="uhungarumlaut" unicode="&#x171;" horiz-adv-x="513" 
d="M112 31q-45 45 -45 142v291q0 18 16 18h32q16 0 16 -18v-282q0 -77 29 -110q12 -13 32.5 -21t48.5 -8q34 0 74.5 20t66.5 46v355q0 18 16 18h32q16 0 16 -18v-446q0 -18 -16 -18h-31q-16 0 -16 18l-1 35q-70 -62 -157 -62q-71 0 -113 40zM83 569l-9 14q-1 2 -2.5 4.5
t-1.5 4.5q0 6 8 11l147 90q5 4 11 4q7 0 13 -9l17 -27q4 -8 4 -11q0 -7 -9 -12l-158 -74q-6 -2 -9 -2q-7 0 -11 7zM308 569l-9 14q-3 6 -3 9q0 7 7 11l147 90q5 4 11 4q8 0 14 -9l17 -27q3 -6 3 -11q0 -7 -9 -12l-158 -74q-6 -2 -8 -2q-8 0 -12 7z" />
    <glyph glyph-name="umacron" unicode="&#x16b;" horiz-adv-x="513" 
d="M112 31q-45 45 -45 142v291q0 18 16 18h32q16 0 16 -18v-282q0 -77 29 -110q12 -13 32.5 -21t48.5 -8q34 0 74.5 20t66.5 46v355q0 18 16 18h32q16 0 16 -18v-446q0 -18 -16 -18h-31q-16 0 -16 18l-1 35q-70 -62 -157 -62q-71 0 -113 40zM134 584.5q-5 4.5 -5 16.5v17
q0 11 5 15.5t21 4.5h200q18 0 23.5 -4t5.5 -16v-17q0 -12 -5.5 -16.5t-23.5 -4.5h-200q-16 0 -21 4.5z" />
    <glyph glyph-name="uogonek" unicode="&#x173;" horiz-adv-x="513" 
d="M310 -172q-24 24 -24 60q0 41 26.5 67t70.5 47l-1 51q-70 -62 -157 -62q-71 0 -113 40q-45 45 -45 142v291q0 18 16 18h32q16 0 16 -18v-282q0 -77 29 -110q12 -13 32.5 -21t48.5 -8q34 0 74.5 20t66.5 46v355q0 18 16 18h32q16 0 16 -18v-446q0 -9 -2 -14t-8 -7
q-22 -7 -41 -19q-25 -16 -36.5 -37t-11.5 -42q0 -23 14.5 -35.5t40.5 -12.5q10 0 26.5 2.5t27.5 6.5l3 1q9 0 10 -7l4 -14q1 -2 1 -6q0 -11 -12 -15q-16 -6 -39 -10.5t-42 -4.5q-47 0 -71 24z" />
    <glyph glyph-name="uring" unicode="&#x16f;" horiz-adv-x="513" 
d="M112 31q-45 45 -45 142v291q0 18 16 18h32q16 0 16 -18v-282q0 -77 29 -110q12 -13 32.5 -21t48.5 -8q34 0 74.5 20t66.5 46v355q0 18 16 18h32q16 0 16 -18v-446q0 -18 -16 -18h-31q-16 0 -16 18l-1 35q-70 -62 -157 -62q-71 0 -113 40zM200.5 562.5
q-24.5 23.5 -24.5 55.5t24.5 56t56.5 24q33 0 56.5 -24t23.5 -56t-23.5 -55.5t-56.5 -23.5q-32 0 -56.5 23.5zM279.5 595.5q9.5 9.5 9.5 22.5q0 14 -9.5 23t-22.5 9q-14 0 -23.5 -9.5t-9.5 -22.5t9.5 -22.5t23.5 -9.5q13 0 22.5 9.5z" />
    <glyph glyph-name="utilde" unicode="&#x169;" horiz-adv-x="513" 
d="M112 31q-45 45 -45 142v291q0 18 16 18h32q16 0 16 -18v-282q0 -77 29 -110q12 -13 32.5 -21t48.5 -8q34 0 74.5 20t66.5 46v355q0 18 16 18h32q16 0 16 -18v-446q0 -18 -16 -18h-31q-16 0 -16 18l-1 35q-70 -62 -157 -62q-71 0 -113 40zM278 576.5q-12 4.5 -29 13.5
q-30 17 -49 17q-16 0 -29.5 -6t-33.5 -18q-11 -6 -16 -6q-7 0 -11 10l-8 18q-4 10 -4 11q0 7 14 16q52 32 90 32q24 0 64 -20q32 -15 45 -15q14 0 28 6.5t34 20.5q9 5 15 5q9 0 14 -9l8 -11q5 -8 5 -12q0 -8 -8 -14q-56 -43 -104 -43q-13 0 -25 4.5z" />
    <glyph glyph-name="v" unicode="v" horiz-adv-x="433" 
d="M175 14l-159 452q-1 2 -1 5q0 5 3.5 8t10.5 3h35q10 0 14.5 -2.5t6.5 -8.5l134 -396h2l131 393q4 14 21 14h30q7 0 10.5 -4t1.5 -11l-161 -453q-6 -14 -19 -14h-39q-16 0 -21 14z" />
    <glyph glyph-name="w" unicode="w" horiz-adv-x="671" 
d="M151 14l-135 452q-1 2 -1 6q0 10 14 10h35q10 0 14.5 -2.5t6.5 -8.5l110 -395h2l111 394q2 7 5.5 9.5t10.5 2.5h32q10 0 12 -10l115 -396h2l106 392q4 14 21 14h30q7 0 10 -4t1 -11l-135 -453q-4 -14 -20 -14h-41q-17 0 -20 14l-103 366l-102 -366q-4 -14 -20 -14h-40
q-16 0 -21 14z" />
    <glyph glyph-name="wacute" unicode="&#x1e83;" horiz-adv-x="671" 
d="M151 14l-135 452q-1 2 -1 6q0 10 14 10h35q10 0 14.5 -2.5t6.5 -8.5l110 -395h2l111 394q2 7 5.5 9.5t10.5 2.5h32q10 0 12 -10l115 -396h2l106 392q4 14 21 14h30q7 0 10 -4t1 -11l-135 -453q-4 -14 -20 -14h-41q-17 0 -20 14l-103 366l-102 -366q-4 -14 -20 -14h-40
q-16 0 -21 14zM264 560l-9 14q-3 6 -3 9q0 7 7 11l147 90q5 4 12 4t13 -9l17 -27q3 -6 3 -11q0 -7 -9 -12l-158 -74q-6 -2 -8 -2q-8 0 -12 7z" />
    <glyph glyph-name="wcircumflex" unicode="&#x175;" horiz-adv-x="671" 
d="M151 14l-135 452q-1 2 -1 6q0 10 14 10h35q10 0 14.5 -2.5t6.5 -8.5l110 -395h2l111 394q2 7 5.5 9.5t10.5 2.5h32q10 0 12 -10l115 -396h2l106 392q4 14 21 14h30q7 0 10 -4t1 -11l-135 -453q-4 -14 -20 -14h-41q-17 0 -20 14l-103 366l-102 -366q-4 -14 -20 -14h-40
q-16 0 -21 14zM211 564l-8 10q-5 7 -5 11t6 10l118 107q8 6 14 6h12q6 0 14 -6l118 -107q6 -4 6 -12q0 -5 -4 -9l-9 -10q-6 -6 -10 -6q-5 0 -10 4l-111 83l-111 -83q-5 -4 -10 -4q-6 0 -10 6z" />
    <glyph glyph-name="wdieresis" unicode="&#x1e85;" horiz-adv-x="671" 
d="M151 14l-135 452q-1 2 -1 6q0 10 14 10h35q10 0 14.5 -2.5t6.5 -8.5l110 -395h2l111 394q2 7 5.5 9.5t10.5 2.5h32q10 0 12 -10l115 -396h2l106 392q4 14 21 14h30q7 0 10 -4t1 -11l-135 -453q-4 -14 -20 -14h-41q-17 0 -20 14l-103 366l-102 -366q-4 -14 -20 -14h-40
q-16 0 -21 14zM224 591q-15 12 -15 32q0 21 14.5 33t33.5 12t32.5 -12.5t13.5 -32.5t-14 -32t-32 -12t-33 12zM396 591q-15 12 -15 32q0 21 14.5 33t33.5 12t32.5 -12.5t13.5 -32.5t-14 -32t-32 -12t-33 12z" />
    <glyph glyph-name="wgrave" unicode="&#x1e81;" horiz-adv-x="671" 
d="M151 14l-135 452q-1 2 -1 6q0 10 14 10h35q10 0 14.5 -2.5t6.5 -8.5l110 -395h2l111 394q2 7 5.5 9.5t10.5 2.5h32q10 0 12 -10l115 -396h2l106 392q4 14 21 14h30q7 0 10 -4t1 -11l-135 -453q-4 -14 -20 -14h-41q-17 0 -20 14l-103 366l-102 -366q-4 -14 -20 -14h-40
q-16 0 -21 14zM409 559l-158 74q-9 5 -9 12q0 5 3 11l17 27q6 9 13 9t12 -4l147 -90q7 -4 7 -11q0 -3 -3 -9l-9 -14q-4 -7 -12 -7q-2 0 -8 2z" />
    <glyph glyph-name="x" unicode="x" horiz-adv-x="439" 
d="M15 4q0 2 2 6l168 238l-146 222q-3 5 -3 7q0 5 7 5h55q11 0 16 -8l110 -170l114 167q5 6 8.5 8.5t9.5 2.5h46q7 0 7 -5q0 -2 -3 -7l-151 -213l162 -241q5 -8 5 -12t-6 -4h-59q-7 0 -10.5 2t-7.5 8l-123 191l-129 -192q-6 -9 -19 -9h-46q-7 0 -7 4z" />
    <glyph glyph-name="y" unicode="y" horiz-adv-x="465" 
d="M28 -216q-10 2 -10 11v3l5 32q1 7 3.5 9t7.5 2h3q30 -3 37 -3q78 0 109 77l31 76l-177 477q-1 2 -1 5q0 9 9 9h47q12 0 16 -11l141 -400l139 400q2 6 5.5 8.5t10.5 2.5h39q12 0 12 -8l-2 -8l-195 -526q-23 -60 -47.5 -94.5t-58.5 -50t-84 -15.5q-14 0 -40 4z" />
    <glyph glyph-name="yacute" unicode="&#xfd;" horiz-adv-x="465" 
d="M28 -216q-10 2 -10 11v3l5 32q1 7 3.5 9t7.5 2h3q30 -3 37 -3q78 0 109 77l31 76l-177 477q-1 2 -1 5q0 9 9 9h47q12 0 16 -11l141 -400l139 400q2 6 5.5 8.5t10.5 2.5h39q12 0 12 -8l-2 -8l-195 -526q-23 -60 -47.5 -94.5t-58.5 -50t-84 -15.5q-14 0 -40 4zM169 560
l-9 14q-3 6 -3 9q0 7 7 11l147 90q5 4 12 4t13 -9l17 -27q3 -6 3 -11q0 -7 -9 -12l-158 -74q-6 -2 -8 -2q-8 0 -12 7z" />
    <glyph glyph-name="ycircumflex" unicode="&#x177;" horiz-adv-x="465" 
d="M28 -216q-10 2 -10 11v3l5 32q1 7 3.5 9t7.5 2h3q30 -3 37 -3q78 0 109 77l31 76l-177 477q-1 2 -1 5q0 9 9 9h47q12 0 16 -11l141 -400l139 400q2 6 5.5 8.5t10.5 2.5h39q12 0 12 -8l-2 -8l-195 -526q-23 -60 -47.5 -94.5t-58.5 -50t-84 -15.5q-14 0 -40 4zM116 564
l-8 10q-5 7 -5 11t6 10l118 107q8 6 14 6h12q6 0 14 -6l118 -107q6 -4 6 -12q0 -5 -4 -9l-9 -10q-6 -6 -10 -6q-5 0 -10 4l-111 83l-111 -83q-5 -4 -10 -4q-6 0 -10 6z" />
    <glyph glyph-name="ydieresis" unicode="&#xff;" horiz-adv-x="465" 
d="M28 -216q-10 2 -10 11v3l5 32q1 7 3.5 9t7.5 2h3q30 -3 37 -3q78 0 109 77l31 76l-177 477q-1 2 -1 5q0 9 9 9h47q12 0 16 -11l141 -400l139 400q2 6 5.5 8.5t10.5 2.5h39q12 0 12 -8l-2 -8l-195 -526q-23 -60 -47.5 -94.5t-58.5 -50t-84 -15.5q-14 0 -40 4zM129 591
q-15 12 -15 32q0 21 14.5 33t33.5 12t32.5 -12.5t13.5 -32.5t-14 -32t-32 -12t-33 12zM301 591q-15 12 -15 32q0 21 14.5 33t33.5 12t32.5 -12.5t13.5 -32.5t-14 -32t-32 -12t-33 12z" />
    <glyph glyph-name="ygrave" unicode="&#x1ef3;" horiz-adv-x="465" 
d="M28 -216q-10 2 -10 11v3l5 32q1 7 3.5 9t7.5 2h3q30 -3 37 -3q78 0 109 77l31 76l-177 477q-1 2 -1 5q0 9 9 9h47q12 0 16 -11l141 -400l139 400q2 6 5.5 8.5t10.5 2.5h39q12 0 12 -8l-2 -8l-195 -526q-23 -60 -47.5 -94.5t-58.5 -50t-84 -15.5q-14 0 -40 4zM314 559
l-158 74q-9 5 -9 12q0 5 3 11l17 27q6 9 13 9t12 -4l147 -90q7 -4 7 -11q0 -3 -3 -9l-9 -14q-4 -7 -12 -7q-2 0 -8 2z" />
    <glyph glyph-name="z" unicode="z" horiz-adv-x="382" 
d="M25 4q-4 4 -4 10v15q0 8 2 13.5t7 13.5l248 379h-225q-13 0 -13 12v23q0 12 13 12h284q15 0 15 -13v-16q0 -9 -8 -22l-254 -384h261q12 0 12 -12v-23q0 -12 -10 -12h-318q-6 0 -10 4z" />
    <glyph glyph-name="zacute" unicode="&#x17a;" horiz-adv-x="382" 
d="M25 4q-4 4 -4 10v15q0 8 2 13.5t7 13.5l248 379h-225q-13 0 -13 12v23q0 12 13 12h284q15 0 15 -13v-16q0 -9 -8 -22l-254 -384h261q12 0 12 -12v-23q0 -12 -10 -12h-318q-6 0 -10 4zM121 560l-9 14q-3 6 -3 9q0 7 7 11l147 90q5 4 12 4t13 -9l17 -27q3 -6 3 -11
q0 -7 -9 -12l-158 -74q-6 -2 -8 -2q-8 0 -12 7z" />
    <glyph glyph-name="zcaron" unicode="&#x17e;" horiz-adv-x="382" 
d="M25 4q-4 4 -4 10v15q0 8 2 13.5t7 13.5l248 379h-225q-13 0 -13 12v23q0 12 13 12h284q15 0 15 -13v-16q0 -9 -8 -22l-254 -384h261q12 0 12 -12v-23q0 -12 -10 -12h-318q-6 0 -10 4zM179 554l-118 107q-6 5 -6 11t4 10l9 10q6 6 11 6q3 0 9 -4l111 -83l111 83q5 4 10 4
q6 0 10 -6l8 -10q5 -7 5 -11q0 -5 -6 -10l-118 -107q-6 -6 -14 -6h-12q-8 0 -14 6z" />
    <glyph glyph-name="zdotaccent" unicode="&#x17c;" horiz-adv-x="382" 
d="M25 4q-4 4 -4 10v15q0 8 2 13.5t7 13.5l248 379h-225q-13 0 -13 12v23q0 12 13 12h284q15 0 15 -13v-16q0 -9 -8 -22l-254 -384h261q12 0 12 -12v-23q0 -12 -10 -12h-318q-6 0 -10 4zM155 593.5q-20 16.5 -20 43.5q0 28 19.5 44.5t45.5 16.5q25 0 44 -16.5t19 -43.5
t-19.5 -44t-43.5 -17q-25 0 -45 16.5z" />
    <glyph glyph-name="ordfeminine" unicode="&#xaa;" horiz-adv-x="307" 
d="M61 417.5q-23 21.5 -23 59.5q0 59 52 82t123 23q0 10 -2 26q-3 27 -16 39.5t-44 12.5q-34 0 -76 -22q-7 -4 -10 -4t-8 9l-5 10q-2 6 -2 7q0 4 5.5 7t6.5 4q20 12 46 19.5t46 7.5q54 0 81 -28t27 -81v-174q0 -7 -2 -9.5t-9 -2.5h-21q-10 0 -11.5 1.5t-2.5 9.5l-3 21
q-50 -39 -90 -39q-39 0 -62 21.5zM177 446q20 10 35 25v78q-49 0 -76 -9q-45 -15 -45 -59q0 -45 48 -45q18 0 38 10z" />
    <glyph glyph-name="ordmasculine" unicode="&#xba;" horiz-adv-x="334" 
d="M67.5 435.5q-32.5 42.5 -32.5 109.5q0 65 35.5 109t98.5 44q65 0 97.5 -42.5t32.5 -110.5q0 -65 -35.5 -108.5t-98.5 -43.5q-65 0 -97.5 42.5zM232 460q22 34 22 84q0 49 -21 84.5t-65 35.5q-46 0 -67 -35t-21 -83q0 -51 20 -85.5t65 -34.5t67 34z" />
    <glyph glyph-name="uni0394" unicode="&#x394;" horiz-adv-x="568" 
d="M45 10l-13 21q-4 5 -4 11q0 5 3 11l222 646q2 6 4.5 7.5t7.5 1.5h31q7 0 10 -2t5 -7l227 -647q2 -8 2 -10q0 -4 -4 -12l-13 -22q-6 -8 -18 -8h-441q-13 0 -19 10zM464 55l-188 568l-188 -568h376z" />
    <glyph glyph-name="uni03A9" unicode="&#x3a9;" horiz-adv-x="676" 
d="M48 13v29q0 12 13 12h113q-56 39 -86 112.5t-30 176.5q0 108 36.5 187t101.5 120.5t147 41.5q86 0 148.5 -42t95.5 -119.5t33 -182.5q0 -104 -34 -178.5t-93 -115.5h122q11 0 11 -12v-29q0 -13 -11 -13h-229q-11 0 -11 13v29q0 5 2 8t9 4q77 15 120.5 93.5t43.5 197.5
q0 139 -56 214t-154 75q-61 0 -109.5 -35t-76.5 -100t-28 -152q0 -123 41 -200t121 -93q7 -2 9.5 -4.5t2.5 -7.5v-29q0 -13 -12 -13h-227q-13 0 -13 13z" />
    <glyph glyph-name="uni03BC" unicode="&#x3bc;" horiz-adv-x="513" 
d="M67 -149v613q0 18 16 18h32q16 0 16 -18v-287q0 -77 29 -110q27 -30 82 -30q36 0 73 17.5t67 45.5v364q0 18 16 18h32q16 0 16 -18v-446q0 -18 -16 -18h-31q-16 0 -16 18l-1 31q-31 -31 -69.5 -47t-77.5 -16q-37 0 -64 9t-40 25v-169q0 -17 -16 -17h-32q-16 0 -16 17z
" />
    <glyph glyph-name="pi" unicode="&#x3c0;" horiz-adv-x="589" 
d="M379 31.5q-18 33.5 -18 102.5v301h-178v-420q0 -15 -13 -15h-39q-5 0 -8.5 3.5t-3.5 9.5v422h-76q-8 0 -10.5 2.5t-2.5 10.5v24q0 11 11 11h488q11 0 11 -9v-27q0 -12 -11 -12h-104v-312q0 -35 7.5 -52.5t34.5 -17.5q24 0 50 17q5 3 9 3q5 0 7 -6l10 -23q2 -6 2 -7
q0 -3 -6 -9q-16 -14 -39 -22t-47 -8q-56 0 -74 33.5z" />
    <glyph glyph-name="zero" unicode="0" 
d="M135 46.5q-51 55.5 -72 135.5t-21 162q0 81 22 161.5t73.5 136.5t136.5 56t136 -55t72.5 -135t21.5 -162q0 -81 -22 -162t-74 -137t-137 -56t-136 55.5zM368 99.5q35 49.5 48 116t13 129.5t-13 129.5t-48 116t-95 49.5q-87 0 -121.5 -94t-34.5 -201t34.5 -201t121.5 -94
q60 0 95 49.5z" />
    <glyph glyph-name="one" unicode="1" 
d="M276 21v593l-136 -90q-6 -4 -11 -4q-7 0 -13 9l-13 22q-2 3 -2 7q0 8 10 15l160 106q7 5 13.5 6.5t18.5 1.5h22q18 0 18 -21v-645q0 -21 -18 -21h-30q-19 0 -19 21z" />
    <glyph glyph-name="two" unicode="2" 
d="M73.5 4q-3.5 4 -3.5 13v24q0 8 1.5 12t7.5 10q12 13 75 79q39 39 75 78q85 93 126 161.5t41 130.5q0 57 -36.5 91.5t-94.5 34.5q-70 0 -142 -41q-6 -2 -7 -2q-9 0 -12 10l-9 22q-3 6 -3 10q0 6 9 12q37 24 83 36.5t92 12.5q53 0 97.5 -20.5t71 -61t26.5 -95.5
q0 -50 -16 -96t-54 -99.5t-106 -127.5l-84 -88l-51 -52h294q11 0 16 -3.5t5 -12.5v-25q0 -9 -4.5 -13t-15.5 -4h-369q-9 0 -12.5 4z" />
    <glyph glyph-name="three" unicode="3" 
d="M84 24q-8 5 -8 12q0 4 1 6l11 26q5 9 10 9q1 0 7 -2q64 -29 134 -29q69 0 112 40.5t43 109.5q0 70 -46 108.5t-121 38.5h-35q-13 0 -13 12v30q0 11 12 11h27q70 0 110.5 33t40.5 99q0 58 -36.5 87t-96.5 29q-28 0 -60.5 -9t-59.5 -24q-4 -3 -8 -3q-3 0 -7 7l-12 26
q-2 4 -2 6q0 6 6 9q70 42 157 42q50 0 95 -20.5t72 -58t27 -88.5q0 -53 -32.5 -96.5t-83.5 -59.5q63 -14 102 -63t39 -113q0 -60 -30 -107.5t-81 -74t-112 -26.5q-97 0 -162 33z" />
    <glyph glyph-name="four" unicode="4" 
d="M405.5 3.5q-3.5 3.5 -3.5 12.5v150h-330q-10 0 -14 4.5t-4 14.5v15q0 12 1.5 19t7.5 20l192 432q7 16 19 16h37q6 0 10 -4.5t4 -9.5q0 -4 -1 -6l-194 -443h272v163q0 10 3.5 13t12.5 3h35q9 0 12.5 -3t3.5 -12v-373q0 -8 -3 -11.5t-10 -3.5h-39q-8 0 -11.5 3.5z" />
    <glyph glyph-name="five" unicode="5" 
d="M95 29q-13 7 -13 15q0 1 2 7l12 25q5 9 12 9q4 0 10 -3q36 -17 65 -24.5t65 -7.5q66 0 110.5 39.5t44.5 112.5q0 92 -57 128t-155 36h-51q-27 0 -27 25v280q0 16 15 16h294q10 0 14.5 -3.5t4.5 -13.5v-24q0 -10 -3.5 -13t-13.5 -3h-244v-210h37q114 0 187.5 -53
t73.5 -162q0 -66 -30.5 -114.5t-84.5 -74t-122 -25.5q-73 0 -146 38z" />
    <glyph glyph-name="six" unicode="6" 
d="M127.5 73.5q-51.5 82.5 -51.5 216.5q0 105 28 197t83 147q30 30 73.5 47t91.5 17q35 0 78 -10q9 -3 9 -11q0 -5 -1 -8l-5 -22q-3 -12 -13 -12l-5 1q-32 6 -67 6q-31 0 -60 -11.5t-50 -33.5q-69 -69 -85 -240q33 35 72.5 51t80.5 16q53 0 96 -25t68 -71t25 -107
q0 -65 -25 -117t-71 -82.5t-107 -30.5q-113 0 -164.5 82.5zM389.5 99.5q30.5 51.5 30.5 114.5q0 64 -30 108.5t-93 44.5q-35 0 -74.5 -18t-71.5 -54v-24q0 -104 34.5 -163.5t107.5 -59.5q66 0 96.5 51.5z" />
    <glyph glyph-name="seven" unicode="7" 
d="M133.5 3.5q-3.5 3.5 -3.5 8.5q0 3 2 9l279 608h-300q-10 0 -14 2.5t-4 11.5v28q0 8 3.5 12t12.5 4h357q10 0 13.5 -3.5t3.5 -12.5v-27q0 -11 -8 -27l-272 -601q-6 -16 -23 -16h-37q-6 0 -9.5 3.5z" />
    <glyph glyph-name="eight" unicode="8" 
d="M112.5 41q-60.5 50 -60.5 140q0 57 43 107.5t116 76.5q-60 26 -95 69t-35 98q0 47 25.5 85t69.5 59.5t97 21.5q81 0 133 -44.5t52 -117.5q0 -47 -37 -92.5t-92 -70.5q160 -67 160 -182q0 -59 -29.5 -104.5t-79.5 -70.5t-111 -25q-96 0 -156.5 50zM349.5 455
q33.5 36 33.5 82q0 50 -30 80.5t-84 30.5q-50 0 -81.5 -31.5t-31.5 -79.5q0 -49 30 -79.5t86 -59.5q44 21 77.5 57zM341.5 58q32.5 16 52.5 48t20 76q0 29 -8.5 50t-27.5 40q-36 36 -114 69q-137 -54 -137 -157q0 -44 21 -76t54 -49t70 -17t69.5 16z" />
    <glyph glyph-name="nine" unicode="9" 
d="M160.5 -6q-21.5 3 -35.5 7q-9 3 -9 11q0 5 1 8l5 22q3 11 11 11h4q27 -6 60 -6q35 0 68 12.5t54 34.5q67 69 83 238q-33 -35 -73 -51t-81 -16q-53 0 -96 25t-67.5 71t-24.5 107q0 65 24.5 117.5t70.5 82.5t107 30q113 0 165 -82.5t52 -216.5q0 -108 -29 -202t-87 -148
q-30 -27 -73.5 -42.5t-90.5 -15.5q-17 0 -38.5 3zM332 340q40 18 72 54v24q0 104 -35 163.5t-108 59.5q-66 0 -96 -51t-30 -115t29.5 -108.5t92.5 -44.5q35 0 75 18z" />
    <glyph glyph-name="uni00B9" unicode="&#xb9;" horiz-adv-x="330" 
d="M153 351q-2 3 -2 11v286l-59 -37q-5 -4 -9 -4q-3 0 -6 4l-13 18q-3 5 -3 7q0 6 8 10l82 54q9 5 20 5h14q8 0 10.5 -3t2.5 -11v-329q0 -8 -2 -11t-10 -3h-23q-8 0 -10 3z" />
    <glyph glyph-name="uni00B2" unicode="&#xb2;" horiz-adv-x="330" 
d="M73 342.5q-2 2.5 -2 9.5v16q0 9 6 15l33 35q58 59 91 102.5t33 82.5q0 25 -16 40.5t-42 15.5q-33 0 -68 -20q-3 -2 -8 -2t-9 7l-8 17q-2 4 -2 6q0 4 9 10q41 26 91 26q43 0 74 -25t31 -70q0 -39 -20 -75.5t-70 -91.5q-18 -20 -56 -58h134q9 0 11.5 -2t2.5 -9v-21
q0 -11 -13 -11h-193q-7 0 -9 2.5z" />
    <glyph glyph-name="uni00B3" unicode="&#xb3;" horiz-adv-x="330" 
d="M119 342q-26 4 -41 11q-12 6 -12 12q0 4 1 6l7 19q2 5 8 5q1 0 7 -2q31 -14 64 -14q32 0 51.5 18.5t19.5 49.5q0 32 -21 49.5t-56 17.5h-17q-14 0 -14 13v15q0 12 13 12h14q32 0 50 15t18 44q0 26 -15.5 38.5t-43.5 12.5q-12 0 -28 -4.5t-29 -11.5q-3 -2 -7 -2q-6 0 -9 6
l-8 17l-1 4q0 6 7 10q37 22 82 22q42 0 73 -24.5t31 -65.5q0 -24 -12.5 -45t-33.5 -33q26 -11 42 -35t16 -53q0 -49 -34.5 -80t-83.5 -31q-12 0 -38 4z" />
    <glyph glyph-name="fraction" unicode="&#x2044;" horiz-adv-x="153" 
d="M-190 -25q-3 3 -3 8q0 4 3 9l429 705q7 12 13 16t19 4h24q13 0 13 -9q0 -7 -6 -16l-428 -704q-6 -10 -9.5 -13t-13.5 -3h-33q-5 0 -8 3z" />
    <glyph glyph-name="onehalf" unicode="&#xbd;" horiz-adv-x="750" 
d="M100.5 -25q-3.5 3 -3.5 8q0 4 3 9l429 705q7 12 13 16t19 4h24q13 0 13 -9q0 -7 -6 -16l-428 -704q-6 -10 -9.5 -13t-13.5 -3h-33q-4 0 -7.5 3zM136 351q-2 3 -2 11v286l-59 -37q-5 -4 -9 -4q-3 0 -6 4l-13 18q-3 5 -3 7q0 6 8 10l82 54q9 5 20 5h14q8 0 10.5 -3t2.5 -11
v-329q0 -8 -2 -11t-10 -3h-23q-8 0 -10 3zM461 -4.5q-2 2.5 -2 9.5v16q0 8 7 15l32 34q57 58 90.5 102.5t33.5 83.5q0 25 -16 40.5t-42 15.5q-33 0 -68 -20q-3 -2 -8 -2t-9 7l-8 17q-1 2 -1 6q0 5 8 10q41 26 91 26q43 0 74 -25t31 -70q0 -39 -20 -75.5t-70 -91.5
q-18 -20 -56 -58h134q9 0 11.5 -2t2.5 -9v-21q0 -11 -13 -11h-193q-7 0 -9 2.5z" />
    <glyph glyph-name="onequarter" unicode="&#xbc;" horiz-adv-x="750" 
d="M113.5 -25q-3.5 3 -3.5 8q0 4 3 9l429 705q7 12 13 16t19 4h24q13 0 13 -9q0 -7 -6 -16l-428 -704q-6 -10 -9.5 -13t-13.5 -3h-33q-4 0 -7.5 3zM149 351q-2 3 -2 11v286l-59 -37q-5 -4 -9 -4q-3 0 -6 4l-13 18q-3 5 -3 7q0 6 8 10l82 54q9 5 20 5h14q8 0 10.5 -3t2.5 -11
v-329q0 -8 -2 -11t-10 -3h-23q-8 0 -10 3zM634.5 -5q-1.5 2 -1.5 10v71h-162q-8 0 -10 2.5t-2 10.5v9q0 12 5 24l96 216q1 4 5.5 8.5t10.5 4.5h21q14 0 14 -8q0 -4 -3 -10l-94 -214h119v75q0 9 2 12t8 3h26q7 0 9 -2.5t2 -10.5v-191q0 -8 -1.5 -10t-7.5 -2h-28q-7 0 -8.5 2z
" />
    <glyph glyph-name="threequarters" unicode="&#xbe;" horiz-adv-x="750" 
d="M122.5 -25q-3.5 3 -3.5 8q0 4 3 9l429 705q7 12 13 16t19 4h24q13 0 13 -9q0 -7 -6 -16l-428 -704q-6 -10 -9.5 -13t-13.5 -3h-33q-4 0 -7.5 3zM110 342q-26 4 -41 11q-12 6 -12 12q0 4 1 6l7 19q2 5 8 5q1 0 7 -2q31 -14 64 -14q32 0 51.5 18.5t19.5 49.5q0 32 -21 49.5
t-56 17.5h-17q-14 0 -14 13v15q0 12 13 12h14q32 0 50 15t18 44q0 26 -15.5 38.5t-43.5 12.5q-12 0 -28 -4.5t-29 -11.5q-3 -2 -7 -2q-6 0 -9 6l-8 17l-1 4q0 6 7 10q37 22 82 22q42 0 73 -24.5t31 -65.5q0 -24 -12.5 -45t-33.5 -33q26 -11 42 -35t16 -53q0 -49 -34.5 -80
t-83.5 -31q-12 0 -38 4zM643.5 -5q-1.5 2 -1.5 10v71h-162q-8 0 -10 2.5t-2 10.5v9q0 12 5 24l96 216q1 4 5.5 8.5t10.5 4.5h21q14 0 14 -8q0 -4 -3 -10l-94 -214h119v75q0 9 2 12t8 3h26q7 0 9 -2.5t2 -10.5v-191q0 -8 -1.5 -10t-7.5 -2h-28q-7 0 -8.5 2z" />
    <glyph glyph-name="asterisk" unicode="*" horiz-adv-x="310" 
d="M96 451l-32 23q-5 3 -5 7t3.5 7.5t4.5 5.5l69 71l-98 11q-11 2 -11 8q0 4 1 6l14 44q3 8 10 8q4 0 9 -3l85 -51l-19 101q-1 4 -1 9t2.5 6.5t9.5 1.5h36q7 0 10 -1.5t3 -6.5q0 -6 -1 -9l-19 -101l88 52q4 2 7 2q6 0 10 -12l10 -34l2 -9q0 -9 -12 -11l-93 -12l68 -71
q4 -4 4 -9q0 -9 -8 -14l-24 -18q-8 -5 -11 -5q-5 0 -10 10l-43 98l-42 -102q-3 -6 -8 -6q-3 0 -9 4z" />
    <glyph glyph-name="backslash" unicode="\" horiz-adv-x="347" 
d="M251 -9.5q-4 3.5 -7 14.5l-195 679q-2 10 -2 11q0 5 3.5 6.5t11.5 1.5h20q12 0 17.5 -3.5t9.5 -16.5l193 -677q2 -10 2 -11q0 -5 -2.5 -6.5t-9.5 -1.5h-27q-10 0 -14 3.5z" />
    <glyph glyph-name="periodcentered" unicode="&#xb7;" horiz-adv-x="205" 
d="M71.5 252.5q-16.5 13.5 -16.5 35.5q0 23 15.5 36.5t37.5 13.5q21 0 36.5 -14t15.5 -36t-16 -35.5t-36 -13.5t-36.5 13.5z" />
    <glyph glyph-name="bullet" unicode="&#x2022;" horiz-adv-x="510" 
d="M169 130q-39 21 -61.5 57t-22.5 79t22.5 79t61.5 57.5t84 21.5t83.5 -21.5t61 -57.5t22.5 -79t-22.5 -79t-61 -57t-83.5 -21t-84 21z" />
    <glyph glyph-name="colon" unicode=":" horiz-adv-x="205" 
d="M71.5 405.5q-16.5 13.5 -16.5 35.5q0 23 16 37t37 14t36.5 -14.5t15.5 -36.5t-16 -35.5t-36 -13.5t-36.5 13.5zM71.5 5q-16.5 14 -16.5 36q0 23 15.5 36t37.5 13q21 0 36.5 -13.5t15.5 -35.5t-16 -36t-36 -14t-36.5 14z" />
    <glyph glyph-name="comma" unicode="," horiz-adv-x="192" 
d="M59 -108l-5 6q-3 3 -3 8q0 3 5 8q31 31 31 62q0 14 -15 31q-7 9 -11 16t-4 16q0 19 13 32t33 13q22 0 35.5 -17.5t13.5 -40.5q0 -37 -20.5 -75.5t-50.5 -59.5q-8 -5 -12 -5q-6 0 -10 6z" />
    <glyph glyph-name="ellipsis" unicode="&#x2026;" horiz-adv-x="1000" 
d="M145.5 1q-16.5 14 -16.5 36q0 23 15.5 36t37.5 13q21 0 36.5 -13.5t15.5 -35.5t-16 -36t-36 -14t-36.5 14zM462.5 1q-16.5 14 -16.5 36q0 23 15.5 36t37.5 13q21 0 36 -13.5t15 -35.5t-15.5 -36t-35.5 -14t-36.5 14zM779 1q-17 14 -17 36q0 23 16 36t38 13q21 0 36 -13.5
t15 -35.5t-15.5 -36t-35.5 -14t-37 14z" />
    <glyph glyph-name="exclam" unicode="!" horiz-adv-x="254" 
d="M116 156l-8 513v1q0 17 13 17h43q9 0 12.5 -3t3.5 -12v-1l-8 -515q0 -17 -16 -17h-24q-16 0 -16 17zM106.5 1q-16.5 14 -16.5 36q0 23 15.5 36t37.5 13q21 0 36 -13.5t15 -35.5t-15.5 -36t-35.5 -14t-36.5 14z" />
    <glyph glyph-name="exclamdown" unicode="&#xa1;" horiz-adv-x="264" 
d="M110 406.5q-15 13.5 -15 35.5t15.5 36t35.5 14t36.5 -14t16.5 -36q0 -23 -15.5 -36t-37.5 -13q-21 0 -36 13.5zM112.5 -205q-3.5 3 -3.5 12v1l8 515q0 17 16 17h24q16 0 16 -17l8 -513v-1q0 -17 -13 -17h-43q-9 0 -12.5 3z" />
    <glyph glyph-name="numbersign" unicode="#" horiz-adv-x="550" 
d="M84 2.5q-4 2.5 -4 9.5q0 6 1 10l29 182h-103q-8 0 -11.5 2.5t-3.5 9.5l1 7l3 19q2 9 7 12t19 3h100l23 156h-107q-14 0 -14 12l1 6l3 20q2 8 5 11t13 3h110l31 207q3 15 15 15h35q15 0 15 -11v-4l-32 -207h159l32 206q1 9 5 12.5t13 3.5h30q17 0 17 -12l-1 -8l-30 -202
h109q7 0 10 -2.5t3 -8.5l-1 -8l-2 -13q-2 -12 -5.5 -16t-11.5 -4h-111l-24 -156h108q8 0 11 -2.5t3 -7.5l-1 -9l-1 -18q-1 -9 -5.5 -12.5t-15.5 -3.5h-109l-29 -186q-2 -10 -7.5 -14t-19.5 -4h-19q-11 0 -15.5 2.5t-4.5 9.5l1 8l31 184h-162l-31 -183q-3 -13 -7.5 -17
t-20.5 -4h-20q-10 0 -14 2.5zM347 257l25 156h-161l-25 -156h161z" />
    <glyph glyph-name="period" unicode="." horiz-adv-x="195" 
d="M66 1.5q-16 14.5 -16 35.5q0 22 15.5 35.5t37.5 13.5q21 0 36.5 -14t15.5 -35t-15.5 -35.5t-36.5 -14.5t-37 14.5z" />
    <glyph glyph-name="question" unicode="?" horiz-adv-x="407" 
d="M134.5 183q-2.5 3 -4.5 12q-3 23 -3 46t12 51t30 47l72 78q57 63 57 116q0 61 -35 87.5t-84 26.5q-21 0 -46 -6t-48 -16l-8 -2q-8 0 -11 9l-7 18q-2 6 -2 7q0 8 7 11q59 30 129 30q45 0 84 -19t62 -53.5t23 -80.5q0 -36 -15.5 -72.5t-42.5 -66.5l-73 -81
q-26 -29 -38 -54.5t-12 -72.5q0 -11 -1.5 -14.5t-8.5 -3.5h-27q-7 0 -9.5 3zM127 1q-16 14 -16 36q0 23 15 36t37 13q21 0 37 -13.5t16 -35.5t-16.5 -36t-36.5 -14t-36 14z" />
    <glyph glyph-name="questiondown" unicode="&#xbf;" horiz-adv-x="407" 
d="M219 406.5q-16 13.5 -16 35.5t16.5 36t36.5 14t36 -14t16 -36q0 -23 -15 -36t-37 -13q-21 0 -37 13.5zM142 -200q-39 19 -62 53.5t-23 80.5q0 36 15.5 72.5t42.5 66.5l73 81q26 29 38 54.5t12 72.5q0 11 2 14.5t8 3.5h27q7 0 9.5 -3t4.5 -12q3 -22 3 -46q0 -23 -12 -51
t-30 -47l-72 -78q-57 -63 -57 -116q0 -61 35 -87.5t84 -26.5q21 0 46 6t48 16l8 2q8 0 11 -9l7 -18q2 -6 2 -7q0 -8 -7 -11q-59 -30 -129 -30q-45 0 -84 19z" />
    <glyph glyph-name="quotedbl" unicode="&#x22;" horiz-adv-x="300" 
d="M56 540v140q0 18 15 18h32q16 0 16 -18v-140q0 -18 -16 -18h-32q-15 0 -15 18zM179 540v140q0 18 16 18h32q16 0 16 -18v-140q0 -18 -16 -18h-32q-16 0 -16 18z" />
    <glyph glyph-name="quotesingle" unicode="'" horiz-adv-x="300" 
d="M114 540v140q0 18 15 18h32q16 0 16 -18v-140q0 -18 -16 -18h-32q-15 0 -15 18z" />
    <glyph glyph-name="semicolon" unicode=";" horiz-adv-x="206" 
d="M72.5 405.5q-16.5 13.5 -16.5 35.5q0 23 16 37t37 14t36.5 -14.5t15.5 -36.5t-16 -35.5t-36 -13.5t-36.5 13.5zM65 -110l-7 9q-3 3 -3 8q0 3 5 8q11 10 18.5 22.5t7.5 22.5q0 9 -12 27q-14 20 -14 34q0 20 13.5 32.5t33.5 12.5q22 0 36 -17.5t14 -39.5q0 -36 -19.5 -67
t-50.5 -53q-8 -5 -12 -5q-5 0 -10 6z" />
    <glyph glyph-name="slash" unicode="/" horiz-adv-x="325" 
d="M46.5 -7.5q-3.5 1.5 -3.5 6.5q0 1 2 11l196 670q3 11 6.5 14.5t13.5 3.5h27q7 0 9.5 -1.5t2.5 -6.5q0 -3 -2 -11l-193 -668q-4 -13 -9.5 -16.5t-17.5 -3.5h-20q-8 0 -11.5 1.5z" />
    <glyph glyph-name="underscore" unicode="_" horiz-adv-x="510" 
d="M9 -136q-4 3 -4 12v26q0 9 3.5 12t13.5 3h463q13 0 16.5 -3t3.5 -14v-20q0 -11 -3.5 -15t-13.5 -4h-463q-12 0 -16 3z" />
    <glyph glyph-name="braceleft" unicode="{" horiz-adv-x="309" 
d="M126 -97q-37 37 -38 104l-3 151q-1 53 -9.5 78t-35.5 28q-11 1 -14 4t-3 10v12q0 8 3 11.5t12 4.5q27 3 36.5 28t10.5 71l3 158q1 66 39 103.5t97 37.5h58q7 0 9.5 -1.5t2.5 -5.5l-1 -5l-5 -21q-3 -12 -14 -12h-57q-37 0 -54 -33t-18 -65l-3 -133q-2 -72 -14 -106
t-42 -36v-1q21 -2 32.5 -16.5t16.5 -45.5t7 -87l3 -127q1 -32 18 -65t54 -33h53q13 0 16 -9l7 -23l1 -4q0 -9 -18 -9h-52q-61 0 -98 37z" />
    <glyph glyph-name="braceright" unicode="}" horiz-adv-x="309" 
d="M18 -132.5q-3 1.5 -3 5.5l1 5l5 21q3 12 14 12h57q37 0 54 33t18 65l3 134q2 71 14 105t42 36v1q-31 2 -42.5 34.5t-13.5 115.5l-3 126q-1 32 -18 65t-54 33h-53q-13 0 -16 9l-7 23l-1 4q0 9 18 9h52q61 0 98 -37t38 -104l3 -151q1 -53 10 -78t36 -28q16 -2 16 -13v-13
q0 -9 -2.5 -12t-11.5 -4q-27 -3 -37 -28.5t-11 -70.5l-3 -158q-1 -66 -39 -103.5t-97 -37.5h-58q-6 0 -9 1.5z" />
    <glyph glyph-name="bracketleft" unicode="[" horiz-adv-x="288" 
d="M85 -126v805q0 9 5 14t13 5h153q17 0 17 -16v-22q0 -16 -17 -16h-107v-734h107q17 0 17 -16v-22q0 -16 -17 -16h-155q-16 0 -16 18z" />
    <glyph glyph-name="bracketright" unicode="]" horiz-adv-x="288" 
d="M15 -128v22q0 16 18 16h107v734h-107q-18 0 -18 16v22q0 16 18 16h154q16 0 16 -18v-805q0 -9 -5 -14t-13 -5h-152q-18 0 -18 16z" />
    <glyph glyph-name="parenleft" unicode="(" horiz-adv-x="322" 
d="M214 -112q-71 99 -108 200.5t-37 210.5q0 106 39 206.5t112 200.5q5 6 11 6q5 0 8 -2l15 -9q5 -3 5 -8q0 -6 -4 -11q-60 -94 -85 -168q-36 -105 -36 -228q0 -107 28.5 -195.5t88.5 -175.5q4 -5 4 -11q0 -7 -6 -11l-15 -11q-4 -4 -9 -4q-4 0 -11 10z" />
    <glyph glyph-name="parenright" unicode=")" horiz-adv-x="322" 
d="M84 -118l-16 10q-5 3 -5 8t4 10q60 94 85 168q37 108 37 228q0 107 -28.5 195.5t-88.5 175.5q-4 5 -4 11q0 7 6 11l16 11q8 4 9 4q4 0 11 -10q71 -98 107 -199.5t36 -211.5q0 -107 -38.5 -207.5t-111.5 -199.5q-5 -6 -11 -6q-5 0 -8 2z" />
    <glyph glyph-name="emdash" unicode="&#x2014;" horiz-adv-x="1000" 
d="M4 236q-4 3 -4 12v26q0 9 3.5 12t13.5 3h963q13 0 16.5 -3t3.5 -14v-20q0 -11 -3.5 -15t-13.5 -4h-963q-12 0 -16 3z" />
    <glyph glyph-name="endash" unicode="&#x2013;" horiz-adv-x="500" 
d="M4 236q-4 3 -4 12v26q0 9 3.5 12t13.5 3h463q13 0 16.5 -3t3.5 -14v-20q0 -11 -3.5 -15t-13.5 -4h-463q-12 0 -16 3z" />
    <glyph glyph-name="hyphen" unicode="-" horiz-adv-x="271" 
d="M49 236q-4 3 -4 12v26q0 9 3.5 12t13.5 3h144q13 0 16.5 -3t3.5 -14v-20q0 -11 -3.5 -15t-13.5 -4h-144q-12 0 -16 3z" />
    <glyph glyph-name="uni00AD" unicode="&#xad;" horiz-adv-x="271" 
d="M49 236q-4 3 -4 12v26q0 9 3.5 12t13.5 3h144q13 0 16.5 -3t3.5 -14v-20q0 -11 -3.5 -15t-13.5 -4h-144q-12 0 -16 3z" />
    <glyph glyph-name="guillemotleft" unicode="&#xab;" horiz-adv-x="461" 
d="M171 63l-112 152q-4 5 -4 12q0 8 5 14l111 147q6 7 11 7q4 0 7 -2l20 -11q5 -2 5 -9q0 -2 -2 -6l-85 -139l84 -144q2 -4 2 -7q0 -6 -7 -10l-17 -10q-4 -3 -7 -3q-5 0 -11 9zM342 63l-112 152q-5 6 -5 12q0 7 6 14l111 147q6 7 11 7q4 0 7 -2l20 -11q4 -2 4 -8q0 -4 -2 -7
l-85 -139l84 -144q2 -3 2 -8t-6 -9l-17 -10q-4 -3 -7 -3q-5 0 -11 9z" />
    <glyph glyph-name="guillemotright" unicode="&#xbb;" horiz-adv-x="461" 
d="M102 57l-20 11q-5 2 -5 9q0 2 2 6l85 140l-84 143q-2 4 -2 7q0 6 7 10l17 10q5 3 7 3q4 0 10 -9l112 -152q5 -6 5 -12q0 -8 -5 -14l-112 -147q-6 -7 -10 -7t-7 2zM272 57l-20 11q-5 2 -5 9q0 2 2 6l86 140l-84 143q-2 3 -2 8t6 9l17 10q5 3 7 3q5 0 11 -9l112 -152
q4 -5 4 -12q0 -8 -5 -14l-111 -147q-6 -7 -11 -7q-4 0 -7 2z" />
    <glyph glyph-name="guilsinglleft" unicode="&#x2039;" horiz-adv-x="291" 
d="M171 63l-112 152q-4 5 -4 12q0 8 5 14l111 147q6 7 11 7q4 0 7 -2l20 -11q5 -2 5 -9q0 -2 -2 -6l-86 -139l85 -144q2 -4 2 -7q0 -6 -7 -10l-17 -10q-4 -3 -7 -3q-5 0 -11 9z" />
    <glyph glyph-name="guilsinglright" unicode="&#x203a;" horiz-adv-x="291" 
d="M101 57l-19 11q-5 3 -5 9q0 2 2 6l85 140l-84 143q-2 4 -2 7q0 6 7 10l16 10q4 3 7 3q5 0 11 -9l112 -152q5 -6 5 -12t-6 -14l-111 -147q-6 -7 -11 -7q-4 0 -7 2z" />
    <glyph glyph-name="quotedblbase" unicode="&#x201e;" horiz-adv-x="320" 
d="M39 -126l-5 6q-3 3 -3 8q0 3 5 8q31 31 31 62q0 14 -15 31q-7 9 -11 16t-4 16q0 19 13 32t33 13q22 0 35.5 -17.5t13.5 -40.5q0 -37 -20.5 -75.5t-50.5 -59.5q-8 -5 -12 -5q-5 0 -10 6zM206 -126l-5 6q-3 3 -3 8q0 3 5 8q31 31 31 62q0 14 -15 31q-7 9 -11 16t-4 16
q0 19 13 32t33 13q22 0 35.5 -17.5t13.5 -40.5q0 -37 -20.5 -75.5t-50.5 -59.5q-8 -5 -12 -5q-6 0 -10 6z" />
    <glyph glyph-name="quotedblleft" unicode="&#x201c;" horiz-adv-x="320" 
d="M35.5 521.5q-13.5 17.5 -13.5 40.5q0 37 20.5 75.5t50.5 59.5q8 5 12 5q5 0 10 -6l5 -6q3 -3 3 -8q0 -3 -5 -8q-31 -31 -31 -62q0 -14 15 -31q7 -9 11 -16t4 -16q0 -19 -13 -32t-33 -13q-22 0 -35.5 17.5zM202.5 521.5q-13.5 17.5 -13.5 40.5q0 37 20.5 75.5t50.5 59.5
q8 5 12 5q6 0 10 -6l5 -6q3 -3 3 -8q0 -3 -5 -8q-31 -31 -31 -62q0 -14 15 -31q7 -9 11 -16t4 -16q0 -19 -13 -32t-33 -13q-22 0 -35.5 17.5z" />
    <glyph glyph-name="quotedblright" unicode="&#x201d;" horiz-adv-x="320" 
d="M39 510l-5 6q-3 3 -3 8q0 3 5 8q31 31 31 62q0 14 -15 31q-7 9 -11 16t-4 16q0 19 13 32t33 13q22 0 35.5 -17.5t13.5 -40.5q0 -37 -20.5 -75.5t-50.5 -59.5q-8 -5 -12 -5q-5 0 -10 6zM206 510l-5 6q-3 3 -3 8q0 3 5 8q31 31 31 62q0 14 -15 31q-7 9 -11 16t-4 16
q0 19 13 32t33 13q22 0 35.5 -17.5t13.5 -40.5q0 -37 -20.5 -75.5t-50.5 -59.5q-8 -5 -12 -5q-6 0 -10 6z" />
    <glyph glyph-name="quoteleft" unicode="&#x2018;" horiz-adv-x="310" 
d="M107.5 521.5q-13.5 17.5 -13.5 40.5q0 37 20.5 75.5t50.5 59.5q8 5 12 5q5 0 10 -6l5 -6q3 -3 3 -8q0 -3 -5 -8q-31 -31 -31 -62q0 -14 15 -31q7 -9 11 -16t4 -16q0 -19 -13 -32t-33 -13q-22 0 -35.5 17.5z" />
    <glyph glyph-name="quoteright" unicode="&#x2019;" horiz-adv-x="310" 
d="M119 510l-5 6q-3 3 -3 8q0 3 5 8q31 31 31 62q0 14 -15 31q-7 9 -11 16t-4 16q0 19 13 32t33 13q22 0 35.5 -17.5t13.5 -40.5q0 -37 -20.5 -75.5t-50.5 -59.5q-8 -5 -12 -5q-6 0 -10 6z" />
    <glyph glyph-name="quotesinglbase" unicode="&#x201a;" horiz-adv-x="310" 
d="M119 -126l-5 6q-3 3 -3 8q0 3 5 8q31 31 31 62q0 14 -15 31q-7 9 -11 16t-4 16q0 19 13 32t33 13q22 0 35.5 -17.5t13.5 -40.5q0 -37 -20.5 -75.5t-50.5 -59.5q-8 -5 -12 -5q-5 0 -10 6z" />
    <glyph glyph-name="uni00A0" unicode="&#xa0;" horiz-adv-x="220" 
 />
    <glyph glyph-name="cent" unicode="&#xa2;" 
d="M281 -91.5q-3 4.5 -3 16.5v69q-94 12 -141 78.5t-47 170.5q0 97 50 163.5t138 81.5v83q0 16 15 16h16q10 0 13.5 -3.5t3.5 -13.5v-78q31 -1 65 -9t57 -21q9 -4 9 -11l-2 -8l-6 -18q-1 -4 -3.5 -7.5t-6.5 -3.5q-1 0 -7 2q-53 26 -106 27v-404q59 1 109 24q6 2 7 2
q8 0 10 -9l5 -18q1 -3 1 -8q0 -7 -10 -11q-54 -26 -122 -28v-66q0 -13 -3 -17t-16 -4h-11q-12 0 -15 4.5zM278 438q-57 -15 -89.5 -66t-32.5 -127t29.5 -131.5t92.5 -70.5v395z" />
    <glyph glyph-name="currency" unicode="&#xa4;" 
d="M92 196q-7 7 -7 11t6 10l51 51q-10 15 -15 36t-5 41q0 19 4.5 39t13.5 35l-51 52q-6 6 -6 10t7 11l14 14q6 6 11 6q4 0 10 -6l46 -46q19 19 46 28.5t53 9.5t53 -9.5t46 -28.5l46 46q6 6 11 6q4 0 10 -6l14 -14q7 -7 7 -11t-6 -10l-52 -52q9 -15 14 -35.5t5 -38.5
q0 -19 -5.5 -40t-14.5 -37l51 -51q6 -6 6 -10t-7 -11l-14 -14q-6 -6 -10 -6q-5 0 -11 6l-46 46q-19 -18 -45 -27t-52 -9t-52 9t-45 27l-46 -46q-6 -6 -10 -6q-5 0 -11 6zM341 269.5q24 28.5 24 75.5t-24 75.5t-71 28.5t-71 -28.5t-24 -75.5t24 -75.5t71 -28.5t71 28.5z" />
    <glyph glyph-name="dollar" unicode="$" 
d="M262 -96.5q-3 4.5 -3 16.5v71h-8q-74 0 -152 26q-13 4 -13 14q0 4 1 7l10 33q3 9 11 9q2 0 10 -2q75 -28 137 -28h4v283l-70 40q-50 28 -78 67.5t-28 88.5q0 72 51 116.5t125 51.5v81q0 16 15 16h16q10 0 13.5 -3.5t3.5 -13.5v-79q66 -3 124 -27q13 -6 13 -15q0 -4 -1 -7
l-10 -28q-3 -9 -12 -9q-3 0 -9 2q-55 23 -105 27v-258l34 -19q68 -38 103 -79.5t35 -106.5q0 -77 -48 -123.5t-124 -59.5v-75q0 -13 -3 -17t-16 -4h-11q-12 0 -15 4.5zM259 640q-41 -7 -66 -26q-18 -13 -28.5 -32t-10.5 -41q0 -41 21.5 -68.5t61.5 -49.5l22 -12v229z
M381.5 95.5q28.5 29.5 28.5 78.5q0 44 -25.5 75t-71.5 54l-6 3v-251q46 11 74.5 40.5z" />
    <glyph glyph-name="Euro" unicode="&#x20ac;" 
d="M177 58q-67 67 -87 182h-85q-10 0 -12.5 3t-2.5 13v21q0 10 4 13.5t13 3.5h76q-2 32 -2 48h-66q-10 0 -12.5 3t-2.5 13v21q0 10 4 13.5t13 3.5h67q8 85 41.5 153t95 108.5t148.5 40.5q102 0 177 -47q10 -6 10 -13q0 -1 -2 -9l-9 -24q-3 -8 -10 -8q-4 0 -9 3
q-69 43 -151 43q-101 0 -153.5 -70t-61.5 -177h277q15 0 15 -11l-1 -5l-5 -24q-2 -10 -4.5 -12t-11.5 -2h-272q0 -16 2 -48h258q15 0 15 -11l-1 -5l-5 -24q-2 -10 -4.5 -12t-11.5 -2h-244q38 -194 207 -194q39 0 83.5 10.5t78.5 28.5q6 3 10 3q6 0 9 -8l8 -21q2 -4 2 -10
q0 -7 -11 -13q-88 -45 -190 -45q-120 0 -187 67z" />
    <glyph glyph-name="florin" unicode="&#x192;" 
d="M-18 -172q-8 3 -8 10q0 4 1 6l8 25q2 6 8 6l8 -2q29 -13 61 -13q66 0 97 56q15 27 28 97l61 315h-61q-8 0 -8 5l1 5l5 27q1 6 3.5 8t9.5 2h60l19 106q8 43 19 79q20 67 67 104.5t113 37.5q39 0 76 -15q8 -3 8 -10q0 -4 -1 -6l-10 -26q-2 -5 -6 -5q-5 0 -9 2
q-27 12 -62 12q-66 0 -96 -55q-15 -27 -28 -97l-24 -127h130q11 0 11 -6l-1 -4l-6 -26q-1 -7 -4 -9t-9 -2h-130l-57 -294q-8 -45 -19 -80q-20 -67 -66.5 -104t-112.5 -37q-39 0 -76 15z" />
    <glyph glyph-name="sterling" unicode="&#xa3;" 
d="M76.5 3q-3.5 3 -3.5 12v18q0 8 3 12.5t14 10.5q71 38 71 147v37h-53q-10 0 -12.5 3t-2.5 13v21q0 10 4 13.5t13 3.5h51v48h-53q-10 0 -12.5 3t-2.5 13v21q0 10 4 13.5t13 3.5h51v88q0 100 46 157t139 57q66 0 116 -21q12 -5 12 -15q0 -4 -1 -6l-5 -22q-3 -11 -12 -11
q-5 0 -7 1q-52 20 -102 20q-116 0 -116 -155v-93h166q8 0 11 -3.5t3 -12.5v-24q0 -9 -3 -11.5t-13 -2.5h-165v-48h167q8 0 11 -3.5t3 -12.5v-24q0 -9 -3 -11.5t-13 -2.5h-165v-59q0 -40 -14.5 -72t-41.5 -52v-3h298q10 0 14 -2.5t4 -10.5v-27q0 -8 -3.5 -11t-13.5 -3h-382
q-11 0 -14.5 3z" />
    <glyph glyph-name="yen" unicode="&#xa5;" 
d="M245 3.5q-3 3.5 -3 12.5v146h-106q-10 0 -12.5 3t-2.5 14v21q0 10 4 13.5t13 3.5h104v47h-106q-10 0 -12.5 3t-2.5 14v21q0 10 4 13.5t13 3.5h85l-182 349q-3 6 -3 10q0 8 14 8h38q13 0 19 -3.5t11 -12.5l163 -324h1l155 321q6 13 10.5 16t17.5 3h28q7 0 10.5 -1.5
t3.5 -5.5q0 -3 -5 -15l-175 -345h96q8 0 11 -3.5t3 -12.5v-24q0 -10 -3 -12.5t-13 -2.5h-112v-47h114q8 0 11 -3.5t3 -12.5v-24q0 -10 -3 -12.5t-13 -2.5h-112v-147q0 -9 -2.5 -12t-9.5 -3h-44q-7 0 -10 3.5z" />
    <glyph glyph-name="dotmath" unicode="&#x22c5;" horiz-adv-x="205" 
d="M71.5 252.5q-16.5 13.5 -16.5 35.5q0 23 15.5 36.5t37.5 13.5q21 0 36.5 -14t15.5 -36t-16 -35.5t-36 -13.5t-36.5 13.5z" />
    <glyph glyph-name="plus" unicode="+" horiz-adv-x="500" 
d="M226 49.5q-3 3.5 -3 13.5v170h-158q-12 0 -16 3t-4 12v26q0 9 3.5 12t13.5 3h161v168q0 13 3 16.5t14 3.5h20q11 0 15 -3.5t4 -13.5v-171h157q13 0 16.5 -3t3.5 -14v-20q0 -11 -3.5 -15t-13.5 -4h-160v-167q0 -12 -3 -16t-12 -4h-26q-9 0 -12 3.5z" />
    <glyph glyph-name="minus" unicode="&#x2212;" horiz-adv-x="500" 
d="M118 236q-4 3 -4 12v26q0 9 3.5 12t13.5 3h244q13 0 16.5 -3t3.5 -14v-20q0 -11 -3.5 -15t-13.5 -4h-244q-12 0 -16 3z" />
    <glyph glyph-name="multiply" unicode="&#xd7;" horiz-adv-x="500" 
d="M114 107l-18 18q-6 6 -6 10q0 6 7 13l114 113l-112 112q-9 9 -9 15q0 4 7 11l14 15q7 8 14 8q5 0 12 -7l114 -114l111 111q10 10 14 10t12 -8l14 -14q7 -7 7 -14q0 -6 -5 -11l-114 -114l111 -111q10 -10 10 -14q0 -2 -6 -10l-18 -19q-6 -6 -11 -6q-4 0 -12 8l-113 113
l-112 -112q-9 -9 -15 -9q-4 0 -10 6z" />
    <glyph glyph-name="divide" unicode="&#xf7;" horiz-adv-x="500" 
d="M211.5 402q-16.5 14 -16.5 36q0 23 15.5 36.5t37.5 13.5q21 0 36 -14t15 -36t-15.5 -36t-35.5 -14t-36.5 14zM49 236q-4 3 -4 12v26q0 9 3.5 12t13.5 3h369q13 0 16.5 -3t3.5 -14v-20q0 -11 -3.5 -15t-13.5 -4h-369q-12 0 -16 3zM211.5 53.5q-16.5 13.5 -16.5 35.5
q0 23 15.5 36.5t37.5 13.5q21 0 36 -14t15 -36t-15.5 -35.5t-35.5 -13.5t-36.5 13.5z" />
    <glyph glyph-name="equal" unicode="=" horiz-adv-x="500" 
d="M98 343q-4 3 -4 12v26q0 9 3.5 12t13.5 3h274q13 0 16.5 -3t3.5 -14v-20q0 -11 -3.5 -15t-13.5 -4h-274q-12 0 -16 3zM98 163q-4 3 -4 12v26q0 9 3.5 12t13.5 3h274q13 0 16.5 -3t3.5 -14v-20q0 -11 -3.5 -15t-13.5 -4h-274q-12 0 -16 3z" />
    <glyph glyph-name="notequal" unicode="&#x2260;" horiz-adv-x="496" 
d="M112 63q-7 4 -7 9t4 10l38 69h-85q-12 0 -12 13v30q0 12 12 12h117l76 136h-193q-12 0 -12 13v29q0 13 12 13h225l50 88q5 9 11 9q5 0 9 -3l12 -7q8 -6 8 -11q0 -3 -3 -8l-38 -68h97q14 0 14 -13v-29q0 -13 -14 -13h-129l-76 -136h205q14 0 14 -12v-30q0 -13 -14 -13
h-237l-52 -90q-4 -8 -10 -8q-5 0 -9 3z" />
    <glyph glyph-name="greater" unicode="&#x3e;" horiz-adv-x="500" 
d="M105 141l-20 31q-2 2 -2 7q0 9 10 15l217 143l-217 142q-10 6 -10 15q0 5 2 7l20 31q5 9 12 9q5 0 14 -6l256 -173q6 -5 8.5 -8.5t2.5 -9.5v-15q0 -6 -2.5 -9.5t-8.5 -8.5l-256 -173q-9 -6 -14 -6q-7 0 -12 9z" />
    <glyph glyph-name="less" unicode="&#x3c;" horiz-adv-x="500" 
d="M350 138l-256 173q-6 5 -8.5 8.5t-2.5 9.5v15q0 6 2.5 9.5t8.5 8.5l256 173q9 6 14 6q7 0 12 -9l20 -31q2 -2 2 -7q0 -9 -10 -15l-217 -143l217 -142q10 -6 10 -15q0 -5 -2 -7l-20 -31q-5 -9 -12 -9q-5 0 -14 6z" />
    <glyph glyph-name="greaterequal" unicode="&#x2265;" horiz-adv-x="496" 
d="M120 149l-20 31q-3 5 -3 7q0 6 7 11l220 154l-219 155q-7 4 -7 10q0 5 3 9l18 29q4 6 8 6q2 0 10 -4l259 -183q9 -5 9 -15v-15q0 -10 -8 -15l-257 -184q-7 -5 -10 -5q-5 0 -10 9zM91 13v29q0 7 3 10t10 3h298q12 0 12 -13v-29q0 -13 -12 -13h-298q-13 0 -13 13z" />
    <glyph glyph-name="lessequal" unicode="&#x2264;" horiz-adv-x="496" 
d="M356 145l-257 184q-8 6 -8 15v15q0 8 9 15l260 183q6 4 9 4q5 0 8 -6l18 -29q3 -4 3 -9t-6 -10l-219 -155l219 -154q8 -5 8 -11q0 -2 -1 -3.5t-2 -3.5l-20 -31q-6 -9 -11 -9q-3 0 -10 5zM83 13v29q0 13 12 13h298q13 0 13 -13v-29q0 -13 -13 -13h-298q-12 0 -12 13z" />
    <glyph glyph-name="plusminus" unicode="&#xb1;" horiz-adv-x="500" 
d="M226 159.5q-3 3.5 -3 13.5v147h-158q-12 0 -16 3t-4 12v26q0 9 3.5 12t13.5 3h161v145q0 13 3 16.5t14 3.5h20q11 0 15 -3.5t4 -13.5v-148h157q13 0 16.5 -3t3.5 -14v-20q0 -11 -3.5 -15t-13.5 -4h-160v-144q0 -12 -3 -16t-12 -4h-26q-9 0 -12 3.5zM79 22q-4 3 -4 12v26
q0 9 3.5 12t13.5 3h314q13 0 16.5 -3t3.5 -14v-20q0 -11 -3.5 -15t-13.5 -4h-314q-12 0 -16 3z" />
    <glyph glyph-name="approxequal" unicode="&#x2248;" horiz-adv-x="496" 
d="M258 341l-33 29q-21 18 -36 25.5t-34 7.5q-26 0 -46 -18.5t-32 -54.5q-5 -12 -15 -5l-23 15q-5 5 -5 11q0 3 2 9q17 50 49.5 76.5t71.5 26.5q46 0 85 -35l32 -28q26 -22 39 -30.5t29 -8.5q21 0 34.5 18t22.5 58q2 9 9 9q3 0 8 -3l21 -13q6 -4 6 -12q0 -5 -1 -8
q-11 -54 -36.5 -82.5t-59.5 -28.5q-39 0 -88 42zM255 131l-32 28q-5 4 -19.5 16t-26 17.5t-22.5 5.5q-21 0 -34.5 -18t-22.5 -57q-2 -6 -6.5 -8t-10.5 2l-21 13q-8 6 -5 19q9 54 35 82.5t61 28.5q21 0 42 -10.5t46 -31.5l33 -28q21 -18 36 -25.5t34 -7.5q26 0 46 18.5
t32 54.5q6 12 16 5l22 -15q5 -4 5 -10q0 -2 -2 -10q-17 -51 -49.5 -77.5t-71.5 -26.5q-46 0 -85 35z" />
    <glyph glyph-name="asciitilde" unicode="~" horiz-adv-x="535" 
d="M271 253q-23 13 -40.5 19.5t-36.5 6.5q-14 0 -33 -8.5t-51 -24.5q-12 -7 -14 -7q-4 0 -8 7l-19 27q-4 5 -4 10q0 6 13 14q34 23 58.5 34.5t50.5 11.5q35 0 80 -21q6 -3 22 -10.5t30.5 -12t25.5 -4.5q12 0 28 7.5t31 16.5t21 12q11 6 14 6t11 -8l16 -17q4 -4 4 -9
q0 -8 -7 -12q-7 -5 -30 -23t-44.5 -27t-45.5 -9q-33 0 -72 21z" />
    <glyph glyph-name="logicalnot" unicode="&#xac;" horiz-adv-x="510" 
d="M402 212.5q-4 3.5 -4 13.5v130h-323q-12 0 -16 3t-4 12v26q0 9 3.5 12t13.5 3h362q13 0 16.5 -3t3.5 -14v-166q0 -13 -3 -16.5t-14 -3.5h-20q-11 0 -15 3.5z" />
    <glyph glyph-name="infinity" unicode="&#x221e;" horiz-adv-x="831" 
d="M88.5 214q-46.5 40 -46.5 110t45.5 111.5t120.5 41.5q56 0 106.5 -29.5t101.5 -83.5q47 52 94.5 81.5t106.5 29.5q75 0 121 -38.5t46 -110.5t-48 -110.5t-119 -38.5q-52 0 -98 25.5t-104 83.5q-103 -112 -210 -112q-70 0 -116.5 40zM213 231q46 0 89 26.5t78 68.5
q-46 47 -85 71.5t-88 24.5q-48 0 -75.5 -26t-27.5 -71q0 -44 30.5 -69t77.5 -25h1zM613 232q48 0 78.5 26.5t30.5 66.5q0 48 -31.5 71.5t-79.5 23.5q-46 0 -84.5 -25t-76.5 -69q56 -54 89 -74t73 -20h1z" />
    <glyph glyph-name="integral" unicode="&#x222b;" horiz-adv-x="347" 
d="M20 -123q-6 1 -8 4t-2 10l4 28q1 10 14 8q26 -4 40 -4q102 0 102 133q0 14 -2 42q-6 60 -24 169q-3 23 -14 94.5t-15 124.5q-1 14 -1 40q0 91 38 142.5t129 51.5q23 0 46 -4q12 -3 10 -15l-4 -28q-2 -11 -14 -8q-19 4 -40 4q-57 0 -79 -37.5t-22 -99.5q0 -26 1 -38
q7 -81 30 -229q19 -120 23 -159q3 -25 3 -49q0 -85 -40 -135t-129 -50q-18 0 -46 5z" />
    <glyph glyph-name="uni2126" unicode="&#x2126;" horiz-adv-x="676" 
d="M48 13v29q0 12 13 12h113q-56 39 -86 112.5t-30 176.5q0 108 36.5 187t101.5 120.5t147 41.5q86 0 148.5 -42t95.5 -119.5t33 -182.5q0 -104 -34 -178.5t-93 -115.5h122q11 0 11 -12v-29q0 -13 -11 -13h-229q-11 0 -11 13v29q0 5 2 8t9 4q77 15 120.5 93.5t43.5 197.5
q0 139 -56 214t-154 75q-61 0 -109.5 -35t-76.5 -100t-28 -152q0 -123 41 -200t121 -93q7 -2 9.5 -4.5t2.5 -7.5v-29q0 -13 -12 -13h-227q-13 0 -13 13z" />
    <glyph glyph-name="uni2206" unicode="&#x2206;" horiz-adv-x="568" 
d="M45 10l-13 21q-4 5 -4 11q0 5 3 11l222 646q2 6 4.5 7.5t7.5 1.5h31q7 0 10 -2t5 -7l227 -647q2 -8 2 -10q0 -4 -4 -12l-13 -22q-6 -8 -18 -8h-441q-13 0 -19 10zM464 55l-188 568l-188 -568h376z" />
    <glyph glyph-name="product" unicode="&#x220f;" horiz-adv-x="624" 
d="M116 -160.5q-2 2.5 -2 9.5v783h-72q-12 0 -12 13v33q0 11 12 11h540q14 0 12 -9l-3 -37q-1 -6 -5 -8.5t-14 -2.5h-70v-782q0 -8 -2.5 -10.5t-8.5 -2.5h-46q-8 0 -10.5 2t-2.5 11v782h-248v-782q0 -8 -2.5 -10.5t-9.5 -2.5h-47q-7 0 -9 2.5z" />
    <glyph glyph-name="summation" unicode="&#x2211;" horiz-adv-x="604" 
d="M32 -160.5q-2 2.5 -2 8.5v26q0 12 8 20l327 376l-329 362q-6 6 -6 18v28q0 11 12 11h517q12 0 12 -9v-37q-1 -11 -19 -11h-427l292 -320q7 -7 8.5 -11t1.5 -11v-17q0 -8 -2 -13t-8 -12l-308 -355h452q7 0 10 -2.5t3 -8.5v-34q0 -6 -4 -8.5t-12 -2.5h-517q-7 0 -9 2.5z
" />
    <glyph glyph-name="radical" unicode="&#x221a;" horiz-adv-x="547" 
d="M235.5 2q-3.5 2 -4.5 7l-147 419h-61q-13 0 -13 13v30q0 12 13 12h100q7 0 10.5 -2.5t5.5 -8.5l125 -387l203 611q2 7 6 9.5t12 2.5h32q13 0 9 -14l-237 -685q-2 -6 -4.5 -7.5t-8.5 -1.5h-30q-7 0 -10.5 2z" />
    <glyph glyph-name="uni00B5" unicode="&#xb5;" horiz-adv-x="513" 
d="M67 -149v613q0 18 16 18h32q16 0 16 -18v-287q0 -77 29 -110q27 -30 82 -30q36 0 73 17.5t67 45.5v364q0 18 16 18h32q16 0 16 -18v-446q0 -18 -16 -18h-31q-16 0 -16 18l-1 31q-31 -31 -69.5 -47t-77.5 -16q-37 0 -64 9t-40 25v-169q0 -17 -16 -17h-32q-16 0 -16 17z
" />
    <glyph glyph-name="partialdiff" unicode="&#x2202;" horiz-adv-x="535" 
d="M113 48.5q-53 58.5 -53 157.5q0 66 26.5 116t70.5 76.5t97 26.5q40 0 75.5 -14.5t69.5 -52.5q-4 128 -46 209.5t-131 81.5q-27 0 -49 -5t-47 -19q-4 -2 -6 -2q-6 0 -10 8l-12 31q-1 2 -1 6q0 6 10 12q29 15 56.5 21.5t61.5 6.5q138 0 190 -117.5t52 -277.5
q0 -154 -51 -238.5t-158 -84.5q-92 0 -145 58.5zM372 118q30 72 30 178q-34 39 -66.5 56t-73.5 17q-43 0 -74 -23.5t-47 -61t-16 -79.5q0 -65 34 -112t99 -47q84 0 114 72z" />
    <glyph glyph-name="percent" unicode="%" horiz-adv-x="1000" 
d="M268 -4l-19 13q-6 5 -6 11q0 7 4 12l460 660q4 7 11 7q6 0 15 -6l17 -10q8 -5 8 -13q0 -6 -4 -11l-461 -662q-4 -7 -11 -7q-5 0 -14 6zM213 437q-31 43 -31 107t32 109t93 45q62 0 90.5 -44t28.5 -109q0 -64 -30 -107.5t-91 -43.5t-92 43zM360.5 465q15.5 38 15.5 83
q0 42 -17 78.5t-54 36.5q-40 0 -56 -38t-16 -84q0 -44 17 -79t56 -35t54.5 38zM612 34q-31 43 -31 107t32 109t93 45q62 0 90.5 -44t28.5 -109q0 -64 -30 -107.5t-91 -43.5t-92 43zM759.5 62q15.5 38 15.5 83q0 42 -17 78.5t-54 36.5q-40 0 -56 -38t-16 -84q0 -44 17 -79
t56 -35t54.5 38z" />
    <glyph glyph-name="perthousand" unicode="&#x2030;" horiz-adv-x="1000" 
d="M120 -4l-19 13q-6 5 -6 11q0 7 4 12l460 660q4 7 11 7q6 0 15 -6l17 -10q8 -5 8 -13q0 -6 -4 -11l-461 -662q-4 -7 -11 -7q-5 0 -14 6zM105 437q-31 43 -31 107t32 109t93 45q62 0 90.5 -44t28.5 -109q0 -64 -30 -107.5t-91 -43.5t-92 43zM252.5 465q15.5 38 15.5 83
q0 42 -17 78.5t-54 36.5q-40 0 -56 -38t-16 -84q0 -44 17 -79t56 -35t54.5 38zM419 34q-31 43 -31 107t32 109t93 45q62 0 90.5 -44t28.5 -109q0 -64 -30 -107.5t-91 -43.5t-92 43zM727 34q-31 43 -31 107t32 109t93 45q62 0 90.5 -44t28.5 -109q0 -64 -30 -107.5t-91 -43.5
t-92 43zM566.5 62q15.5 38 15.5 83q0 42 -17 78.5t-54 36.5q-40 0 -56 -38t-16 -84q0 -44 17 -79t56 -35t54.5 38zM874.5 62q15.5 38 15.5 83q0 42 -17 78.5t-54 36.5q-40 0 -56 -38t-16 -84q0 -44 17 -79t56 -35t54.5 38z" />
    <glyph glyph-name="lozenge" unicode="&#x25ca;" horiz-adv-x="478" 
d="M210 -8l-165 315q-7 19 -7 25v10q0 7 7 26l169 319q5 9 16 9h22q12 0 16 -9l165 -315q7 -16 7 -26v-9q0 -9 -7 -25l-169 -320q-5 -9 -16 -9h-21q-11 0 -17 9zM379 341l-139 273l-140 -276l140 -274z" />
    <glyph glyph-name="uniF8FF" unicode="&#xf8ff;" horiz-adv-x="591" 
d="M100 659h391v-65h-326v-529h73v-65h-138v659zM230 267h196v66h-196v195h261v-65h-196v-65h196v-196h-261v65z" />
    <glyph glyph-name="at" unicode="@" horiz-adv-x="810" 
d="M225.5 32q-80.5 41 -125.5 115t-45 170q0 105 51.5 192t140 138t193.5 51q92 0 164 -39t112.5 -109.5t40.5 -163.5q0 -55 -21.5 -111.5t-62 -93.5t-95.5 -37q-43 0 -73.5 23t-30.5 71q-20 -36 -49 -53.5t-61 -17.5q-52 0 -79 39t-27 96q0 49 20.5 98.5t58.5 82t87 32.5
q33 0 59 -17t34 -54l12 47q1 6 4.5 8t9.5 2h20q13 0 13 -8l-1 -5l-45 -198q-7 -28 -7 -63q0 -25 14.5 -38t42.5 -13q46 0 75.5 37t42 86.5t12.5 90.5q0 77 -35 136t-97.5 91.5t-140.5 32.5q-32 0 -68.5 -8t-64.5 -22q-84 -42 -128.5 -122t-44.5 -177q0 -85 36 -150t101 -101
t150 -36q39 0 83 11.5t80 30.5q3 2 7 2q6 0 9 -7l7 -17l2 -6q0 -4 -8 -9q-90 -48 -189 -48q-103 0 -183.5 41zM437 234q24 23 40 60l21 99q0 31 -15 57.5t-48 26.5q-40 0 -65 -29.5t-36.5 -71t-11.5 -76.5q0 -38 13.5 -63.5t46.5 -25.5q31 0 55 23z" />
    <glyph glyph-name="ampersand" unicode="&#x26;" horiz-adv-x="669" 
d="M138.5 15q-45.5 24 -71.5 67t-26 97q0 47 23.5 85t57.5 66.5t88 65.5l-33 40q-28 34 -42.5 63.5t-14.5 64.5t18.5 66t52 49.5t75.5 18.5q65 0 106 -37t41 -96q0 -48 -32 -87.5t-90 -82.5l188 -225q35 49 56 110.5t26 124.5q1 8 3 11t8 3h35q6 0 8 -2.5t1 -10.5
q-5 -75 -31 -146.5t-71 -129.5q52 -51 131 -80q9 -3 11 -6.5t-1 -11.5l-10 -26q-4 -11 -12 -11l-12 2q-35 8 -75.5 30.5t-74.5 55.5q-101 -92 -232 -92q-55 0 -100.5 24zM328.5 495q23.5 31 23.5 68t-23 61.5t-61 24.5q-35 0 -59 -24t-24 -60q0 -21 14 -48.5t35 -52.5
l27 -33q44 33 67.5 64zM437 122l-196 236q-63 -47 -96 -85t-33 -85q0 -40 20 -72t52.5 -50t70.5 -18q105 0 182 74z" />
    <glyph glyph-name="paragraph" unicode="&#xb6;" horiz-adv-x="510" 
d="M212 -123v499q-45 0 -82 21t-58 56.5t-21 78.5q0 42 20.5 77.5t55.5 56.5t78 21h202q9 0 12.5 -3t3.5 -13v-794q0 -18 -16 -18h-29q-16 0 -16 18v762h-90v-762q0 -18 -16 -18h-28q-16 0 -16 18z" />
    <glyph glyph-name="section" unicode="&#xa7;" horiz-adv-x="464" 
d="M149.5 -2q-36.5 7 -60.5 18q-9 3 -9 9q0 3 1 5l10 30q2 6 7 6q3 0 5 -1q24 -10 58 -17.5t58 -7.5q49 0 80.5 24t31.5 64q0 31 -21.5 52t-62.5 39l-61 26q-49 21 -76 50t-27 72q0 35 17.5 62t47.5 43q-59 39 -59 99q0 59 47 93t116 34q57 0 117 -22q8 -3 8 -8l-1 -3
l-9 -27q-3 -8 -8 -8q-1 0 -7 2q-55 19 -99 19q-43 0 -70.5 -20.5t-27.5 -51.5q0 -28 17.5 -46.5t53.5 -34.5l70 -31q103 -46 103 -127q0 -34 -14 -62.5t-40 -47.5q48 -40 48 -94q0 -63 -48 -104t-128 -41q-31 0 -67.5 7zM326 290.5q11 18.5 11 41.5q0 31 -21.5 52t-62.5 39
l-45 19q-27 -8 -42.5 -26t-15.5 -41q0 -28 17 -45.5t53 -34.5l70 -32l5 -2q20 11 31 29.5z" />
    <glyph glyph-name="copyright" unicode="&#xa9;" horiz-adv-x="831" 
d="M235 36q-83 48 -131 130.5t-48 179.5t48 179t130.5 129.5t181.5 47.5t181.5 -47.5t130 -129t47.5 -179.5t-48 -180t-130 -130t-181 -48q-98 0 -181 48zM571.5 79q70.5 41 111.5 111.5t41 154.5t-41 154.5t-111.5 111.5t-155.5 41t-155.5 -41t-112 -111.5t-41.5 -154.5
t41.5 -154.5t112 -111.5t155.5 -41t155.5 41zM294 190q-47 62 -47 154q0 57 22 107t64.5 80.5t100.5 30.5q62 0 110 -29q7 -4 7 -11l-2 -8l-7 -14q-2 -6 -10 -6q-5 0 -7 2q-41 25 -87 25q-29 0 -54.5 -12.5t-43.5 -34.5q-20 -25 -30 -58t-10 -68q0 -74 34.5 -126.5
t102.5 -52.5q22 0 48 6.5t46 16.5q5 3 8 3q6 0 9 -8l5 -13q2 -6 2 -7q0 -5 -4.5 -7.5t-5.5 -3.5q-54 -28 -114 -28q-90 0 -137 62z" />
    <glyph glyph-name="registered" unicode="&#xae;" horiz-adv-x="831" 
d="M235 36q-83 48 -131 130.5t-48 179.5t48 179t130.5 129.5t181.5 47.5t181.5 -47.5t130 -129t47.5 -179.5t-48 -180t-130 -130t-181 -48q-98 0 -181 48zM571.5 79q70.5 41 111.5 111.5t41 154.5t-41 154.5t-111.5 111.5t-155.5 41t-155.5 -41t-112 -111.5t-41.5 -154.5
t41.5 -154.5t112 -111.5t155.5 -41t155.5 41zM306 150v387q0 15 13 15h83q145 0 145 -120q0 -42 -24.5 -71.5t-61.5 -41.5l107 -167q3 -6 3 -9q0 -8 -11 -8h-30q-12 0 -19 12l-103 163h-53v-160q0 -15 -13 -15h-23q-13 0 -13 15zM402 351q41 0 67 21t26 60q0 42 -25 60.5
t-76 18.5h-39v-160h47z" />
    <glyph glyph-name="uni2117" unicode="&#x2117;" horiz-adv-x="831" 
d="M235 36q-83 48 -131 130.5t-48 179.5t48 179t130.5 129.5t181.5 47.5t181.5 -47.5t130 -129t47.5 -179.5t-48 -180t-130 -130t-181 -48q-98 0 -181 48zM571.5 79q70.5 41 111.5 111.5t41 154.5t-41 154.5t-111.5 111.5t-155.5 41t-155.5 -41t-112 -111.5t-41.5 -154.5
t41.5 -154.5t112 -111.5t155.5 -41t155.5 41zM326 150v387q0 15 13 15h83q145 0 145 -120q0 -59 -39.5 -90.5t-99.5 -31.5h-53v-160q0 -15 -13 -15h-23q-13 0 -13 15zM422 351q43 0 68 21t25 60q0 42 -25 60.5t-76 18.5h-39v-160h47z" />
    <glyph glyph-name="trademark" unicode="&#x2122;" horiz-adv-x="568" 
d="M117 421v235h-73q-7 0 -7 6v18q0 7 6 7h189q7 0 7 -6v-1l-2 -17q-1 -5 -3 -6t-7 -1h-72v-235q0 -9 -8 -9h-21q-9 0 -9 9zM244 420l4 259q0 8 7 8h23q8 0 10 -5l95 -221l89 220q1 3 3 4.5t5 1.5h24q7 0 7 -7l6 -259v-1q0 -5 -1.5 -6.5t-5.5 -1.5h-23q-8 0 -8 9l-4 196
l-78 -200q-1 -5 -7 -5h-16q-4 0 -7 6l-85 199l-2 -198q0 -7 -8 -7h-21q-7 0 -7 8z" />
    <glyph glyph-name="degree" unicode="&#xb0;" horiz-adv-x="286" 
d="M77.5 539.5q-27.5 27.5 -27.5 65.5t27.5 65.5t65.5 27.5t65.5 -27.5t27.5 -65.5t-27.5 -65.5t-65.5 -27.5t-65.5 27.5zM174 574q13 13 13 31t-13 31t-31 13t-31.5 -13t-13.5 -31t13.5 -31t31.5 -13t31 13z" />
    <glyph glyph-name="bar" unicode="|" horiz-adv-x="189" 
d="M64 -1v691q0 10 2.5 14t10.5 4h32q9 0 12.5 -3t3.5 -13v-693q0 -18 -16 -18h-29q-16 0 -16 18z" />
    <glyph glyph-name="brokenbar" unicode="&#xa6;" horiz-adv-x="189" 
d="M64 461v229q0 10 2.5 14t10.5 4h32q9 0 12.5 -3t3.5 -13v-231q0 -18 -16 -18h-29q-16 0 -16 18zM64 -1v229q0 10 2.5 14t10.5 4h32q9 0 12.5 -3t3.5 -13v-231q0 -18 -16 -18h-29q-16 0 -16 18z" />
    <glyph glyph-name="uni2113" unicode="&#x2113;" horiz-adv-x="438" 
d="M132 41q-33 50 -33 143l-48 -31q-8 -4 -10 -4q-6 0 -10 8l-13 23q-2 3 -2 8q0 8 7 12l76 49v222q0 120 35.5 173.5t108.5 53.5q62 0 96.5 -39.5t34.5 -108.5q0 -93 -52.5 -172t-155.5 -161v-16q0 -84 22 -118t69 -34q38 0 61.5 18.5t51.5 59.5q4 7 11 7q5 0 10 -4l23 -16
q6 -4 6 -10q0 -3 -3 -8q-30 -51 -74 -78t-100 -27q-78 0 -111 50zM268.5 412q33.5 58 33.5 129q0 51 -17 75t-45 24q-32 0 -53 -34t-21 -100v-215q69 63 102.5 121z" />
    <glyph glyph-name="dagger" unicode="&#x2020;" horiz-adv-x="513" 
d="M229 18l-4 369l-146 -2h-1q-9 0 -13 2.5t-4 10.5v28q0 9 3 12.5t12 3.5h1l148 -2l-2 230q0 9 2.5 13t10.5 4h37q9 0 12.5 -3.5t3.5 -12.5l-2 -231l150 2h1q9 0 11.5 -3.5t2.5 -12.5v-28q0 -8 -3.5 -10.5t-12.5 -2.5h-1l-148 2l-4 -369q0 -18 -16 -18h-22q-16 0 -16 18z
" />
    <glyph glyph-name="daggerdbl" unicode="&#x2021;" horiz-adv-x="513" 
d="M229 18l-2 235l-129 -2q-9 0 -13 2.5t-4 10.5v28q0 9 3 12.5t12 3.5l130 -2l-1 135l-146 -2h-2q-9 0 -12.5 2.5t-3.5 9.5v28q0 9 3 12.5t12 3.5l149 -2l-2 177q0 9 2.5 13t10.5 4h37q9 0 12.5 -3t3.5 -12l-2 -179l150 2h1q9 0 11.5 -3.5t2.5 -12.5v-28q0 -7 -3 -9.5
t-12 -2.5h-2l-148 2l-2 -135l133 2q9 0 12 -3.5t3 -12.5v-28q0 -8 -4 -10.5t-13 -2.5l-131 2l-2 -235q0 -18 -16 -18h-22q-16 0 -16 18z" />
    <glyph glyph-name="estimated" unicode="&#x212e;" horiz-adv-x="867" 
d="M237.5 38.5q-90.5 47.5 -144 128.5t-53.5 177q0 97 53.5 178t144 128.5t196.5 47.5t196.5 -47.5t143.5 -128.5t53 -178v-8h-637q-5 0 -5 -5v-193q0 -10 9 -23q45 -48 108 -75.5t133 -27.5q75 0 141 31t111 85h58q-56 -63 -137 -100t-174 -37q-106 0 -196.5 47.5zM677 355
q5 0 5 5v195q0 13 -10 23q-45 46 -107 72.5t-130 26.5q-70 0 -132 -27t-108 -75q-10 -10 -10 -25v-190q0 -5 5 -5h487z" />
    <glyph glyph-name="uni2116" unicode="&#x2116;" horiz-adv-x="973" 
d="M87 3q-3 3 -3 11v661q0 14 14 14h35q6 0 9.5 -2.5t8.5 -8.5l371 -550h1v548q0 13 13 13h43q12 0 12 -14v-661q0 -8 -3.5 -11t-10.5 -3h-34q-11 0 -22 15l-370 551h-1v-551q0 -9 -3.5 -12t-10.5 -3h-38q-8 0 -11 3zM675.5 132.5q-32.5 43.5 -32.5 108.5q0 63 33 108t95 45
q63 0 96 -44.5t33 -108.5q0 -65 -32 -108.5t-95 -43.5q-65 0 -97.5 43.5zM833.5 159q17.5 34 17.5 83q0 46 -19.5 80t-61.5 34q-41 0 -59.5 -34t-18.5 -80q0 -48 18.5 -82.5t62.5 -34.5q43 0 60.5 34zM655.5 3q-3.5 3 -3.5 12v15q0 8 3.5 11t12.5 3h214q14 0 14 -14v-15
q0 -9 -3.5 -12t-12.5 -3h-212q-9 0 -12.5 3z" />
    <glyph glyph-name="asciicircum" unicode="^" horiz-adv-x="535" 
d="M409 390l-142 219l-144 -215q-7 -10 -13 -10q-5 0 -9 3l-25 18q-8 6 -8 11q0 4 5 12l171 243q11 16 20 16h11q7 0 11 -2.5t8 -9.5l169 -260q4 -8 4 -9q0 -4 -8 -9l-25 -13q-7 -4 -12 -4q-6 0 -13 10z" />
    <glyph glyph-name="uni0308" unicode="&#x308;" horiz-adv-x="0" 
d="M-273 591q-15 12 -15 32q0 21 14.5 33t33.5 12t32.5 -12.5t13.5 -32.5t-14 -32t-32 -12t-33 12zM-101 591q-15 12 -15 32q0 21 14.5 33t33.5 12t32.5 -12.5t13.5 -32.5t-14 -32t-32 -12t-33 12z" />
    <glyph glyph-name="uni0307" unicode="&#x307;" horiz-adv-x="0" 
d="M-202 593.5q-20 16.5 -20 43.5q0 28 19.5 44.5t45.5 16.5q25 0 44 -16.5t19 -43.5t-19.5 -44t-43.5 -17q-25 0 -45 16.5z" />
    <glyph glyph-name="gravecomb" unicode="&#x300;" horiz-adv-x="0" 
d="M-88 559l-158 74q-9 5 -9 12q0 5 3 11l17 27q6 9 13 9t12 -4l147 -90q7 -4 7 -11q0 -3 -3 -9l-9 -14q-4 -7 -12 -7q-2 0 -8 2z" />
    <glyph glyph-name="acutecomb" unicode="&#x301;" horiz-adv-x="0" 
d="M-242 560l-9 14q-3 6 -3 9q0 7 7 11l147 90q5 4 12 4t13 -9l17 -27q3 -6 3 -11q0 -7 -9 -12l-158 -74q-6 -2 -8 -2q-8 0 -12 7z" />
    <glyph glyph-name="uni030B" unicode="&#x30b;" horiz-adv-x="0" 
d="M-335 569l-9 14q-1 2 -2.5 4.5t-1.5 4.5q0 6 8 11l147 90q5 4 11 4q7 0 13 -9l17 -27q4 -8 4 -11q0 -7 -9 -12l-158 -74q-6 -2 -9 -2q-7 0 -11 7zM-110 569l-9 14q-3 6 -3 9q0 7 7 11l147 90q5 4 11 4q8 0 14 -9l17 -27q3 -6 3 -11q0 -7 -9 -12l-158 -74q-6 -2 -8 -2
q-8 0 -12 7z" />
    <glyph glyph-name="uni0302" unicode="&#x302;" horiz-adv-x="0" 
d="M-285 564l-8 10q-5 7 -5 11t6 10l118 107q8 6 14 6h12q6 0 14 -6l118 -107q6 -4 6 -12q0 -5 -4 -9l-9 -10q-6 -6 -10 -6q-5 0 -10 4l-111 83l-111 -83q-5 -4 -10 -4q-6 0 -10 6z" />
    <glyph glyph-name="uni030C" unicode="&#x30c;" horiz-adv-x="0" 
d="M-174 554l-118 107q-6 5 -6 11t4 10l9 10q6 6 11 6q3 0 9 -4l111 -83l111 83q5 4 10 4q6 0 10 -6l8 -10q5 -7 5 -11q0 -5 -6 -10l-118 -107q-6 -6 -14 -6h-12q-8 0 -14 6z" />
    <glyph glyph-name="uni0306" unicode="&#x306;" horiz-adv-x="0" 
d="M-229 576q-22 13 -37.5 35t-15.5 45q0 8 3.5 10t11.5 2h21q10 0 13.5 -2.5t8.5 -11.5q23 -46 69 -46q49 0 71 46q5 9 8.5 11.5t13.5 2.5h19q8 0 11.5 -2t3.5 -10q0 -24 -16 -46.5t-39 -35.5q-31 -17 -70 -17q-43 0 -76 19z" />
    <glyph glyph-name="uni030A" unicode="&#x30a;" horiz-adv-x="0" 
d="M-211.5 562.5q-24.5 23.5 -24.5 55.5t24.5 56t56.5 24q33 0 56.5 -24t23.5 -56t-23.5 -55.5t-56.5 -23.5q-32 0 -56.5 23.5zM-132.5 595.5q9.5 9.5 9.5 22.5q0 14 -9.5 23t-22.5 9q-14 0 -23.5 -9.5t-9.5 -22.5t9.5 -22.5t23.5 -9.5q13 0 22.5 9.5z" />
    <glyph glyph-name="tildecomb" unicode="&#x303;" horiz-adv-x="0" 
d="M-132 576.5q-12 4.5 -29 13.5q-30 17 -49 17q-16 0 -29.5 -6t-33.5 -18q-11 -6 -16 -6q-7 0 -11 10l-8 18q-4 10 -4 11q0 7 14 16q52 32 90 32q24 0 64 -20q32 -15 45 -15q14 0 28 6.5t34 20.5q9 5 15 5q9 0 14 -9l8 -11q5 -8 5 -12q0 -8 -8 -14q-56 -43 -104 -43
q-13 0 -25 4.5z" />
    <glyph glyph-name="uni0304" unicode="&#x304;" horiz-adv-x="0" 
d="M-278 584.5q-5 4.5 -5 16.5v17q0 11 5 15.5t21 4.5h200q18 0 23.5 -4t5.5 -16v-17q0 -12 -5.5 -16.5t-23.5 -4.5h-200q-16 0 -21 4.5z" />
    <glyph glyph-name="uni0326" unicode="&#x326;" horiz-adv-x="0" 
d="M-188 -193l-4 4q-3 3 -3 7q0 2 4 6q25 25 25 50q0 10 -12 24q-5 6 -8.5 12.5t-3.5 13.5q0 16 10.5 26t26.5 10q17 0 28 -14t11 -32q0 -30 -16.5 -61t-40.5 -47q-5 -4 -9 -4q-6 0 -8 5z" />
    <glyph glyph-name="uni0327" unicode="&#x327;" horiz-adv-x="0" 
d="M-183 -195.5q-13 2.5 -30 9.5q-14 6 -14 12q0 3 1 5l4 12q3 8 8 8l9 -2q12 -4 27.5 -7t25.5 -3q17 0 30.5 9t14.5 26v4q0 17 -13.5 26.5t-39.5 9.5h-16q-14 0 -19.5 6t-5.5 17q0 9 1 14l5 49h43l-3 -50h8q36 0 61.5 -16.5t25.5 -54.5q0 -33 -23 -55t-69 -22
q-18 0 -31 2.5z" />
    <glyph glyph-name="uni0328" unicode="&#x328;" horiz-adv-x="0" 
d="M-216.5 -177q-24.5 23 -24.5 55q0 73 96 122h54q-48 -36 -68.5 -61.5t-20.5 -49.5q0 -42 55 -42q10 0 26.5 2.5t27.5 6.5l3 1q9 0 10 -7l4 -14q1 -2 1 -6q0 -11 -12 -15q-16 -6 -39 -10.5t-42 -4.5q-46 0 -70.5 23z" />
    <glyph glyph-name="acute" unicode="&#xb4;" horiz-adv-x="310" 
d="M68 560l-9 14q-3 6 -3 9q0 7 7 11l147 90q5 4 12 4t13 -9l17 -27q3 -6 3 -11q0 -7 -9 -12l-158 -74q-6 -2 -8 -2q-8 0 -12 7z" />
    <glyph glyph-name="breve" unicode="&#x2d8;" horiz-adv-x="310" 
d="M81 576q-22 13 -37.5 35t-15.5 45q0 8 3.5 10t11.5 2h21q10 0 13.5 -2.5t8.5 -11.5q23 -46 69 -46q49 0 71 46q5 9 8.5 11.5t13.5 2.5h19q8 0 11.5 -2t3.5 -10q0 -24 -16 -46.5t-39 -35.5q-31 -17 -70 -17q-43 0 -76 19z" />
    <glyph glyph-name="caron" unicode="&#x2c7;" horiz-adv-x="310" 
d="M136 554l-118 107q-6 5 -6 11t4 10l9 10q6 6 11 6q3 0 9 -4l111 -83l111 83q5 4 10 4q6 0 10 -6l8 -10q5 -7 5 -11q0 -5 -6 -10l-118 -107q-6 -6 -14 -6h-12q-8 0 -14 6z" />
    <glyph glyph-name="cedilla" unicode="&#xb8;" horiz-adv-x="310" 
d="M127 -195.5q-13 2.5 -30 9.5q-14 6 -14 12q0 3 1 5l4 12q3 8 8 8l9 -2q12 -4 27.5 -7t25.5 -3q17 0 30.5 9t14.5 26v4q0 17 -13.5 26.5t-39.5 9.5h-16q-14 0 -19.5 6t-5.5 17q0 9 1 14l5 49h43l-3 -50h8q36 0 61.5 -16.5t25.5 -54.5q0 -33 -23 -55t-69 -22q-18 0 -31 2.5
z" />
    <glyph glyph-name="circumflex" unicode="&#x2c6;" horiz-adv-x="310" 
d="M25 564l-8 10q-5 7 -5 11t6 10l118 107q8 6 14 6h12q6 0 14 -6l118 -107q6 -4 6 -12q0 -5 -4 -9l-9 -10q-6 -6 -10 -6q-5 0 -10 4l-111 83l-111 -83q-5 -4 -10 -4t-10 6z" />
    <glyph glyph-name="dieresis" unicode="&#xa8;" horiz-adv-x="310" 
d="M37 591q-15 12 -15 32q0 21 14.5 33t33.5 12t32.5 -12.5t13.5 -32.5t-14 -32t-32 -12t-33 12zM209 591q-15 12 -15 32q0 21 14.5 33t33.5 12t32.5 -12.5t13.5 -32.5t-14 -32t-32 -12t-33 12z" />
    <glyph glyph-name="dotaccent" unicode="&#x2d9;" horiz-adv-x="310" 
d="M108 593.5q-20 16.5 -20 43.5q0 28 19.5 44.5t45.5 16.5q25 0 44 -16.5t19 -43.5t-19.5 -44t-43.5 -17q-25 0 -45 16.5z" />
    <glyph glyph-name="grave" unicode="`" horiz-adv-x="310" 
d="M222 559l-158 74q-9 5 -9 12q0 5 3 11l17 27q6 9 13 9t12 -4l147 -90q7 -4 7 -11q0 -3 -3 -9l-9 -14q-4 -7 -12 -7q-2 0 -8 2z" />
    <glyph glyph-name="hungarumlaut" unicode="&#x2dd;" horiz-adv-x="310" 
d="M-25 569l-9 14q-1 2 -2.5 4.5t-1.5 4.5q0 6 8 11l147 90q5 4 11 4q7 0 13 -9l17 -27q4 -8 4 -11q0 -7 -9 -12l-158 -74q-6 -2 -9 -2q-7 0 -11 7zM200 569l-9 14q-3 6 -3 9q0 7 7 11l147 90q5 4 11 4q8 0 14 -9l17 -27q3 -6 3 -11q0 -7 -9 -12l-158 -74q-6 -2 -8 -2
q-8 0 -12 7z" />
    <glyph glyph-name="macron" unicode="&#xaf;" horiz-adv-x="310" 
d="M32 584.5q-5 4.5 -5 16.5v17q0 11 5 15.5t21 4.5h200q18 0 23.5 -4t5.5 -16v-17q0 -12 -5.5 -16.5t-23.5 -4.5h-200q-16 0 -21 4.5z" />
    <glyph glyph-name="ogonek" unicode="&#x2db;" horiz-adv-x="310" 
d="M93.5 -177q-24.5 23 -24.5 55q0 73 96 122h54q-48 -36 -68.5 -61.5t-20.5 -49.5q0 -42 55 -42q10 0 26.5 2.5t27.5 6.5l3 1q9 0 10 -7l4 -14q1 -2 1 -6q0 -11 -12 -15q-16 -6 -39 -10.5t-42 -4.5q-46 0 -70.5 23z" />
    <glyph glyph-name="ring" unicode="&#x2da;" horiz-adv-x="310" 
d="M98.5 562.5q-24.5 23.5 -24.5 55.5t24.5 56t56.5 24q33 0 56.5 -24t23.5 -56t-23.5 -55.5t-56.5 -23.5q-32 0 -56.5 23.5zM177.5 595.5q9.5 9.5 9.5 22.5q0 14 -9.5 23t-22.5 9q-14 0 -23.5 -9.5t-9.5 -22.5t9.5 -22.5t23.5 -9.5q13 0 22.5 9.5z" />
    <glyph glyph-name="tilde" unicode="&#x2dc;" horiz-adv-x="310" 
d="M178 576.5q-12 4.5 -29 13.5q-30 17 -49 17q-16 0 -29.5 -6t-33.5 -18q-11 -6 -16 -6q-7 0 -11 10l-8 18q-4 10 -4 11q0 7 14 16q52 32 90 32q24 0 64 -20q32 -15 45 -15q14 0 28 6.5t34 20.5q9 5 15 5q9 0 14 -9l8 -11q5 -8 5 -12q0 -8 -8 -14q-56 -43 -104 -43
q-13 0 -25 4.5z" />
	g2="w,wacute,wcircumflex,wdieresis,wgrave"
	k="29" />
  </font>
</defs>
</svg>
