<?xml version="1.0" standalone="no"?>
<!DOCTYPE svg PUBLIC "-//W3C//DTD SVG 1.1//EN" "http://www.w3.org/Graphics/SVG/1.1/DTD/svg11.dtd" >
<svg xmlns="http://www.w3.org/2000/svg">
<metadata>
Adient Sans is a licensed version of FS Albert Copyright (c) 2002 by Fontsmith Ltd. All rights reserved. This font may not be altered in any way without prior permission of Fontsmith Ltd.
</metadata>
<defs>
<font id="AdientSansWeb-Regular" horiz-adv-x="550" >
  <font-face 
    font-family="Adient Sans Web"
    font-weight="400"
    font-stretch="normal"
    units-per-em="1000"
    panose-1="2 11 5 3 4 4 2 6 2 3"
    ascent="800"
    descent="-200"
    x-height="483"
    cap-height="689"
    bbox="-359 -220 1000 1005"
    underline-thickness="78"
    underline-position="-22"
    unicode-range="U+000D-FB02"
  />
<missing-glyph horiz-adv-x="535" 
d="M20 693h495v-693h-495v693zM436 644h-337l169 -253zM238 347l-168 252v-505zM466 599l-169 -252l169 -253v505zM436 50l-168 252l-169 -252h337z" />
    <glyph glyph-name="fi" unicode="fi" horiz-adv-x="529" 
d="M92 21v402h-58q-8 0 -11 3t-3 12v31q0 14 14 14h58v19q0 90 38 146q50 73 155 73q30 0 64 -5t54 -12q11 -4 11 -13q0 -6 -1 -10l-5 -33q-2 -10 -9 -10q-2 0 -10 2q-48 14 -98 14q-54 0 -82 -33q-31 -36 -31 -115v-23h256q19 0 19 -20v-442q0 -21 -19 -21h-46
q-19 0 -19 21v402h-191v-401q0 -22 -20 -22h-47q-19 0 -19 21z" />
    <glyph glyph-name="fl" unicode="fl" horiz-adv-x="528" 
d="M92 21v402h-58q-8 0 -11 3t-3 12v31q0 14 14 14h58v19q0 62 10 100.5t37 68.5q45 50 133 50q28 0 63.5 -6t59.5 -13q48 9 51 9q15 0 15 -18v-672q0 -21 -19 -21h-48q-18 0 -18 20v622q-17 5 -46 8.5t-50 3.5q-53 0 -77 -31q-16 -20 -20.5 -47.5t-4.5 -67.5v-25h115
q8 0 11.5 -2.5t3.5 -9.5v-34q0 -14 -14 -14h-116v-401q0 -22 -20 -22h-47q-19 0 -19 21z" />
    <glyph glyph-name="f_f.liga" unicode="ff" horiz-adv-x="641" 
d="M92 21v402h-57q-8 0 -11.5 3.5t-3.5 11.5v30q0 8 3.5 11.5t11.5 3.5h57v13q0 40 4 76q8 67 48.5 103.5t109.5 36.5q45 0 73 -12q13 -5 13 -13q0 -5 -1 -8l-10 -34q-4 -14 -20 -9q-28 8 -50 8q-45 0 -63.5 -30.5t-18.5 -93.5v-37h205v19q0 44 4 80q9 66 49 102.5t109 36.5
q51 0 92 -16q13 -5 13 -13q0 -5 -1 -8l-10 -34q-5 -15 -20 -9q-32 12 -64 12q-49 0 -68 -30.5t-19 -92.5v-47h123q8 0 11.5 -3.5t3.5 -11.5v-30q0 -8 -3.5 -11.5t-11.5 -3.5h-123v-402q0 -21 -20 -21h-45q-20 0 -20 21v402h-205v-402q0 -21 -20 -21h-45q-20 0 -20 21z" />
    <glyph glyph-name="f_f_i.liga" unicode="ffi" horiz-adv-x="808" 
d="M92 21v402h-57q-8 0 -11.5 3.5t-3.5 11.5v30q0 8 3.5 11.5t11.5 3.5h57v13q0 40 4 76q8 67 48.5 103.5t109.5 36.5q45 0 73 -12q13 -5 13 -13q0 -5 -1 -8l-10 -34q-4 -14 -20 -9q-28 8 -50 8q-45 0 -63.5 -30.5t-18.5 -93.5v-37h205v19q0 90 38 146q49 73 155 73
q32 0 65.5 -4.5t53.5 -12.5q13 -5 13 -13q0 -5 -1 -8l-9 -34q-4 -14 -20 -9q-42 14 -96 14q-114 0 -114 -148v-23h246q19 0 19 -20v-442q0 -21 -20 -21h-45q-20 0 -20 21v402h-180v-402q0 -21 -20 -21h-45q-20 0 -20 21v402h-205v-402q0 -21 -20 -21h-45q-20 0 -20 21z" />
    <glyph glyph-name="f_f_l.liga" unicode="ffl" horiz-adv-x="818" 
d="M92 21v402h-57q-8 0 -11.5 3.5t-3.5 11.5v30q0 8 3.5 11.5t11.5 3.5h57v13q0 40 4 76q8 67 48.5 103.5t109.5 36.5q45 0 73 -12q13 -5 13 -13q0 -5 -1 -8l-10 -34q-4 -14 -20 -9q-28 8 -50 8q-45 0 -63.5 -30.5t-18.5 -93.5v-37h205v19q0 53 7 88t25 62q45 69 148 69
q28 0 63.5 -6t59.5 -13l46 9h5q15 0 15 -16v-674q0 -21 -20 -21h-45q-20 0 -20 21v620q-17 5 -46 9t-50 4q-61 0 -81.5 -36t-20.5 -107v-28h112q8 0 11.5 -3.5t3.5 -11.5v-30q0 -8 -3.5 -11.5t-11.5 -3.5h-113v-402q0 -21 -20 -21h-45q-20 0 -20 21v402h-205v-402
q0 -21 -20 -21h-45q-20 0 -20 21z" />
    <glyph glyph-name=".notdef" horiz-adv-x="535" 
d="M20 693h495v-693h-495v693zM436 644h-337l169 -253zM238 347l-168 252v-505zM466 599l-169 -252l169 -253v505zM436 50l-168 252l-169 -252h337z" />
    <glyph glyph-name=".null" horiz-adv-x="0" 
 />
    <glyph glyph-name="nonmarkingreturn" unicode="&#xd;" horiz-adv-x="232" 
 />
    <glyph glyph-name="space" unicode=" " horiz-adv-x="232" 
 />
    <glyph glyph-name="A" unicode="A" horiz-adv-x="608" 
d="M8 9q0 5 2 11l251 655q5 14 18 14h53q14 0 18 -12l247 -656q2 -8 2 -10q0 -11 -15 -11h-62q-13 0 -18 3.5t-9 14.5l-66 186h-259l-69 -187q-4 -10 -8.5 -13.5t-14.5 -3.5h-59q-11 0 -11 9zM405 273l-80 229q-16 48 -23 71h-1l-25 -73l-82 -227h211z" />
    <glyph glyph-name="Aacute" unicode="&#xc1;" horiz-adv-x="608" 
d="M8 9q0 5 2 11l251 655q5 14 18 14h53q14 0 18 -12l247 -656q2 -8 2 -10q0 -11 -15 -11h-62q-13 0 -18 3.5t-9 14.5l-66 186h-259l-69 -187q-4 -10 -8.5 -13.5t-14.5 -3.5h-59q-11 0 -11 9zM405 273l-80 229q-16 48 -23 71h-1l-25 -73l-82 -227h211zM220 764l-12 18
q-4 5 -4 10q0 8 9 13l140 90q9 6 14 6q8 0 15 -10l21 -33q4 -5 4 -12q0 -9 -10 -13l-151 -75q-7 -3 -12 -3q-8 0 -14 9z" />
    <glyph glyph-name="Abreve" unicode="&#x102;" horiz-adv-x="608" 
d="M8 9q0 5 2 11l251 655q5 14 18 14h53q14 0 18 -12l247 -656q2 -8 2 -10q0 -11 -15 -11h-62q-13 0 -18 3.5t-9 14.5l-66 186h-259l-69 -187q-4 -10 -8.5 -13.5t-14.5 -3.5h-59q-11 0 -11 9zM405 273l-80 229q-16 48 -23 71h-1l-25 -73l-82 -227h211zM234 782
q-22 13 -37 32.5t-19 43.5q-1 3 -1 10q0 8 3.5 10.5t12.5 2.5h25q10 0 14 -3t9 -12q9 -19 27 -31.5t38 -12.5t38 12.5t27 31.5q5 9 9 12t14 3h25q9 0 12.5 -2.5t3.5 -10.5q0 -7 -1 -10q-4 -24 -19 -43.5t-37 -32.5q-33 -18 -72 -18t-72 18z" />
    <glyph glyph-name="uni01CD" unicode="&#x1cd;" horiz-adv-x="608" 
d="M8 9q0 5 2 11l251 655q5 14 18 14h53q14 0 18 -12l247 -656q2 -8 2 -10q0 -11 -15 -11h-62q-13 0 -18 3.5t-9 14.5l-66 186h-259l-69 -187q-4 -10 -8.5 -13.5t-14.5 -3.5h-59q-11 0 -11 9zM405 273l-80 229q-16 48 -23 71h-1l-25 -73l-82 -227h211zM278 757l-108 98
q-6 6 -6 11q0 3 5 10l12 13q7 7 13 7q7 0 17 -8l94 -73l102 79q7 5 12 5t11 -6l13 -13q5 -5 5 -12q0 -6 -6 -12l-111 -100q-8 -7 -19 -7h-14q-10 0 -20 8z" />
    <glyph glyph-name="Acircumflex" unicode="&#xc2;" horiz-adv-x="608" 
d="M8 9q0 5 2 11l251 655q5 14 18 14h53q14 0 18 -12l247 -656q2 -8 2 -10q0 -11 -15 -11h-62q-13 0 -18 3.5t-9 14.5l-66 186h-259l-69 -187q-4 -10 -8.5 -13.5t-14.5 -3.5h-59q-11 0 -11 9zM405 273l-80 229q-16 48 -23 71h-1l-25 -73l-82 -227h211zM407 756l-102 79
l-94 -73q-10 -8 -17 -8q-6 0 -13 7l-12 13q-5 7 -5 10q0 5 6 11l108 98q10 8 20 8h14q11 0 19 -7l111 -100q6 -6 6 -12q0 -7 -5 -12l-13 -13q-6 -6 -11 -6t-12 5z" />
    <glyph glyph-name="Adieresis" unicode="&#xc4;" horiz-adv-x="608" 
d="M8 9q0 5 2 11l251 655q5 14 18 14h53q14 0 18 -12l247 -656q2 -8 2 -10q0 -11 -15 -11h-62q-13 0 -18 3.5t-9 14.5l-66 186h-259l-69 -187q-4 -10 -8.5 -13.5t-14.5 -3.5h-59q-11 0 -11 9zM405 273l-80 229q-16 48 -23 71h-1l-25 -73l-82 -227h211zM182 787
q-16 13 -16 35q0 23 15.5 36t36.5 13t36 -13.5t15 -35.5t-15.5 -35t-35.5 -13t-36 13zM358.5 787q-16.5 13 -16.5 35q0 23 16 36t37 13t35.5 -13.5t14.5 -35.5t-15 -35t-35 -13t-36.5 13z" />
    <glyph glyph-name="Agrave" unicode="&#xc0;" horiz-adv-x="608" 
d="M8 9q0 5 2 11l251 655q5 14 18 14h53q14 0 18 -12l247 -656q2 -8 2 -10q0 -11 -15 -11h-62q-13 0 -18 3.5t-9 14.5l-66 186h-259l-69 -187q-4 -10 -8.5 -13.5t-14.5 -3.5h-59q-11 0 -11 9zM405 273l-80 229q-16 48 -23 71h-1l-25 -73l-82 -227h211zM365 761l-151 75
q-10 4 -10 13q0 7 4 12l21 33q7 10 15 10q5 0 14 -6l140 -90q9 -5 9 -13q0 -5 -4 -10l-12 -18q-6 -9 -14 -9q-5 0 -12 3z" />
    <glyph glyph-name="Amacron" unicode="&#x100;" horiz-adv-x="608" 
d="M8 9q0 5 2 11l251 655q5 14 18 14h53q14 0 18 -12l247 -656q2 -8 2 -10q0 -11 -15 -11h-62q-13 0 -18 3.5t-9 14.5l-66 186h-259l-69 -187q-4 -10 -8.5 -13.5t-14.5 -3.5h-59q-11 0 -11 9zM405 273l-80 229q-16 48 -23 71h-1l-25 -73l-82 -227h211zM178.5 793.5
q-5.5 5.5 -5.5 18.5v17q0 12 5 17t21 5h210q18 0 23.5 -4.5t5.5 -17.5v-17q0 -13 -6 -18.5t-23 -5.5h-210q-15 0 -20.5 5.5z" />
    <glyph glyph-name="Aogonek" unicode="&#x104;" horiz-adv-x="608" 
d="M427.5 -180.5q-26.5 22.5 -26.5 56.5q0 78 96 134l-68 194h-259l-69 -187q-4 -10 -8.5 -13.5t-14.5 -3.5h-59q-11 0 -11 10q0 2 2 10l251 655q5 14 18 14h53q14 0 18 -12l247 -656q2 -8 2 -10q0 -5 -4 -7t-14 -4q-26 -5 -46 -15q-19 -10 -37 -29q-28 -32 -28 -67
q0 -41 52 -41q10 0 26.5 2.5t27.5 6.5l4 1q8 0 9 -7l5 -18q1 -2 1 -6q0 -11 -12 -15q-16 -6 -39 -10.5t-42 -4.5q-48 0 -74.5 22.5zM405 273l-80 229q-16 48 -23 71h-1l-25 -73l-82 -227h211z" />
    <glyph glyph-name="Aring" unicode="&#xc5;" horiz-adv-x="608" 
d="M8 9q0 5 2 11l251 655q5 14 18 14h53q14 0 18 -12l247 -656q2 -8 2 -10q0 -11 -15 -11h-62q-13 0 -18 3.5t-9 14.5l-66 186h-259l-69 -187q-4 -10 -8.5 -13.5t-14.5 -3.5h-59q-11 0 -11 9zM405 273l-80 229q-16 48 -23 71h-1l-25 -73l-82 -227h211zM249 764.5
q-24 23.5 -24 56.5t24 56.5t57 23.5t56.5 -23.5t23.5 -56.5t-23.5 -56.5t-56.5 -23.5t-57 23.5zM327.5 799.5q8.5 8.5 8.5 21.5t-8.5 21.5t-21.5 8.5t-22 -8.5t-9 -21.5t9 -21.5t22 -8.5t21.5 8.5z" />
    <glyph glyph-name="Aringacute" unicode="&#x1fa;" horiz-adv-x="608" 
d="M218 868l-12 18q-4 5 -4 10q0 8 9 13l140 90q9 6 14 6q8 0 15 -10l21 -33q4 -5 4 -12q0 -9 -10 -13l-151 -75q-7 -3 -12 -3q-8 0 -14 9zM247 728.5q-24 23.5 -24 56.5t24 56.5t57 23.5t56.5 -23.5t23.5 -56.5t-23.5 -56.5t-56.5 -23.5t-57 23.5zM325.5 763.5
q8.5 8.5 8.5 21.5t-8.5 21.5t-21.5 8.5t-22 -8.5t-9 -21.5t9 -21.5t22 -8.5t21.5 8.5zM8 9q0 5 2 11l251 655q5 14 18 14h53q14 0 18 -12l247 -656q2 -8 2 -10q0 -11 -15 -11h-62q-13 0 -18 3.5t-9 14.5l-66 186h-259l-69 -187q-4 -10 -8.5 -13.5t-14.5 -3.5h-59
q-11 0 -11 9zM405 273l-80 229q-16 48 -23 71h-1l-25 -73l-82 -227h211z" />
    <glyph glyph-name="Atilde" unicode="&#xc3;" horiz-adv-x="608" 
d="M8 9q0 5 2 11l251 655q5 14 18 14h53q14 0 18 -12l247 -656q2 -8 2 -10q0 -11 -15 -11h-62q-13 0 -18 3.5t-9 14.5l-66 186h-259l-69 -187q-4 -10 -8.5 -13.5t-14.5 -3.5h-59q-11 0 -11 9zM405 273l-80 229q-16 48 -23 71h-1l-25 -73l-82 -227h211zM330 783q-12 5 -30 16
q-16 9 -27.5 14t-22.5 5q-22 0 -65 -24q-10 -6 -16 -6q-8 0 -12 10l-9 23q-4 10 -4 11q0 7 14 16q21 14 45.5 23t45.5 9q15 0 30 -5.5t35 -16.5q12 -6 24.5 -11t21.5 -5q18 0 62 27q9 5 15 5q8 0 14 -9l11 -17q5 -8 5 -12q0 -8 -8 -14q-57 -44 -104 -44q-13 0 -25 5z" />
    <glyph glyph-name="AE" unicode="&#xc6;" horiz-adv-x="880" 
d="M10 9q0 7 3 11l419 652q11 17 30 17h356q17 0 17 -14v-3l-5 -40q-1 -10 -7 -13t-20 -3h-264v-219h236q21 0 21 -18v-36q0 -10 -4.5 -14t-15.5 -4h-237v-252h277q11 0 15.5 -4t4.5 -13v-38q0 -9 -4.5 -13.5t-15.5 -4.5h-330q-17 0 -27.5 4t-10.5 17v184h-224l-121 -188
q-1 -2 -4.5 -7.5t-7.5 -7.5t-11 -2h-60q-10 0 -10 9zM448 274v292l-185 -292h185z" />
    <glyph glyph-name="AEacute" unicode="&#x1fc;" horiz-adv-x="880" 
d="M10 9q0 7 3 11l419 652q11 17 30 17h356q17 0 17 -14v-3l-5 -40q-1 -10 -7 -13t-20 -3h-264v-219h236q21 0 21 -18v-36q0 -10 -4.5 -14t-15.5 -4h-237v-252h277q11 0 15.5 -4t4.5 -13v-38q0 -9 -4.5 -13.5t-15.5 -4.5h-330q-17 0 -27.5 4t-10.5 17v184h-224l-121 -188
q-1 -2 -4.5 -7.5t-7.5 -7.5t-11 -2h-60q-10 0 -10 9zM448 274v292l-185 -292h185zM554 764l-12 18q-4 5 -4 10q0 8 9 13l140 90q9 6 14 6q8 0 15 -10l21 -33q4 -5 4 -12q0 -9 -10 -13l-151 -75q-7 -3 -12 -3q-8 0 -14 9z" />
    <glyph glyph-name="B" unicode="B" horiz-adv-x="569" 
d="M79.5 4.5q-4.5 4.5 -4.5 17.5v645q0 13 5.5 17.5t19.5 4.5h137q234 0 234 -168q0 -56 -31.5 -97.5t-88.5 -53.5v-1q75 -3 124 -49.5t49 -121.5q0 -109 -70.5 -153.5t-189.5 -44.5h-168q-12 0 -16.5 4.5zM236 395q64 0 104 25.5t40 94.5q0 59 -39.5 81t-108.5 22h-64v-223
h68zM255 71q71 0 109 17q66 30 66 111q0 73 -59 105q-45 23 -119 23h-84v-256h87z" />
    <glyph glyph-name="C" unicode="C" horiz-adv-x="587" 
d="M187 36.5q-69 46.5 -103 127t-34 180.5q0 97 37.5 178.5t108.5 130t168 48.5q103 0 183 -45q5 -3 8.5 -6.5t3.5 -7.5t-3 -12l-16 -37q-4 -10 -12 -10q-4 0 -9 3q-70 40 -149 40q-48 0 -89 -20t-70 -56q-32 -39 -47 -91t-15 -110q0 -78 24 -142.5t74 -103.5t123 -39
q38 0 80 9.5t76 27.5q5 3 9 3q9 0 13 -12l13 -31q3 -6 3 -11q0 -11 -14 -17q-92 -43 -193 -43t-170 46.5z" />
    <glyph glyph-name="Cacute" unicode="&#x106;" horiz-adv-x="587" 
d="M187 36.5q-69 46.5 -103 127t-34 180.5q0 97 37.5 178.5t108.5 130t168 48.5q103 0 183 -45q5 -3 8.5 -6.5t3.5 -7.5t-3 -12l-16 -37q-4 -10 -12 -10q-4 0 -9 3q-70 40 -149 40q-48 0 -89 -20t-70 -56q-32 -39 -47 -91t-15 -110q0 -78 24 -142.5t74 -103.5t123 -39
q38 0 80 9.5t76 27.5q5 3 9 3q9 0 13 -12l13 -31q3 -6 3 -11q0 -11 -14 -17q-92 -43 -193 -43t-170 46.5zM286 764l-12 18q-4 5 -4 10q0 8 9 13l140 90q9 6 14 6q8 0 15 -10l21 -33q4 -5 4 -12q0 -9 -10 -13l-151 -75q-7 -3 -12 -3q-8 0 -14 9z" />
    <glyph glyph-name="Ccaron" unicode="&#x10c;" horiz-adv-x="587" 
d="M187 36.5q-69 46.5 -103 127t-34 180.5q0 97 37.5 178.5t108.5 130t168 48.5q103 0 183 -45q5 -3 8.5 -6.5t3.5 -7.5t-3 -12l-16 -37q-4 -10 -12 -10q-4 0 -9 3q-70 40 -149 40q-48 0 -89 -20t-70 -56q-32 -39 -47 -91t-15 -110q0 -78 24 -142.5t74 -103.5t123 -39
q38 0 80 9.5t76 27.5q5 3 9 3q9 0 13 -12l13 -31q3 -6 3 -11q0 -11 -14 -17q-92 -43 -193 -43t-170 46.5zM344 757l-108 98q-6 6 -6 11q0 3 5 10l12 13q7 7 13 7q7 0 17 -8l94 -73l102 79q7 5 12 5t11 -6l13 -13q5 -5 5 -12q0 -6 -6 -12l-111 -100q-8 -7 -19 -7h-14
q-10 0 -20 8z" />
    <glyph glyph-name="Ccedilla" unicode="&#xc7;" horiz-adv-x="587" 
d="M564 50q0 -11 -14 -17q-92 -43 -193 -43h-4l-2 -38h8q40 0 66 -18t26 -56q0 -35 -26 -57t-74 -22q-33 0 -65 12q-14 6 -14 13q0 3 1 5l5 16q3 9 9 9q4 0 10 -3q24 -9 52 -9q18 0 30.5 9t12.5 27q0 33 -52 33h-18q-14 0 -19.5 6t-5.5 17q0 10 1 15l5 45
q-124 18 -188.5 114t-64.5 236q0 97 37.5 178.5t108.5 130t168 48.5q103 0 183 -45q5 -3 8.5 -6.5t3.5 -7.5t-3 -12l-16 -37q-4 -10 -12 -10q-4 0 -9 3q-70 40 -149 40q-48 0 -89 -20t-70 -56q-32 -39 -47 -91t-15 -110q0 -78 24 -142.5t74 -103.5t123 -39q38 0 80 9.5
t76 27.5q5 3 9 3q9 0 13 -12l13 -31q3 -6 3 -11z" />
    <glyph glyph-name="Ccircumflex" unicode="&#x108;" horiz-adv-x="587" 
d="M187 36.5q-69 46.5 -103 127t-34 180.5q0 97 37.5 178.5t108.5 130t168 48.5q103 0 183 -45q5 -3 8.5 -6.5t3.5 -7.5t-3 -12l-16 -37q-4 -10 -12 -10q-4 0 -9 3q-70 40 -149 40q-48 0 -89 -20t-70 -56q-32 -39 -47 -91t-15 -110q0 -78 24 -142.5t74 -103.5t123 -39
q38 0 80 9.5t76 27.5q5 3 9 3q9 0 13 -12l13 -31q3 -6 3 -11q0 -11 -14 -17q-92 -43 -193 -43t-170 46.5zM473 756l-102 79l-94 -73q-10 -8 -17 -8q-6 0 -13 7l-12 13q-5 7 -5 10q0 5 6 11l108 98q10 8 20 8h14q11 0 19 -7l111 -100q6 -6 6 -12q0 -7 -5 -12l-13 -13
q-6 -6 -11 -6t-12 5z" />
    <glyph glyph-name="Cdotaccent" unicode="&#x10a;" horiz-adv-x="587" 
d="M187 36.5q-69 46.5 -103 127t-34 180.5q0 97 37.5 178.5t108.5 130t168 48.5q103 0 183 -45q5 -3 8.5 -6.5t3.5 -7.5t-3 -12l-16 -37q-4 -10 -12 -10q-4 0 -9 3q-70 40 -149 40q-48 0 -89 -20t-70 -56q-32 -39 -47 -91t-15 -110q0 -78 24 -142.5t74 -103.5t123 -39
q38 0 80 9.5t76 27.5q5 3 9 3q9 0 13 -12l13 -31q3 -6 3 -11q0 -11 -14 -17q-92 -43 -193 -43t-170 46.5zM332 802.5q-19 15.5 -19 39.5q0 25 18.5 40.5t41.5 15.5q22 0 40 -15.5t18 -39.5t-18.5 -40t-39.5 -16q-22 0 -41 15.5z" />
    <glyph glyph-name="D" unicode="D" horiz-adv-x="669" 
d="M80.5 5q-5.5 5 -5.5 19v637q0 15 6.5 21.5t22.5 6.5h126q97 0 153.5 -10.5t102.5 -39.5q65 -40 101 -117t36 -181q0 -85 -26.5 -154t-76.5 -114q-80 -73 -246 -73h-174q-14 0 -19.5 5zM254 74q73 0 118.5 11.5t78.5 44.5q73 75 73 212q0 73 -22 132t-63 92
q-33 27 -76.5 37.5t-99.5 10.5h-95v-540h86z" />
    <glyph glyph-name="Eth" unicode="&#xd0;" horiz-adv-x="683" 
d="M94.5 5q-5.5 5 -5.5 19v278h-67q-13 0 -17.5 4.5t-4.5 14.5v37q0 10 4.5 14t15.5 4h69v285q0 15 6.5 21.5t22.5 6.5h126q97 0 153.5 -10.5t102.5 -39.5q65 -40 101 -117t36 -181q0 -85 -26.5 -154t-76.5 -114q-80 -73 -246 -73h-174q-14 0 -19.5 5zM268 74
q73 0 118.5 11.5t78.5 44.5q73 75 73 212q0 73 -22 132t-63 92q-33 27 -76.5 37.5t-99.5 10.5h-95v-238h123q13 0 17.5 -4t4.5 -16v-32q0 -12 -4 -17t-16 -5h-125v-228h86z" />
    <glyph glyph-name="Dcaron" unicode="&#x10e;" horiz-adv-x="669" 
d="M80.5 5q-5.5 5 -5.5 19v637q0 15 6.5 21.5t22.5 6.5h126q97 0 153.5 -10.5t102.5 -39.5q65 -40 101 -117t36 -181q0 -85 -26.5 -154t-76.5 -114q-80 -73 -246 -73h-174q-14 0 -19.5 5zM254 74q73 0 118.5 11.5t78.5 44.5q73 75 73 212q0 73 -22 132t-63 92
q-33 27 -76.5 37.5t-99.5 10.5h-95v-540h86zM307 757l-108 98q-6 6 -6 11q0 3 5 10l12 13q7 7 13 7q7 0 17 -8l94 -73l102 79q7 5 12 5t11 -6l13 -13q5 -5 5 -12q0 -6 -6 -12l-111 -100q-8 -7 -19 -7h-14q-10 0 -20 8z" />
    <glyph glyph-name="Dcroat" unicode="&#x110;" horiz-adv-x="683" 
d="M94.5 5q-5.5 5 -5.5 19v278h-67q-13 0 -17.5 4.5t-4.5 14.5v37q0 10 4.5 14t15.5 4h69v285q0 15 6.5 21.5t22.5 6.5h126q97 0 153.5 -10.5t102.5 -39.5q65 -40 101 -117t36 -181q0 -85 -26.5 -154t-76.5 -114q-80 -73 -246 -73h-174q-14 0 -19.5 5zM268 74
q73 0 118.5 11.5t78.5 44.5q73 75 73 212q0 73 -22 132t-63 92q-33 27 -76.5 37.5t-99.5 10.5h-95v-238h123q13 0 17.5 -4t4.5 -16v-32q0 -12 -4 -17t-16 -5h-125v-228h86z" />
    <glyph glyph-name="E" unicode="E" horiz-adv-x="510" 
d="M80 4q-4 4 -4 17v648q0 11 4.5 15.5t14.5 4.5h352q11 0 14 -4.5t2 -14.5l-4 -38q-1 -10 -7 -13t-20 -3h-263v-219h235q20 0 20 -18v-36q0 -10 -4 -14t-15 -4h-236v-252h276q11 0 16 -4t5 -13v-38q0 -9 -4.5 -13.5t-15.5 -4.5h-349q-13 0 -17 4z" />
    <glyph glyph-name="Eacute" unicode="&#xc9;" horiz-adv-x="510" 
d="M80 4q-4 4 -4 17v648q0 11 4.5 15.5t14.5 4.5h352q11 0 14 -4.5t2 -14.5l-4 -38q-1 -10 -7 -13t-20 -3h-263v-219h235q20 0 20 -18v-36q0 -10 -4 -14t-15 -4h-236v-252h276q11 0 16 -4t5 -13v-38q0 -9 -4.5 -13.5t-15.5 -4.5h-349q-13 0 -17 4zM189 764l-12 18
q-4 5 -4 10q0 8 9 13l140 90q9 6 14 6q8 0 15 -10l21 -33q4 -5 4 -12q0 -9 -10 -13l-151 -75q-7 -3 -12 -3q-8 0 -14 9z" />
    <glyph glyph-name="Ebreve" unicode="&#x114;" horiz-adv-x="510" 
d="M80 4q-4 4 -4 17v648q0 11 4.5 15.5t14.5 4.5h352q11 0 14 -4.5t2 -14.5l-4 -38q-1 -10 -7 -13t-20 -3h-263v-219h235q20 0 20 -18v-36q0 -10 -4 -14t-15 -4h-236v-252h276q11 0 16 -4t5 -13v-38q0 -9 -4.5 -13.5t-15.5 -4.5h-349q-13 0 -17 4zM203 782q-22 13 -37 32.5
t-19 43.5q-1 3 -1 10q0 8 3.5 10.5t12.5 2.5h25q10 0 14 -3t9 -12q9 -19 27 -31.5t38 -12.5t38 12.5t27 31.5q5 9 9 12t14 3h25q9 0 12.5 -2.5t3.5 -10.5q0 -7 -1 -10q-4 -24 -19 -43.5t-37 -32.5q-33 -18 -72 -18t-72 18z" />
    <glyph glyph-name="Ecaron" unicode="&#x11a;" horiz-adv-x="510" 
d="M80 4q-4 4 -4 17v648q0 11 4.5 15.5t14.5 4.5h352q11 0 14 -4.5t2 -14.5l-4 -38q-1 -10 -7 -13t-20 -3h-263v-219h235q20 0 20 -18v-36q0 -10 -4 -14t-15 -4h-236v-252h276q11 0 16 -4t5 -13v-38q0 -9 -4.5 -13.5t-15.5 -4.5h-349q-13 0 -17 4zM247 757l-108 98
q-6 6 -6 11q0 3 5 10l12 13q7 7 13 7q7 0 17 -8l94 -73l102 79q7 5 12 5t11 -6l13 -13q5 -5 5 -12q0 -6 -6 -12l-111 -100q-8 -7 -19 -7h-14q-10 0 -20 8z" />
    <glyph glyph-name="Ecircumflex" unicode="&#xca;" horiz-adv-x="510" 
d="M80 4q-4 4 -4 17v648q0 11 4.5 15.5t14.5 4.5h352q11 0 14 -4.5t2 -14.5l-4 -38q-1 -10 -7 -13t-20 -3h-263v-219h235q20 0 20 -18v-36q0 -10 -4 -14t-15 -4h-236v-252h276q11 0 16 -4t5 -13v-38q0 -9 -4.5 -13.5t-15.5 -4.5h-349q-13 0 -17 4zM376 756l-102 79l-94 -73
q-10 -8 -17 -8q-6 0 -13 7l-12 13q-5 7 -5 10q0 5 6 11l108 98q10 8 20 8h14q11 0 19 -7l111 -100q6 -6 6 -12q0 -7 -5 -12l-13 -13q-6 -6 -11 -6t-12 5z" />
    <glyph glyph-name="Edieresis" unicode="&#xcb;" horiz-adv-x="510" 
d="M80 4q-4 4 -4 17v648q0 11 4.5 15.5t14.5 4.5h352q11 0 14 -4.5t2 -14.5l-4 -38q-1 -10 -7 -13t-20 -3h-263v-219h235q20 0 20 -18v-36q0 -10 -4 -14t-15 -4h-236v-252h276q11 0 16 -4t5 -13v-38q0 -9 -4.5 -13.5t-15.5 -4.5h-349q-13 0 -17 4zM151 787q-16 13 -16 35
q0 23 15.5 36t36.5 13t36 -13.5t15 -35.5t-15.5 -35t-35.5 -13t-36 13zM327.5 787q-16.5 13 -16.5 35q0 23 16 36t37 13t35.5 -13.5t14.5 -35.5t-15 -35t-35 -13t-36.5 13z" />
    <glyph glyph-name="Edotaccent" unicode="&#x116;" horiz-adv-x="510" 
d="M80 4q-4 4 -4 17v648q0 11 4.5 15.5t14.5 4.5h352q11 0 14 -4.5t2 -14.5l-4 -38q-1 -10 -7 -13t-20 -3h-263v-219h235q20 0 20 -18v-36q0 -10 -4 -14t-15 -4h-236v-252h276q11 0 16 -4t5 -13v-38q0 -9 -4.5 -13.5t-15.5 -4.5h-349q-13 0 -17 4zM235 802.5
q-19 15.5 -19 39.5q0 25 18.5 40.5t41.5 15.5q22 0 40 -15.5t18 -39.5t-18.5 -40t-39.5 -16q-22 0 -41 15.5z" />
    <glyph glyph-name="Egrave" unicode="&#xc8;" horiz-adv-x="510" 
d="M80 4q-4 4 -4 17v648q0 11 4.5 15.5t14.5 4.5h352q11 0 14 -4.5t2 -14.5l-4 -38q-1 -10 -7 -13t-20 -3h-263v-219h235q20 0 20 -18v-36q0 -10 -4 -14t-15 -4h-236v-252h276q11 0 16 -4t5 -13v-38q0 -9 -4.5 -13.5t-15.5 -4.5h-349q-13 0 -17 4zM334 761l-151 75
q-10 4 -10 13q0 7 4 12l21 33q7 10 15 10q5 0 14 -6l140 -90q9 -5 9 -13q0 -5 -4 -10l-12 -18q-6 -9 -14 -9q-5 0 -12 3z" />
    <glyph glyph-name="Emacron" unicode="&#x112;" horiz-adv-x="510" 
d="M80 4q-4 4 -4 17v648q0 11 4.5 15.5t14.5 4.5h352q11 0 14 -4.5t2 -14.5l-4 -38q-1 -10 -7 -13t-20 -3h-263v-219h235q20 0 20 -18v-36q0 -10 -4 -14t-15 -4h-236v-252h276q11 0 16 -4t5 -13v-38q0 -9 -4.5 -13.5t-15.5 -4.5h-349q-13 0 -17 4zM147.5 793.5
q-5.5 5.5 -5.5 18.5v17q0 12 5 17t21 5h210q18 0 23.5 -4.5t5.5 -17.5v-17q0 -13 -6 -18.5t-23 -5.5h-210q-15 0 -20.5 5.5z" />
    <glyph glyph-name="Eogonek" unicode="&#x118;" horiz-adv-x="510" 
d="M259.5 -179.5q-26.5 21.5 -26.5 55.5q0 41 29 73q23 25 71 51h-236q-13 0 -17 4t-4 17v648q0 11 4.5 15.5t14.5 4.5h352q11 0 14 -4.5t2 -14.5l-4 -38q-1 -10 -7 -13t-20 -3h-263v-219h235q20 0 20 -18v-36q0 -10 -4 -14t-15 -4h-236v-252h276q11 0 16 -4t5 -13v-38
q0 -9 -4.5 -13.5t-15.5 -4.5h-54q-49 -36 -69.5 -60.5t-20.5 -48.5q0 -41 52 -41q10 0 26.5 2.5t27.5 6.5l4 1q8 0 9 -7l5 -18q1 -2 1 -6q0 -11 -12 -15q-16 -6 -39 -10.5t-42 -4.5q-48 0 -74.5 21.5z" />
    <glyph glyph-name="F" unicode="F" horiz-adv-x="501" 
d="M80.5 4q-4.5 4 -4.5 18v647q0 11 4.5 15.5t14.5 4.5h352q18 0 16 -18l-4 -39q-1 -10 -7 -13t-20 -3h-263v-219h235q20 0 20 -18v-36q0 -10 -4 -14t-15 -4h-236v-304q0 -12 -4 -16.5t-16 -4.5h-52q-12 0 -16.5 4z" />
    <glyph glyph-name="G" unicode="G" horiz-adv-x="658" 
d="M193 34.5q-72 44.5 -108 124.5t-36 185q0 102 40.5 183t116 127.5t178.5 46.5q40 0 84.5 -8.5t81.5 -24.5q12 -6 12 -14q0 -2 -2 -10l-14 -39q-4 -11 -14 -11q-3 0 -9 2q-29 12 -67.5 20t-68.5 8q-99 0 -161 -62q-38 -38 -58 -94t-20 -122q0 -78 23.5 -142t73.5 -102.5
t124 -38.5q35 0 68.5 6.5t58.5 18.5v237h-105q-10 0 -14 3.5t-4 14.5v38q0 9 4 12.5t14 3.5h179q11 0 15 -4t4 -15v-305q0 -16 -4.5 -23.5t-17.5 -14.5q-36 -20 -91 -32.5t-105 -12.5q-106 0 -178 44.5z" />
    <glyph glyph-name="Gbreve" unicode="&#x11e;" horiz-adv-x="658" 
d="M193 34.5q-72 44.5 -108 124.5t-36 185q0 102 40.5 183t116 127.5t178.5 46.5q40 0 84.5 -8.5t81.5 -24.5q12 -6 12 -14q0 -2 -2 -10l-14 -39q-4 -11 -14 -11q-3 0 -9 2q-29 12 -67.5 20t-68.5 8q-99 0 -161 -62q-38 -38 -58 -94t-20 -122q0 -78 23.5 -142t73.5 -102.5
t124 -38.5q35 0 68.5 6.5t58.5 18.5v237h-105q-10 0 -14 3.5t-4 14.5v38q0 9 4 12.5t14 3.5h179q11 0 15 -4t4 -15v-305q0 -16 -4.5 -23.5t-17.5 -14.5q-36 -20 -91 -32.5t-105 -12.5q-106 0 -178 44.5zM287 782q-22 13 -37 32.5t-19 43.5q-1 3 -1 10q0 8 3.5 10.5t12.5 2.5
h25q10 0 14 -3t9 -12q9 -19 27 -31.5t38 -12.5t38 12.5t27 31.5q5 9 9 12t14 3h25q9 0 12.5 -2.5t3.5 -10.5q0 -7 -1 -10q-4 -24 -19 -43.5t-37 -32.5q-33 -18 -72 -18t-72 18z" />
    <glyph glyph-name="Gcircumflex" unicode="&#x11c;" horiz-adv-x="658" 
d="M193 34.5q-72 44.5 -108 124.5t-36 185q0 102 40.5 183t116 127.5t178.5 46.5q40 0 84.5 -8.5t81.5 -24.5q12 -6 12 -14q0 -2 -2 -10l-14 -39q-4 -11 -14 -11q-3 0 -9 2q-29 12 -67.5 20t-68.5 8q-99 0 -161 -62q-38 -38 -58 -94t-20 -122q0 -78 23.5 -142t73.5 -102.5
t124 -38.5q35 0 68.5 6.5t58.5 18.5v237h-105q-10 0 -14 3.5t-4 14.5v38q0 9 4 12.5t14 3.5h179q11 0 15 -4t4 -15v-305q0 -16 -4.5 -23.5t-17.5 -14.5q-36 -20 -91 -32.5t-105 -12.5q-106 0 -178 44.5zM460 756l-102 79l-94 -73q-10 -8 -17 -8q-6 0 -13 7l-12 13
q-5 7 -5 10q0 5 6 11l108 98q10 8 20 8h14q11 0 19 -7l111 -100q6 -6 6 -12q0 -7 -5 -12l-13 -13q-6 -6 -11 -6t-12 5z" />
    <glyph glyph-name="Gcommaaccent" unicode="&#x122;" horiz-adv-x="658" 
d="M193 34.5q-72 44.5 -108 124.5t-36 185q0 102 40.5 183t116 127.5t178.5 46.5q40 0 84.5 -8.5t81.5 -24.5q12 -6 12 -14q0 -2 -2 -10l-14 -39q-4 -11 -14 -11q-3 0 -9 2q-29 12 -67.5 20t-68.5 8q-99 0 -161 -62q-38 -38 -58 -94t-20 -122q0 -78 23.5 -142t73.5 -102.5
t124 -38.5q35 0 68.5 6.5t58.5 18.5v237h-105q-10 0 -14 3.5t-4 14.5v38q0 9 4 12.5t14 3.5h179q11 0 15 -4t4 -15v-305q0 -16 -4.5 -23.5t-17.5 -14.5q-36 -20 -91 -32.5t-105 -12.5q-106 0 -178 44.5zM340 -214l-6 6q-1 2 -2 3.5t-1 4.5q0 2 5 7q28 28 28 53q0 10 -13 27
q-14 18 -14 31q0 19 12 30.5t31 11.5q20 0 33 -16.5t13 -37.5q0 -34 -18.5 -68t-46.5 -54q-7 -4 -12 -4t-9 6z" />
    <glyph glyph-name="Gdotaccent" unicode="&#x120;" horiz-adv-x="658" 
d="M193 34.5q-72 44.5 -108 124.5t-36 185q0 102 40.5 183t116 127.5t178.5 46.5q40 0 84.5 -8.5t81.5 -24.5q12 -6 12 -14q0 -2 -2 -10l-14 -39q-4 -11 -14 -11q-3 0 -9 2q-29 12 -67.5 20t-68.5 8q-99 0 -161 -62q-38 -38 -58 -94t-20 -122q0 -78 23.5 -142t73.5 -102.5
t124 -38.5q35 0 68.5 6.5t58.5 18.5v237h-105q-10 0 -14 3.5t-4 14.5v38q0 9 4 12.5t14 3.5h179q11 0 15 -4t4 -15v-305q0 -16 -4.5 -23.5t-17.5 -14.5q-36 -20 -91 -32.5t-105 -12.5q-106 0 -178 44.5zM319 802.5q-19 15.5 -19 39.5q0 25 18.5 40.5t41.5 15.5
q22 0 40 -15.5t18 -39.5t-18.5 -40t-39.5 -16q-22 0 -41 15.5z" />
    <glyph glyph-name="H" unicode="H" horiz-adv-x="659" 
d="M75 21v648q0 20 20 20h53q20 0 20 -20v-272h322v272q0 20 20 20h54q19 0 19 -20v-648q0 -21 -19 -21h-54q-20 0 -20 21v304h-322v-304q0 -21 -20 -21h-53q-20 0 -20 21z" />
    <glyph glyph-name="Hbar" unicode="&#x126;" horiz-adv-x="659" 
d="M75 21v488h-27q-13 0 -17.5 4.5t-4.5 14.5v37q0 10 4.5 14t15.5 4h29v86q0 20 20 20h53q20 0 20 -20v-86h322v86q0 20 20 20h54q19 0 19 -20v-86h28q13 0 17.5 -4t4.5 -16v-32q0 -12 -4 -17t-16 -5h-30v-488q0 -21 -19 -21h-54q-20 0 -20 21v304h-322v-304q0 -21 -20 -21
h-53q-20 0 -20 21zM490 397v112h-322v-112h322z" />
    <glyph glyph-name="Hcircumflex" unicode="&#x124;" horiz-adv-x="659" 
d="M75 21v648q0 20 20 20h53q20 0 20 -20v-272h322v272q0 20 20 20h54q19 0 19 -20v-648q0 -21 -19 -21h-54q-20 0 -20 21v304h-322v-304q0 -21 -20 -21h-53q-20 0 -20 21zM431 756l-102 79l-94 -73q-10 -8 -17 -8q-6 0 -13 7l-12 13q-5 7 -5 10q0 5 6 11l108 98q10 8 20 8
h14q11 0 19 -7l111 -100q6 -6 6 -12q0 -7 -5 -12l-13 -13q-6 -6 -11 -6t-12 5z" />
    <glyph glyph-name="I" unicode="I" horiz-adv-x="371" 
d="M64 15v34q0 8 3 11t12 3h60v564h-64q-8 0 -11.5 3t-3.5 11v33q0 15 14 15h216q17 0 17 -14v-32q0 -10 -3.5 -13t-13.5 -3h-61v-564h60q17 0 17 -15v-32q0 -9 -3 -12.5t-11 -3.5h-213q-15 0 -15 15z" />
    <glyph glyph-name="IJ" unicode="&#x132;" horiz-adv-x="757" 
d="M64 15v34q0 8 3 11t12 3h60v564h-64q-8 0 -11.5 3t-3.5 11v33q0 15 14 15h216q17 0 17 -14v-32q0 -10 -3.5 -13t-13.5 -3h-61v-564h60q17 0 17 -15v-32q0 -9 -3 -12.5t-11 -3.5h-213q-15 0 -15 15zM457 -7q-18 2 -30 5q-12 2 -12 11q0 5 1 8l8 41q1 8 5.5 10t12.5 0
q28 -5 49 -5q25 0 46.5 8.5t31.5 24.5q20 31 20 112v419h-112q-11 0 -15 4t-4 13v30q0 8 4 11.5t15 3.5h183q19 0 19 -19v-439q0 -75 -12.5 -124t-46.5 -78q-46 -38 -132 -38q-13 0 -31 2z" />
    <glyph glyph-name="Iacute" unicode="&#xcd;" horiz-adv-x="371" 
d="M64 15v34q0 8 3 11t12 3h60v564h-64q-8 0 -11.5 3t-3.5 11v33q0 15 14 15h216q17 0 17 -14v-32q0 -10 -3.5 -13t-13.5 -3h-61v-564h60q17 0 17 -15v-32q0 -9 -3 -12.5t-11 -3.5h-213q-15 0 -15 15zM100 764l-12 18q-4 5 -4 10q0 8 9 13l140 90q9 6 14 6q8 0 15 -10
l21 -33q4 -5 4 -12q0 -9 -10 -13l-151 -75q-7 -3 -12 -3q-8 0 -14 9z" />
    <glyph glyph-name="Ibreve" unicode="&#x12c;" horiz-adv-x="371" 
d="M64 15v34q0 8 3 11t12 3h60v564h-64q-8 0 -11.5 3t-3.5 11v33q0 15 14 15h216q17 0 17 -14v-32q0 -10 -3.5 -13t-13.5 -3h-61v-564h60q17 0 17 -15v-32q0 -9 -3 -12.5t-11 -3.5h-213q-15 0 -15 15zM114 782q-22 13 -37 32.5t-19 43.5q-1 3 -1 10q0 8 3.5 10.5t12.5 2.5
h25q10 0 14 -3t9 -12q9 -19 27 -31.5t38 -12.5t38 12.5t27 31.5q5 9 9 12t14 3h25q9 0 12.5 -2.5t3.5 -10.5q0 -7 -1 -10q-4 -24 -19 -43.5t-37 -32.5q-33 -18 -72 -18t-72 18z" />
    <glyph glyph-name="Icircumflex" unicode="&#xce;" horiz-adv-x="371" 
d="M64 15v34q0 8 3 11t12 3h60v564h-64q-8 0 -11.5 3t-3.5 11v33q0 15 14 15h216q17 0 17 -14v-32q0 -10 -3.5 -13t-13.5 -3h-61v-564h60q17 0 17 -15v-32q0 -9 -3 -12.5t-11 -3.5h-213q-15 0 -15 15zM287 756l-102 79l-94 -73q-10 -8 -17 -8q-6 0 -13 7l-12 13q-5 7 -5 10
q0 5 6 11l108 98q10 8 20 8h14q11 0 19 -7l111 -100q6 -6 6 -12q0 -7 -5 -12l-13 -13q-6 -6 -11 -6t-12 5z" />
    <glyph glyph-name="Idieresis" unicode="&#xcf;" horiz-adv-x="371" 
d="M64 15v34q0 8 3 11t12 3h60v564h-64q-8 0 -11.5 3t-3.5 11v33q0 15 14 15h216q17 0 17 -14v-32q0 -10 -3.5 -13t-13.5 -3h-61v-564h60q17 0 17 -15v-32q0 -9 -3 -12.5t-11 -3.5h-213q-15 0 -15 15zM62 787q-16 13 -16 35q0 23 15.5 36t36.5 13t36 -13.5t15 -35.5
t-15.5 -35t-35.5 -13t-36 13zM238.5 787q-16.5 13 -16.5 35q0 23 16 36t37 13t35.5 -13.5t14.5 -35.5t-15 -35t-35 -13t-36.5 13z" />
    <glyph glyph-name="Idotaccent" unicode="&#x130;" horiz-adv-x="371" 
d="M64 15v34q0 8 3 11t12 3h60v564h-64q-8 0 -11.5 3t-3.5 11v33q0 15 14 15h216q17 0 17 -14v-32q0 -10 -3.5 -13t-13.5 -3h-61v-564h60q17 0 17 -15v-32q0 -9 -3 -12.5t-11 -3.5h-213q-15 0 -15 15zM146 802.5q-19 15.5 -19 39.5q0 25 18.5 40.5t41.5 15.5q22 0 40 -15.5
t18 -39.5t-18.5 -40t-39.5 -16q-22 0 -41 15.5z" />
    <glyph glyph-name="Igrave" unicode="&#xcc;" horiz-adv-x="371" 
d="M64 15v34q0 8 3 11t12 3h60v564h-64q-8 0 -11.5 3t-3.5 11v33q0 15 14 15h216q17 0 17 -14v-32q0 -10 -3.5 -13t-13.5 -3h-61v-564h60q17 0 17 -15v-32q0 -9 -3 -12.5t-11 -3.5h-213q-15 0 -15 15zM245 761l-151 75q-10 4 -10 13q0 7 4 12l21 33q7 10 15 10q5 0 14 -6
l140 -90q9 -5 9 -13q0 -5 -4 -10l-12 -18q-6 -9 -14 -9q-5 0 -12 3z" />
    <glyph glyph-name="Imacron" unicode="&#x12a;" horiz-adv-x="371" 
d="M64 15v34q0 8 3 11t12 3h60v564h-64q-8 0 -11.5 3t-3.5 11v33q0 15 14 15h216q17 0 17 -14v-32q0 -10 -3.5 -13t-13.5 -3h-61v-564h60q17 0 17 -15v-32q0 -9 -3 -12.5t-11 -3.5h-213q-15 0 -15 15zM58.5 793.5q-5.5 5.5 -5.5 18.5v17q0 12 5 17t21 5h210q18 0 23.5 -4.5
t5.5 -17.5v-17q0 -13 -6 -18.5t-23 -5.5h-210q-15 0 -20.5 5.5z" />
    <glyph glyph-name="Iogonek" unicode="&#x12e;" horiz-adv-x="371" 
d="M94.5 -179.5q-26.5 21.5 -26.5 55.5q0 41 29 73q23 25 71 51h-89q-15 0 -15 15v34q0 8 3 11t12 3h60v564h-64q-8 0 -11.5 3t-3.5 11v33q0 15 14 15h216q17 0 17 -14v-32q0 -10 -3.5 -13t-13.5 -3h-61v-564h60q17 0 17 -15v-32q0 -9 -3 -12.5t-11 -3.5h-65
q-49 -36 -69.5 -60.5t-20.5 -48.5q0 -41 52 -41q10 0 26.5 2.5t27.5 6.5l4 1q8 0 9 -7l5 -18q1 -2 1 -6q0 -11 -12 -15q-16 -6 -39 -10.5t-42 -4.5q-48 0 -74.5 21.5z" />
    <glyph glyph-name="Itilde" unicode="&#x128;" horiz-adv-x="371" 
d="M64 15v34q0 8 3 11t12 3h60v564h-64q-8 0 -11.5 3t-3.5 11v33q0 15 14 15h216q17 0 17 -14v-32q0 -10 -3.5 -13t-13.5 -3h-61v-564h60q17 0 17 -15v-32q0 -9 -3 -12.5t-11 -3.5h-213q-15 0 -15 15zM210 783q-12 5 -30 16q-16 9 -27.5 14t-22.5 5q-22 0 -65 -24
q-10 -6 -16 -6q-8 0 -12 10l-9 23q-4 10 -4 11q0 7 14 16q21 14 45.5 23t45.5 9q15 0 30 -5.5t35 -16.5q12 -6 24.5 -11t21.5 -5q18 0 62 27q9 5 15 5q8 0 14 -9l11 -17q5 -8 5 -12q0 -8 -8 -14q-57 -44 -104 -44q-13 0 -25 5z" />
    <glyph glyph-name="J" unicode="J" horiz-adv-x="386" 
d="M86 -7q-18 2 -30 5q-12 2 -12 11q0 5 1 8l8 41q1 8 5.5 10t12.5 0q28 -5 49 -5q25 0 46.5 8.5t31.5 24.5q20 31 20 112v419h-112q-11 0 -15 4t-4 13v30q0 8 4 11.5t15 3.5h183q19 0 19 -19v-439q0 -75 -12.5 -124t-46.5 -78q-46 -38 -132 -38q-13 0 -31 2z" />
    <glyph glyph-name="Jcircumflex" unicode="&#x134;" horiz-adv-x="386" 
d="M86 -7q-18 2 -30 5q-12 2 -12 11q0 5 1 8l8 41q1 8 5.5 10t12.5 0q28 -5 49 -5q25 0 46.5 8.5t31.5 24.5q20 31 20 112v419h-112q-11 0 -15 4t-4 13v30q0 8 4 11.5t15 3.5h183q19 0 19 -19v-439q0 -75 -12.5 -124t-46.5 -78q-46 -38 -132 -38q-13 0 -31 2zM294 756
l-102 79l-94 -73q-10 -8 -17 -8q-6 0 -13 7l-12 13q-5 7 -5 10q0 5 6 11l108 98q10 8 20 8h14q11 0 19 -7l111 -100q6 -6 6 -12q0 -7 -5 -12l-13 -13q-6 -6 -11 -6t-12 5z" />
    <glyph glyph-name="K" unicode="K" horiz-adv-x="549" 
d="M76 21v648q0 20 19 20h55q19 0 19 -20v-290h1l241 297q12 13 28 13h56q12 0 12 -10q0 -3 -3 -8l-256 -313l283 -334q8 -10 8 -16q0 -8 -13 -8h-68q-13 0 -21 4t-17 15l-250 300h-1v-298q0 -21 -19 -21h-55q-19 0 -19 21z" />
    <glyph glyph-name="Kcommaaccent" unicode="&#x136;" horiz-adv-x="549" 
d="M76 21v648q0 20 19 20h55q19 0 19 -20v-290h1l241 297q12 13 28 13h56q12 0 12 -10q0 -3 -3 -8l-256 -313l283 -334q8 -10 8 -16q0 -8 -13 -8h-68q-13 0 -21 4t-17 15l-250 300h-1v-298q0 -21 -19 -21h-55q-19 0 -19 21zM248 -214l-6 6q-1 2 -2 3.5t-1 4.5q0 2 5 7
q28 28 28 53q0 10 -13 27q-14 18 -14 31q0 19 12 30.5t31 11.5q20 0 33 -16.5t13 -37.5q0 -34 -18.5 -68t-46.5 -54q-7 -4 -12 -4t-9 6z" />
    <glyph glyph-name="L" unicode="L" horiz-adv-x="454" 
d="M76 22v646q0 21 19 21h54q11 0 15.5 -5t4.5 -16v-594h251q11 0 15 -3.5t4 -12.5v-41q0 -10 -4 -13.5t-13 -3.5h-326q-20 0 -20 22z" />
    <glyph glyph-name="Lacute" unicode="&#x139;" horiz-adv-x="454" 
d="M76 22v646q0 21 19 21h54q11 0 15.5 -5t4.5 -16v-594h251q11 0 15 -3.5t4 -12.5v-41q0 -10 -4 -13.5t-13 -3.5h-326q-20 0 -20 22zM74 764l-12 18q-4 5 -4 10q0 8 9 13l140 90q9 6 14 6q8 0 15 -10l21 -33q4 -5 4 -12q0 -9 -10 -13l-151 -75q-7 -3 -12 -3q-8 0 -14 9z
" />
    <glyph glyph-name="Lcaron" unicode="&#x13d;" horiz-adv-x="454" 
d="M311 522l-6 6q-1 2 -2 3.5t-1 4.5q0 2 5 7q28 28 28 53q0 10 -13 27q-14 18 -14 31q0 19 12 30.5t31 11.5q20 0 33 -16.5t13 -37.5q0 -34 -18.5 -68t-46.5 -54q-7 -4 -12 -4q-4 0 -9 6zM76 22v646q0 21 19 21h54q11 0 15.5 -5t4.5 -16v-594h251q11 0 15 -3.5t4 -12.5v-41
q0 -10 -4 -13.5t-13 -3.5h-326q-20 0 -20 22z" />
    <glyph glyph-name="Lcommaaccent" unicode="&#x13b;" horiz-adv-x="454" 
d="M76 22v646q0 21 19 21h54q11 0 15.5 -5t4.5 -16v-594h251q11 0 15 -3.5t4 -12.5v-41q0 -10 -4 -13.5t-13 -3.5h-326q-20 0 -20 22zM226 -214l-6 6q-1 2 -2 3.5t-1 4.5q0 2 5 7q28 28 28 53q0 10 -13 27q-14 18 -14 31q0 19 12 30.5t31 11.5q20 0 33 -16.5t13 -37.5
q0 -34 -18.5 -68t-46.5 -54q-7 -4 -12 -4t-9 6z" />
    <glyph glyph-name="Ldot" unicode="&#x13f;" horiz-adv-x="454" 
d="M76 22v646q0 21 19 21h54q11 0 15.5 -5t4.5 -16v-594h251q11 0 15 -3.5t4 -12.5v-41q0 -10 -4 -13.5t-13 -3.5h-326q-20 0 -20 22zM298 333.5q-19 15.5 -19 39.5q0 25 18.5 40.5t41.5 15.5q22 0 40 -15.5t18 -39.5t-18.5 -40t-39.5 -16q-22 0 -41 15.5z" />
    <glyph glyph-name="Lslash" unicode="&#x141;" horiz-adv-x="454" 
d="M76 22v236l-67 -55q-6 -5 -12 -5q-4 0 -7 4t-3 10v37q0 8 3.5 13t9 9t7.5 6l69 57v334q0 21 19 21h54q11 0 15.5 -5t4.5 -16v-257l80 66q8 6 13 6q9 0 9 -16v-32q0 -11 -4.5 -17t-15.5 -15l-82 -68v-261h251q11 0 15 -3.5t4 -12.5v-41q0 -10 -4 -13.5t-13 -3.5h-326
q-20 0 -20 22z" />
    <glyph glyph-name="M" unicode="M" horiz-adv-x="838" 
d="M80 3.5q-4 3.5 -4 13.5v2l23 649q1 12 4.5 16.5t11.5 4.5h43q12 0 17 -3t9 -12l243 -545h1l224 544q4 9 8.5 12.5t13.5 3.5h46q9 0 12 -4t4 -14l27 -650v-3q0 -10 -4 -14t-14 -4h-57q-10 0 -14 5t-5 18l-17 484h-2l-193 -495q-5 -12 -18 -12h-34q-8 0 -12 2.5t-8 11.5
l-209 493h-1l-12 -489q0 -10 -4.5 -14t-15.5 -4h-49q-10 0 -14 3.5z" />
    <glyph glyph-name="N" unicode="N" horiz-adv-x="695" 
d="M81.5 5q-4.5 5 -4.5 16v647q0 21 20 21h40q9 0 14.5 -3t11.5 -12l368 -517h2v511q0 12 4.5 16.5t14.5 4.5h48q11 0 15 -4.5t4 -16.5v-647q0 -12 -4 -16.5t-13 -4.5h-46q-9 0 -16 4.5t-14 14.5l-361 506h-2v-504q0 -21 -20 -21h-46q-11 0 -15.5 5z" />
    <glyph glyph-name="Nacute" unicode="&#x143;" horiz-adv-x="695" 
d="M81.5 5q-4.5 5 -4.5 16v647q0 21 20 21h40q9 0 14.5 -3t11.5 -12l368 -517h2v511q0 12 4.5 16.5t14.5 4.5h48q11 0 15 -4.5t4 -16.5v-647q0 -12 -4 -16.5t-13 -4.5h-46q-9 0 -16 4.5t-14 14.5l-361 506h-2v-504q0 -21 -20 -21h-46q-11 0 -15.5 5zM282 764l-12 18
q-4 5 -4 10q0 8 9 13l140 90q9 6 14 6q8 0 15 -10l21 -33q4 -5 4 -12q0 -9 -10 -13l-151 -75q-7 -3 -12 -3q-8 0 -14 9z" />
    <glyph glyph-name="Ncaron" unicode="&#x147;" horiz-adv-x="695" 
d="M81.5 5q-4.5 5 -4.5 16v647q0 21 20 21h40q9 0 14.5 -3t11.5 -12l368 -517h2v511q0 12 4.5 16.5t14.5 4.5h48q11 0 15 -4.5t4 -16.5v-647q0 -12 -4 -16.5t-13 -4.5h-46q-9 0 -16 4.5t-14 14.5l-361 506h-2v-504q0 -21 -20 -21h-46q-11 0 -15.5 5zM340 757l-108 98
q-6 6 -6 11q0 3 5 10l12 13q7 7 13 7q7 0 17 -8l94 -73l102 79q7 5 12 5t11 -6l13 -13q5 -5 5 -12q0 -6 -6 -12l-111 -100q-8 -7 -19 -7h-14q-10 0 -20 8z" />
    <glyph glyph-name="Ncommaaccent" unicode="&#x145;" horiz-adv-x="695" 
d="M81.5 5q-4.5 5 -4.5 16v647q0 21 20 21h40q9 0 14.5 -3t11.5 -12l368 -517h2v511q0 12 4.5 16.5t14.5 4.5h48q11 0 15 -4.5t4 -16.5v-647q0 -12 -4 -16.5t-13 -4.5h-46q-9 0 -16 4.5t-14 14.5l-361 506h-2v-504q0 -21 -20 -21h-46q-11 0 -15.5 5zM299 -214l-6 6
q-1 2 -2 3.5t-1 4.5q0 2 5 7q28 28 28 53q0 10 -13 27q-14 18 -14 31q0 19 12 30.5t31 11.5q20 0 33 -16.5t13 -37.5q0 -34 -18.5 -68t-46.5 -54q-7 -4 -12 -4t-9 6z" />
    <glyph glyph-name="Eng" unicode="&#x14a;" horiz-adv-x="694" 
d="M413 -196q-17 2 -28 5q-7 1 -9 3.5t-2 7.5t1 8l7 41q2 13 16 10q25 -5 43 -5q53 0 70 29.5t17 85.5v26l-364 510h-2v-505q0 -20 -19 -20h-47q-11 0 -15.5 4.5t-4.5 15.5v649q0 20 19 20h37q11 0 19 -4.5t15 -15.5l364 -512h2v512q0 20 19 20h47q11 0 15.5 -4.5t4.5 -15.5
v-657q0 -67 -14 -112.5t-52.5 -71.5t-109.5 -26q-12 0 -29 2z" />
    <glyph glyph-name="Ntilde" unicode="&#xd1;" horiz-adv-x="695" 
d="M81.5 5q-4.5 5 -4.5 16v647q0 21 20 21h40q9 0 14.5 -3t11.5 -12l368 -517h2v511q0 12 4.5 16.5t14.5 4.5h48q11 0 15 -4.5t4 -16.5v-647q0 -12 -4 -16.5t-13 -4.5h-46q-9 0 -16 4.5t-14 14.5l-361 506h-2v-504q0 -21 -20 -21h-46q-11 0 -15.5 5zM392 783q-12 5 -30 16
q-16 9 -27.5 14t-22.5 5q-22 0 -65 -24q-10 -6 -16 -6q-8 0 -12 10l-9 23q-4 10 -4 11q0 7 14 16q21 14 45.5 23t45.5 9q15 0 30 -5.5t35 -16.5q12 -6 24.5 -11t21.5 -5q18 0 62 27q9 5 15 5q8 0 14 -9l11 -17q5 -8 5 -12q0 -8 -8 -14q-57 -44 -104 -44q-13 0 -25 5z" />
    <glyph glyph-name="O" unicode="O" horiz-adv-x="676" 
d="M185 32.5q-64 42.5 -97.5 121.5t-33.5 188q0 107 37 188.5t103.5 126t152.5 44.5q90 0 154.5 -44t97.5 -123.5t33 -184.5q0 -111 -38 -192t-105 -124t-151 -43q-89 0 -153 42.5zM441.5 100q43.5 34 67.5 97.5t24 148.5q0 133 -48.5 205.5t-139.5 72.5q-57 0 -100.5 -35.5
t-68 -98.5t-24.5 -145q0 -131 50 -205t140 -74q56 0 99.5 34z" />
    <glyph glyph-name="Oacute" unicode="&#xd3;" horiz-adv-x="676" 
d="M185 32.5q-64 42.5 -97.5 121.5t-33.5 188q0 107 37 188.5t103.5 126t152.5 44.5q90 0 154.5 -44t97.5 -123.5t33 -184.5q0 -111 -38 -192t-105 -124t-151 -43q-89 0 -153 42.5zM441.5 100q43.5 34 67.5 97.5t24 148.5q0 133 -48.5 205.5t-139.5 72.5q-57 0 -100.5 -35.5
t-68 -98.5t-24.5 -145q0 -131 50 -205t140 -74q56 0 99.5 34zM252 764l-12 18q-4 5 -4 10q0 8 9 13l140 90q9 6 14 6q8 0 15 -10l21 -33q4 -5 4 -12q0 -9 -10 -13l-151 -75q-7 -3 -12 -3q-8 0 -14 9z" />
    <glyph glyph-name="Obreve" unicode="&#x14e;" horiz-adv-x="676" 
d="M185 32.5q-64 42.5 -97.5 121.5t-33.5 188q0 107 37 188.5t103.5 126t152.5 44.5q90 0 154.5 -44t97.5 -123.5t33 -184.5q0 -111 -38 -192t-105 -124t-151 -43q-89 0 -153 42.5zM441.5 100q43.5 34 67.5 97.5t24 148.5q0 133 -48.5 205.5t-139.5 72.5q-57 0 -100.5 -35.5
t-68 -98.5t-24.5 -145q0 -131 50 -205t140 -74q56 0 99.5 34zM266 782q-22 13 -37 32.5t-19 43.5q-1 3 -1 10q0 8 3.5 10.5t12.5 2.5h25q10 0 14 -3t9 -12q9 -19 27 -31.5t38 -12.5t38 12.5t27 31.5q5 9 9 12t14 3h25q9 0 12.5 -2.5t3.5 -10.5q0 -7 -1 -10q-4 -24 -19 -43.5
t-37 -32.5q-33 -18 -72 -18t-72 18z" />
    <glyph glyph-name="Ocircumflex" unicode="&#xd4;" horiz-adv-x="676" 
d="M185 32.5q-64 42.5 -97.5 121.5t-33.5 188q0 107 37 188.5t103.5 126t152.5 44.5q90 0 154.5 -44t97.5 -123.5t33 -184.5q0 -111 -38 -192t-105 -124t-151 -43q-89 0 -153 42.5zM441.5 100q43.5 34 67.5 97.5t24 148.5q0 133 -48.5 205.5t-139.5 72.5q-57 0 -100.5 -35.5
t-68 -98.5t-24.5 -145q0 -131 50 -205t140 -74q56 0 99.5 34zM439 756l-102 79l-94 -73q-10 -8 -17 -8q-6 0 -13 7l-12 13q-5 7 -5 10q0 5 6 11l108 98q10 8 20 8h14q11 0 19 -7l111 -100q6 -6 6 -12q0 -7 -5 -12l-13 -13q-6 -6 -11 -6t-12 5z" />
    <glyph glyph-name="Odieresis" unicode="&#xd6;" horiz-adv-x="676" 
d="M185 32.5q-64 42.5 -97.5 121.5t-33.5 188q0 107 37 188.5t103.5 126t152.5 44.5q90 0 154.5 -44t97.5 -123.5t33 -184.5q0 -111 -38 -192t-105 -124t-151 -43q-89 0 -153 42.5zM441.5 100q43.5 34 67.5 97.5t24 148.5q0 133 -48.5 205.5t-139.5 72.5q-57 0 -100.5 -35.5
t-68 -98.5t-24.5 -145q0 -131 50 -205t140 -74q56 0 99.5 34zM214 787q-16 13 -16 35q0 23 15.5 36t36.5 13t36 -13.5t15 -35.5t-15.5 -35t-35.5 -13t-36 13zM390.5 787q-16.5 13 -16.5 35q0 23 16 36t37 13t35.5 -13.5t14.5 -35.5t-15 -35t-35 -13t-36.5 13z" />
    <glyph glyph-name="Ograve" unicode="&#xd2;" horiz-adv-x="676" 
d="M185 32.5q-64 42.5 -97.5 121.5t-33.5 188q0 107 37 188.5t103.5 126t152.5 44.5q90 0 154.5 -44t97.5 -123.5t33 -184.5q0 -111 -38 -192t-105 -124t-151 -43q-89 0 -153 42.5zM441.5 100q43.5 34 67.5 97.5t24 148.5q0 133 -48.5 205.5t-139.5 72.5q-57 0 -100.5 -35.5
t-68 -98.5t-24.5 -145q0 -131 50 -205t140 -74q56 0 99.5 34zM397 761l-151 75q-10 4 -10 13q0 7 4 12l21 33q7 10 15 10q5 0 14 -6l140 -90q9 -5 9 -13q0 -5 -4 -10l-12 -18q-6 -9 -14 -9q-5 0 -12 3z" />
    <glyph glyph-name="Ohungarumlaut" unicode="&#x150;" horiz-adv-x="676" 
d="M185 32.5q-64 42.5 -97.5 121.5t-33.5 188q0 107 37 188.5t103.5 126t152.5 44.5q90 0 154.5 -44t97.5 -123.5t33 -184.5q0 -111 -38 -192t-105 -124t-151 -43q-89 0 -153 42.5zM441.5 100q43.5 34 67.5 97.5t24 148.5q0 133 -48.5 205.5t-139.5 72.5q-57 0 -100.5 -35.5
t-68 -98.5t-24.5 -145q0 -131 50 -205t140 -74q56 0 99.5 34zM170 766l-10 15q-4 5 -4 10q0 8 9 13l140 91q7 5 13 5q8 0 15 -10l20 -30q4 -5 4 -12q0 -9 -10 -13l-151 -74q-10 -4 -12 -4q-8 0 -14 9zM393 766l-10 15q-4 5 -4 10q0 8 9 13l140 91q7 5 13 5q8 0 15 -10
l20 -30q4 -5 4 -12q0 -9 -10 -13l-152 -74q-10 -4 -11 -4q-8 0 -14 9z" />
    <glyph glyph-name="Omacron" unicode="&#x14c;" horiz-adv-x="676" 
d="M185 32.5q-64 42.5 -97.5 121.5t-33.5 188q0 107 37 188.5t103.5 126t152.5 44.5q90 0 154.5 -44t97.5 -123.5t33 -184.5q0 -111 -38 -192t-105 -124t-151 -43q-89 0 -153 42.5zM441.5 100q43.5 34 67.5 97.5t24 148.5q0 133 -48.5 205.5t-139.5 72.5q-57 0 -100.5 -35.5
t-68 -98.5t-24.5 -145q0 -131 50 -205t140 -74q56 0 99.5 34zM210.5 793.5q-5.5 5.5 -5.5 18.5v17q0 12 5 17t21 5h210q18 0 23.5 -4.5t5.5 -17.5v-17q0 -13 -6 -18.5t-23 -5.5h-210q-15 0 -20.5 5.5z" />
    <glyph glyph-name="Oslash" unicode="&#xd8;" horiz-adv-x="680" 
d="M110 -37l-21 13q-12 7 -12 14q0 5 4 10l52 79q-39 45 -59.5 112t-20.5 151q0 107 37 188t104 125.5t153 44.5q94 0 160 -49l45 67q1 2 5 7t6 7t5 2q5 0 8 -2l25 -17q12 -8 12 -14q0 -4 -3 -9l-56 -86q77 -94 77 -257q0 -111 -38 -192t-104.5 -124t-150.5 -43
q-93 0 -158 45l-40 -61q-11 -17 -18 -17q-2 0 -12 6zM460 580q-47 47 -116 47q-57 0 -100.5 -36t-67.5 -100t-24 -146q0 -113 39 -181zM440.5 98q43.5 35 68 99t24.5 149q0 108 -35 178l-270 -418q46 -43 113 -43q56 0 99.5 35z" />
    <glyph glyph-name="Oslashacute" unicode="&#x1fe;" horiz-adv-x="680" 
d="M110 -37l-21 13q-12 7 -12 14q0 5 4 10l52 79q-39 45 -59.5 112t-20.5 151q0 107 37 188t104 125.5t153 44.5q94 0 160 -49l45 67q1 2 5 7t6 7t5 2q5 0 8 -2l25 -17q12 -8 12 -14q0 -4 -3 -9l-56 -86q77 -94 77 -257q0 -111 -38 -192t-104.5 -124t-150.5 -43
q-93 0 -158 45l-40 -61q-11 -17 -18 -17q-2 0 -12 6zM460 580q-47 47 -116 47q-57 0 -100.5 -36t-67.5 -100t-24 -146q0 -113 39 -181zM440.5 98q43.5 35 68 99t24.5 149q0 108 -35 178l-270 -418q46 -43 113 -43q56 0 99.5 35zM266 764l-12 18q-4 5 -4 10q0 8 9 13l140 90
q9 6 14 6q8 0 15 -10l21 -33q4 -5 4 -12q0 -9 -10 -13l-151 -75q-7 -3 -12 -3q-8 0 -14 9z" />
    <glyph glyph-name="Otilde" unicode="&#xd5;" horiz-adv-x="676" 
d="M185 32.5q-64 42.5 -97.5 121.5t-33.5 188q0 107 37 188.5t103.5 126t152.5 44.5q90 0 154.5 -44t97.5 -123.5t33 -184.5q0 -111 -38 -192t-105 -124t-151 -43q-89 0 -153 42.5zM441.5 100q43.5 34 67.5 97.5t24 148.5q0 133 -48.5 205.5t-139.5 72.5q-57 0 -100.5 -35.5
t-68 -98.5t-24.5 -145q0 -131 50 -205t140 -74q56 0 99.5 34zM362 783q-12 5 -30 16q-16 9 -27.5 14t-22.5 5q-22 0 -65 -24q-10 -6 -16 -6q-8 0 -12 10l-9 23q-4 10 -4 11q0 7 14 16q21 14 45.5 23t45.5 9q15 0 30 -5.5t35 -16.5q12 -6 24.5 -11t21.5 -5q18 0 62 27
q9 5 15 5q8 0 14 -9l11 -17q5 -8 5 -12q0 -8 -8 -14q-57 -44 -104 -44q-13 0 -25 5z" />
    <glyph glyph-name="OE" unicode="&#x152;" horiz-adv-x="937" 
d="M123.5 83q-72.5 93 -72.5 259q0 108 37 189.5t103.5 125.5t153.5 44q50 0 92 -16t67 -45l2 35q1 14 17 14h350q17 0 17 -15v-3l-4 -38q-1 -10 -7 -13t-20 -3h-264v-220h236q20 0 20 -18v-36q0 -10 -4 -14t-15 -4h-237v-252h277q11 0 15.5 -4t4.5 -13v-38q0 -9 -4 -13.5
t-15 -4.5h-348q-10 0 -14 3t-5 12l-3 38q-32 -30 -78.5 -46.5t-95.5 -16.5q-133 0 -205.5 93zM428.5 84.5q45.5 18.5 74.5 49.5v429q-19 25 -64 43.5t-92 18.5q-39 0 -73 -16.5t-59 -46.5q-31 -37 -48 -93t-17 -124q0 -130 49 -204.5t138 -74.5q46 0 91.5 18.5z" />
    <glyph glyph-name="P" unicode="P" horiz-adv-x="519" 
d="M76 21v647q0 21 19 21h131q154 0 218 -76q44 -52 44 -134q0 -72 -33.5 -121t-90.5 -73.5t-128 -24.5q-47 0 -67 1v-241q0 -20 -20 -20h-54q-19 0 -19 21zM351.5 367q42.5 36 42.5 110q0 77 -45 109t-125 32h-55v-286q18 -1 64 -1q76 0 118.5 36z" />
    <glyph glyph-name="Thorn" unicode="&#xde;" horiz-adv-x="532" 
d="M60 21v647q0 12 3 16t15 5l49 6q16 0 16 -19v-155q24 26 64 42.5t82 16.5q92 0 147.5 -57t55.5 -168q0 -102 -56.5 -165.5t-156.5 -63.5q-40 0 -75.5 13.5t-58.5 38.5v-158q0 -20 -22 -20h-44q-19 0 -19 21zM370 233.5q34 40.5 34 119.5q0 80 -35 119.5t-96 39.5
q-37 0 -73 -17.5t-55 -43.5v-192q17 -28 52 -47t71 -19q68 0 102 40.5z" />
    <glyph glyph-name="Q" unicode="Q" horiz-adv-x="670" 
d="M541 -96q-30 16 -66 42t-56 36t-51 10l-44 -1q-92 0 -154 48t-91.5 127.5t-29.5 174.5t33 177t99.5 132.5t161.5 50.5q97 0 161 -49t94 -129t30 -175q0 -105 -38.5 -191.5t-117.5 -130.5q20 -8 56 -28q32 -18 50 -26q30 -14 61 -24q15 -5 11 -18l-12 -40q-4 -13 -18 -13
q-5 0 -11 2q-38 9 -68 25zM445.5 105.5q43.5 40.5 63.5 104.5t20 135q0 118 -44.5 198.5t-144.5 80.5q-64 0 -107.5 -41t-64 -105t-20.5 -133q0 -118 45 -199t144 -81q65 0 108.5 40.5z" />
    <glyph glyph-name="R" unicode="R" horiz-adv-x="555" 
d="M76 21v646q0 12 4.5 17t15.5 5h144q152 0 211 -72q41 -50 41 -130q0 -69 -39 -119.5t-101 -71.5l1 -2l163 -273q3 -4 3 -10q0 -11 -13 -11h-60q-21 0 -31 18l-150 262h-96v-259q0 -21 -19 -21h-55q-19 0 -19 21zM246 350q68 0 110 35.5t42 100.5q0 71 -42 101.5
t-123 30.5h-64v-268h77z" />
    <glyph glyph-name="Racute" unicode="&#x154;" horiz-adv-x="555" 
d="M76 21v646q0 12 4.5 17t15.5 5h144q152 0 211 -72q41 -50 41 -130q0 -69 -39 -119.5t-101 -71.5l1 -2l163 -273q3 -4 3 -10q0 -11 -13 -11h-60q-21 0 -31 18l-150 262h-96v-259q0 -21 -19 -21h-55q-19 0 -19 21zM246 350q68 0 110 35.5t42 100.5q0 71 -42 101.5
t-123 30.5h-64v-268h77zM195 764l-12 18q-4 5 -4 10q0 8 9 13l140 90q9 6 14 6q8 0 15 -10l21 -33q4 -5 4 -12q0 -9 -10 -13l-151 -75q-7 -3 -12 -3q-8 0 -14 9z" />
    <glyph glyph-name="Rcaron" unicode="&#x158;" horiz-adv-x="555" 
d="M76 21v646q0 12 4.5 17t15.5 5h144q152 0 211 -72q41 -50 41 -130q0 -69 -39 -119.5t-101 -71.5l1 -2l163 -273q3 -4 3 -10q0 -11 -13 -11h-60q-21 0 -31 18l-150 262h-96v-259q0 -21 -19 -21h-55q-19 0 -19 21zM246 350q68 0 110 35.5t42 100.5q0 71 -42 101.5
t-123 30.5h-64v-268h77zM253 757l-108 98q-6 6 -6 11q0 3 5 10l12 13q7 7 13 7q7 0 17 -8l94 -73l102 79q7 5 12 5t11 -6l13 -13q5 -5 5 -12q0 -6 -6 -12l-111 -100q-8 -7 -19 -7h-14q-10 0 -20 8z" />
    <glyph glyph-name="Rcommaaccent" unicode="&#x156;" horiz-adv-x="555" 
d="M76 21v646q0 12 4.5 17t15.5 5h144q152 0 211 -72q41 -50 41 -130q0 -69 -39 -119.5t-101 -71.5l1 -2l163 -273q3 -4 3 -10q0 -11 -13 -11h-60q-21 0 -31 18l-150 262h-96v-259q0 -21 -19 -21h-55q-19 0 -19 21zM246 350q68 0 110 35.5t42 100.5q0 71 -42 101.5
t-123 30.5h-64v-268h77zM239 -214l-6 6q-1 2 -2 3.5t-1 4.5q0 2 5 7q28 28 28 53q0 10 -13 27q-14 18 -14 31q0 19 12 30.5t31 11.5q20 0 33 -16.5t13 -37.5q0 -34 -18.5 -68t-46.5 -54q-7 -4 -12 -4t-9 6z" />
    <glyph glyph-name="S" unicode="S" horiz-adv-x="508" 
d="M67 18q-18 6 -13 25l13 45q4 13 15 13q5 0 11 -3q77 -29 142 -29q57 0 98.5 28t41.5 83q0 39 -23 65.5t-65 48.5l-127 68q-52 28 -81 69t-29 93q0 55 30 95t79 61t103 21q45 0 83 -7t76 -23q16 -6 16 -17q0 -3 -2 -9l-15 -41q-4 -11 -14 -11q-6 0 -12 3q-68 29 -127 29
q-48 0 -84.5 -23.5t-36.5 -69.5q0 -36 20.5 -60t57.5 -43l107 -57q66 -36 101 -78t35 -107q0 -63 -31.5 -107.5t-84.5 -67t-116 -22.5q-82 0 -168 28z" />
    <glyph glyph-name="Sacute" unicode="&#x15a;" horiz-adv-x="508" 
d="M67 18q-18 6 -13 25l13 45q4 13 15 13q5 0 11 -3q77 -29 142 -29q57 0 98.5 28t41.5 83q0 39 -23 65.5t-65 48.5l-127 68q-52 28 -81 69t-29 93q0 55 30 95t79 61t103 21q45 0 83 -7t76 -23q16 -6 16 -17q0 -3 -2 -9l-15 -41q-4 -11 -14 -11q-6 0 -12 3q-68 29 -127 29
q-48 0 -84.5 -23.5t-36.5 -69.5q0 -36 20.5 -60t57.5 -43l107 -57q66 -36 101 -78t35 -107q0 -63 -31.5 -107.5t-84.5 -67t-116 -22.5q-82 0 -168 28zM176 764l-12 18q-4 5 -4 10q0 8 9 13l140 90q9 6 14 6q8 0 15 -10l21 -33q4 -5 4 -12q0 -9 -10 -13l-151 -75
q-7 -3 -12 -3q-8 0 -14 9z" />
    <glyph glyph-name="Scaron" unicode="&#x160;" horiz-adv-x="508" 
d="M67 18q-18 6 -13 25l13 45q4 13 15 13q5 0 11 -3q77 -29 142 -29q57 0 98.5 28t41.5 83q0 39 -23 65.5t-65 48.5l-127 68q-52 28 -81 69t-29 93q0 55 30 95t79 61t103 21q45 0 83 -7t76 -23q16 -6 16 -17q0 -3 -2 -9l-15 -41q-4 -11 -14 -11q-6 0 -12 3q-68 29 -127 29
q-48 0 -84.5 -23.5t-36.5 -69.5q0 -36 20.5 -60t57.5 -43l107 -57q66 -36 101 -78t35 -107q0 -63 -31.5 -107.5t-84.5 -67t-116 -22.5q-82 0 -168 28zM234 757l-108 98q-6 6 -6 11q0 3 5 10l12 13q7 7 13 7q7 0 17 -8l94 -73l102 79q7 5 12 5t11 -6l13 -13q5 -5 5 -12
q0 -6 -6 -12l-111 -100q-8 -7 -19 -7h-14q-10 0 -20 8z" />
    <glyph glyph-name="Scedilla" unicode="&#x15e;" horiz-adv-x="508" 
d="M437 82q-30 -44 -80.5 -67t-111.5 -25l-2 -38h8q40 0 66 -18t26 -56q0 -35 -26 -57t-74 -22q-33 0 -65 12q-14 6 -14 13q0 3 1 5l5 16q3 9 9 9q4 0 10 -3q24 -9 52 -9q18 0 30.5 9t12.5 27q0 33 -52 33h-18q-14 0 -19.5 6t-5.5 17q0 10 1 15l5 43q-64 5 -128 26
q-18 6 -13 25l13 45q4 13 15 13q5 0 11 -3q77 -29 142 -29q57 0 98.5 28t41.5 83q0 39 -23 65.5t-65 48.5l-127 68q-52 28 -81 69t-29 93q0 55 30 95t79 61t103 21q45 0 83 -7t76 -23q16 -6 16 -17q0 -3 -2 -9l-15 -41q-4 -11 -14 -11q-6 0 -12 3q-68 29 -127 29
q-48 0 -84.5 -23.5t-36.5 -69.5q0 -36 20.5 -60t57.5 -43l107 -57q66 -36 101 -78t35 -107q0 -61 -30 -105z" />
    <glyph glyph-name="Scircumflex" unicode="&#x15c;" horiz-adv-x="508" 
d="M67 18q-18 6 -13 25l13 45q4 13 15 13q5 0 11 -3q77 -29 142 -29q57 0 98.5 28t41.5 83q0 39 -23 65.5t-65 48.5l-127 68q-52 28 -81 69t-29 93q0 55 30 95t79 61t103 21q45 0 83 -7t76 -23q16 -6 16 -17q0 -3 -2 -9l-15 -41q-4 -11 -14 -11q-6 0 -12 3q-68 29 -127 29
q-48 0 -84.5 -23.5t-36.5 -69.5q0 -36 20.5 -60t57.5 -43l107 -57q66 -36 101 -78t35 -107q0 -63 -31.5 -107.5t-84.5 -67t-116 -22.5q-82 0 -168 28zM363 756l-102 79l-94 -73q-10 -8 -17 -8q-6 0 -13 7l-12 13q-5 7 -5 10q0 5 6 11l108 98q10 8 20 8h14q11 0 19 -7
l111 -100q6 -6 6 -12q0 -7 -5 -12l-13 -13q-6 -6 -11 -6t-12 5z" />
    <glyph glyph-name="Scommaaccent" unicode="&#x218;" horiz-adv-x="508" 
d="M67 18q-18 6 -13 25l13 45q4 13 15 13q5 0 11 -3q77 -29 142 -29q57 0 98.5 28t41.5 83q0 39 -23 65.5t-65 48.5l-127 68q-52 28 -81 69t-29 93q0 55 30 95t79 61t103 21q45 0 83 -7t76 -23q16 -6 16 -17q0 -3 -2 -9l-15 -41q-4 -11 -14 -11q-6 0 -12 3q-68 29 -127 29
q-48 0 -84.5 -23.5t-36.5 -69.5q0 -36 20.5 -60t57.5 -43l107 -57q66 -36 101 -78t35 -107q0 -63 -31.5 -107.5t-84.5 -67t-116 -22.5q-82 0 -168 28zM215 -214l-6 6q-1 2 -2 3.5t-1 4.5q0 2 5 7q28 28 28 53q0 10 -13 27q-14 18 -14 31q0 19 12 30.5t31 11.5q20 0 33 -16.5
t13 -37.5q0 -34 -18.5 -68t-46.5 -54q-7 -4 -12 -4t-9 6z" />
    <glyph glyph-name="T" unicode="T" 
d="M230 4.5q-4 4.5 -4 15.5v596h-193q-9 0 -12.5 3.5t-3.5 12.5v42q0 9 3.5 12t11.5 3h489q18 0 16 -16l-6 -41q-1 -10 -7 -13t-18 -3h-187v-596q0 -11 -4 -15.5t-14 -4.5h-57q-10 0 -14 4.5z" />
    <glyph glyph-name="Tbar" unicode="&#x166;" 
d="M230 4.5q-4 4.5 -4 15.5v300h-94q-13 0 -17.5 4.5t-4.5 14.5v37q0 10 4.5 14t15.5 4h96v222h-193q-9 0 -12.5 3.5t-3.5 12.5v42q0 9 3.5 12t11.5 3h489q18 0 16 -16l-6 -41q-1 -10 -7 -13t-18 -3h-187v-222h96q13 0 17.5 -4t4.5 -16v-32q0 -12 -4 -17t-16 -5h-98v-300
q0 -11 -4 -15.5t-14 -4.5h-57q-10 0 -14 4.5z" />
    <glyph glyph-name="Tcaron" unicode="&#x164;" 
d="M230 4.5q-4 4.5 -4 15.5v596h-193q-9 0 -12.5 3.5t-3.5 12.5v42q0 9 3.5 12t11.5 3h489q18 0 16 -16l-6 -41q-1 -10 -7 -13t-18 -3h-187v-596q0 -11 -4 -15.5t-14 -4.5h-57q-10 0 -14 4.5zM242 757l-108 98q-6 6 -6 11q0 3 5 10l12 13q7 7 13 7q7 0 17 -8l94 -73l102 79
q7 5 12 5t11 -6l13 -13q5 -5 5 -12q0 -6 -6 -12l-111 -100q-8 -7 -19 -7h-14q-10 0 -20 8z" />
    <glyph glyph-name="uni0162" unicode="&#x162;" 
d="M230 4.5q-4 4.5 -4 15.5v596h-193q-9 0 -12.5 3.5t-3.5 12.5v42q0 9 3.5 12t11.5 3h489q18 0 16 -16l-6 -41q-1 -10 -7 -13t-18 -3h-187v-596q0 -11 -4 -15.5t-14 -4.5h-57q-10 0 -14 4.5zM236 -214l-6 6q-1 2 -2 3.5t-1 4.5q0 2 5 7q28 28 28 53q0 10 -13 27
q-14 18 -14 31q0 19 12 30.5t31 11.5q20 0 33 -16.5t13 -37.5q0 -34 -18.5 -68t-46.5 -54q-7 -4 -12 -4t-9 6z" />
    <glyph glyph-name="uni021A" unicode="&#x21a;" 
d="M230 4.5q-4 4.5 -4 15.5v596h-193q-9 0 -12.5 3.5t-3.5 12.5v42q0 9 3.5 12t11.5 3h489q18 0 16 -16l-6 -41q-1 -10 -7 -13t-18 -3h-187v-596q0 -11 -4 -15.5t-14 -4.5h-57q-10 0 -14 4.5zM236 -214l-6 6q-1 2 -2 3.5t-1 4.5q0 2 5 7q28 28 28 53q0 10 -13 27
q-14 18 -14 31q0 19 12 30.5t31 11.5q20 0 33 -16.5t13 -37.5q0 -34 -18.5 -68t-46.5 -54q-7 -4 -12 -4t-9 6z" />
    <glyph glyph-name="U" unicode="U" horiz-adv-x="697" 
d="M184.5 27.5q-60.5 37.5 -85 106.5t-24.5 173v362q0 20 19 20h55q19 0 19 -20v-353q0 -79 12.5 -131.5t52.5 -84.5t118 -32q75 0 114.5 33.5t52.5 86.5t13 129v352q0 20 20 20h54q19 0 19 -20v-368q0 -145 -66 -228t-208 -83q-105 0 -165.5 37.5z" />
    <glyph glyph-name="Uacute" unicode="&#xda;" horiz-adv-x="697" 
d="M184.5 27.5q-60.5 37.5 -85 106.5t-24.5 173v362q0 20 19 20h55q19 0 19 -20v-353q0 -79 12.5 -131.5t52.5 -84.5t118 -32q75 0 114.5 33.5t52.5 86.5t13 129v352q0 20 20 20h54q19 0 19 -20v-368q0 -145 -66 -228t-208 -83q-105 0 -165.5 37.5zM263 764l-12 18
q-4 5 -4 10q0 8 9 13l140 90q9 6 14 6q8 0 15 -10l21 -33q4 -5 4 -12q0 -9 -10 -13l-151 -75q-7 -3 -12 -3q-8 0 -14 9z" />
    <glyph glyph-name="Ubreve" unicode="&#x16c;" horiz-adv-x="697" 
d="M184.5 27.5q-60.5 37.5 -85 106.5t-24.5 173v362q0 20 19 20h55q19 0 19 -20v-353q0 -79 12.5 -131.5t52.5 -84.5t118 -32q75 0 114.5 33.5t52.5 86.5t13 129v352q0 20 20 20h54q19 0 19 -20v-368q0 -145 -66 -228t-208 -83q-105 0 -165.5 37.5zM277 782q-22 13 -37 32.5
t-19 43.5q-1 3 -1 10q0 8 3.5 10.5t12.5 2.5h25q10 0 14 -3t9 -12q9 -19 27 -31.5t38 -12.5t38 12.5t27 31.5q5 9 9 12t14 3h25q9 0 12.5 -2.5t3.5 -10.5q0 -7 -1 -10q-4 -24 -19 -43.5t-37 -32.5q-33 -18 -72 -18t-72 18z" />
    <glyph glyph-name="Ucircumflex" unicode="&#xdb;" horiz-adv-x="697" 
d="M184.5 27.5q-60.5 37.5 -85 106.5t-24.5 173v362q0 20 19 20h55q19 0 19 -20v-353q0 -79 12.5 -131.5t52.5 -84.5t118 -32q75 0 114.5 33.5t52.5 86.5t13 129v352q0 20 20 20h54q19 0 19 -20v-368q0 -145 -66 -228t-208 -83q-105 0 -165.5 37.5zM450 756l-102 79l-94 -73
q-10 -8 -17 -8q-6 0 -13 7l-12 13q-5 7 -5 10q0 5 6 11l108 98q10 8 20 8h14q11 0 19 -7l111 -100q6 -6 6 -12q0 -7 -5 -12l-13 -13q-6 -6 -11 -6t-12 5z" />
    <glyph glyph-name="Udieresis" unicode="&#xdc;" horiz-adv-x="697" 
d="M184.5 27.5q-60.5 37.5 -85 106.5t-24.5 173v362q0 20 19 20h55q19 0 19 -20v-353q0 -79 12.5 -131.5t52.5 -84.5t118 -32q75 0 114.5 33.5t52.5 86.5t13 129v352q0 20 20 20h54q19 0 19 -20v-368q0 -145 -66 -228t-208 -83q-105 0 -165.5 37.5zM225 787q-16 13 -16 35
q0 23 15.5 36t36.5 13t36 -13.5t15 -35.5t-15.5 -35t-35.5 -13t-36 13zM401.5 787q-16.5 13 -16.5 35q0 23 16 36t37 13t35.5 -13.5t14.5 -35.5t-15 -35t-35 -13t-36.5 13z" />
    <glyph glyph-name="Ugrave" unicode="&#xd9;" horiz-adv-x="697" 
d="M184.5 27.5q-60.5 37.5 -85 106.5t-24.5 173v362q0 20 19 20h55q19 0 19 -20v-353q0 -79 12.5 -131.5t52.5 -84.5t118 -32q75 0 114.5 33.5t52.5 86.5t13 129v352q0 20 20 20h54q19 0 19 -20v-368q0 -145 -66 -228t-208 -83q-105 0 -165.5 37.5zM408 761l-151 75
q-10 4 -10 13q0 7 4 12l21 33q7 10 15 10q5 0 14 -6l140 -90q9 -5 9 -13q0 -5 -4 -10l-12 -18q-6 -9 -14 -9q-5 0 -12 3z" />
    <glyph glyph-name="Uhungarumlaut" unicode="&#x170;" horiz-adv-x="697" 
d="M184.5 27.5q-60.5 37.5 -85 106.5t-24.5 173v362q0 20 19 20h55q19 0 19 -20v-353q0 -79 12.5 -131.5t52.5 -84.5t118 -32q75 0 114.5 33.5t52.5 86.5t13 129v352q0 20 20 20h54q19 0 19 -20v-368q0 -145 -66 -228t-208 -83q-105 0 -165.5 37.5zM181 766l-10 15
q-4 5 -4 10q0 8 9 13l140 91q7 5 13 5q8 0 15 -10l20 -30q4 -5 4 -12q0 -9 -10 -13l-151 -74q-10 -4 -12 -4q-8 0 -14 9zM404 766l-10 15q-4 5 -4 10q0 8 9 13l140 91q7 5 13 5q8 0 15 -10l20 -30q4 -5 4 -12q0 -9 -10 -13l-152 -74q-10 -4 -11 -4q-8 0 -14 9z" />
    <glyph glyph-name="Umacron" unicode="&#x16a;" horiz-adv-x="697" 
d="M184.5 27.5q-60.5 37.5 -85 106.5t-24.5 173v362q0 20 19 20h55q19 0 19 -20v-353q0 -79 12.5 -131.5t52.5 -84.5t118 -32q75 0 114.5 33.5t52.5 86.5t13 129v352q0 20 20 20h54q19 0 19 -20v-368q0 -145 -66 -228t-208 -83q-105 0 -165.5 37.5zM221.5 793.5
q-5.5 5.5 -5.5 18.5v17q0 12 5 17t21 5h210q18 0 23.5 -4.5t5.5 -17.5v-17q0 -13 -6 -18.5t-23 -5.5h-210q-15 0 -20.5 5.5z" />
    <glyph glyph-name="Uogonek" unicode="&#x172;" horiz-adv-x="697" 
d="M277.5 -179.5q-26.5 21.5 -26.5 55.5q0 41 29 73q20 23 53 41q-98 3 -155 41.5t-80 106.5t-23 169v362q0 20 19 20h55q19 0 19 -20v-353q0 -79 12.5 -131.5t52.5 -84.5t118 -32q75 0 114.5 33.5t52.5 86.5t13 129v352q0 20 20 20h54q19 0 19 -20v-368q0 -132 -54 -212.5
t-169 -94.5q-44 -33 -62.5 -56t-18.5 -47q0 -41 52 -41q10 0 26.5 2.5t27.5 6.5l4 1q8 0 9 -7l5 -18q1 -2 1 -6q0 -11 -12 -15q-16 -6 -39 -10.5t-42 -4.5q-48 0 -74.5 21.5z" />
    <glyph glyph-name="Uring" unicode="&#x16e;" horiz-adv-x="697" 
d="M184.5 27.5q-60.5 37.5 -85 106.5t-24.5 173v362q0 20 19 20h55q19 0 19 -20v-353q0 -79 12.5 -131.5t52.5 -84.5t118 -32q75 0 114.5 33.5t52.5 86.5t13 129v352q0 20 20 20h54q19 0 19 -20v-368q0 -145 -66 -228t-208 -83q-105 0 -165.5 37.5zM292 764.5
q-24 23.5 -24 56.5t24 56.5t57 23.5t56.5 -23.5t23.5 -56.5t-23.5 -56.5t-56.5 -23.5t-57 23.5zM370.5 799.5q8.5 8.5 8.5 21.5t-8.5 21.5t-21.5 8.5t-22 -8.5t-9 -21.5t9 -21.5t22 -8.5t21.5 8.5z" />
    <glyph glyph-name="Utilde" unicode="&#x168;" horiz-adv-x="697" 
d="M184.5 27.5q-60.5 37.5 -85 106.5t-24.5 173v362q0 20 19 20h55q19 0 19 -20v-353q0 -79 12.5 -131.5t52.5 -84.5t118 -32q75 0 114.5 33.5t52.5 86.5t13 129v352q0 20 20 20h54q19 0 19 -20v-368q0 -145 -66 -228t-208 -83q-105 0 -165.5 37.5zM373 783q-12 5 -30 16
q-16 9 -27.5 14t-22.5 5q-22 0 -65 -24q-10 -6 -16 -6q-8 0 -12 10l-9 23q-4 10 -4 11q0 7 14 16q21 14 45.5 23t45.5 9q15 0 30 -5.5t35 -16.5q12 -6 24.5 -11t21.5 -5q18 0 62 27q9 5 15 5q8 0 14 -9l11 -17q5 -8 5 -12q0 -8 -8 -14q-57 -44 -104 -44q-13 0 -25 5z" />
    <glyph glyph-name="V" unicode="V" horiz-adv-x="610" 
d="M269 4.5q-6 4.5 -10 16.5l-238 644q-2 6 -2 10q0 14 16 14h58q14 0 20.5 -4t10.5 -15l190 -539h2l183 537q5 13 10.5 17t19.5 4h47q16 0 16 -11q0 -2 -2 -10l-231 -649q-7 -19 -26 -19h-47q-11 0 -17 4.5z" />
    <glyph glyph-name="W" unicode="W" horiz-adv-x="894" 
d="M219.5 4.5q-5.5 4.5 -9.5 18.5l-189 641q-2 8 -2 12q0 13 15 13h62q14 0 20.5 -4.5t9.5 -16.5l140 -526h1l135 527q3 12 9 16t19 4h43q19 0 24 -19l138 -528h2l142 526q4 12 10 16.5t18 4.5h54q15 0 15 -12q0 -3 -2 -9l-192 -647q-6 -21 -26 -21h-47q-10 0 -16 5t-10 17
l-136 518h-1l-137 -518q-4 -12 -10 -17t-17 -5h-46q-11 0 -16.5 4.5z" />
    <glyph glyph-name="Wacute" unicode="&#x1e82;" horiz-adv-x="894" 
d="M219.5 4.5q-5.5 4.5 -9.5 18.5l-189 641q-2 8 -2 12q0 13 15 13h62q14 0 20.5 -4.5t9.5 -16.5l140 -526h1l135 527q3 12 9 16t19 4h43q19 0 24 -19l138 -528h2l142 526q4 12 10 16.5t18 4.5h54q15 0 15 -12q0 -3 -2 -9l-192 -647q-6 -21 -26 -21h-47q-10 0 -16 5t-10 17
l-136 518h-1l-137 -518q-4 -12 -10 -17t-17 -5h-46q-11 0 -16.5 4.5zM367 764l-12 18q-4 5 -4 10q0 8 9 13l140 90q9 6 14 6q8 0 15 -10l21 -33q4 -5 4 -12q0 -9 -10 -13l-151 -75q-7 -3 -12 -3q-8 0 -14 9z" />
    <glyph glyph-name="Wcircumflex" unicode="&#x174;" horiz-adv-x="894" 
d="M219.5 4.5q-5.5 4.5 -9.5 18.5l-189 641q-2 8 -2 12q0 13 15 13h62q14 0 20.5 -4.5t9.5 -16.5l140 -526h1l135 527q3 12 9 16t19 4h43q19 0 24 -19l138 -528h2l142 526q4 12 10 16.5t18 4.5h54q15 0 15 -12q0 -3 -2 -9l-192 -647q-6 -21 -26 -21h-47q-10 0 -16 5t-10 17
l-136 518h-1l-137 -518q-4 -12 -10 -17t-17 -5h-46q-11 0 -16.5 4.5zM554 756l-102 79l-94 -73q-10 -8 -17 -8q-6 0 -13 7l-12 13q-5 7 -5 10q0 5 6 11l108 98q10 8 20 8h14q11 0 19 -7l111 -100q6 -6 6 -12q0 -7 -5 -12l-13 -13q-6 -6 -11 -6t-12 5z" />
    <glyph glyph-name="Wdieresis" unicode="&#x1e84;" horiz-adv-x="894" 
d="M219.5 4.5q-5.5 4.5 -9.5 18.5l-189 641q-2 8 -2 12q0 13 15 13h62q14 0 20.5 -4.5t9.5 -16.5l140 -526h1l135 527q3 12 9 16t19 4h43q19 0 24 -19l138 -528h2l142 526q4 12 10 16.5t18 4.5h54q15 0 15 -12q0 -3 -2 -9l-192 -647q-6 -21 -26 -21h-47q-10 0 -16 5t-10 17
l-136 518h-1l-137 -518q-4 -12 -10 -17t-17 -5h-46q-11 0 -16.5 4.5zM329 787q-16 13 -16 35q0 23 15.5 36t36.5 13t36 -13.5t15 -35.5t-15.5 -35t-35.5 -13t-36 13zM505.5 787q-16.5 13 -16.5 35q0 23 16 36t37 13t35.5 -13.5t14.5 -35.5t-15 -35t-35 -13t-36.5 13z" />
    <glyph glyph-name="Wgrave" unicode="&#x1e80;" horiz-adv-x="894" 
d="M219.5 4.5q-5.5 4.5 -9.5 18.5l-189 641q-2 8 -2 12q0 13 15 13h62q14 0 20.5 -4.5t9.5 -16.5l140 -526h1l135 527q3 12 9 16t19 4h43q19 0 24 -19l138 -528h2l142 526q4 12 10 16.5t18 4.5h54q15 0 15 -12q0 -3 -2 -9l-192 -647q-6 -21 -26 -21h-47q-10 0 -16 5t-10 17
l-136 518h-1l-137 -518q-4 -12 -10 -17t-17 -5h-46q-11 0 -16.5 4.5zM512 761l-151 75q-10 4 -10 13q0 7 4 12l21 33q7 10 15 10q5 0 14 -6l140 -90q9 -5 9 -13q0 -5 -4 -10l-12 -18q-6 -9 -14 -9q-5 0 -12 3z" />
    <glyph glyph-name="X" unicode="X" horiz-adv-x="563" 
d="M21 11q0 7 4 12l207 334l-189 311q-3 6 -3 10q0 11 13 11h64q10 0 16.5 -3.5t11.5 -13.5l139 -236h1l138 237q5 9 11 12.5t16 3.5h62q12 0 12 -9q0 -3 -4 -11l-190 -304l210 -341q4 -7 4 -13q0 -11 -15 -11h-61q-13 0 -21 4.5t-14 15.5l-154 264h-1l-154 -263
q-7 -12 -14 -16.5t-21 -4.5h-53q-15 0 -15 11z" />
    <glyph glyph-name="Y" unicode="Y" 
d="M238 4.5q-4 4.5 -4 14.5v251l-214 399q-3 6 -3 10q0 10 15 10h56q13 0 21 -4t12 -13l164 -324h1l158 321q6 12 12 16t19 4h42q16 0 16 -10q0 -6 -4 -13l-202 -394v-254q0 -10 -4 -14t-13 -4h-59q-9 0 -13 4.5z" />
    <glyph glyph-name="Yacute" unicode="&#xdd;" 
d="M238 4.5q-4 4.5 -4 14.5v251l-214 399q-3 6 -3 10q0 10 15 10h56q13 0 21 -4t12 -13l164 -324h1l158 321q6 12 12 16t19 4h42q16 0 16 -10q0 -6 -4 -13l-202 -394v-254q0 -10 -4 -14t-13 -4h-59q-9 0 -13 4.5zM189 764l-12 18q-4 5 -4 10q0 8 9 13l140 90q9 6 14 6
q8 0 15 -10l21 -33q4 -5 4 -12q0 -9 -10 -13l-151 -75q-7 -3 -12 -3q-8 0 -14 9z" />
    <glyph glyph-name="Ycircumflex" unicode="&#x176;" 
d="M238 4.5q-4 4.5 -4 14.5v251l-214 399q-3 6 -3 10q0 10 15 10h56q13 0 21 -4t12 -13l164 -324h1l158 321q6 12 12 16t19 4h42q16 0 16 -10q0 -6 -4 -13l-202 -394v-254q0 -10 -4 -14t-13 -4h-59q-9 0 -13 4.5zM376 756l-102 79l-94 -73q-10 -8 -17 -8q-6 0 -13 7l-12 13
q-5 7 -5 10q0 5 6 11l108 98q10 8 20 8h14q11 0 19 -7l111 -100q6 -6 6 -12q0 -7 -5 -12l-13 -13q-6 -6 -11 -6t-12 5z" />
    <glyph glyph-name="Ydieresis" unicode="&#x178;" 
d="M238 4.5q-4 4.5 -4 14.5v251l-214 399q-3 6 -3 10q0 10 15 10h56q13 0 21 -4t12 -13l164 -324h1l158 321q6 12 12 16t19 4h42q16 0 16 -10q0 -6 -4 -13l-202 -394v-254q0 -10 -4 -14t-13 -4h-59q-9 0 -13 4.5zM151 787q-16 13 -16 35q0 23 15.5 36t36.5 13t36 -13.5
t15 -35.5t-15.5 -35t-35.5 -13t-36 13zM327.5 787q-16.5 13 -16.5 35q0 23 16 36t37 13t35.5 -13.5t14.5 -35.5t-15 -35t-35 -13t-36.5 13z" />
    <glyph glyph-name="Ygrave" unicode="&#x1ef2;" 
d="M238 4.5q-4 4.5 -4 14.5v251l-214 399q-3 6 -3 10q0 10 15 10h56q13 0 21 -4t12 -13l164 -324h1l158 321q6 12 12 16t19 4h42q16 0 16 -10q0 -6 -4 -13l-202 -394v-254q0 -10 -4 -14t-13 -4h-59q-9 0 -13 4.5zM334 761l-151 75q-10 4 -10 13q0 7 4 12l21 33q7 10 15 10
q5 0 14 -6l140 -90q9 -5 9 -13q0 -5 -4 -10l-12 -18q-6 -9 -14 -9q-5 0 -12 3z" />
    <glyph glyph-name="Z" unicode="Z" horiz-adv-x="541" 
d="M24 15v22q0 15 8 26l355 552v1h-310q-13 0 -17.5 3t-4.5 13v42q0 9 3.5 12t12.5 3h416q10 0 14.5 -4t4.5 -12v-17q0 -10 -1.5 -17t-6.5 -15l-356 -550v-1h355q10 0 14 -3.5t4 -12.5v-40q0 -9 -3.5 -13t-13.5 -4h-460q-14 0 -14 15z" />
    <glyph glyph-name="Zacute" unicode="&#x179;" horiz-adv-x="541" 
d="M24 15v22q0 15 8 26l355 552v1h-310q-13 0 -17.5 3t-4.5 13v42q0 9 3.5 12t12.5 3h416q10 0 14.5 -4t4.5 -12v-17q0 -10 -1.5 -17t-6.5 -15l-356 -550v-1h355q10 0 14 -3.5t4 -12.5v-40q0 -9 -3.5 -13t-13.5 -4h-460q-14 0 -14 15zM185 764l-12 18q-4 5 -4 10q0 8 9 13
l140 90q9 6 14 6q8 0 15 -10l21 -33q4 -5 4 -12q0 -9 -10 -13l-151 -75q-7 -3 -12 -3q-8 0 -14 9z" />
    <glyph glyph-name="Zcaron" unicode="&#x17d;" horiz-adv-x="541" 
d="M24 15v22q0 15 8 26l355 552v1h-310q-13 0 -17.5 3t-4.5 13v42q0 9 3.5 12t12.5 3h416q10 0 14.5 -4t4.5 -12v-17q0 -10 -1.5 -17t-6.5 -15l-356 -550v-1h355q10 0 14 -3.5t4 -12.5v-40q0 -9 -3.5 -13t-13.5 -4h-460q-14 0 -14 15zM243 757l-108 98q-6 6 -6 11q0 3 5 10
l12 13q7 7 13 7q7 0 17 -8l94 -73l102 79q7 5 12 5t11 -6l13 -13q5 -5 5 -12q0 -6 -6 -12l-111 -100q-8 -7 -19 -7h-14q-10 0 -20 8z" />
    <glyph glyph-name="Zdotaccent" unicode="&#x17b;" horiz-adv-x="541" 
d="M24 15v22q0 15 8 26l355 552v1h-310q-13 0 -17.5 3t-4.5 13v42q0 9 3.5 12t12.5 3h416q10 0 14.5 -4t4.5 -12v-17q0 -10 -1.5 -17t-6.5 -15l-356 -550v-1h355q10 0 14 -3.5t4 -12.5v-40q0 -9 -3.5 -13t-13.5 -4h-460q-14 0 -14 15zM231 802.5q-19 15.5 -19 39.5
q0 25 18.5 40.5t41.5 15.5q22 0 40 -15.5t18 -39.5t-18.5 -40t-39.5 -16q-22 0 -41 15.5z" />
    <glyph glyph-name="a" unicode="a" horiz-adv-x="538" 
d="M124 23.5q-45 33.5 -66.5 88.5t-21.5 121q0 81 29 140t77.5 90t106.5 31q39 0 75.5 -16t58.5 -45l1 33q0 17 19 17h45q18 0 18 -19v-350q0 -37 5 -45q5 -9 17 -9h7q7 0 10.5 -2.5t3.5 -10.5v-34q0 -13 -15 -13h-42q-31 0 -48 21t-17 53h-2q-18 -34 -61.5 -59t-88.5 -25
q-66 0 -111 33.5zM329.5 91q36.5 30 51.5 71v192q-18 33 -51 52.5t-70 19.5q-59 0 -97 -50t-38 -137q0 -81 34 -129.5t89 -48.5q45 0 81.5 30z" />
    <glyph glyph-name="aacute" unicode="&#xe1;" horiz-adv-x="538" 
d="M124 23.5q-45 33.5 -66.5 88.5t-21.5 121q0 81 29 140t77.5 90t106.5 31q39 0 75.5 -16t58.5 -45l1 33q0 17 19 17h45q18 0 18 -19v-350q0 -37 5 -45q5 -9 17 -9h7q7 0 10.5 -2.5t3.5 -10.5v-34q0 -13 -15 -13h-42q-31 0 -48 21t-17 53h-2q-18 -34 -61.5 -59t-88.5 -25
q-66 0 -111 33.5zM329.5 91q36.5 30 51.5 71v192q-18 33 -51 52.5t-70 19.5q-59 0 -97 -50t-38 -137q0 -81 34 -129.5t89 -48.5q45 0 81.5 30zM173 564l-12 18q-4 5 -4 10q0 8 9 13l140 90q9 6 14 6q8 0 15 -10l21 -33q4 -5 4 -12q0 -9 -10 -13l-151 -75q-7 -3 -12 -3
q-8 0 -14 9z" />
    <glyph glyph-name="abreve" unicode="&#x103;" horiz-adv-x="538" 
d="M124 23.5q-45 33.5 -66.5 88.5t-21.5 121q0 81 29 140t77.5 90t106.5 31q39 0 75.5 -16t58.5 -45l1 33q0 17 19 17h45q18 0 18 -19v-350q0 -37 5 -45q5 -9 17 -9h7q7 0 10.5 -2.5t3.5 -10.5v-34q0 -13 -15 -13h-42q-31 0 -48 21t-17 53h-2q-18 -34 -61.5 -59t-88.5 -25
q-66 0 -111 33.5zM329.5 91q36.5 30 51.5 71v192q-18 33 -51 52.5t-70 19.5q-59 0 -97 -50t-38 -137q0 -81 34 -129.5t89 -48.5q45 0 81.5 30zM187 582q-22 13 -37 32.5t-19 43.5q-1 3 -1 10q0 8 3.5 10.5t12.5 2.5h25q10 0 14 -3t9 -12q9 -19 27 -31.5t38 -12.5t38 12.5
t27 31.5q5 9 9 12t14 3h25q9 0 12.5 -2.5t3.5 -10.5q0 -7 -1 -10q-4 -24 -19 -43.5t-37 -32.5q-33 -18 -72 -18t-72 18z" />
    <glyph glyph-name="uni01CE" unicode="&#x1ce;" horiz-adv-x="538" 
d="M124 23.5q-45 33.5 -66.5 88.5t-21.5 121q0 81 29 140t77.5 90t106.5 31q39 0 75.5 -16t58.5 -45l1 33q0 17 19 17h45q18 0 18 -19v-350q0 -37 5 -45q5 -9 17 -9h7q7 0 10.5 -2.5t3.5 -10.5v-34q0 -13 -15 -13h-42q-31 0 -48 21t-17 53h-2q-18 -34 -61.5 -59t-88.5 -25
q-66 0 -111 33.5zM329.5 91q36.5 30 51.5 71v192q-18 33 -51 52.5t-70 19.5q-59 0 -97 -50t-38 -137q0 -81 34 -129.5t89 -48.5q45 0 81.5 30zM231 557l-108 98q-6 6 -6 11q0 3 5 10l12 13q7 7 13 7q7 0 17 -8l94 -73l102 79q7 5 12 5t11 -6l13 -13q5 -5 5 -12q0 -6 -6 -12
l-111 -100q-8 -7 -19 -7h-14q-10 0 -20 8z" />
    <glyph glyph-name="acircumflex" unicode="&#xe2;" horiz-adv-x="538" 
d="M124 23.5q-45 33.5 -66.5 88.5t-21.5 121q0 81 29 140t77.5 90t106.5 31q39 0 75.5 -16t58.5 -45l1 33q0 17 19 17h45q18 0 18 -19v-350q0 -37 5 -45q5 -9 17 -9h7q7 0 10.5 -2.5t3.5 -10.5v-34q0 -13 -15 -13h-42q-31 0 -48 21t-17 53h-2q-18 -34 -61.5 -59t-88.5 -25
q-66 0 -111 33.5zM329.5 91q36.5 30 51.5 71v192q-18 33 -51 52.5t-70 19.5q-59 0 -97 -50t-38 -137q0 -81 34 -129.5t89 -48.5q45 0 81.5 30zM360 556l-102 79l-94 -73q-10 -8 -17 -8q-6 0 -13 7l-12 13q-5 7 -5 10q0 5 6 11l108 98q10 8 20 8h14q11 0 19 -7l111 -100
q6 -6 6 -12q0 -7 -5 -12l-13 -13q-6 -6 -11 -6t-12 5z" />
    <glyph glyph-name="adieresis" unicode="&#xe4;" horiz-adv-x="538" 
d="M124 23.5q-45 33.5 -66.5 88.5t-21.5 121q0 81 29 140t77.5 90t106.5 31q39 0 75.5 -16t58.5 -45l1 33q0 17 19 17h45q18 0 18 -19v-350q0 -37 5 -45q5 -9 17 -9h7q7 0 10.5 -2.5t3.5 -10.5v-34q0 -13 -15 -13h-42q-31 0 -48 21t-17 53h-2q-18 -34 -61.5 -59t-88.5 -25
q-66 0 -111 33.5zM329.5 91q36.5 30 51.5 71v192q-18 33 -51 52.5t-70 19.5q-59 0 -97 -50t-38 -137q0 -81 34 -129.5t89 -48.5q45 0 81.5 30zM135 587q-16 13 -16 35q0 23 15.5 36t36.5 13t36 -13.5t15 -35.5t-15.5 -35t-35.5 -13t-36 13zM311.5 587q-16.5 13 -16.5 35
q0 23 16 36t37 13t35.5 -13.5t14.5 -35.5t-15 -35t-35 -13t-36.5 13z" />
    <glyph glyph-name="agrave" unicode="&#xe0;" horiz-adv-x="538" 
d="M124 23.5q-45 33.5 -66.5 88.5t-21.5 121q0 81 29 140t77.5 90t106.5 31q39 0 75.5 -16t58.5 -45l1 33q0 17 19 17h45q18 0 18 -19v-350q0 -37 5 -45q5 -9 17 -9h7q7 0 10.5 -2.5t3.5 -10.5v-34q0 -13 -15 -13h-42q-31 0 -48 21t-17 53h-2q-18 -34 -61.5 -59t-88.5 -25
q-66 0 -111 33.5zM329.5 91q36.5 30 51.5 71v192q-18 33 -51 52.5t-70 19.5q-59 0 -97 -50t-38 -137q0 -81 34 -129.5t89 -48.5q45 0 81.5 30zM318 561l-151 75q-10 4 -10 13q0 7 4 12l21 33q7 10 15 10q5 0 14 -6l140 -90q9 -5 9 -13q0 -5 -4 -10l-12 -18q-6 -9 -14 -9
q-5 0 -12 3z" />
    <glyph glyph-name="amacron" unicode="&#x101;" horiz-adv-x="538" 
d="M124 23.5q-45 33.5 -66.5 88.5t-21.5 121q0 81 29 140t77.5 90t106.5 31q39 0 75.5 -16t58.5 -45l1 33q0 17 19 17h45q18 0 18 -19v-350q0 -37 5 -45q5 -9 17 -9h7q7 0 10.5 -2.5t3.5 -10.5v-34q0 -13 -15 -13h-42q-31 0 -48 21t-17 53h-2q-18 -34 -61.5 -59t-88.5 -25
q-66 0 -111 33.5zM329.5 91q36.5 30 51.5 71v192q-18 33 -51 52.5t-70 19.5q-59 0 -97 -50t-38 -137q0 -81 34 -129.5t89 -48.5q45 0 81.5 30zM131.5 593.5q-5.5 5.5 -5.5 18.5v17q0 12 5 17t21 5h210q18 0 23.5 -4.5t5.5 -17.5v-17q0 -13 -6 -18.5t-23 -5.5h-210
q-15 0 -20.5 5.5z" />
    <glyph glyph-name="aogonek" unicode="&#x105;" horiz-adv-x="538" 
d="M366.5 -180.5q-26.5 22.5 -26.5 56.5q0 39 27 71.5t67 53.5v2q-21 1 -34 21t-13 50h-2q-18 -34 -61.5 -59t-88.5 -25q-66 0 -111 33.5t-66.5 88.5t-21.5 121q0 81 29 140t77.5 90t106.5 31q39 0 75.5 -16t58.5 -45l1 33q0 17 19 17h45q18 0 18 -19v-350q0 -37 5 -45
q5 -9 17 -9h7q7 0 10.5 -2.5t3.5 -10.5v-34q0 -7 -2.5 -10t-9.5 -7t-15 -9q-73 -49 -73 -98q0 -41 52 -41q10 0 26.5 2.5t27.5 6.5l4 1q8 0 9 -7l5 -18q1 -2 1 -6q0 -11 -12 -15q-16 -6 -39 -10.5t-42 -4.5q-48 0 -74.5 22.5zM329.5 91q36.5 30 51.5 71v192q-18 33 -51 52.5
t-70 19.5q-59 0 -97 -50t-38 -137q0 -81 34 -129.5t89 -48.5q45 0 81.5 30z" />
    <glyph glyph-name="aring" unicode="&#xe5;" horiz-adv-x="538" 
d="M124 23.5q-45 33.5 -66.5 88.5t-21.5 121q0 81 29 140t77.5 90t106.5 31q39 0 75.5 -16t58.5 -45l1 33q0 17 19 17h45q18 0 18 -19v-350q0 -37 5 -45q5 -9 17 -9h7q7 0 10.5 -2.5t3.5 -10.5v-34q0 -13 -15 -13h-42q-31 0 -48 21t-17 53h-2q-18 -34 -61.5 -59t-88.5 -25
q-66 0 -111 33.5zM329.5 91q36.5 30 51.5 71v192q-18 33 -51 52.5t-70 19.5q-59 0 -97 -50t-38 -137q0 -81 34 -129.5t89 -48.5q45 0 81.5 30zM202 564.5q-24 23.5 -24 56.5t24 56.5t57 23.5t56.5 -23.5t23.5 -56.5t-23.5 -56.5t-56.5 -23.5t-57 23.5zM280.5 599.5
q8.5 8.5 8.5 21.5t-8.5 21.5t-21.5 8.5t-22 -8.5t-9 -21.5t9 -21.5t22 -8.5t21.5 8.5z" />
    <glyph glyph-name="aringacute" unicode="&#x1fb;" horiz-adv-x="538" 
d="M183 688l-12 18q-4 5 -4 10q0 8 9 13l140 90q9 6 14 6q8 0 15 -10l21 -33q4 -5 4 -12q0 -9 -10 -13l-151 -75q-7 -3 -12 -3q-8 0 -14 9zM212 541.5q-24 23.5 -24 56.5t24 56.5t57 23.5t56.5 -23.5t23.5 -56.5t-23.5 -56.5t-56.5 -23.5t-57 23.5zM290.5 576.5
q8.5 8.5 8.5 21.5t-8.5 21.5t-21.5 8.5t-22 -8.5t-9 -21.5t9 -21.5t22 -8.5t21.5 8.5zM124 23.5q-45 33.5 -66.5 88.5t-21.5 121q0 81 29 140t77.5 90t106.5 31q39 0 75.5 -16t58.5 -45l1 33q0 17 19 17h45q18 0 18 -19v-350q0 -37 5 -45q5 -9 17 -9h7q7 0 10.5 -2.5
t3.5 -10.5v-34q0 -13 -15 -13h-42q-31 0 -48 21t-17 53h-2q-18 -34 -61.5 -59t-88.5 -25q-66 0 -111 33.5zM329.5 91q36.5 30 51.5 71v192q-18 33 -51 52.5t-70 19.5q-59 0 -97 -50t-38 -137q0 -81 34 -129.5t89 -48.5q45 0 81.5 30z" />
    <glyph glyph-name="atilde" unicode="&#xe3;" horiz-adv-x="538" 
d="M124 23.5q-45 33.5 -66.5 88.5t-21.5 121q0 81 29 140t77.5 90t106.5 31q39 0 75.5 -16t58.5 -45l1 33q0 17 19 17h45q18 0 18 -19v-350q0 -37 5 -45q5 -9 17 -9h7q7 0 10.5 -2.5t3.5 -10.5v-34q0 -13 -15 -13h-42q-31 0 -48 21t-17 53h-2q-18 -34 -61.5 -59t-88.5 -25
q-66 0 -111 33.5zM329.5 91q36.5 30 51.5 71v192q-18 33 -51 52.5t-70 19.5q-59 0 -97 -50t-38 -137q0 -81 34 -129.5t89 -48.5q45 0 81.5 30zM283 583q-12 5 -30 16q-16 9 -27.5 14t-22.5 5q-22 0 -65 -24q-10 -6 -16 -6q-8 0 -12 10l-9 23q-4 10 -4 11q0 7 14 16
q21 14 45.5 23t45.5 9q15 0 30 -5.5t35 -16.5q12 -6 24.5 -11t21.5 -5q18 0 62 27q9 5 15 5q8 0 14 -9l11 -17q5 -8 5 -12q0 -8 -8 -14q-57 -44 -104 -44q-13 0 -25 5z" />
    <glyph glyph-name="ae" unicode="&#xe6;" horiz-adv-x="768" 
d="M76.5 26.5q-43.5 37.5 -43.5 104.5q0 64 55 110q71 57 206 57h27v30q0 43 -15 67q-22 36 -79 36q-65 0 -134 -37q-4 -3 -8 -3q-7 0 -10 8l-11 30q-2 6 -2 7q0 9 11 14q39 23 82 33.5t80 10.5q104 0 144 -74h2q27 35 68.5 54.5t92.5 19.5q52 0 91.5 -21.5t63.5 -60.5
q16 -26 24.5 -60.5t8.5 -64.5v-31q0 -16 -4 -21t-18 -5h-310q2 -46 21.5 -82.5t51.5 -56.5q38 -24 99 -24h17q63 4 97 18q2 1 6 1q8 0 11 -10l7 -32q2 -8 2 -11q0 -5 -3.5 -8t-8.5 -5q-31 -14 -73.5 -22t-79.5 -8q-53 0 -99 18.5t-76 56.5q-30 -34 -78 -55t-109 -21
q-63 0 -106.5 37.5zM651 288v14q0 55 -29 91t-84 36q-59 0 -95.5 -40.5t-42.5 -100.5h251zM281 73.5q38 18.5 60 40.5q-22 50 -22 118v9l-44 -2q-63 -4 -108.5 -26.5t-45.5 -76.5q0 -39 24.5 -60t59.5 -21q38 0 76 18.5z" />
    <glyph glyph-name="aeacute" unicode="&#x1fd;" horiz-adv-x="768" 
d="M76.5 26.5q-43.5 37.5 -43.5 104.5q0 64 55 110q71 57 206 57h27v30q0 43 -15 67q-22 36 -79 36q-65 0 -134 -37q-4 -3 -8 -3q-7 0 -10 8l-11 30q-2 6 -2 7q0 9 11 14q39 23 82 33.5t80 10.5q104 0 144 -74h2q27 35 68.5 54.5t92.5 19.5q52 0 91.5 -21.5t63.5 -60.5
q16 -26 24.5 -60.5t8.5 -64.5v-31q0 -16 -4 -21t-18 -5h-310q2 -46 21.5 -82.5t51.5 -56.5q38 -24 99 -24h17q63 4 97 18q2 1 6 1q8 0 11 -10l7 -32q2 -8 2 -11q0 -5 -3.5 -8t-8.5 -5q-31 -14 -73.5 -22t-79.5 -8q-53 0 -99 18.5t-76 56.5q-30 -34 -78 -55t-109 -21
q-63 0 -106.5 37.5zM651 288v14q0 55 -29 91t-84 36q-59 0 -95.5 -40.5t-42.5 -100.5h251zM281 73.5q38 18.5 60 40.5q-22 50 -22 118v9l-44 -2q-63 -4 -108.5 -26.5t-45.5 -76.5q0 -39 24.5 -60t59.5 -21q38 0 76 18.5zM338 564l-12 18q-4 5 -4 10q0 8 9 13l140 90
q9 6 14 6q8 0 15 -10l21 -33q4 -5 4 -12q0 -9 -10 -13l-151 -75q-7 -3 -12 -3q-8 0 -14 9z" />
    <glyph glyph-name="b" unicode="b" horiz-adv-x="538" 
d="M206 8q-37 18 -60 44l-2 -36q-1 -9 -5 -12.5t-15 -3.5h-38q-10 0 -14.5 4.5t-4.5 14.5v664q0 10 3 15t12 6l54 7q16 0 16 -17v-257q25 25 63 41t81 16q76 0 127 -45q38 -33 57 -87t19 -119q0 -71 -24.5 -128t-73.5 -91t-121 -34q-37 0 -74 18zM376 109.5
q34 50.5 34 129.5q0 85 -32 135t-99 50q-33 0 -68 -17t-59 -43v-239q21 -30 52.5 -48t66.5 -18q71 0 105 50.5z" />
    <glyph glyph-name="c" unicode="c" horiz-adv-x="433" 
d="M97.5 57.5q-59.5 67.5 -59.5 183.5q0 74 28.5 131t82.5 89.5t128 32.5q33 0 67.5 -8t60.5 -21q10 -4 10 -13q0 -2 -2 -8l-8 -32q-3 -12 -11 -12q-5 0 -9 3q-55 25 -104 25q-71 0 -113 -49.5t-42 -133.5q0 -83 37.5 -136.5t113.5 -53.5q57 0 112 24l8 2q7 0 10 -10l9 -28
q2 -8 2 -11q0 -4 -2.5 -7t-9.5 -6q-62 -29 -135 -29q-114 0 -173.5 67.5z" />
    <glyph glyph-name="cacute" unicode="&#x107;" horiz-adv-x="433" 
d="M97.5 57.5q-59.5 67.5 -59.5 183.5q0 74 28.5 131t82.5 89.5t128 32.5q33 0 67.5 -8t60.5 -21q10 -4 10 -13q0 -2 -2 -8l-8 -32q-3 -12 -11 -12q-5 0 -9 3q-55 25 -104 25q-71 0 -113 -49.5t-42 -133.5q0 -83 37.5 -136.5t113.5 -53.5q57 0 112 24l8 2q7 0 10 -10l9 -28
q2 -8 2 -11q0 -4 -2.5 -7t-9.5 -6q-62 -29 -135 -29q-114 0 -173.5 67.5zM185 564l-12 18q-4 5 -4 10q0 8 9 13l140 90q9 6 14 6q8 0 15 -10l21 -33q4 -5 4 -12q0 -9 -10 -13l-151 -75q-7 -3 -12 -3q-8 0 -14 9z" />
    <glyph glyph-name="ccaron" unicode="&#x10d;" horiz-adv-x="433" 
d="M97.5 57.5q-59.5 67.5 -59.5 183.5q0 74 28.5 131t82.5 89.5t128 32.5q33 0 67.5 -8t60.5 -21q10 -4 10 -13q0 -2 -2 -8l-8 -32q-3 -12 -11 -12q-5 0 -9 3q-55 25 -104 25q-71 0 -113 -49.5t-42 -133.5q0 -83 37.5 -136.5t113.5 -53.5q57 0 112 24l8 2q7 0 10 -10l9 -28
q2 -8 2 -11q0 -4 -2.5 -7t-9.5 -6q-62 -29 -135 -29q-114 0 -173.5 67.5zM243 557l-108 98q-6 6 -6 11q0 3 5 10l12 13q7 7 13 7q7 0 17 -8l94 -73l102 79q7 5 12 5t11 -6l13 -13q5 -5 5 -12q0 -6 -6 -12l-111 -100q-8 -7 -19 -7h-14q-10 0 -20 8z" />
    <glyph glyph-name="ccedilla" unicode="&#xe7;" horiz-adv-x="433" 
d="M418 32q0 -4 -2.5 -7t-9.5 -6q-62 -29 -135 -29h-11l-2 -38h8q40 0 66 -18t26 -56q0 -35 -26 -57t-74 -22q-33 0 -65 12q-14 6 -14 13q0 3 1 5l5 16q3 9 9 9q4 0 10 -3q24 -9 52 -9q18 0 30.5 9t12.5 27q0 33 -52 33h-18q-14 0 -19.5 6t-5.5 17q0 10 1 15l5 47
q-85 17 -128.5 81.5t-43.5 163.5q0 74 28.5 131t82.5 89.5t128 32.5q33 0 67.5 -8t60.5 -21q10 -4 10 -13q0 -2 -2 -8l-8 -32q-3 -12 -11 -12q-5 0 -9 3q-55 25 -104 25q-71 0 -113 -49.5t-42 -133.5q0 -83 37.5 -136.5t113.5 -53.5q57 0 112 24l8 2q7 0 10 -10l9 -28
q2 -8 2 -11z" />
    <glyph glyph-name="ccircumflex" unicode="&#x109;" horiz-adv-x="433" 
d="M97.5 57.5q-59.5 67.5 -59.5 183.5q0 74 28.5 131t82.5 89.5t128 32.5q33 0 67.5 -8t60.5 -21q10 -4 10 -13q0 -2 -2 -8l-8 -32q-3 -12 -11 -12q-5 0 -9 3q-55 25 -104 25q-71 0 -113 -49.5t-42 -133.5q0 -83 37.5 -136.5t113.5 -53.5q57 0 112 24l8 2q7 0 10 -10l9 -28
q2 -8 2 -11q0 -4 -2.5 -7t-9.5 -6q-62 -29 -135 -29q-114 0 -173.5 67.5zM372 556l-102 79l-94 -73q-10 -8 -17 -8q-6 0 -13 7l-12 13q-5 7 -5 10q0 5 6 11l108 98q10 8 20 8h14q11 0 19 -7l111 -100q6 -6 6 -12q0 -7 -5 -12l-13 -13q-6 -6 -11 -6t-12 5z" />
    <glyph glyph-name="cdotaccent" unicode="&#x10b;" horiz-adv-x="433" 
d="M97.5 57.5q-59.5 67.5 -59.5 183.5q0 74 28.5 131t82.5 89.5t128 32.5q33 0 67.5 -8t60.5 -21q10 -4 10 -13q0 -2 -2 -8l-8 -32q-3 -12 -11 -12q-5 0 -9 3q-55 25 -104 25q-71 0 -113 -49.5t-42 -133.5q0 -83 37.5 -136.5t113.5 -53.5q57 0 112 24l8 2q7 0 10 -10l9 -28
q2 -8 2 -11q0 -4 -2.5 -7t-9.5 -6q-62 -29 -135 -29q-114 0 -173.5 67.5zM231 602.5q-19 15.5 -19 39.5q0 25 18.5 40.5t41.5 15.5q22 0 40 -15.5t18 -39.5t-18.5 -40t-39.5 -16q-22 0 -41 15.5z" />
    <glyph glyph-name="d" unicode="d" horiz-adv-x="539" 
d="M130.5 24q-46.5 34 -68.5 90.5t-22 124.5q0 73 27 131.5t76.5 91.5t114.5 33q36 0 72.5 -15t57.5 -41v244q0 10 3.5 15t12.5 6l54 7q15 0 15 -17v-673q0 -10 -4 -15.5t-11 -5.5h-43q-21 0 -21 19l-1 36q-24 -29 -64.5 -47t-82.5 -18q-69 0 -115.5 34zM333 77.5
q36 19.5 55 46.5v233q-16 29 -49 49.5t-69 20.5q-67 0 -104.5 -50t-37.5 -134q0 -82 35.5 -133.5t98.5 -51.5q35 0 71 19.5z" />
    <glyph glyph-name="eth" unicode="&#xf0;" horiz-adv-x="533" 
d="M96.5 60q-56.5 70 -56.5 183q0 71 27 128t79 90t124 33q36 0 69 -10q-15 44 -49.5 77.5t-75.5 54.5l-36 -74q-4 -8 -8 -8q-3 0 -11 3l-20 10q-8 4 -8 10q0 3 3 9l36 70q-49 15 -83 21q-7 1 -10 4t-3 8v5l6 25q2 9 5.5 12t12.5 3l8 -1q53 -5 97 -17l34 65q5 9 9 9
q2 0 8 -3l21 -11q8 -4 8 -9q0 -3 -3 -9l-30 -60q78 -35 133.5 -105.5t83.5 -155t28 -161.5q0 -74 -26 -134.5t-78 -96t-127 -35.5q-111 0 -167.5 70zM372.5 109.5q34.5 53.5 34.5 131.5q0 79 -33 133t-105 54q-74 0 -107.5 -53t-33.5 -130q0 -80 32 -134.5t105 -54.5
t107.5 53.5z" />
    <glyph glyph-name="dcaron" unicode="&#x10f;" horiz-adv-x="539" 
d="M130.5 24q-46.5 34 -68.5 90.5t-22 124.5q0 73 27 131.5t76.5 91.5t114.5 33q36 0 72.5 -15t57.5 -41v244q0 10 3.5 15t12.5 6l54 7q15 0 15 -17v-673q0 -10 -4 -15.5t-11 -5.5h-43q-21 0 -21 19l-1 36q-24 -29 -64.5 -47t-82.5 -18q-69 0 -115.5 34zM537 537l-6 6
q-1 2 -2 3.5t-1 4.5q0 2 5 7q28 28 28 53q0 10 -13 27q-14 18 -14 31q0 19 12 30.5t31 11.5q20 0 33 -16.5t13 -37.5q0 -34 -18.5 -68t-46.5 -54q-7 -4 -12 -4q-4 0 -9 6zM333 77.5q36 19.5 55 46.5v233q-16 29 -49 49.5t-69 20.5q-67 0 -104.5 -50t-37.5 -134
q0 -82 35.5 -133.5t98.5 -51.5q35 0 71 19.5z" />
    <glyph glyph-name="dcroat" unicode="&#x111;" horiz-adv-x="539" 
d="M130.5 24q-46.5 34 -68.5 90.5t-22 124.5q0 73 27 131.5t76.5 91.5t114.5 33q36 0 72.5 -15t57.5 -41v129h-93q-15 0 -20.5 5.5t-5.5 18.5v17q0 12 5 17t21 5h93v52q0 10 3.5 15t12.5 6l49 7h5q15 0 15 -17v-64h42q18 0 23.5 -4.5t5.5 -17.5v-18q0 -13 -6 -18.5t-23 -5.5
h-42v-545q0 -10 -4 -15.5t-11 -5.5h-43q-21 0 -21 19l-1 36q-24 -29 -64.5 -47t-82.5 -18q-69 0 -115.5 34zM333 77.5q36 19.5 55 46.5v233q-16 29 -49 49.5t-69 20.5q-67 0 -104.5 -50t-37.5 -134q0 -82 35.5 -133.5t98.5 -51.5q35 0 71 19.5z" />
    <glyph glyph-name="e" unicode="e" horiz-adv-x="499" 
d="M101.5 58q-61.5 68 -61.5 184q0 72 28.5 129t81.5 90t123 33q83 0 136 -55q57 -58 57 -165v-17q0 -18 -5.5 -23t-24.5 -5h-307q2 -74 43.5 -121.5t114.5 -47.5q65 0 120 21q8 2 11 2q8 0 11 -9l11 -37q1 -2 1 -5q0 -4 -3.5 -7t-8.5 -6q-30 -14 -72.5 -21.5t-80.5 -7.5
q-113 0 -174.5 68zM382 287v14q0 54 -29.5 90.5t-83.5 36.5q-59 0 -95.5 -40.5t-42.5 -100.5h251z" />
    <glyph glyph-name="eacute" unicode="&#xe9;" horiz-adv-x="499" 
d="M101.5 58q-61.5 68 -61.5 184q0 72 28.5 129t81.5 90t123 33q83 0 136 -55q57 -58 57 -165v-17q0 -18 -5.5 -23t-24.5 -5h-307q2 -74 43.5 -121.5t114.5 -47.5q65 0 120 21q8 2 11 2q8 0 11 -9l11 -37q1 -2 1 -5q0 -4 -3.5 -7t-8.5 -6q-30 -14 -72.5 -21.5t-80.5 -7.5
q-113 0 -174.5 68zM382 287v14q0 54 -29.5 90.5t-83.5 36.5q-59 0 -95.5 -40.5t-42.5 -100.5h251zM175 564l-12 18q-4 5 -4 10q0 8 9 13l140 90q9 6 14 6q8 0 15 -10l21 -33q4 -5 4 -12q0 -9 -10 -13l-151 -75q-7 -3 -12 -3q-8 0 -14 9z" />
    <glyph glyph-name="ebreve" unicode="&#x115;" horiz-adv-x="499" 
d="M101.5 58q-61.5 68 -61.5 184q0 72 28.5 129t81.5 90t123 33q83 0 136 -55q57 -58 57 -165v-17q0 -18 -5.5 -23t-24.5 -5h-307q2 -74 43.5 -121.5t114.5 -47.5q65 0 120 21q8 2 11 2q8 0 11 -9l11 -37q1 -2 1 -5q0 -4 -3.5 -7t-8.5 -6q-30 -14 -72.5 -21.5t-80.5 -7.5
q-113 0 -174.5 68zM382 287v14q0 54 -29.5 90.5t-83.5 36.5q-59 0 -95.5 -40.5t-42.5 -100.5h251zM189 582q-22 13 -37 32.5t-19 43.5q-1 3 -1 10q0 8 3.5 10.5t12.5 2.5h25q10 0 14 -3t9 -12q9 -19 27 -31.5t38 -12.5t38 12.5t27 31.5q5 9 9 12t14 3h25q9 0 12.5 -2.5
t3.5 -10.5q0 -7 -1 -10q-4 -24 -19 -43.5t-37 -32.5q-33 -18 -72 -18t-72 18z" />
    <glyph glyph-name="ecaron" unicode="&#x11b;" horiz-adv-x="499" 
d="M101.5 58q-61.5 68 -61.5 184q0 72 28.5 129t81.5 90t123 33q83 0 136 -55q57 -58 57 -165v-17q0 -18 -5.5 -23t-24.5 -5h-307q2 -74 43.5 -121.5t114.5 -47.5q65 0 120 21q8 2 11 2q8 0 11 -9l11 -37q1 -2 1 -5q0 -4 -3.5 -7t-8.5 -6q-30 -14 -72.5 -21.5t-80.5 -7.5
q-113 0 -174.5 68zM382 287v14q0 54 -29.5 90.5t-83.5 36.5q-59 0 -95.5 -40.5t-42.5 -100.5h251zM233 557l-108 98q-6 6 -6 11q0 3 5 10l12 13q7 7 13 7q7 0 17 -8l94 -73l102 79q7 5 12 5t11 -6l13 -13q5 -5 5 -12q0 -6 -6 -12l-111 -100q-8 -7 -19 -7h-14q-10 0 -20 8z
" />
    <glyph glyph-name="ecircumflex" unicode="&#xea;" horiz-adv-x="499" 
d="M101.5 58q-61.5 68 -61.5 184q0 72 28.5 129t81.5 90t123 33q83 0 136 -55q57 -58 57 -165v-17q0 -18 -5.5 -23t-24.5 -5h-307q2 -74 43.5 -121.5t114.5 -47.5q65 0 120 21q8 2 11 2q8 0 11 -9l11 -37q1 -2 1 -5q0 -4 -3.5 -7t-8.5 -6q-30 -14 -72.5 -21.5t-80.5 -7.5
q-113 0 -174.5 68zM382 287v14q0 54 -29.5 90.5t-83.5 36.5q-59 0 -95.5 -40.5t-42.5 -100.5h251zM362 556l-102 79l-94 -73q-10 -8 -17 -8q-6 0 -13 7l-12 13q-5 7 -5 10q0 5 6 11l108 98q10 8 20 8h14q11 0 19 -7l111 -100q6 -6 6 -12q0 -7 -5 -12l-13 -13q-6 -6 -11 -6
t-12 5z" />
    <glyph glyph-name="edieresis" unicode="&#xeb;" horiz-adv-x="499" 
d="M101.5 58q-61.5 68 -61.5 184q0 72 28.5 129t81.5 90t123 33q83 0 136 -55q57 -58 57 -165v-17q0 -18 -5.5 -23t-24.5 -5h-307q2 -74 43.5 -121.5t114.5 -47.5q65 0 120 21q8 2 11 2q8 0 11 -9l11 -37q1 -2 1 -5q0 -4 -3.5 -7t-8.5 -6q-30 -14 -72.5 -21.5t-80.5 -7.5
q-113 0 -174.5 68zM382 287v14q0 54 -29.5 90.5t-83.5 36.5q-59 0 -95.5 -40.5t-42.5 -100.5h251zM137 587q-16 13 -16 35q0 23 15.5 36t36.5 13t36 -13.5t15 -35.5t-15.5 -35t-35.5 -13t-36 13zM313.5 587q-16.5 13 -16.5 35q0 23 16 36t37 13t35.5 -13.5t14.5 -35.5
t-15 -35t-35 -13t-36.5 13z" />
    <glyph glyph-name="edotaccent" unicode="&#x117;" horiz-adv-x="499" 
d="M101.5 58q-61.5 68 -61.5 184q0 72 28.5 129t81.5 90t123 33q83 0 136 -55q57 -58 57 -165v-17q0 -18 -5.5 -23t-24.5 -5h-307q2 -74 43.5 -121.5t114.5 -47.5q65 0 120 21q8 2 11 2q8 0 11 -9l11 -37q1 -2 1 -5q0 -4 -3.5 -7t-8.5 -6q-30 -14 -72.5 -21.5t-80.5 -7.5
q-113 0 -174.5 68zM382 287v14q0 54 -29.5 90.5t-83.5 36.5q-59 0 -95.5 -40.5t-42.5 -100.5h251zM221 602.5q-19 15.5 -19 39.5q0 25 18.5 40.5t41.5 15.5q22 0 40 -15.5t18 -39.5t-18.5 -40t-39.5 -16q-22 0 -41 15.5z" />
    <glyph glyph-name="egrave" unicode="&#xe8;" horiz-adv-x="499" 
d="M101.5 58q-61.5 68 -61.5 184q0 72 28.5 129t81.5 90t123 33q83 0 136 -55q57 -58 57 -165v-17q0 -18 -5.5 -23t-24.5 -5h-307q2 -74 43.5 -121.5t114.5 -47.5q65 0 120 21q8 2 11 2q8 0 11 -9l11 -37q1 -2 1 -5q0 -4 -3.5 -7t-8.5 -6q-30 -14 -72.5 -21.5t-80.5 -7.5
q-113 0 -174.5 68zM382 287v14q0 54 -29.5 90.5t-83.5 36.5q-59 0 -95.5 -40.5t-42.5 -100.5h251zM320 561l-151 75q-10 4 -10 13q0 7 4 12l21 33q7 10 15 10q5 0 14 -6l140 -90q9 -5 9 -13q0 -5 -4 -10l-12 -18q-6 -9 -14 -9q-5 0 -12 3z" />
    <glyph glyph-name="emacron" unicode="&#x113;" horiz-adv-x="499" 
d="M101.5 58q-61.5 68 -61.5 184q0 72 28.5 129t81.5 90t123 33q83 0 136 -55q57 -58 57 -165v-17q0 -18 -5.5 -23t-24.5 -5h-307q2 -74 43.5 -121.5t114.5 -47.5q65 0 120 21q8 2 11 2q8 0 11 -9l11 -37q1 -2 1 -5q0 -4 -3.5 -7t-8.5 -6q-30 -14 -72.5 -21.5t-80.5 -7.5
q-113 0 -174.5 68zM382 287v14q0 54 -29.5 90.5t-83.5 36.5q-59 0 -95.5 -40.5t-42.5 -100.5h251zM133.5 593.5q-5.5 5.5 -5.5 18.5v17q0 12 5 17t21 5h210q18 0 23.5 -4.5t5.5 -17.5v-17q0 -13 -6 -18.5t-23 -5.5h-210q-15 0 -20.5 5.5z" />
    <glyph glyph-name="eogonek" unicode="&#x119;" horiz-adv-x="499" 
d="M178.5 -180.5q-26.5 22.5 -26.5 56.5q0 69 80 116v2q-93 13 -142.5 78t-49.5 170q0 72 28.5 129t81.5 90t123 33q83 0 136 -55q57 -58 57 -165v-17q0 -18 -5.5 -23t-24.5 -5h-307q2 -74 43.5 -121.5t114.5 -47.5q31 0 63 5.5t57 15.5q8 2 10 2q9 0 12 -9l11 -37
q1 -2 1 -5q0 -7 -12 -13q-19 -9 -61 -20q-42 -9 -57 -13q-50 -14 -70 -41t-20 -56q0 -41 52 -41q10 0 26.5 2.5t27.5 6.5l4 1q8 0 9 -7l5 -18q1 -2 1 -6q0 -11 -12 -15q-16 -6 -39 -10.5t-42 -4.5q-48 0 -74.5 22.5zM382 287v14q0 54 -29.5 90.5t-83.5 36.5
q-59 0 -95.5 -40.5t-42.5 -100.5h251z" />
    <glyph glyph-name="f" unicode="f" horiz-adv-x="351" 
d="M92 21v402h-59q-8 0 -10.5 2.5t-2.5 12.5v31q0 14 14 14h58v19q0 44 4 80q9 66 49 102.5t109 36.5q22 0 47 -4.5t44 -12.5q13 -4 13 -15q0 -4 -2 -10l-7 -31q-3 -10 -10 -10q-3 0 -9 2q-35 13 -66 13q-49 0 -68 -30.5t-19 -92.5v-47h123q8 0 11.5 -2.5t3.5 -9.5v-34
q0 -14 -14 -14h-124v-401q0 -22 -19 -22h-47q-19 0 -19 21z" />
    <glyph glyph-name="g" unicode="g" horiz-adv-x="540" 
d="M177.5 -211q-37.5 9 -70.5 25q-12 6 -12 16q0 3 2 9l11 30q5 14 14 14q4 0 10 -3q68 -30 115 -30q80 0 111 40t31 123v46q-23 -26 -64 -42.5t-79 -16.5q-101 0 -153.5 68t-52.5 173q0 69 25.5 126.5t75 92t118.5 34.5q37 0 74 -16t58 -43l1 31q0 17 20 17h44
q10 0 14 -4.5t4 -15.5v-437q0 -120 -54 -183t-171 -63q-34 0 -71.5 9zM333 87q37 18 56 45v225q-17 30 -50.5 49.5t-69.5 19.5q-71 0 -105.5 -52t-34.5 -128q0 -73 31.5 -125t99.5 -52q36 0 73 18z" />
    <glyph glyph-name="gbreve" unicode="&#x11f;" horiz-adv-x="540" 
d="M177.5 -211q-37.5 9 -70.5 25q-12 6 -12 16q0 3 2 9l11 30q5 14 14 14q4 0 10 -3q68 -30 115 -30q80 0 111 40t31 123v46q-23 -26 -64 -42.5t-79 -16.5q-101 0 -153.5 68t-52.5 173q0 69 25.5 126.5t75 92t118.5 34.5q37 0 74 -16t58 -43l1 31q0 17 20 17h44
q10 0 14 -4.5t4 -15.5v-437q0 -120 -54 -183t-171 -63q-34 0 -71.5 9zM333 87q37 18 56 45v225q-17 30 -50.5 49.5t-69.5 19.5q-71 0 -105.5 -52t-34.5 -128q0 -73 31.5 -125t99.5 -52q36 0 73 18zM198 582q-22 13 -37 32.5t-19 43.5q-1 3 -1 10q0 8 3.5 10.5t12.5 2.5h25
q10 0 14 -3t9 -12q9 -19 27 -31.5t38 -12.5t38 12.5t27 31.5q5 9 9 12t14 3h25q9 0 12.5 -2.5t3.5 -10.5q0 -7 -1 -10q-4 -24 -19 -43.5t-37 -32.5q-33 -18 -72 -18t-72 18z" />
    <glyph glyph-name="gcircumflex" unicode="&#x11d;" horiz-adv-x="540" 
d="M177.5 -211q-37.5 9 -70.5 25q-12 6 -12 16q0 3 2 9l11 30q5 14 14 14q4 0 10 -3q68 -30 115 -30q80 0 111 40t31 123v46q-23 -26 -64 -42.5t-79 -16.5q-101 0 -153.5 68t-52.5 173q0 69 25.5 126.5t75 92t118.5 34.5q37 0 74 -16t58 -43l1 31q0 17 20 17h44
q10 0 14 -4.5t4 -15.5v-437q0 -120 -54 -183t-171 -63q-34 0 -71.5 9zM333 87q37 18 56 45v225q-17 30 -50.5 49.5t-69.5 19.5q-71 0 -105.5 -52t-34.5 -128q0 -73 31.5 -125t99.5 -52q36 0 73 18zM371 556l-102 79l-94 -73q-10 -8 -17 -8q-6 0 -13 7l-12 13q-5 7 -5 10
q0 5 6 11l108 98q10 8 20 8h14q11 0 19 -7l111 -100q6 -6 6 -12q0 -7 -5 -12l-13 -13q-6 -6 -11 -6t-12 5z" />
    <glyph glyph-name="gcommaaccent" unicode="&#x123;" horiz-adv-x="540" 
d="M230 564.5q-13 16.5 -13 37.5q0 34 18.5 68t46.5 54q7 4 12 4t9 -6l6 -6q1 -2 2 -3.5t1 -4.5q0 -2 -5 -7q-28 -28 -28 -53q0 -10 13 -27q14 -18 14 -31q0 -19 -12 -30.5t-31 -11.5q-20 0 -33 16.5zM177.5 -211q-37.5 9 -70.5 25q-12 6 -12 16q0 3 2 9l11 30q5 14 14 14
q4 0 10 -3q68 -30 115 -30q80 0 111 40t31 123v46q-23 -26 -64 -42.5t-79 -16.5q-101 0 -153.5 68t-52.5 173q0 69 25.5 126.5t75 92t118.5 34.5q37 0 74 -16t58 -43l1 31q0 17 20 17h44q10 0 14 -4.5t4 -15.5v-437q0 -120 -54 -183t-171 -63q-34 0 -71.5 9zM333 87
q37 18 56 45v225q-17 30 -50.5 49.5t-69.5 19.5q-71 0 -105.5 -52t-34.5 -128q0 -73 31.5 -125t99.5 -52q36 0 73 18z" />
    <glyph glyph-name="gdotaccent" unicode="&#x121;" horiz-adv-x="540" 
d="M177.5 -211q-37.5 9 -70.5 25q-12 6 -12 16q0 3 2 9l11 30q5 14 14 14q4 0 10 -3q68 -30 115 -30q80 0 111 40t31 123v46q-23 -26 -64 -42.5t-79 -16.5q-101 0 -153.5 68t-52.5 173q0 69 25.5 126.5t75 92t118.5 34.5q37 0 74 -16t58 -43l1 31q0 17 20 17h44
q10 0 14 -4.5t4 -15.5v-437q0 -120 -54 -183t-171 -63q-34 0 -71.5 9zM333 87q37 18 56 45v225q-17 30 -50.5 49.5t-69.5 19.5q-71 0 -105.5 -52t-34.5 -128q0 -73 31.5 -125t99.5 -52q36 0 73 18zM230 602.5q-19 15.5 -19 39.5q0 25 18.5 40.5t41.5 15.5q22 0 40 -15.5
t18 -39.5t-18.5 -40t-39.5 -16q-22 0 -41 15.5z" />
    <glyph glyph-name="h" unicode="h" horiz-adv-x="540" 
d="M67 18v665q0 10 4.5 14.5t14.5 6.5l51 7q15 0 15 -17v-259q32 28 76 43.5t88 15.5q83 0 120 -46.5t37 -132.5v-296q0 -10 -3.5 -14.5t-12.5 -4.5h-52q-17 0 -17 19v282q0 59 -21 90.5t-76 31.5q-34 0 -73 -16.5t-66 -41.5v-346q0 -19 -17 -19h-52q-16 0 -16 18z" />
    <glyph glyph-name="hbar" unicode="&#x127;" horiz-adv-x="540" 
d="M67 18v549h-23q-13 0 -17.5 4.5t-4.5 14.5v37q0 10 4.5 14t15.5 4h25v42q0 10 4.5 14.5t14.5 6.5l51 7q15 0 15 -17v-53h175q13 0 17.5 -4t4.5 -16v-32q0 -12 -4 -17t-16 -5h-177v-132q32 28 76 43.5t88 15.5q83 0 120 -46.5t37 -132.5v-296q0 -10 -3.5 -14.5t-12.5 -4.5
h-52q-17 0 -17 19v282q0 59 -21 90.5t-76 31.5q-34 0 -73 -16.5t-66 -41.5v-346q0 -19 -17 -19h-52q-16 0 -16 18z" />
    <glyph glyph-name="hcircumflex" unicode="&#x125;" horiz-adv-x="540" 
d="M67 18v665q0 10 4.5 14.5t14.5 6.5l51 7q15 0 15 -17v-259q32 28 76 43.5t88 15.5q83 0 120 -46.5t37 -132.5v-296q0 -10 -3.5 -14.5t-12.5 -4.5h-52q-17 0 -17 19v282q0 59 -21 90.5t-76 31.5q-34 0 -73 -16.5t-66 -41.5v-346q0 -19 -17 -19h-52q-16 0 -16 18zM213 700
l-102 79l-94 -73q-10 -8 -17 -8q-6 0 -13 7l-12 13q-5 7 -5 10q0 5 6 11l108 98q10 8 20 8h14q11 0 19 -7l111 -100q6 -6 6 -12q0 -7 -5 -12l-13 -13q-6 -6 -11 -6t-12 5z" />
    <glyph glyph-name="i" unicode="i" horiz-adv-x="237" 
d="M82 566.5q-15 13.5 -15 34.5t15 34.5t36 13.5t36.5 -13.5t15.5 -34.5t-16 -34.5t-36 -13.5q-21 0 -36 13.5zM76 21v442q0 20 20 20h46q19 0 19 -20v-442q0 -21 -19 -21h-46q-20 0 -20 21z" />
    <glyph glyph-name="dotlessi" unicode="&#x131;" horiz-adv-x="237" 
d="M76 21v442q0 20 20 20h46q19 0 19 -20v-442q0 -21 -19 -21h-46q-20 0 -20 21z" />
    <glyph glyph-name="iacute" unicode="&#xed;" horiz-adv-x="237" 
d="M76 21v442q0 20 20 20h46q19 0 19 -20v-442q0 -21 -19 -21h-46q-20 0 -20 21zM33 564l-12 18q-4 5 -4 10q0 8 9 13l140 90q9 6 14 6q8 0 15 -10l21 -33q4 -5 4 -12q0 -9 -10 -13l-151 -75q-7 -3 -12 -3q-8 0 -14 9z" />
    <glyph glyph-name="ibreve" unicode="&#x12d;" horiz-adv-x="237" 
d="M76 21v442q0 20 20 20h46q19 0 19 -20v-442q0 -21 -19 -21h-46q-20 0 -20 21zM47 582q-22 13 -37 32.5t-19 43.5q-1 3 -1 10q0 8 3.5 10.5t12.5 2.5h25q10 0 14 -3t9 -12q9 -19 27 -31.5t38 -12.5t38 12.5t27 31.5q5 9 9 12t14 3h25q9 0 12.5 -2.5t3.5 -10.5q0 -7 -1 -10
q-4 -24 -19 -43.5t-37 -32.5q-33 -18 -72 -18t-72 18z" />
    <glyph glyph-name="icircumflex" unicode="&#xee;" horiz-adv-x="237" 
d="M76 21v442q0 20 20 20h46q19 0 19 -20v-442q0 -21 -19 -21h-46q-20 0 -20 21zM220 556l-102 79l-94 -73q-10 -8 -17 -8q-6 0 -13 7l-12 13q-5 7 -5 10q0 5 6 11l108 98q10 8 20 8h14q11 0 19 -7l111 -100q6 -6 6 -12q0 -7 -5 -12l-13 -13q-6 -6 -11 -6t-12 5z" />
    <glyph glyph-name="idieresis" unicode="&#xef;" horiz-adv-x="237" 
d="M76 21v442q0 20 20 20h46q19 0 19 -20v-442q0 -21 -19 -21h-46q-20 0 -20 21zM-5 587q-16 13 -16 35q0 23 15.5 36t36.5 13t36 -13.5t15 -35.5t-15.5 -35t-35.5 -13t-36 13zM171.5 587q-16.5 13 -16.5 35q0 23 16 36t37 13t35.5 -13.5t14.5 -35.5t-15 -35t-35 -13
t-36.5 13z" />
    <glyph glyph-name="i.loclTRK" horiz-adv-x="237" 
d="M76 21v442q0 20 20 20h46q19 0 19 -20v-442q0 -21 -19 -21h-46q-20 0 -20 21zM79 602.5q-19 15.5 -19 39.5q0 25 18.5 40.5t41.5 15.5q22 0 40 -15.5t18 -39.5t-18.5 -40t-39.5 -16q-22 0 -41 15.5z" />
    <glyph glyph-name="igrave" unicode="&#xec;" horiz-adv-x="237" 
d="M76 21v442q0 20 20 20h46q19 0 19 -20v-442q0 -21 -19 -21h-46q-20 0 -20 21zM178 561l-151 75q-10 4 -10 13q0 7 4 12l21 33q7 10 15 10q5 0 14 -6l140 -90q9 -5 9 -13q0 -5 -4 -10l-12 -18q-6 -9 -14 -9q-5 0 -12 3z" />
    <glyph glyph-name="ij" unicode="&#x133;" horiz-adv-x="499" 
d="M82 566.5q-15 13.5 -15 34.5t15 34.5t36 13.5t36.5 -13.5t15.5 -34.5t-16 -34.5t-36 -13.5q-21 0 -36 13.5zM76 21v442q0 20 20 20h46q19 0 19 -20v-442q0 -21 -19 -21h-46q-20 0 -20 21zM346 565.5q-15 13.5 -15 34.5t15 35t36 14t36 -13.5t15 -34.5t-15.5 -35
t-35.5 -14q-21 0 -36 13.5zM181 -213q-13 2 -11 19l6 36q1 12 15 10q30 -5 49 -5q46 0 70 30q16 19 22 52t6 83v452q0 19 19 19h48q18 0 18 -19v-439q0 -69 -12 -117.5t-41 -78.5q-24 -24 -54.5 -36t-78.5 -12q-26 0 -56 6z" />
    <glyph glyph-name="imacron" unicode="&#x12b;" horiz-adv-x="237" 
d="M76 21v442q0 20 20 20h46q19 0 19 -20v-442q0 -21 -19 -21h-46q-20 0 -20 21zM-8.5 593.5q-5.5 5.5 -5.5 18.5v17q0 12 5 17t21 5h210q18 0 23.5 -4.5t5.5 -17.5v-17q0 -13 -6 -18.5t-23 -5.5h-210q-15 0 -20.5 5.5z" />
    <glyph glyph-name="iogonek" unicode="&#x12f;" horiz-adv-x="237" 
d="M82 566.5q-15 13.5 -15 34.5t15 34.5t36 13.5t36.5 -13.5t15.5 -34.5t-16 -34.5t-36 -13.5q-21 0 -36 13.5zM12.5 -174q-26.5 23 -26.5 57q0 68 90 127v453q0 20 20 20h46q19 0 19 -20v-445q0 -11 -8 -16q-23 -7 -37.5 -14t-26.5 -19q-34 -31 -34 -70q0 -45 52 -45
q23 0 58 10h2q4 0 7 -7l5 -18q1 -2 1 -7q0 -10 -12 -14q-16 -6 -39 -10.5t-42 -4.5q-48 0 -74.5 23z" />
    <glyph glyph-name="itilde" unicode="&#x129;" horiz-adv-x="237" 
d="M76 21v442q0 20 20 20h46q19 0 19 -20v-442q0 -21 -19 -21h-46q-20 0 -20 21zM143 583q-12 5 -30 16q-16 9 -27.5 14t-22.5 5q-22 0 -65 -24q-10 -6 -16 -6q-8 0 -12 10l-9 23q-4 10 -4 11q0 7 14 16q21 14 45.5 23t45.5 9q15 0 30 -5.5t35 -16.5q12 -6 24.5 -11t21.5 -5
q18 0 62 27q9 5 15 5q8 0 14 -9l11 -17q5 -8 5 -12q0 -8 -8 -14q-57 -44 -104 -44q-13 0 -25 5z" />
    <glyph glyph-name="j" unicode="j" horiz-adv-x="262" 
d="M109 565.5q-15 13.5 -15 34.5t15 35t36 14t36 -13.5t15 -34.5t-15.5 -35t-35.5 -14q-21 0 -36 13.5zM-56 -213q-13 2 -11 19l6 36q1 12 15 10q30 -5 49 -5q46 0 70 30q16 19 22 52t6 83v452q0 19 19 19h48q18 0 18 -19v-439q0 -69 -12 -117.5t-41 -78.5
q-24 -24 -54.5 -36t-78.5 -12q-26 0 -56 6z" />
    <glyph glyph-name="uni0237" unicode="&#x237;" horiz-adv-x="262" 
d="M-56 -213q-13 2 -11 19l6 36q1 12 15 10q30 -5 49 -5q46 0 70 30q16 19 22 52t6 83v452q0 19 19 19h48q18 0 18 -19v-439q0 -69 -12 -117.5t-41 -78.5q-24 -24 -54.5 -36t-78.5 -12q-26 0 -56 6z" />
    <glyph glyph-name="jcircumflex" unicode="&#x135;" horiz-adv-x="262" 
d="M-56 -213q-13 2 -11 19l6 36q1 12 15 10q30 -5 49 -5q46 0 70 30q16 19 22 52t6 83v452q0 19 19 19h48q18 0 18 -19v-439q0 -69 -12 -117.5t-41 -78.5q-24 -24 -54.5 -36t-78.5 -12q-26 0 -56 6zM244 556l-102 79l-94 -73q-10 -8 -17 -8q-6 0 -13 7l-12 13q-5 7 -5 10
q0 5 6 11l108 98q10 8 20 8h14q11 0 19 -7l111 -100q6 -6 6 -12q0 -7 -5 -12l-13 -13q-6 -6 -11 -6t-12 5z" />
    <glyph glyph-name="k" unicode="k" horiz-adv-x="443" 
d="M67 20v664q0 10 3.5 14.5t12.5 5.5l52 8q17 0 17 -19v-403h2l155 182q10 11 21 11h65q9 0 9 -7q0 -4 -4 -8l-158 -180l179 -263q6 -7 6 -14q0 -11 -17 -11h-55q-21 0 -32 17l-149 224l-22 -22v-197q0 -22 -20 -22h-47q-18 0 -18 20z" />
    <glyph glyph-name="kcommaaccent" unicode="&#x137;" horiz-adv-x="443" 
d="M67 20v664q0 10 3.5 14.5t12.5 5.5l52 8q17 0 17 -19v-403h2l155 182q10 11 21 11h65q9 0 9 -7q0 -4 -4 -8l-158 -180l179 -263q6 -7 6 -14q0 -11 -17 -11h-55q-21 0 -32 17l-149 224l-22 -22v-197q0 -22 -20 -22h-47q-18 0 -18 20zM193 -214l-6 6q-1 2 -2 3.5t-1 4.5
q0 2 5 7q28 28 28 53q0 10 -13 27q-14 18 -14 31q0 19 12 30.5t31 11.5q20 0 33 -16.5t13 -37.5q0 -34 -18.5 -68t-46.5 -54q-7 -4 -12 -4t-9 6z" />
    <glyph glyph-name="kgreenlandic" unicode="&#x138;" horiz-adv-x="473" 
d="M67 20v443q0 20 20 20h46q19 0 19 -20v-191l177 200q10 11 21 11h65q9 0 9 -7q0 -4 -4 -8l-171 -189l192 -254q6 -7 6 -14q0 -11 -17 -11h-55q-20 0 -32 17l-154 207l-37 -40v-162q0 -22 -20 -22h-47q-18 0 -18 20z" />
    <glyph glyph-name="l" unicode="l" horiz-adv-x="219" 
d="M67 20v664q0 11 3 15t12 5l55 7q15 0 15 -17v-673q0 -21 -18 -21h-49q-18 0 -18 20z" />
    <glyph glyph-name="lacute" unicode="&#x13a;" horiz-adv-x="219" 
d="M67 20v664q0 11 3 15t12 5l55 7q15 0 15 -17v-673q0 -21 -18 -21h-49q-18 0 -18 20zM27 764l-12 18q-4 5 -4 10q0 8 9 13l140 90q9 6 14 6q8 0 15 -10l21 -33q4 -5 4 -12q0 -9 -10 -13l-151 -75q-7 -3 -12 -3q-8 0 -14 9z" />
    <glyph glyph-name="lcaron" unicode="&#x13e;" horiz-adv-x="271" 
d="M67 20v664q0 11 3 15t12 5l55 7q15 0 15 -17v-673q0 -21 -18 -21h-49q-18 0 -18 20zM215 536l-6 6q-1 2 -2 3.5t-1 4.5q0 2 5 7q28 28 28 53q0 10 -13 27q-14 18 -14 31q0 19 12 30.5t31 11.5q20 0 33 -16.5t13 -37.5q0 -34 -18.5 -68t-46.5 -54q-7 -4 -12 -4t-9 6z" />
    <glyph glyph-name="lcommaaccent" unicode="&#x13c;" horiz-adv-x="219" 
d="M67 20v664q0 11 3 15t12 5l55 7q15 0 15 -17v-673q0 -21 -18 -21h-49q-18 0 -18 20zM71 -214l-6 6q-1 2 -2 3.5t-1 4.5q0 2 5 7q28 28 28 53q0 10 -13 27q-14 18 -14 31q0 19 12 30.5t31 11.5q20 0 33 -16.5t13 -37.5q0 -34 -18.5 -68t-46.5 -54q-7 -4 -12 -4t-9 6z" />
    <glyph glyph-name="ldot" unicode="&#x140;" horiz-adv-x="310" 
d="M67 20v664q0 11 3 15t12 5l55 7q15 0 15 -17v-673q0 -21 -18 -21h-49q-18 0 -18 20zM221 328.5q-19 15.5 -19 39.5q0 25 18.5 40.5t41.5 15.5q22 0 40 -15.5t18 -39.5t-18.5 -40t-39.5 -16q-22 0 -41 15.5z" />
    <glyph glyph-name="lslash" unicode="&#x142;" horiz-adv-x="284" 
d="M95 20v243l-73 -60q-6 -5 -12 -5q-10 0 -10 14v37q0 8 3.5 13t9 9t7.5 6l75 62v345q0 11 3 15t12 5l50 7h5q15 0 15 -17v-285l82 68q8 6 13 6q9 0 9 -16v-32q0 -11 -4.5 -17t-15.5 -15l-84 -69v-313q0 -21 -18 -21h-49q-18 0 -18 20z" />
    <glyph glyph-name="m" unicode="m" horiz-adv-x="829" 
d="M67 21v442q0 20 19 20h43q20 0 20 -18l1 -31q31 28 71 44t81 16q43 0 77 -15.5t53 -46.5q34 30 78 46t89 16q93 0 133 -62q30 -47 30 -133v-278q0 -21 -19 -21h-46q-20 0 -20 21v281q0 60 -21 91t-78 31q-30 0 -64 -13t-61 -34q4 -13 6 -46.5t2 -63.5v-246q0 -21 -19 -21
h-46q-20 0 -20 21v281q0 59 -19.5 90.5t-74.5 31.5q-33 0 -67 -16.5t-63 -42.5v-344q0 -21 -19 -21h-47q-19 0 -19 21z" />
    <glyph glyph-name="n" unicode="n" horiz-adv-x="539" 
d="M67 20v443q0 11 4.5 15.5t14.5 4.5h44q19 0 19 -18l1 -31q34 29 77 44.5t87 15.5q159 0 159 -179v-294q0 -21 -19 -21h-47q-19 0 -19 21v280q0 59 -21 90.5t-77 31.5q-34 0 -72.5 -16.5t-65.5 -41.5v-344q0 -21 -19 -21h-47q-19 0 -19 20z" />
    <glyph glyph-name="nacute" unicode="&#x144;" horiz-adv-x="539" 
d="M67 20v443q0 11 4.5 15.5t14.5 4.5h44q19 0 19 -18l1 -31q34 29 77 44.5t87 15.5q159 0 159 -179v-294q0 -21 -19 -21h-47q-19 0 -19 21v280q0 59 -21 90.5t-77 31.5q-34 0 -72.5 -16.5t-65.5 -41.5v-344q0 -21 -19 -21h-47q-19 0 -19 20zM214 564l-12 18q-4 5 -4 10
q0 8 9 13l140 90q9 6 14 6q8 0 15 -10l21 -33q4 -5 4 -12q0 -9 -10 -13l-151 -75q-7 -3 -12 -3q-8 0 -14 9z" />
    <glyph glyph-name="napostrophe" unicode="&#x149;" horiz-adv-x="538" 
d="M67 20v443q0 11 4.5 15.5t14.5 4.5h44q19 0 19 -18l1 -31q34 29 77 44.5t87 15.5q159 0 159 -179v-294q0 -21 -19 -21h-47q-19 0 -19 21v280q0 59 -21 90.5t-77 31.5q-34 0 -72.5 -16.5t-65.5 -41.5v-344q0 -21 -19 -21h-47q-19 0 -19 20zM-42 536l-6 6q-1 2 -2 3.5
t-1 4.5q0 2 5 7q28 28 28 53q0 10 -13 27q-14 18 -14 31q0 19 12 30.5t31 11.5q20 0 33 -16.5t13 -37.5q0 -34 -18.5 -68t-46.5 -54q-7 -4 -12 -4t-9 6z" />
    <glyph glyph-name="ncaron" unicode="&#x148;" horiz-adv-x="539" 
d="M67 20v443q0 11 4.5 15.5t14.5 4.5h44q19 0 19 -18l1 -31q34 29 77 44.5t87 15.5q159 0 159 -179v-294q0 -21 -19 -21h-47q-19 0 -19 21v280q0 59 -21 90.5t-77 31.5q-34 0 -72.5 -16.5t-65.5 -41.5v-344q0 -21 -19 -21h-47q-19 0 -19 20zM272 557l-108 98q-6 6 -6 11
q0 3 5 10l12 13q7 7 13 7q7 0 17 -8l94 -73l102 79q7 5 12 5t11 -6l13 -13q5 -5 5 -12q0 -6 -6 -12l-111 -100q-8 -7 -19 -7h-14q-10 0 -20 8z" />
    <glyph glyph-name="ncommaaccent" unicode="&#x146;" horiz-adv-x="539" 
d="M67 20v443q0 11 4.5 15.5t14.5 4.5h44q19 0 19 -18l1 -31q34 29 77 44.5t87 15.5q159 0 159 -179v-294q0 -21 -19 -21h-47q-19 0 -19 21v280q0 59 -21 90.5t-77 31.5q-34 0 -72.5 -16.5t-65.5 -41.5v-344q0 -21 -19 -21h-47q-19 0 -19 20zM231 -214l-6 6q-1 2 -2 3.5
t-1 4.5q0 2 5 7q28 28 28 53q0 10 -13 27q-14 18 -14 31q0 19 12 30.5t31 11.5q20 0 33 -16.5t13 -37.5q0 -34 -18.5 -68t-46.5 -54q-7 -4 -12 -4t-9 6z" />
    <glyph glyph-name="eng" unicode="&#x14b;" horiz-adv-x="539" 
d="M258 -173q-8 2 -10 6t-1 11l6 37q3 14 13 11q19 -5 41 -5q49 0 65 43t16 122v249q0 59 -21 90.5t-77 31.5q-34 0 -72.5 -16.5t-65.5 -41.5v-344q0 -21 -20 -21h-45q-20 0 -20 21v442q0 11 4.5 15.5t14.5 4.5h44q19 0 19 -18l1 -31q34 29 77 44.5t87 15.5q159 0 159 -179
v-250q0 -119 -36 -181.5t-129 -62.5q-30 0 -50 6z" />
    <glyph glyph-name="ntilde" unicode="&#xf1;" horiz-adv-x="539" 
d="M67 20v443q0 11 4.5 15.5t14.5 4.5h44q19 0 19 -18l1 -31q34 29 77 44.5t87 15.5q159 0 159 -179v-294q0 -21 -19 -21h-47q-19 0 -19 21v280q0 59 -21 90.5t-77 31.5q-34 0 -72.5 -16.5t-65.5 -41.5v-344q0 -21 -19 -21h-47q-19 0 -19 20zM324 583q-12 5 -30 16
q-16 9 -27.5 14t-22.5 5q-22 0 -65 -24q-10 -6 -16 -6q-8 0 -12 10l-9 23q-4 10 -4 11q0 7 14 16q21 14 45.5 23t45.5 9q15 0 30 -5.5t35 -16.5q12 -6 24.5 -11t21.5 -5q18 0 62 27q9 5 15 5q8 0 14 -9l11 -17q5 -8 5 -12q0 -8 -8 -14q-57 -44 -104 -44q-13 0 -25 5z" />
    <glyph glyph-name="o" unicode="o" horiz-adv-x="534" 
d="M96.5 60q-56.5 70 -56.5 183q0 71 27 128t79 90t124 33q112 0 168.5 -69t56.5 -183q0 -71 -27 -128.5t-79.5 -90.5t-124.5 -33q-111 0 -167.5 70zM372.5 109.5q34.5 53.5 34.5 131.5q0 79 -33 133t-105 54q-74 0 -107.5 -53t-33.5 -130q0 -80 32 -134.5t105 -54.5
t107.5 53.5z" />
    <glyph glyph-name="oacute" unicode="&#xf3;" horiz-adv-x="534" 
d="M96.5 60q-56.5 70 -56.5 183q0 71 27 128t79 90t124 33q112 0 168.5 -69t56.5 -183q0 -71 -27 -128.5t-79.5 -90.5t-124.5 -33q-111 0 -167.5 70zM372.5 109.5q34.5 53.5 34.5 131.5q0 79 -33 133t-105 54q-74 0 -107.5 -53t-33.5 -130q0 -80 32 -134.5t105 -54.5
t107.5 53.5zM181 564l-12 18q-4 5 -4 10q0 8 9 13l140 90q9 6 14 6q8 0 15 -10l21 -33q4 -5 4 -12q0 -9 -10 -13l-151 -75q-7 -3 -12 -3q-8 0 -14 9z" />
    <glyph glyph-name="obreve" unicode="&#x14f;" horiz-adv-x="534" 
d="M96.5 60q-56.5 70 -56.5 183q0 71 27 128t79 90t124 33q112 0 168.5 -69t56.5 -183q0 -71 -27 -128.5t-79.5 -90.5t-124.5 -33q-111 0 -167.5 70zM372.5 109.5q34.5 53.5 34.5 131.5q0 79 -33 133t-105 54q-74 0 -107.5 -53t-33.5 -130q0 -80 32 -134.5t105 -54.5
t107.5 53.5zM195 582q-22 13 -37 32.5t-19 43.5q-1 3 -1 10q0 8 3.5 10.5t12.5 2.5h25q10 0 14 -3t9 -12q9 -19 27 -31.5t38 -12.5t38 12.5t27 31.5q5 9 9 12t14 3h25q9 0 12.5 -2.5t3.5 -10.5q0 -7 -1 -10q-4 -24 -19 -43.5t-37 -32.5q-33 -18 -72 -18t-72 18z" />
    <glyph glyph-name="ocircumflex" unicode="&#xf4;" horiz-adv-x="534" 
d="M96.5 60q-56.5 70 -56.5 183q0 71 27 128t79 90t124 33q112 0 168.5 -69t56.5 -183q0 -71 -27 -128.5t-79.5 -90.5t-124.5 -33q-111 0 -167.5 70zM372.5 109.5q34.5 53.5 34.5 131.5q0 79 -33 133t-105 54q-74 0 -107.5 -53t-33.5 -130q0 -80 32 -134.5t105 -54.5
t107.5 53.5zM368 556l-102 79l-94 -73q-10 -8 -17 -8q-6 0 -13 7l-12 13q-5 7 -5 10q0 5 6 11l108 98q10 8 20 8h14q11 0 19 -7l111 -100q6 -6 6 -12q0 -7 -5 -12l-13 -13q-6 -6 -11 -6t-12 5z" />
    <glyph glyph-name="odieresis" unicode="&#xf6;" horiz-adv-x="534" 
d="M96.5 60q-56.5 70 -56.5 183q0 71 27 128t79 90t124 33q112 0 168.5 -69t56.5 -183q0 -71 -27 -128.5t-79.5 -90.5t-124.5 -33q-111 0 -167.5 70zM372.5 109.5q34.5 53.5 34.5 131.5q0 79 -33 133t-105 54q-74 0 -107.5 -53t-33.5 -130q0 -80 32 -134.5t105 -54.5
t107.5 53.5zM143 587q-16 13 -16 35q0 23 15.5 36t36.5 13t36 -13.5t15 -35.5t-15.5 -35t-35.5 -13t-36 13zM319.5 587q-16.5 13 -16.5 35q0 23 16 36t37 13t35.5 -13.5t14.5 -35.5t-15 -35t-35 -13t-36.5 13z" />
    <glyph glyph-name="ograve" unicode="&#xf2;" horiz-adv-x="534" 
d="M96.5 60q-56.5 70 -56.5 183q0 71 27 128t79 90t124 33q112 0 168.5 -69t56.5 -183q0 -71 -27 -128.5t-79.5 -90.5t-124.5 -33q-111 0 -167.5 70zM372.5 109.5q34.5 53.5 34.5 131.5q0 79 -33 133t-105 54q-74 0 -107.5 -53t-33.5 -130q0 -80 32 -134.5t105 -54.5
t107.5 53.5zM326 561l-151 75q-10 4 -10 13q0 7 4 12l21 33q7 10 15 10q5 0 14 -6l140 -90q9 -5 9 -13q0 -5 -4 -10l-12 -18q-6 -9 -14 -9q-5 0 -12 3z" />
    <glyph glyph-name="ohungarumlaut" unicode="&#x151;" horiz-adv-x="534" 
d="M96.5 60q-56.5 70 -56.5 183q0 71 27 128t79 90t124 33q112 0 168.5 -69t56.5 -183q0 -71 -27 -128.5t-79.5 -90.5t-124.5 -33q-111 0 -167.5 70zM372.5 109.5q34.5 53.5 34.5 131.5q0 79 -33 133t-105 54q-74 0 -107.5 -53t-33.5 -130q0 -80 32 -134.5t105 -54.5
t107.5 53.5zM99 566l-10 15q-4 5 -4 10q0 8 9 13l140 91q7 5 13 5q8 0 15 -10l20 -30q4 -5 4 -12q0 -9 -10 -13l-151 -74q-10 -4 -12 -4q-8 0 -14 9zM322 566l-10 15q-4 5 -4 10q0 8 9 13l140 91q7 5 13 5q8 0 15 -10l20 -30q4 -5 4 -12q0 -9 -10 -13l-152 -74
q-10 -4 -11 -4q-8 0 -14 9z" />
    <glyph glyph-name="omacron" unicode="&#x14d;" horiz-adv-x="534" 
d="M96.5 60q-56.5 70 -56.5 183q0 71 27 128t79 90t124 33q112 0 168.5 -69t56.5 -183q0 -71 -27 -128.5t-79.5 -90.5t-124.5 -33q-111 0 -167.5 70zM372.5 109.5q34.5 53.5 34.5 131.5q0 79 -33 133t-105 54q-74 0 -107.5 -53t-33.5 -130q0 -80 32 -134.5t105 -54.5
t107.5 53.5zM139.5 593.5q-5.5 5.5 -5.5 18.5v17q0 12 5 17t21 5h210q18 0 23.5 -4.5t5.5 -17.5v-17q0 -13 -6 -18.5t-23 -5.5h-210q-15 0 -20.5 5.5z" />
    <glyph glyph-name="oslash" unicode="&#xf8;" horiz-adv-x="534" 
d="M118 -33l-30 18q-12 7 -12 14q0 5 4 10l26 41q-66 67 -66 193q0 71 27 128t79 90t124 33q51 0 97 -18l17 28q6 9 9.5 12.5t8.5 3.5t13 -4l23 -12q13 -7 13 -15q0 -6 -6 -15l-21 -34q35 -33 53 -84t18 -114q0 -71 -27 -128.5t-79.5 -90.5t-124.5 -33q-57 0 -102 20
l-21 -33q-8 -13 -15 -13q-4 0 -8 3zM329 415q-25 13 -60 13q-74 0 -107.5 -53t-33.5 -130q0 -71 24 -120zM372.5 109.5q34.5 53.5 34.5 131.5q0 76 -28 125l-179 -294q29 -16 65 -16q73 0 107.5 53.5z" />
    <glyph glyph-name="oslashacute" unicode="&#x1ff;" horiz-adv-x="534" 
d="M118 -33l-30 18q-12 7 -12 14q0 5 4 10l26 41q-66 67 -66 193q0 71 27 128t79 90t124 33q51 0 97 -18l17 28q6 9 9.5 12.5t8.5 3.5t13 -4l23 -12q13 -7 13 -15q0 -6 -6 -15l-21 -34q35 -33 53 -84t18 -114q0 -71 -27 -128.5t-79.5 -90.5t-124.5 -33q-57 0 -102 20
l-21 -33q-8 -13 -15 -13q-4 0 -8 3zM329 415q-25 13 -60 13q-74 0 -107.5 -53t-33.5 -130q0 -71 24 -120zM372.5 109.5q34.5 53.5 34.5 131.5q0 76 -28 125l-179 -294q29 -16 65 -16q73 0 107.5 53.5zM181 564l-12 18q-4 5 -4 10q0 8 9 13l140 90q9 6 14 6q8 0 15 -10
l21 -33q4 -5 4 -12q0 -9 -10 -13l-151 -75q-7 -3 -12 -3q-8 0 -14 9z" />
    <glyph glyph-name="otilde" unicode="&#xf5;" horiz-adv-x="534" 
d="M96.5 60q-56.5 70 -56.5 183q0 71 27 128t79 90t124 33q112 0 168.5 -69t56.5 -183q0 -71 -27 -128.5t-79.5 -90.5t-124.5 -33q-111 0 -167.5 70zM372.5 109.5q34.5 53.5 34.5 131.5q0 79 -33 133t-105 54q-74 0 -107.5 -53t-33.5 -130q0 -80 32 -134.5t105 -54.5
t107.5 53.5zM291 583q-12 5 -30 16q-16 9 -27.5 14t-22.5 5q-22 0 -65 -24q-10 -6 -16 -6q-8 0 -12 10l-9 23q-4 10 -4 11q0 7 14 16q21 14 45.5 23t45.5 9q15 0 30 -5.5t35 -16.5q12 -6 24.5 -11t21.5 -5q18 0 62 27q9 5 15 5q8 0 14 -9l11 -17q5 -8 5 -12q0 -8 -8 -14
q-57 -44 -104 -44q-13 0 -25 5z" />
    <glyph glyph-name="oe" unicode="&#x153;" horiz-adv-x="862" 
d="M98 59q-57 70 -57 183q0 71 27 128.5t79.5 90.5t124.5 33q125 0 176 -100q29 47 76 73.5t109 26.5q83 0 136 -55q57 -58 57 -165v-17q0 -18 -5.5 -23t-24.5 -5h-307q2 -74 43.5 -121.5t114.5 -47.5q31 0 63 5.5t57 15.5q8 2 10 2q9 0 12 -9l11 -37q1 -2 1 -5
q0 -7 -12 -13q-30 -14 -72.5 -21.5t-80.5 -7.5q-136 0 -193 100q-56 -101 -177 -101q-111 0 -168 70zM374.5 107.5q34.5 54.5 34.5 132.5t-33 134t-105 56q-74 0 -108 -55t-34 -131q0 -80 32.5 -135.5t105.5 -55.5t107.5 54.5zM742 287v14q0 54 -29.5 90.5t-83.5 36.5
q-59 0 -95.5 -40.5t-42.5 -100.5h251z" />
    <glyph glyph-name="p" unicode="p" horiz-adv-x="539" 
d="M66 -194v659q0 10 4.5 14t14.5 4h38q12 0 17.5 -4t5.5 -14v-35q24 29 65 46.5t84 17.5q68 0 114 -34t68.5 -90.5t22.5 -123.5q0 -69 -24.5 -127t-73.5 -93.5t-119 -35.5q-38 0 -74 14.5t-58 41.5v-242q0 -19 -22 -19h-44q-19 0 -19 21zM377 112q34 55 34 132t-31 129.5
t-102 52.5q-35 0 -71.5 -18.5t-55.5 -45.5v-235q16 -30 50.5 -50t70.5 -20q71 0 105 55z" />
    <glyph glyph-name="thorn" unicode="&#xfe;" horiz-adv-x="532" 
d="M60 -194v870q0 14 4 19.5t14 7.5l43 6h5q17 0 17 -19v-257q24 27 64.5 44t81.5 17q89 0 144 -61q61 -67 61 -187q0 -56 -17 -105.5t-48 -85.5q-57 -65 -152 -65q-38 0 -74 14.5t-58 41.5v-242q0 -19 -22 -19h-44q-19 0 -19 21zM361 99q44 52 44 145q0 87 -35 135
q-35 47 -98 47q-35 0 -71.5 -18.5t-55.5 -45.5v-235q16 -30 50.5 -50t70.5 -20q59 0 95 42z" />
    <glyph glyph-name="q" unicode="q" horiz-adv-x="539" 
d="M391.5 -211q-4.5 4 -4.5 14v249q-26 -29 -64.5 -45.5t-79.5 -16.5q-102 0 -152.5 71t-50.5 180q0 69 24.5 127t73.5 92t119 34q38 0 75 -15t59 -43l1 31q0 16 20 16h41q19 0 19 -20v-657q0 -11 -3.5 -16t-12.5 -5h-50q-10 0 -14.5 4zM330 79.5q36 19.5 57 47.5v227
q-18 30 -52 51t-69 21q-72 0 -105 -52.5t-33 -130.5q0 -75 30.5 -129t99.5 -54q36 0 72 19.5z" />
    <glyph glyph-name="r" unicode="r" horiz-adv-x="314" 
d="M67 21v442q0 20 19 20h43q20 0 20 -18l1 -34q20 28 49 45.5t66 17.5q14 0 29 -3q10 -2 8 -17l-7 -45q-1 -10 -11 -10q-5 0 -13 1.5t-19 1.5q-26 0 -53.5 -16t-46.5 -44v-341q0 -21 -19 -21h-47q-19 0 -19 21z" />
    <glyph glyph-name="racute" unicode="&#x155;" horiz-adv-x="314" 
d="M67 21v442q0 20 19 20h43q20 0 20 -18l1 -34q20 28 49 45.5t66 17.5q14 0 29 -3q10 -2 8 -17l-7 -45q-1 -10 -11 -10q-5 0 -13 1.5t-19 1.5q-26 0 -53.5 -16t-46.5 -44v-341q0 -21 -19 -21h-47q-19 0 -19 21zM101 564l-12 18q-4 5 -4 10q0 8 9 13l140 90q9 6 14 6
q8 0 15 -10l21 -33q4 -5 4 -12q0 -9 -10 -13l-151 -75q-7 -3 -12 -3q-8 0 -14 9z" />
    <glyph glyph-name="rcaron" unicode="&#x159;" horiz-adv-x="314" 
d="M67 21v442q0 20 19 20h43q20 0 20 -18l1 -34q20 28 49 45.5t66 17.5q14 0 29 -3q10 -2 8 -17l-7 -45q-1 -10 -11 -10q-5 0 -13 1.5t-19 1.5q-26 0 -53.5 -16t-46.5 -44v-341q0 -21 -19 -21h-47q-19 0 -19 21zM159 557l-108 98q-6 6 -6 11q0 3 5 10l12 13q7 7 13 7
q7 0 17 -8l94 -73l102 79q7 5 12 5t11 -6l13 -13q5 -5 5 -12q0 -6 -6 -12l-111 -100q-8 -7 -19 -7h-14q-10 0 -20 8z" />
    <glyph glyph-name="rcommaaccent" unicode="&#x157;" horiz-adv-x="314" 
d="M67 21v442q0 20 19 20h43q20 0 20 -18l1 -34q20 28 49 45.5t66 17.5q14 0 29 -3q10 -2 8 -17l-7 -45q-1 -10 -11 -10q-5 0 -13 1.5t-19 1.5q-26 0 -53.5 -16t-46.5 -44v-341q0 -21 -19 -21h-47q-19 0 -19 21zM72 -214l-6 6q-1 2 -2 3.5t-1 4.5q0 2 5 7q28 28 28 53
q0 10 -13 27q-14 18 -14 31q0 19 12 30.5t31 11.5q20 0 33 -16.5t13 -37.5q0 -34 -18.5 -68t-46.5 -54q-7 -4 -12 -4t-9 6z" />
    <glyph glyph-name="s" unicode="s" horiz-adv-x="391" 
d="M107.5 -0.5q-36.5 9.5 -65.5 22.5q-14 6 -9 19l13 36q2 6 7 8.5t10 0.5q71 -30 119 -30q44 0 70.5 20t26.5 55q0 28 -19 45.5t-56 32.5l-67 26q-48 19 -75.5 50t-27.5 76q0 63 49 98t119 35t130 -28q9 -4 9 -10l-2 -8l-11 -35q-3 -10 -11 -10l-8 2q-20 9 -51 16.5
t-54 7.5q-38 0 -60 -17.5t-22 -44.5q0 -24 14.5 -39t47.5 -29l78 -33q45 -19 72.5 -50.5t27.5 -76.5q0 -68 -51 -108.5t-132 -40.5q-35 0 -71.5 9.5z" />
    <glyph glyph-name="sacute" unicode="&#x15b;" horiz-adv-x="391" 
d="M107.5 -0.5q-36.5 9.5 -65.5 22.5q-14 6 -9 19l13 36q2 6 7 8.5t10 0.5q71 -30 119 -30q44 0 70.5 20t26.5 55q0 28 -19 45.5t-56 32.5l-67 26q-48 19 -75.5 50t-27.5 76q0 63 49 98t119 35t130 -28q9 -4 9 -10l-2 -8l-11 -35q-3 -10 -11 -10l-8 2q-20 9 -51 16.5
t-54 7.5q-38 0 -60 -17.5t-22 -44.5q0 -24 14.5 -39t47.5 -29l78 -33q45 -19 72.5 -50.5t27.5 -76.5q0 -68 -51 -108.5t-132 -40.5q-35 0 -71.5 9.5zM113 564l-12 18q-4 5 -4 10q0 8 9 13l140 90q9 6 14 6q8 0 15 -10l21 -33q4 -5 4 -12q0 -9 -10 -13l-151 -75q-7 -3 -12 -3
q-8 0 -14 9z" />
    <glyph glyph-name="scaron" unicode="&#x161;" horiz-adv-x="391" 
d="M107.5 -0.5q-36.5 9.5 -65.5 22.5q-14 6 -9 19l13 36q2 6 7 8.5t10 0.5q71 -30 119 -30q44 0 70.5 20t26.5 55q0 28 -19 45.5t-56 32.5l-67 26q-48 19 -75.5 50t-27.5 76q0 63 49 98t119 35t130 -28q9 -4 9 -10l-2 -8l-11 -35q-3 -10 -11 -10l-8 2q-20 9 -51 16.5
t-54 7.5q-38 0 -60 -17.5t-22 -44.5q0 -24 14.5 -39t47.5 -29l78 -33q45 -19 72.5 -50.5t27.5 -76.5q0 -68 -51 -108.5t-132 -40.5q-35 0 -71.5 9.5zM171 557l-108 98q-6 6 -6 11q0 3 5 10l12 13q7 7 13 7q7 0 17 -8l94 -73l102 79q7 5 12 5t11 -6l13 -13q5 -5 5 -12
q0 -6 -6 -12l-111 -100q-8 -7 -19 -7h-14q-10 0 -20 8z" />
    <glyph glyph-name="scedilla" unicode="&#x15f;" horiz-adv-x="391" 
d="M313.5 32.5q-48.5 -40.5 -126.5 -42.5l-2 -38h8q40 0 66 -18t26 -56q0 -35 -26 -57t-74 -22q-33 0 -65 12q-14 6 -14 13q0 3 1 5l5 16q3 9 9 9q4 0 10 -3q24 -9 52 -9q18 0 30.5 9t12.5 27q0 33 -52 33h-18q-14 0 -19.5 6t-5.5 17q0 10 1 15l5 44q-50 8 -95 29
q-14 6 -9 19l13 36q2 6 7 8.5t10 0.5q71 -30 119 -30q44 0 70.5 20t26.5 55q0 28 -19 45.5t-56 32.5l-67 26q-48 19 -75.5 50t-27.5 76q0 63 49 98t119 35t130 -28q9 -4 9 -10l-2 -8l-11 -35q-3 -10 -11 -10l-8 2q-20 9 -51 16.5t-54 7.5q-38 0 -60 -17.5t-22 -44.5
q0 -24 14.5 -39t47.5 -29l78 -33q45 -19 72.5 -50.5t27.5 -76.5q0 -66 -48.5 -106.5z" />
    <glyph glyph-name="scircumflex" unicode="&#x15d;" horiz-adv-x="391" 
d="M107.5 -0.5q-36.5 9.5 -65.5 22.5q-14 6 -9 19l13 36q2 6 7 8.5t10 0.5q71 -30 119 -30q44 0 70.5 20t26.5 55q0 28 -19 45.5t-56 32.5l-67 26q-48 19 -75.5 50t-27.5 76q0 63 49 98t119 35t130 -28q9 -4 9 -10l-2 -8l-11 -35q-3 -10 -11 -10l-8 2q-20 9 -51 16.5
t-54 7.5q-38 0 -60 -17.5t-22 -44.5q0 -24 14.5 -39t47.5 -29l78 -33q45 -19 72.5 -50.5t27.5 -76.5q0 -68 -51 -108.5t-132 -40.5q-35 0 -71.5 9.5zM300 556l-102 79l-94 -73q-10 -8 -17 -8q-6 0 -13 7l-12 13q-5 7 -5 10q0 5 6 11l108 98q10 8 20 8h14q11 0 19 -7
l111 -100q6 -6 6 -12q0 -7 -5 -12l-13 -13q-6 -6 -11 -6t-12 5z" />
    <glyph glyph-name="scommaaccent" unicode="&#x219;" horiz-adv-x="391" 
d="M107.5 -0.5q-36.5 9.5 -65.5 22.5q-14 6 -9 19l13 36q2 6 7 8.5t10 0.5q71 -30 119 -30q44 0 70.5 20t26.5 55q0 28 -19 45.5t-56 32.5l-67 26q-48 19 -75.5 50t-27.5 76q0 63 49 98t119 35t130 -28q9 -4 9 -10l-2 -8l-11 -35q-3 -10 -11 -10l-8 2q-20 9 -51 16.5
t-54 7.5q-38 0 -60 -17.5t-22 -44.5q0 -24 14.5 -39t47.5 -29l78 -33q45 -19 72.5 -50.5t27.5 -76.5q0 -68 -51 -108.5t-132 -40.5q-35 0 -71.5 9.5zM157 -214l-6 6q-1 2 -2 3.5t-1 4.5q0 2 5 7q28 28 28 53q0 10 -13 27q-14 18 -14 31q0 19 12 30.5t31 11.5q20 0 33 -16.5
t13 -37.5q0 -34 -18.5 -68t-46.5 -54q-7 -4 -12 -4t-9 6z" />
    <glyph glyph-name="germandbls" unicode="&#xdf;" horiz-adv-x="565" 
d="M69 -73v489q0 83 3 117q7 92 60 140t141 48q89 0 147 -43.5t58 -131.5q0 -53 -32 -99t-84 -59v-1q71 -8 117.5 -58.5t46.5 -123.5q0 -71 -32 -119t-84.5 -71t-114.5 -23h-6q-32 0 -40 1q-15 1 -19 5t-4 15v26q0 12 4 16t15 4l44 -1q74 0 111.5 42t37.5 107q0 68 -47 103
t-111 35h-33q-14 0 -17.5 2t-3.5 11v36q0 9 3 12t13 3h15q33 0 63.5 15t50 44t19.5 69q0 59 -31.5 88.5t-90.5 29.5q-52 0 -83 -35.5t-31 -103.5v-589q0 -21 -19 -21h-47q-19 0 -19 21z" />
    <glyph glyph-name="longs" unicode="&#x17f;" horiz-adv-x="298" 
d="M92 21v402h-57q-8 0 -11.5 3.5t-3.5 11.5v30q0 8 3.5 11.5t11.5 3.5h57v19q0 44 4 80q9 66 49 102.5t109 36.5q23 0 49.5 -5t44.5 -13q9 -4 10.5 -8.5t-0.5 -11.5l-10 -33q-2 -10 -13 -10q-5 0 -8 1q-32 12 -63 12q-49 0 -68 -30.5t-19 -92.5v-509q0 -21 -20 -21h-45
q-20 0 -20 21z" />
    <glyph glyph-name="t" unicode="t" horiz-adv-x="349" 
d="M165 -0.5q-29 9.5 -46 27.5q-20 22 -25.5 51t-5.5 83v262h-55q-10 0 -12.5 2.5t-2.5 12.5v31q0 14 13 14h57v114q0 10 3.5 14t13.5 6l49 7h4q15 0 15 -18v-123h118q7 0 10.5 -2.5t3.5 -10.5v-34q0 -13 -15 -13h-117v-270q0 -29 3.5 -46.5t13.5 -29.5q18 -20 55 -20
q25 0 63 12q2 1 5 1q10 0 13 -10l8 -32l1 -5q0 -9 -14 -15q-46 -18 -93 -18q-34 0 -63 9.5z" />
    <glyph glyph-name="tbar" unicode="&#x167;" horiz-adv-x="349" 
d="M165 -0.5q-29 9.5 -46 27.5q-20 22 -25.5 51t-5.5 83v58h-48q-13 0 -17.5 4.5t-4.5 14.5v27q0 10 4.5 14t15.5 4h50v140h-55q-10 0 -12.5 2.5t-2.5 12.5v31q0 14 13 14h57v114q0 10 3.5 14t13.5 6l49 7h4q15 0 15 -18v-123h118q7 0 10.5 -2.5t3.5 -10.5v-34
q0 -13 -15 -13h-117v-140h92q13 0 17.5 -4t4.5 -16v-22q0 -12 -4 -17t-16 -5h-94v-66q0 -29 3.5 -46.5t13.5 -29.5q18 -20 55 -20q25 0 63 12q2 1 5 1q10 0 13 -10l8 -32l1 -5q0 -9 -14 -15q-46 -18 -93 -18q-34 0 -63 9.5z" />
    <glyph glyph-name="tcaron" unicode="&#x165;" horiz-adv-x="349" 
d="M240 526l-6 6q-1 2 -2 3.5t-1 4.5q0 2 5 7q28 28 28 53q0 10 -13 27q-14 18 -14 31q0 19 12 30.5t31 11.5q20 0 33 -16.5t13 -37.5q0 -34 -18.5 -68t-46.5 -54q-7 -4 -12 -4q-4 0 -9 6zM165 -0.5q-29 9.5 -46 27.5q-20 22 -25.5 51t-5.5 83v262h-55q-10 0 -12.5 2.5
t-2.5 12.5v31q0 14 13 14h57v114q0 10 3.5 14t13.5 6l49 7h4q15 0 15 -18v-123h118q7 0 10.5 -2.5t3.5 -10.5v-34q0 -13 -15 -13h-117v-270q0 -29 3.5 -46.5t13.5 -29.5q18 -20 55 -20q25 0 63 12q2 1 5 1q10 0 13 -10l8 -32l1 -5q0 -9 -14 -15q-46 -18 -93 -18
q-34 0 -63 9.5z" />
    <glyph glyph-name="uni0163" unicode="&#x163;" horiz-adv-x="349" 
d="M165 -0.5q-29 9.5 -46 27.5q-20 22 -25.5 51t-5.5 83v262h-55q-10 0 -12.5 2.5t-2.5 12.5v31q0 14 13 14h57v114q0 10 3.5 14t13.5 6l49 7h4q15 0 15 -18v-123h118q7 0 10.5 -2.5t3.5 -10.5v-34q0 -13 -15 -13h-117v-270q0 -29 3.5 -46.5t13.5 -29.5q18 -20 55 -20
q25 0 63 12q2 1 5 1q10 0 13 -10l8 -32l1 -5q0 -9 -14 -15q-46 -18 -93 -18q-34 0 -63 9.5zM176 -214l-6 6q-1 2 -2 3.5t-1 4.5q0 2 5 7q28 28 28 53q0 10 -13 27q-14 18 -14 31q0 19 12 30.5t31 11.5q20 0 33 -16.5t13 -37.5q0 -34 -18.5 -68t-46.5 -54q-7 -4 -12 -4t-9 6z
" />
    <glyph glyph-name="uni021B" unicode="&#x21b;" horiz-adv-x="349" 
d="M165 -0.5q-29 9.5 -46 27.5q-20 22 -25.5 51t-5.5 83v262h-55q-10 0 -12.5 2.5t-2.5 12.5v31q0 14 13 14h57v114q0 10 3.5 14t13.5 6l49 7h4q15 0 15 -18v-123h118q7 0 10.5 -2.5t3.5 -10.5v-34q0 -13 -15 -13h-117v-270q0 -29 3.5 -46.5t13.5 -29.5q18 -20 55 -20
q25 0 63 12q2 1 5 1q10 0 13 -10l8 -32l1 -5q0 -9 -14 -15q-46 -18 -93 -18q-34 0 -63 9.5zM176 -214l-6 6q-1 2 -2 3.5t-1 4.5q0 2 5 7q28 28 28 53q0 10 -13 27q-14 18 -14 31q0 19 12 30.5t31 11.5q20 0 33 -16.5t13 -37.5q0 -34 -18.5 -68t-46.5 -54q-7 -4 -12 -4t-9 6z
" />
    <glyph glyph-name="u" unicode="u" horiz-adv-x="531" 
d="M67 171v292q0 20 20 20h45q20 0 20 -20v-279q0 -60 20 -90.5t76 -30.5q32 0 69.5 17.5t62.5 41.5v341q0 20 19 20h47q19 0 19 -20v-441q0 -22 -20 -22h-43q-19 0 -19 19l-1 31q-71 -60 -158 -60q-157 0 -157 181z" />
    <glyph glyph-name="uacute" unicode="&#xfa;" horiz-adv-x="531" 
d="M67 171v292q0 20 20 20h45q20 0 20 -20v-279q0 -60 20 -90.5t76 -30.5q32 0 69.5 17.5t62.5 41.5v341q0 20 19 20h47q19 0 19 -20v-441q0 -22 -20 -22h-43q-19 0 -19 19l-1 31q-71 -60 -158 -60q-157 0 -157 181zM180 564l-12 18q-4 5 -4 10q0 8 9 13l140 90q9 6 14 6
q8 0 15 -10l21 -33q4 -5 4 -12q0 -9 -10 -13l-151 -75q-7 -3 -12 -3q-8 0 -14 9z" />
    <glyph glyph-name="ubreve" unicode="&#x16d;" horiz-adv-x="531" 
d="M67 171v292q0 20 20 20h45q20 0 20 -20v-279q0 -60 20 -90.5t76 -30.5q32 0 69.5 17.5t62.5 41.5v341q0 20 19 20h47q19 0 19 -20v-441q0 -22 -20 -22h-43q-19 0 -19 19l-1 31q-71 -60 -158 -60q-157 0 -157 181zM194 582q-22 13 -37 32.5t-19 43.5q-1 3 -1 10
q0 8 3.5 10.5t12.5 2.5h25q10 0 14 -3t9 -12q9 -19 27 -31.5t38 -12.5t38 12.5t27 31.5q5 9 9 12t14 3h25q9 0 12.5 -2.5t3.5 -10.5q0 -7 -1 -10q-4 -24 -19 -43.5t-37 -32.5q-33 -18 -72 -18t-72 18z" />
    <glyph glyph-name="ucircumflex" unicode="&#xfb;" horiz-adv-x="531" 
d="M67 171v292q0 20 20 20h45q20 0 20 -20v-279q0 -60 20 -90.5t76 -30.5q32 0 69.5 17.5t62.5 41.5v341q0 20 19 20h47q19 0 19 -20v-441q0 -22 -20 -22h-43q-19 0 -19 19l-1 31q-71 -60 -158 -60q-157 0 -157 181zM367 556l-102 79l-94 -73q-10 -8 -17 -8q-6 0 -13 7
l-12 13q-5 7 -5 10q0 5 6 11l108 98q10 8 20 8h14q11 0 19 -7l111 -100q6 -6 6 -12q0 -7 -5 -12l-13 -13q-6 -6 -11 -6t-12 5z" />
    <glyph glyph-name="udieresis" unicode="&#xfc;" horiz-adv-x="531" 
d="M67 171v292q0 20 20 20h45q20 0 20 -20v-279q0 -60 20 -90.5t76 -30.5q32 0 69.5 17.5t62.5 41.5v341q0 20 19 20h47q19 0 19 -20v-441q0 -22 -20 -22h-43q-19 0 -19 19l-1 31q-71 -60 -158 -60q-157 0 -157 181zM142 587q-16 13 -16 35q0 23 15.5 36t36.5 13t36 -13.5
t15 -35.5t-15.5 -35t-35.5 -13t-36 13zM318.5 587q-16.5 13 -16.5 35q0 23 16 36t37 13t35.5 -13.5t14.5 -35.5t-15 -35t-35 -13t-36.5 13z" />
    <glyph glyph-name="ugrave" unicode="&#xf9;" horiz-adv-x="531" 
d="M67 171v292q0 20 20 20h45q20 0 20 -20v-279q0 -60 20 -90.5t76 -30.5q32 0 69.5 17.5t62.5 41.5v341q0 20 19 20h47q19 0 19 -20v-441q0 -22 -20 -22h-43q-19 0 -19 19l-1 31q-71 -60 -158 -60q-157 0 -157 181zM325 561l-151 75q-10 4 -10 13q0 7 4 12l21 33
q7 10 15 10q5 0 14 -6l140 -90q9 -5 9 -13q0 -5 -4 -10l-12 -18q-6 -9 -14 -9q-5 0 -12 3z" />
    <glyph glyph-name="uhungarumlaut" unicode="&#x171;" horiz-adv-x="531" 
d="M67 171v292q0 20 20 20h45q20 0 20 -20v-279q0 -60 20 -90.5t76 -30.5q32 0 69.5 17.5t62.5 41.5v341q0 20 19 20h47q19 0 19 -20v-441q0 -22 -20 -22h-43q-19 0 -19 19l-1 31q-71 -60 -158 -60q-157 0 -157 181zM98 566l-10 15q-4 5 -4 10q0 8 9 13l140 91q7 5 13 5
q8 0 15 -10l20 -30q4 -5 4 -12q0 -9 -10 -13l-151 -74q-10 -4 -12 -4q-8 0 -14 9zM321 566l-10 15q-4 5 -4 10q0 8 9 13l140 91q7 5 13 5q8 0 15 -10l20 -30q4 -5 4 -12q0 -9 -10 -13l-152 -74q-10 -4 -11 -4q-8 0 -14 9z" />
    <glyph glyph-name="umacron" unicode="&#x16b;" horiz-adv-x="531" 
d="M67 171v292q0 20 20 20h45q20 0 20 -20v-279q0 -60 20 -90.5t76 -30.5q32 0 69.5 17.5t62.5 41.5v341q0 20 19 20h47q19 0 19 -20v-441q0 -22 -20 -22h-43q-19 0 -19 19l-1 31q-71 -60 -158 -60q-157 0 -157 181zM138.5 593.5q-5.5 5.5 -5.5 18.5v17q0 12 5 17t21 5h210
q18 0 23.5 -4.5t5.5 -17.5v-17q0 -13 -6 -18.5t-23 -5.5h-210q-15 0 -20.5 5.5z" />
    <glyph glyph-name="uogonek" unicode="&#x173;" horiz-adv-x="531" 
d="M316.5 -174q-26.5 23 -26.5 57q0 69 93 129l-1 38q-71 -60 -158 -60q-157 0 -157 181v292q0 20 20 20h45q20 0 20 -20v-279q0 -60 20 -90.5t76 -30.5q32 0 69.5 17.5t62.5 41.5v341q0 20 19 20h47q19 0 19 -20v-445q-1 -12 -8 -16l-7 -2h-1q-33 -10 -56 -31
q-34 -31 -34 -70q0 -45 52 -45q10 0 26.5 2.5t27.5 6.5l4 1q8 0 9 -7l5 -18q1 -2 1 -6q0 -11 -12 -15q-16 -6 -39 -10.5t-42 -4.5q-48 0 -74.5 23z" />
    <glyph glyph-name="uring" unicode="&#x16f;" horiz-adv-x="531" 
d="M67 171v292q0 20 20 20h45q20 0 20 -20v-279q0 -60 20 -90.5t76 -30.5q32 0 69.5 17.5t62.5 41.5v341q0 20 19 20h47q19 0 19 -20v-441q0 -22 -20 -22h-43q-19 0 -19 19l-1 31q-71 -60 -158 -60q-157 0 -157 181zM209 564.5q-24 23.5 -24 56.5t24 56.5t57 23.5
t56.5 -23.5t23.5 -56.5t-23.5 -56.5t-56.5 -23.5t-57 23.5zM287.5 599.5q8.5 8.5 8.5 21.5t-8.5 21.5t-21.5 8.5t-22 -8.5t-9 -21.5t9 -21.5t22 -8.5t21.5 8.5z" />
    <glyph glyph-name="utilde" unicode="&#x169;" horiz-adv-x="531" 
d="M67 171v292q0 20 20 20h45q20 0 20 -20v-279q0 -60 20 -90.5t76 -30.5q32 0 69.5 17.5t62.5 41.5v341q0 20 19 20h47q19 0 19 -20v-441q0 -22 -20 -22h-43q-19 0 -19 19l-1 31q-71 -60 -158 -60q-157 0 -157 181zM290 583q-12 5 -30 16q-16 9 -27.5 14t-22.5 5
q-22 0 -65 -24q-10 -6 -16 -6q-8 0 -12 10l-9 23q-4 10 -4 11q0 7 14 16q21 14 45.5 23t45.5 9q15 0 30 -5.5t35 -16.5q12 -6 24.5 -11t21.5 -5q18 0 62 27q9 5 15 5q8 0 14 -9l11 -17q5 -8 5 -12q0 -8 -8 -14q-57 -44 -104 -44q-13 0 -25 5z" />
    <glyph glyph-name="v" unicode="v" horiz-adv-x="454" 
d="M180 16l-164 449q-1 2 -1 6q0 12 15 12h55q11 0 16.5 -3t7.5 -11l90 -271l32 -99h1q12 42 30 96l90 272q3 9 8.5 12.5t16.5 3.5h46q16 0 16 -10l-2 -8l-166 -449q-7 -16 -23 -16h-44q-18 0 -24 16z" />
    <glyph glyph-name="w" unicode="w" horiz-adv-x="691" 
d="M150 18l-133 445q-1 3 -1 7q0 13 15 13h53q21 0 24 -14l95 -365h2l104 364q4 15 20 15h41q7 0 11.5 -2.5t6.5 -9.5l106 -368h2l94 363q5 17 24 17h48q8 0 10.5 -6.5t0.5 -13.5l-134 -445q-6 -18 -24 -18h-51q-19 0 -24 18l-96 334h-1l-94 -335q-5 -17 -25 -17h-50
q-19 0 -24 18z" />
    <glyph glyph-name="wacute" unicode="&#x1e83;" horiz-adv-x="691" 
d="M150 18l-133 445q-1 3 -1 7q0 13 15 13h53q21 0 24 -14l95 -365h2l104 364q4 15 20 15h41q7 0 11.5 -2.5t6.5 -9.5l106 -368h2l94 363q5 17 24 17h48q8 0 10.5 -6.5t0.5 -13.5l-134 -445q-6 -18 -24 -18h-51q-19 0 -24 18l-96 334h-1l-94 -335q-5 -17 -25 -17h-50
q-19 0 -24 18zM265 564l-12 18q-4 5 -4 10q0 8 9 13l140 90q9 6 14 6q8 0 15 -10l21 -33q4 -5 4 -12q0 -9 -10 -13l-151 -75q-7 -3 -12 -3q-8 0 -14 9z" />
    <glyph glyph-name="wcircumflex" unicode="&#x175;" horiz-adv-x="691" 
d="M150 18l-133 445q-1 3 -1 7q0 13 15 13h53q21 0 24 -14l95 -365h2l104 364q4 15 20 15h41q7 0 11.5 -2.5t6.5 -9.5l106 -368h2l94 363q5 17 24 17h48q8 0 10.5 -6.5t0.5 -13.5l-134 -445q-6 -18 -24 -18h-51q-19 0 -24 18l-96 334h-1l-94 -335q-5 -17 -25 -17h-50
q-19 0 -24 18zM452 556l-102 79l-94 -73q-10 -8 -17 -8q-6 0 -13 7l-12 13q-5 7 -5 10q0 5 6 11l108 98q10 8 20 8h14q11 0 19 -7l111 -100q6 -6 6 -12q0 -7 -5 -12l-13 -13q-6 -6 -11 -6t-12 5z" />
    <glyph glyph-name="wdieresis" unicode="&#x1e85;" horiz-adv-x="691" 
d="M150 18l-133 445q-1 3 -1 7q0 13 15 13h53q21 0 24 -14l95 -365h2l104 364q4 15 20 15h41q7 0 11.5 -2.5t6.5 -9.5l106 -368h2l94 363q5 17 24 17h48q8 0 10.5 -6.5t0.5 -13.5l-134 -445q-6 -18 -24 -18h-51q-19 0 -24 18l-96 334h-1l-94 -335q-5 -17 -25 -17h-50
q-19 0 -24 18zM227 587q-16 13 -16 35q0 23 15.5 36t36.5 13t36 -13.5t15 -35.5t-15.5 -35t-35.5 -13t-36 13zM403.5 587q-16.5 13 -16.5 35q0 23 16 36t37 13t35.5 -13.5t14.5 -35.5t-15 -35t-35 -13t-36.5 13z" />
    <glyph glyph-name="wgrave" unicode="&#x1e81;" horiz-adv-x="691" 
d="M150 18l-133 445q-1 3 -1 7q0 13 15 13h53q21 0 24 -14l95 -365h2l104 364q4 15 20 15h41q7 0 11.5 -2.5t6.5 -9.5l106 -368h2l94 363q5 17 24 17h48q8 0 10.5 -6.5t0.5 -13.5l-134 -445q-6 -18 -24 -18h-51q-19 0 -24 18l-96 334h-1l-94 -335q-5 -17 -25 -17h-50
q-19 0 -24 18zM410 561l-151 75q-10 4 -10 13q0 7 4 12l21 33q7 10 15 10q5 0 14 -6l140 -90q9 -5 9 -13q0 -5 -4 -10l-12 -18q-6 -9 -14 -9q-5 0 -12 3z" />
    <glyph glyph-name="x" unicode="x" horiz-adv-x="465" 
d="M17 8q0 6 4 11l166 230l-145 216q-3 5 -3 8q0 4 3.5 7t8.5 3h69q15 0 21 -11l98 -153h1l102 151q4 7 9 10t13 3h62q9 0 9 -7q0 -3 -3 -8l-152 -208l164 -240q4 -5 4 -11q0 -9 -11 -9h-72q-10 0 -15 3t-10 10l-112 177h-1l-116 -177q-9 -13 -26 -13h-59q-9 0 -9 8z" />
    <glyph glyph-name="y" unicode="y" horiz-adv-x="485" 
d="M29 -215q-11 2 -11 15v5l5 38q1 14 15 14h4q33 -3 35 -3q41 0 67 17.5t42 56.5l26 64l-179 474q-1 2 -1 6q0 11 11 11h66q15 0 19 -13l130 -374l126 372q3 8 7.5 11.5t13.5 3.5h55q13 0 13 -10q0 -3 -2 -9l-195 -523q-22 -60 -48.5 -94.5t-62.5 -50t-91 -15.5
q-25 0 -45 4z" />
    <glyph glyph-name="yacute" unicode="&#xfd;" horiz-adv-x="485" 
d="M29 -215q-11 2 -11 15v5l5 38q1 14 15 14h4q33 -3 35 -3q41 0 67 17.5t42 56.5l26 64l-179 474q-1 2 -1 6q0 11 11 11h66q15 0 19 -13l130 -374l126 372q3 8 7.5 11.5t13.5 3.5h55q13 0 13 -10q0 -3 -2 -9l-195 -523q-22 -60 -48.5 -94.5t-62.5 -50t-91 -15.5
q-25 0 -45 4zM167 564l-12 18q-4 5 -4 10q0 8 9 13l140 90q9 6 14 6q8 0 15 -10l21 -33q4 -5 4 -12q0 -9 -10 -13l-151 -75q-7 -3 -12 -3q-8 0 -14 9z" />
    <glyph glyph-name="ycircumflex" unicode="&#x177;" horiz-adv-x="485" 
d="M29 -215q-11 2 -11 15v5l5 38q1 14 15 14h4q33 -3 35 -3q41 0 67 17.5t42 56.5l26 64l-179 474q-1 2 -1 6q0 11 11 11h66q15 0 19 -13l130 -374l126 372q3 8 7.5 11.5t13.5 3.5h55q13 0 13 -10q0 -3 -2 -9l-195 -523q-22 -60 -48.5 -94.5t-62.5 -50t-91 -15.5
q-25 0 -45 4zM354 556l-102 79l-94 -73q-10 -8 -17 -8q-6 0 -13 7l-12 13q-5 7 -5 10q0 5 6 11l108 98q10 8 20 8h14q11 0 19 -7l111 -100q6 -6 6 -12q0 -7 -5 -12l-13 -13q-6 -6 -11 -6t-12 5z" />
    <glyph glyph-name="ydieresis" unicode="&#xff;" horiz-adv-x="485" 
d="M29 -215q-11 2 -11 15v5l5 38q1 14 15 14h4q33 -3 35 -3q41 0 67 17.5t42 56.5l26 64l-179 474q-1 2 -1 6q0 11 11 11h66q15 0 19 -13l130 -374l126 372q3 8 7.5 11.5t13.5 3.5h55q13 0 13 -10q0 -3 -2 -9l-195 -523q-22 -60 -48.5 -94.5t-62.5 -50t-91 -15.5
q-25 0 -45 4zM129 587q-16 13 -16 35q0 23 15.5 36t36.5 13t36 -13.5t15 -35.5t-15.5 -35t-35.5 -13t-36 13zM305.5 587q-16.5 13 -16.5 35q0 23 16 36t37 13t35.5 -13.5t14.5 -35.5t-15 -35t-35 -13t-36.5 13z" />
    <glyph glyph-name="ygrave" unicode="&#x1ef3;" horiz-adv-x="485" 
d="M29 -215q-11 2 -11 15v5l5 38q1 14 15 14h4q33 -3 35 -3q41 0 67 17.5t42 56.5l26 64l-179 474q-1 2 -1 6q0 11 11 11h66q15 0 19 -13l130 -374l126 372q3 8 7.5 11.5t13.5 3.5h55q13 0 13 -10q0 -3 -2 -9l-195 -523q-22 -60 -48.5 -94.5t-62.5 -50t-91 -15.5
q-25 0 -45 4zM312 561l-151 75q-10 4 -10 13q0 7 4 12l21 33q7 10 15 10q5 0 14 -6l140 -90q9 -5 9 -13q0 -5 -4 -10l-12 -18q-6 -9 -14 -9q-5 0 -12 3z" />
    <glyph glyph-name="z" unicode="z" horiz-adv-x="402" 
d="M28 5.5q-5 5.5 -5 12.5v19q0 9 2 15t8 14l236 356v1h-210q-9 0 -13 3.5t-4 13.5v28q0 15 15 15h296q18 0 18 -16v-20q0 -13 -9 -26l-239 -359v-1h242q15 0 15 -14v-32q0 -15 -13 -15h-326q-8 0 -13 5.5z" />
    <glyph glyph-name="zacute" unicode="&#x17a;" horiz-adv-x="402" 
d="M28 5.5q-5 5.5 -5 12.5v19q0 9 2 15t8 14l236 356v1h-210q-9 0 -13 3.5t-4 13.5v28q0 15 15 15h296q18 0 18 -16v-20q0 -13 -9 -26l-239 -359v-1h242q15 0 15 -14v-32q0 -15 -13 -15h-326q-8 0 -13 5.5zM115 564l-12 18q-4 5 -4 10q0 8 9 13l140 90q9 6 14 6q8 0 15 -10
l21 -33q4 -5 4 -12q0 -9 -10 -13l-151 -75q-7 -3 -12 -3q-8 0 -14 9z" />
    <glyph glyph-name="zcaron" unicode="&#x17e;" horiz-adv-x="402" 
d="M28 5.5q-5 5.5 -5 12.5v19q0 9 2 15t8 14l236 356v1h-210q-9 0 -13 3.5t-4 13.5v28q0 15 15 15h296q18 0 18 -16v-20q0 -13 -9 -26l-239 -359v-1h242q15 0 15 -14v-32q0 -15 -13 -15h-326q-8 0 -13 5.5zM173 557l-108 98q-6 6 -6 11q0 3 5 10l12 13q7 7 13 7q7 0 17 -8
l94 -73l102 79q7 5 12 5t11 -6l13 -13q5 -5 5 -12q0 -6 -6 -12l-111 -100q-8 -7 -19 -7h-14q-10 0 -20 8z" />
    <glyph glyph-name="zdotaccent" unicode="&#x17c;" horiz-adv-x="402" 
d="M28 5.5q-5 5.5 -5 12.5v19q0 9 2 15t8 14l236 356v1h-210q-9 0 -13 3.5t-4 13.5v28q0 15 15 15h296q18 0 18 -16v-20q0 -13 -9 -26l-239 -359v-1h242q15 0 15 -14v-32q0 -15 -13 -15h-326q-8 0 -13 5.5zM161 602.5q-19 15.5 -19 39.5q0 25 18.5 40.5t41.5 15.5
q22 0 40 -15.5t18 -39.5t-18.5 -40t-39.5 -16q-22 0 -41 15.5z" />
    <glyph glyph-name="ordfeminine" unicode="&#xaa;" horiz-adv-x="319" 
d="M63 420q-23 21 -23 61q0 59 59 85q43 20 114 20v12q0 27 -12.5 41.5t-43.5 14.5q-36 0 -78 -22q-7 -3 -9 -3q-5 0 -8 8l-8 19q-1 2 -1 7q0 4 4 6.5t6 3.5q21 13 49 20.5t49 7.5q55 0 84 -28.5t29 -83.5v-173q0 -7 -2 -9.5t-9 -2.5h-32q-9 0 -10.5 1.5t-2.5 8.5l-3 19
q-47 -36 -87 -36t-65 23zM180.5 454.5q17.5 8.5 31.5 21.5v69q-42 0 -67 -8q-41 -13 -41 -51q0 -40 43 -40q16 0 33.5 8.5z" />
    <glyph glyph-name="ordmasculine" unicode="&#xba;" horiz-adv-x="350" 
d="M72 437.5q-34 42.5 -34 110.5q0 66 37 109.5t102 43.5q67 0 101.5 -43t34.5 -111q0 -66 -37.5 -109t-102.5 -43q-67 0 -101 42.5zM234.5 470q19.5 31 19.5 77q0 45 -19 77t-59 32q-41 0 -60 -31.5t-19 -75.5q0 -47 18 -78.5t59 -31.5t60.5 31z" />
    <glyph glyph-name="uni0394" unicode="&#x394;" horiz-adv-x="580" 
d="M57.5 2.5q-5.5 2.5 -9.5 9.5l-18 28q-4 7 -4 13q0 7 3 14l221 629q3 7 6.5 9.5t11.5 2.5h37q8 0 12.5 -2.5t7.5 -9.5l227 -630q2 -5 2 -12t-4 -14l-18 -29q-6 -11 -22 -11h-439q-8 0 -13.5 2.5zM455 73l-174 526l-175 -526h349z" />
    <glyph glyph-name="uni03A9" unicode="&#x3a9;" horiz-adv-x="701" 
d="M45 17v36q0 16 17 16h101q-49 41 -75.5 111t-26.5 164q0 107 37.5 186.5t104 122.5t152.5 43q90 0 154.5 -43t98 -121t33.5 -183q0 -96 -30 -167t-82 -113h110q15 0 15 -16v-36q0 -17 -15 -17h-236q-15 0 -15 17v36q0 8 3 11.5t12 4.5q70 14 106.5 89t36.5 188
q0 134 -51.5 203t-143.5 69q-57 0 -102 -32.5t-70.5 -93.5t-25.5 -145q0 -115 35.5 -188t106.5 -90q9 -3 12 -6t3 -10v-36q0 -17 -15 -17h-233q-17 0 -17 17z" />
    <glyph glyph-name="uni03BC" unicode="&#x3bc;" horiz-adv-x="532" 
d="M72 -164.5q-5 4.5 -5 15.5v612q0 20 19 20h47q19 0 19 -20v-282q0 -35 5.5 -58.5t19.5 -38.5q11 -12 30 -19t43 -7q33 0 67.5 16t62.5 41v348q0 20 20 20h46q20 0 20 -20v-441q0 -22 -20 -22h-44q-16 0 -18 19l-2 28q-29 -28 -64 -42.5t-72 -14.5q-67 0 -95 30v-169
q0 -11 -4.5 -15.5t-16.5 -4.5h-42q-11 0 -16 4.5z" />
    <glyph glyph-name="pi" unicode="&#x3c0;" horiz-adv-x="623" 
d="M408.5 15q-23.5 19 -31 51.5t-7.5 83.5v270h-166v-402q0 -18 -16 -18h-53q-7 0 -11.5 4.5t-4.5 12.5v403h-72q-10 0 -13.5 3.5t-3.5 14.5v32q0 6 3.5 10t10.5 4h509q14 0 14 -12v-37q0 -15 -14 -15h-98v-277q0 -39 7 -57t34 -18q22 0 49 16q8 4 10 4q5 0 9 -8l14 -30
q2 -6 2 -7q0 -5 -3.5 -8.5l-4.5 -4.5q-18 -15 -43.5 -24.5t-51.5 -9.5q-45 0 -68.5 19z" />
    <glyph glyph-name="zero" unicode="0" 
d="M136 42.5q-53 52.5 -75.5 133t-22.5 168.5q0 87 24 168.5t77.5 135t137.5 53.5q85 0 137.5 -52.5t75 -132.5t22.5 -169q0 -88 -23 -169t-76.5 -134.5t-138.5 -53.5t-138 52.5zM383.5 152q31.5 83 31.5 194t-32 194t-107 83q-77 0 -109 -83.5t-32 -193.5q0 -111 31.5 -194
t108.5 -83t108.5 83z" />
    <glyph glyph-name="one" unicode="1" 
d="M269.5 5.5q-5.5 5.5 -5.5 18.5v566l-145 -89q-8 -5 -14 -5q-9 0 -13 8l-20 33q-4 8 -4 11q0 10 13 17l184 115q9 6 16 7.5t21 1.5h32q20 0 20 -23v-642q0 -13 -5 -18.5t-17 -5.5h-44q-13 0 -18.5 5.5z" />
    <glyph glyph-name="two" unicode="2" 
d="M71.5 5q-4.5 5 -4.5 17v33q0 11 2.5 17t9.5 13q50 52 78 79q50 48 86 87q76 82 113.5 143t37.5 115q0 52 -33.5 82.5t-86.5 30.5q-70 0 -143 -42q-6 -3 -10 -3q-8 0 -14 12l-15 32q-3 6 -3 11q0 8 11 16q41 26 89.5 39.5t97.5 13.5q56 0 102.5 -21.5t73.5 -62.5t27 -99
q0 -74 -43.5 -145t-142.5 -174q-40 -43 -92 -93l-29 -29h283q13 0 18.5 -4.5t5.5 -15.5v-35q0 -22 -24 -22h-377q-13 0 -17.5 5z" />
    <glyph glyph-name="three" unicode="3" 
d="M81 25q-12 6 -12 14q0 1 2 7l16 42q3 8 12 8q3 0 9 -2q66 -30 136 -30q65 0 105 37t40 100q0 67 -46.5 101t-117.5 34h-29q-17 0 -17 18v34q0 9 3.5 13t12.5 4h29q65 0 102 29.5t37 89.5q0 51 -33 78t-88 27q-28 0 -60.5 -9t-61.5 -25q-7 -4 -11 -4q-6 0 -10 10l-16 36
q-2 6 -2 7q0 6 9 12q75 45 168 45q52 0 98 -20.5t74 -59t28 -91.5t-32 -96.5t-81 -58.5q61 -14 100 -62t39 -112q0 -62 -31.5 -110t-85 -74.5t-116.5 -26.5q-104 0 -170 35z" />
    <glyph glyph-name="four" unicode="4" 
d="M390 20v140h-324q-13 0 -17.5 6t-4.5 18v24q0 11 2 19t9 23l191 419q4 10 9.5 15t15.5 5h57q11 0 11 -9q0 -8 -4 -16l-191 -427h246v160q0 11 5 15t16 4h49q11 0 15.5 -4t4.5 -15v-378q0 -19 -18 -19h-52q-20 0 -20 20z" />
    <glyph glyph-name="five" unicode="5" 
d="M87 31q-15 8 -15 16q0 5 3 11l16 37q4 11 12 11q5 0 15 -5q36 -18 68 -26t68 -8q62 0 103.5 36.5t41.5 102.5q0 69 -43 109q-48 43 -154 43h-63q-30 0 -30 30v278q0 13 5.5 18t16.5 5h305q12 0 17.5 -4.5t5.5 -16.5v-35q0 -11 -4 -15.5t-17 -4.5h-239v-186h30
q115 0 190 -53.5t75 -163.5q0 -68 -32 -118t-88 -76t-126 -26q-82 0 -161 41z" />
    <glyph glyph-name="six" unicode="6" 
d="M112.5 74q-53.5 84 -53.5 219q0 105 29 197.5t88 147.5q31 30 74.5 46.5t93.5 16.5q43 0 89 -12q12 -3 12 -16q0 -5 -1 -8l-7 -33q-2 -9 -7 -12t-14 -1q-32 7 -71 7q-66 0 -109 -43q-61 -63 -76 -208q30 29 67.5 43.5t75.5 14.5q56 0 101 -24.5t70.5 -71t25.5 -110.5
q0 -66 -26 -120t-74.5 -85.5t-113.5 -31.5q-120 0 -173.5 84zM375.5 112.5q28.5 47.5 28.5 106.5t-28 99t-85 40q-33 0 -70 -16t-65 -48l-1 -23q0 -97 32.5 -151.5t99.5 -54.5q60 0 88.5 47.5z" />
    <glyph glyph-name="seven" unicode="7" 
d="M122 4.5q-4 4.5 -4 10.5q0 5 3 11l276 585h-319q-12 0 -16.5 4.5t-4.5 15.5v38q0 10 4.5 15t15.5 5h401q12 0 16.5 -4.5t4.5 -15.5v-33q0 -14 -9 -36l-269 -580q-10 -20 -31 -20h-56q-8 0 -12 4.5z" />
    <glyph glyph-name="eight" unicode="8" 
d="M157.5 12.5q-51.5 22.5 -81.5 66.5t-30 107q0 47 30 91q20 29 51 52.5t68 37.5q-54 24 -87 67t-33 95q0 50 27 89t73 61t102 22q55 0 99.5 -20.5t70 -59t25.5 -89.5q0 -46 -34.5 -90t-85.5 -68q75 -31 113 -76.5t38 -101.5q0 -61 -31 -108t-83.5 -72.5t-115.5 -25.5
q-64 0 -115.5 22.5zM347.5 457q29.5 32 29.5 74q0 46 -27.5 73.5t-76.5 27.5q-44 0 -73.5 -28t-29.5 -71q0 -44 28.5 -73.5t78.5 -54.5q41 20 70.5 52zM369.5 93q38.5 34 38.5 95q0 26 -8.5 45.5t-26.5 37.5q-35 35 -106 64q-126 -53 -126 -145q0 -40 19 -69.5t50 -45.5
t66 -16q55 0 93.5 34z" />
    <glyph glyph-name="nine" unicode="9" 
d="M162.5 -6.5q-24.5 3.5 -43.5 8.5q-8 2 -10.5 7t-0.5 14l8 36q2 11 5.5 13t12.5 0q37 -7 66 -7q36 0 66.5 11.5t51.5 32.5q59 62 74 207q-31 -30 -68 -44t-75 -14q-56 0 -100.5 24.5t-70 71t-25.5 110.5q0 66 26 120t74 85.5t113 31.5q120 0 174 -84t54 -219
q0 -108 -30.5 -202.5t-91.5 -148.5q-31 -27 -74.5 -42t-91.5 -15q-19 0 -43.5 3.5zM332.5 349q36.5 16 64.5 48l1 24q0 96 -33 150.5t-100 54.5q-59 0 -87.5 -46.5t-28.5 -107.5q0 -59 27.5 -99t84.5 -40q35 0 71.5 16z" />
    <glyph glyph-name="uni00B9" unicode="&#xb9;" horiz-adv-x="343" 
d="M160.5 338q-3.5 4 -3.5 14v280l-61 -36q-7 -4 -11 -4q-7 0 -11 7l-13 22q-3 5 -3 8q0 8 10 14l93 57q10 6 24 6h20q9 0 12.5 -4t3.5 -13v-337q0 -10 -3.5 -14t-13.5 -4h-30q-10 0 -13.5 4z" />
    <glyph glyph-name="uni00B2" unicode="&#xb2;" horiz-adv-x="343" 
d="M63 343v21q0 7 1.5 10.5t7.5 9.5l38 39q50 49 79 83q46 56 46 91q0 24 -15.5 37.5t-39.5 13.5q-32 0 -71 -22q-3 -2 -10 -2t-12 9l-11 23q-2 4 -2 6q0 6 10 13q50 30 103 30q49 0 82.5 -27.5t33.5 -75.5q0 -37 -18.5 -71t-63.5 -83q-21 -23 -67 -65h130q10 0 14 -3.5
t4 -12.5v-25q0 -16 -17 -16h-205q-17 0 -17 17z" />
    <glyph glyph-name="uni00B3" unicode="&#xb3;" horiz-adv-x="343" 
d="M117 327.5q-27 4.5 -44 12.5q-14 7 -14 15l2 8l8 23q4 8 12 8q3 0 9 -2q35 -15 68 -15q31 0 50 17t19 45q0 31 -22 46.5t-57 15.5h-14q-8 0 -13 5.5t-5 12.5v18q0 16 17 16h16q64 0 64 53q0 22 -14.5 34t-40.5 12q-29 0 -61 -17q-4 -2 -9 -2q-9 0 -12 7l-10 22q-1 2 -1 7
q0 7 8 12q41 25 94 25q45 0 79 -25.5t34 -70.5q0 -24 -12.5 -46t-33.5 -34q27 -12 43 -36t16 -54q0 -52 -38 -84.5t-92 -32.5q-19 0 -46 4.5z" />
    <glyph glyph-name="fraction" unicode="&#x2044;" horiz-adv-x="160" 
d="M-192 -24.5q-4 3.5 -4 8.5q0 3 3 9l432 705q8 13 14 17t20 4h42q15 0 15 -10q0 -8 -6 -17l-429 -703q-7 -10 -12 -13.5t-15 -3.5h-51q-5 0 -9 3.5z" />
    <glyph glyph-name="onehalf" unicode="&#xbd;" horiz-adv-x="787" 
d="M106 -24.5q-4 3.5 -4 8.5q0 3 3 9l432 705q8 12 14.5 16.5t20.5 4.5h39q15 0 15 -10q0 -8 -6 -17l-429 -703q-7 -10 -11.5 -13.5t-14.5 -3.5h-50q-5 0 -9 3.5zM141.5 338q-3.5 4 -3.5 14v280l-60 -36q-7 -4 -11 -4q-6 0 -11 7l-14 22q-3 5 -3 8q0 8 10 14l93 57
q10 6 24 6h20q9 0 12.5 -4t3.5 -13v-337q0 -10 -3.5 -14t-13.5 -4h-30q-10 0 -13.5 4zM479 12v20q0 7 2 11t8 10l38 39q50 49 79 83q45 55 45 91q0 24 -15 37t-39 13q-34 0 -71 -21q-6 -3 -11 -3q-7 0 -12 9l-11 24q-1 2 -1 6q0 6 10 13q48 29 103 29q49 0 82 -27t33 -75
q0 -37 -18.5 -71.5t-63.5 -83.5q-21 -23 -67 -65h131q11 0 14.5 -3t3.5 -12v-25q0 -16 -18 -16h-205q-17 0 -17 17z" />
    <glyph glyph-name="onequarter" unicode="&#xbc;" horiz-adv-x="787" 
d="M125 -24.5q-4 3.5 -4 8.5q0 2 1.5 4.5t2.5 4.5l431 705q8 12 14.5 16.5t20.5 4.5h40q15 0 15 -10q0 -6 -7 -17l-429 -703q-7 -10 -11.5 -13.5t-14.5 -3.5h-50q-5 0 -9 3.5zM160.5 338q-3.5 4 -3.5 14v280l-60 -36q-7 -4 -11 -4q-6 0 -11 7l-14 22q-3 5 -3 8q0 8 10 14
l93 57q10 6 24 6h20q9 0 12.5 -4t3.5 -13v-337q0 -10 -3.5 -14t-13.5 -4h-30q-10 0 -13.5 4zM657.5 -1.5q-3.5 3.5 -3.5 12.5v66h-165q-10 0 -13 4.5t-3 13.5v13q0 15 6 28l100 216q8 15 21 15h28q18 0 18 -11q0 -3 -4 -11l-96 -212h108v76q0 10 3.5 14t11.5 4h33
q8 0 12 -3.5t4 -13.5v-199q0 -9 -3 -12.5t-11 -3.5h-35q-8 0 -11.5 3.5z" />
    <glyph glyph-name="threequarters" unicode="&#xbe;" horiz-adv-x="787" 
d="M134 -24.5q-4 3.5 -4 8.5q0 2 1.5 4.5t2.5 4.5l431 705q8 12 14.5 16.5t20.5 4.5h40q15 0 15 -10q0 -6 -7 -17l-429 -703q-7 -10 -11.5 -13.5t-14.5 -3.5h-50q-5 0 -9 3.5zM114 327.5q-27 4.5 -44 12.5q-14 7 -14 15l2 8l8 23q4 8 12 8q3 0 9 -2q35 -15 68 -15
q31 0 50 17t19 45q0 31 -22 46.5t-57 15.5h-14q-8 0 -13 5.5t-5 12.5v18q0 16 17 16h16q64 0 64 53q0 22 -14.5 34t-40.5 12q-29 0 -61 -17q-4 -2 -9 -2q-9 0 -12 7l-10 22q-1 2 -1 7q0 7 8 12q41 25 94 25q45 0 79 -25.5t34 -70.5q0 -24 -12.5 -46t-33.5 -34q27 -12 43 -36
t16 -54q0 -52 -38 -84.5t-92 -32.5q-19 0 -46 4.5zM666.5 -1.5q-3.5 3.5 -3.5 12.5v66h-165q-10 0 -13.5 4.5t-3.5 13.5v13q0 15 6 28l101 216q8 15 21 15h28q17 0 17 -11q0 -5 -3 -11l-96 -212h108v76q0 10 3.5 14t11.5 4h33q8 0 12 -3.5t4 -13.5v-199q0 -9 -3.5 -12.5
t-11.5 -3.5h-34q-8 0 -11.5 3.5z" />
    <glyph glyph-name="asterisk" unicode="*" horiz-adv-x="333" 
d="M108 446l-36 26q-6 4 -6 10t8 14l68 68l-98 10q-6 1 -8 2.5t-2 5.5t1 7l16 50q3 9 11 9q5 0 9 -3l83 -51l-20 99q-1 4 -1 9q0 9 13 9h41q9 0 12.5 -2t3.5 -7q0 -6 -1 -9l-20 -99l84 51q5 3 10 3q6 0 10 -12l13 -41q2 -8 2 -10q0 -9 -14 -11l-91 -11l66 -67q6 -6 6 -12
t-9 -14l-28 -22q-9 -6 -13 -6q-6 0 -10 10l-41 96l-40 -98q-3 -9 -9 -9q-3 0 -10 5z" />
    <glyph glyph-name="backslash" unicode="\" horiz-adv-x="349" 
d="M245 -9q-5 4 -8 16l-200 677q-2 8 -2 11q0 10 15 10h39q12 0 17.5 -4t9.5 -16l198 -676q3 -7 3 -13q0 -9 -14 -9h-41q-12 0 -17 4z" />
    <glyph glyph-name="periodcentered" unicode="&#xb7;" horiz-adv-x="216" 
d="M71.5 248q-18.5 15 -18.5 40q0 26 18 41.5t42 15.5t41.5 -15.5t17.5 -41.5q0 -25 -18 -40t-41 -15t-41.5 15z" />
    <glyph glyph-name="bullet" unicode="&#x2022;" horiz-adv-x="510" 
d="M169.5 130.5q-38.5 21.5 -61.5 57.5t-23 79t23 79t61.5 57.5t84.5 21.5t84 -21.5t60.5 -57.5t22.5 -79t-22.5 -79t-60.5 -57.5t-84 -21.5t-84.5 21.5z" />
    <glyph glyph-name="colon" unicode=":" horiz-adv-x="214" 
d="M71.5 396.5q-18.5 15.5 -18.5 40.5q0 26 18 41.5t42 15.5t41.5 -15.5t17.5 -41.5q0 -25 -18 -40.5t-41 -15.5t-41.5 15.5zM71.5 5.5q-18.5 15.5 -18.5 40.5q0 26 18 41t42 15t41.5 -14.5t17.5 -40.5q0 -25 -18.5 -41t-40.5 -16q-23 0 -41.5 15.5z" />
    <glyph glyph-name="comma" unicode="," horiz-adv-x="201" 
d="M56 -119l-7 8q-4 6 -4 9t6 9q35 35 35 66q0 14 -16 34q-9 12 -13.5 20.5t-4.5 18.5q0 23 15.5 38t38.5 15q25 0 41.5 -21t16.5 -47q0 -43 -23.5 -85t-58.5 -67q-9 -6 -14 -6q-6 0 -12 8z" />
    <glyph glyph-name="ellipsis" unicode="&#x2026;" horiz-adv-x="1000" 
d="M141.5 2.5q-18.5 15.5 -18.5 40.5q0 26 18 41t42 15t41.5 -14.5t17.5 -40.5q0 -25 -18.5 -41t-40.5 -16q-23 0 -41.5 15.5zM458.5 2.5q-18.5 15.5 -18.5 40.5q0 26 18 41t42 15t41.5 -14.5t17.5 -40.5q0 -25 -18.5 -41t-40.5 -16q-23 0 -41.5 15.5zM776 2.5
q-19 15.5 -19 40.5q0 26 18.5 41t42.5 15t41 -14.5t17 -40.5q0 -25 -18 -41t-40 -16q-23 0 -42 15.5z" />
    <glyph glyph-name="exclam" unicode="!" horiz-adv-x="247" 
d="M108 148q-4 3 -4 12l-9 510v1q0 10 4 14t13 4h55q10 0 13.5 -4.5t3.5 -13.5v-2l-10 -509q0 -8 -4 -11.5t-13 -3.5h-35q-10 0 -14 3zM97.5 2q-17.5 15 -17.5 40q0 26 17 40.5t41 14.5q23 0 40 -14.5t17 -39.5t-17.5 -40.5t-39.5 -15.5q-23 0 -40.5 15z" />
    <glyph glyph-name="exclamdown" unicode="&#xa1;" horiz-adv-x="257" 
d="M102 398.5q-17 14.5 -17 39.5t17.5 40.5t39.5 15.5q23 0 40.5 -15t17.5 -40q0 -26 -17 -40.5t-41 -14.5q-23 0 -40 14.5zM99.5 -203.5q-3.5 4.5 -3.5 13.5l10 511q0 8 4 11.5t13 3.5h35q10 0 14 -3t4 -12l9 -511q0 -10 -4 -14t-13 -4h-55q-10 0 -13.5 4.5z" />
    <glyph glyph-name="numbersign" unicode="#" horiz-adv-x="557" 
d="M82 3q-4 3 -4 10q0 5 1 9l28 177h-99q-15 0 -15 12l1 7l5 33q2 9 6.5 12.5t17.5 3.5h98l21 139h-104q-14 0 -14 12l1 6l5 34q2 8 5 11t13 3h107l30 202q2 9 5 12t10 3h50q9 0 12.5 -2.5t3.5 -8.5t-1 -10l-30 -196h136l31 201q1 10 5 13t13 3h48q16 0 16 -12l-1 -7
l-29 -198h105q13 0 13 -10v-2l-5 -39q-1 -9 -5.5 -12t-13.5 -3h-106l-21 -139h104q9 0 11.5 -2.5t2.5 -9.5v-6l-3 -34q-1 -10 -5.5 -13t-15.5 -3h-106l-28 -181q-2 -10 -7 -14t-18 -4h-41q-9 0 -12.5 2t-3.5 9q0 5 1 9l30 179h-140l-30 -179q-2 -11 -7 -15.5t-19 -4.5h-38
q-10 0 -14 3zM340 267l22 139h-138l-22 -139h138z" />
    <glyph glyph-name="period" unicode="." horiz-adv-x="204" 
d="M66 3q-18 16 -18 40q0 25 17.5 40.5t42.5 15.5q24 0 41.5 -15t17.5 -40q0 -24 -18 -40.5t-41 -16.5q-24 0 -42 16z" />
    <glyph glyph-name="question" unicode="?" horiz-adv-x="421" 
d="M135.5 178.5q-3.5 2.5 -4.5 8.5q-2 9 -4 39v12q0 18 3 36q9 43 39 73l73 76q54 57 54 107q0 54 -32.5 78.5t-78.5 24.5q-43 0 -98 -25q-4 -2 -7 -2q-9 0 -12 9l-12 31l-2 8q0 8 7 12q67 35 142 35q47 0 87.5 -19.5t64.5 -55.5t24 -84q0 -37 -16.5 -73.5t-44.5 -67.5
l-73 -79q-21 -23 -32 -42.5t-14 -50.5q-1 -9 -1 -30v-5q0 -18 -12 -18h-41q-6 0 -9.5 2.5zM129.5 2q-17.5 15 -17.5 40q0 26 17 40.5t41 14.5q23 0 40.5 -14.5t17.5 -39.5t-18 -40.5t-40 -15.5q-23 0 -40.5 15z" />
    <glyph glyph-name="questiondown" unicode="&#xbf;" horiz-adv-x="421" 
d="M222.5 398.5q-17.5 14.5 -17.5 39.5t18 40.5t40 15.5q23 0 40.5 -15t17.5 -40q0 -26 -17 -40.5t-41 -14.5q-23 0 -40.5 14.5zM142.5 -200.5q-40.5 19.5 -64.5 55.5t-24 84q0 37 16.5 73.5t44.5 67.5l73 79q21 23 32 42.5t14 50.5q1 9 1 30v5q0 18 12 18h41q6 0 9.5 -2.5
t4.5 -8.5q2 -9 4 -39v-12q0 -18 -3 -36q-8 -42 -39 -73l-73 -76q-54 -57 -54 -107q0 -54 32.5 -78.5t78.5 -24.5q21 0 47.5 6.5t50.5 18.5q4 2 7 2q9 0 12 -9l12 -31l2 -8q0 -8 -7 -12q-67 -35 -142 -35q-47 0 -87.5 19.5z" />
    <glyph glyph-name="quotedbl" unicode="&#x22;" horiz-adv-x="315" 
d="M59.5 527q-3.5 4 -3.5 14l-3 143v1q0 9 3.5 12.5t12.5 3.5h46q9 0 12.5 -3.5t3.5 -12.5v-2l-3 -142q0 -18 -17 -18h-39q-9 0 -12.5 4zM189.5 527q-3.5 4 -3.5 14l-3 143v1q0 9 3.5 12.5t12.5 3.5h46q9 0 12.5 -3.5t3.5 -12.5v-2l-3 -142q0 -18 -17 -18h-39q-9 0 -12.5 4z
" />
    <glyph glyph-name="quotesingle" unicode="'" horiz-adv-x="315" 
d="M122.5 527q-3.5 4 -3.5 14l-3 143v1q0 9 3.5 12.5t12.5 3.5h46q9 0 12.5 -3.5t3.5 -12.5v-2l-3 -142q0 -18 -17 -18h-39q-9 0 -12.5 4z" />
    <glyph glyph-name="semicolon" unicode=";" horiz-adv-x="214" 
d="M71.5 396.5q-18.5 15.5 -18.5 40.5q0 26 18 41.5t42 15.5t41.5 -15.5t17.5 -41.5q0 -25 -18 -40.5t-41 -15.5t-41.5 15.5zM62 -121l-9 11q-3 4 -3 9q0 4 5 9q13 12 22 26.5t9 26.5q0 7 -4.5 15.5t-9.5 16.5q-9 14 -13 21.5t-4 17.5q0 24 16 38.5t40 14.5q25 0 41.5 -20.5
t16.5 -46.5q0 -42 -22.5 -78t-59.5 -62q-9 -6 -14 -6t-11 7z" />
    <glyph glyph-name="slash" unicode="/" horiz-adv-x="327" 
d="M30 -1l2 12l201 670q3 12 7.5 16t16.5 4h41q14 0 14 -9q0 -5 -3 -13l-198 -669q-4 -12 -9.5 -16t-17.5 -4h-39q-15 0 -15 9z" />
    <glyph glyph-name="underscore" unicode="_" horiz-adv-x="510" 
d="M9 -136q-4 3 -4 12v26q0 9 3.5 12t13.5 3h463q13 0 16.5 -3t3.5 -14v-20q0 -11 -3.5 -15t-13.5 -4h-463q-12 0 -16 3z" />
    <glyph glyph-name="braceleft" unicode="{" horiz-adv-x="336" 
d="M138.5 -98q-38.5 37 -39.5 105l-3 147q-1 50 -12 75.5t-40 29.5q-12 1 -15 4t-3 11v22q0 9 3 12.5t13 4.5q29 3 41 28.5t13 69.5l3 154q1 67 41 104.5t99 37.5h64q7 0 10.5 -1.5t3.5 -6.5q0 -4 -1 -6l-7 -29q-1 -7 -4.5 -10t-9.5 -3h-48q-37 0 -52.5 -29t-16.5 -61
l-3 -133q-1 -66 -21 -102.5t-52 -38.5v-1q33 -2 52 -37t21 -112l3 -127q1 -31 16.5 -60t52.5 -29h44q14 0 17 -11l7 -29l1 -4q0 -12 -19 -12h-58q-62 0 -100.5 37z" />
    <glyph glyph-name="braceright" unicode="}" horiz-adv-x="336" 
d="M23 -133.5q-3 1.5 -3 6.5l1 5l6 30q1 7 4.5 10t9.5 3h49q37 0 52 28.5t16 60.5l3 134q1 66 21.5 102.5t52.5 38.5v1q-70 5 -74 149l-3 126q-1 32 -16 61t-52 29h-45q-13 0 -16 11l-8 30l-1 5q0 10 19 10h59q62 0 100.5 -37t39.5 -105l3 -147q1 -50 12 -75.5t40 -29.5
q11 -1 14 -4.5t3 -9.5v-23q0 -9 -3 -12.5t-12 -4.5q-29 -3 -41 -28.5t-13 -69.5l-3 -154q-1 -67 -41 -104.5t-99 -37.5h-65q-7 0 -10 1.5z" />
    <glyph glyph-name="bracketleft" unicode="[" horiz-adv-x="312" 
d="M89.5 -139q-4.5 5 -4.5 17v800q0 12 5 17.5t16 5.5h165q12 0 16.5 -4t4.5 -15v-33q0 -10 -4.5 -14t-15.5 -4h-101v-705h101q12 0 16 -4t4 -14v-33q0 -10 -4 -14.5t-16 -4.5h-167q-11 0 -15.5 5z" />
    <glyph glyph-name="bracketright" unicode="]" horiz-adv-x="312" 
d="M26 -139.5q-5 4.5 -5 14.5v33q0 10 5 14t16 4h101v706h-101q-12 0 -16.5 4t-4.5 14v32q0 10 4.5 14.5t16.5 4.5h166q11 0 15.5 -5t4.5 -17v-800q0 -12 -5 -17.5t-16 -5.5h-164q-12 0 -17 4.5z" />
    <glyph glyph-name="parenleft" unicode="(" horiz-adv-x="325" 
d="M218.5 -121q-3.5 3 -6.5 7q-74 99 -112.5 201t-38.5 213q0 108 41 209t116 200q6 8 12 8q4 0 10 -3l28 -16q6 -4 6 -9t-5 -13q-61 -93 -89 -169q-35 -98 -35 -220q0 -114 34 -207q28 -76 86 -158q5 -8 5 -12q0 -6 -8 -12l-25 -17q-7 -5 -12 -5q-3 0 -6.5 3z" />
    <glyph glyph-name="parenright" unicode=")" horiz-adv-x="324" 
d="M85 -119l-28 16q-6 3 -6 10q0 4 4 11q63 96 89 169q36 101 36 220q0 114 -34 207q-28 76 -86 158q-5 8 -5 12q0 8 8 13l26 17q5 4 11 4t14 -10q74 -98 111.5 -200t37.5 -213q0 -108 -40.5 -209t-115.5 -200q-6 -8 -13 -8q-4 0 -9 3z" />
    <glyph glyph-name="emdash" unicode="&#x2014;" horiz-adv-x="1000" 
d="M4.5 227.5q-4.5 4.5 -4.5 14.5v41q0 11 4 14.5t15 3.5h959q13 0 17.5 -4t4.5 -16v-36q0 -12 -4 -17t-16 -5h-958q-13 0 -17.5 4.5z" />
    <glyph glyph-name="endash" unicode="&#x2013;" horiz-adv-x="500" 
d="M4.5 227.5q-4.5 4.5 -4.5 14.5v41q0 11 4 14.5t15 3.5h459q13 0 17.5 -4t4.5 -16v-36q0 -12 -4 -17t-16 -5h-458q-13 0 -17.5 4.5z" />
    <glyph glyph-name="hyphen" unicode="-" horiz-adv-x="277" 
d="M45.5 227.5q-4.5 4.5 -4.5 14.5v41q0 10 4.5 14t15.5 4h153q13 0 17.5 -4t4.5 -16v-36q0 -12 -4 -17t-16 -5h-153q-13 0 -17.5 4.5z" />
    <glyph glyph-name="uni00AD" unicode="&#xad;" horiz-adv-x="277" 
d="M45.5 227.5q-4.5 4.5 -4.5 14.5v41q0 10 4.5 14t15.5 4h153q13 0 17.5 -4t4.5 -16v-36q0 -12 -4 -17t-16 -5h-153q-13 0 -17.5 4.5z" />
    <glyph glyph-name="guillemotleft" unicode="&#xab;" horiz-adv-x="463" 
d="M172.5 58q-3.5 3 -6.5 7l-112 149q-5 6 -5 14t6 15l111 145q5 8 13 8q5 0 8 -2l27 -15q8 -4 8 -12q0 -2 -1 -3.5t-2 -2.5l-83 -132l82 -136q2 -3 2 -9t-9 -12l-23 -14q-6 -3 -9 -3t-6.5 3zM341 65l-111 149q-6 8 -6 14q0 8 6 15l112 145q5 8 13 8q5 0 8 -2l27 -15
q6 -3 6 -11q0 -3 -2 -7l-83 -132l82 -136q3 -4 3 -9q0 -6 -9 -12l-23 -14q-6 -3 -9 -3q-6 0 -14 10z" />
    <glyph glyph-name="guillemotright" unicode="&#xbb;" horiz-adv-x="463" 
d="M102 58l-28 16q-7 4 -7 11q0 5 2 7l84 133l-82 135q-3 5 -3 9q0 8 9 12l22 13q7 4 11 4q5 0 13 -11l111 -149q5 -6 5 -13q0 -10 -5 -16l-112 -144q-6 -9 -13 -9q-4 0 -7 2zM276 58l-27 16q-7 4 -7 11q0 3 2 7l84 133l-82 135q-2 2 -2 8q0 8 8 13l22 13q5 4 11 4t14 -11
l110 -149q5 -6 5 -13q0 -8 -6 -16l-111 -144q-6 -9 -13 -9q-5 0 -8 2z" />
    <glyph glyph-name="guilsinglleft" unicode="&#x2039;" horiz-adv-x="288" 
d="M172.5 58q-3.5 3 -6.5 7l-112 149q-5 6 -5 14t6 15l111 145q5 8 13 8q5 0 8 -2l27 -15q8 -5 8 -10q0 -3 -3 -8l-84 -132l83 -136q2 -3 2 -9t-9 -12l-23 -14q-6 -3 -9 -3t-6.5 3z" />
    <glyph glyph-name="guilsinglright" unicode="&#x203a;" horiz-adv-x="288" 
d="M101 58l-27 16q-7 5 -7 11q0 3 2 7l84 133l-82 135q-3 5 -3 8q0 7 9 13l23 13q2 1 4.5 2.5t4.5 1.5q4 0 8 -5t5 -6l112 -149q5 -6 5 -13q0 -8 -6 -16l-111 -144q-6 -9 -13 -9q-5 0 -8 2z" />
    <glyph glyph-name="quotedblbase" unicode="&#x201e;" horiz-adv-x="362" 
d="M48 -133l-7 8q-4 6 -4 9q0 4 6 10q35 35 35 66q0 9 -5 17.5t-11 16.5q-18 22 -18 38q0 23 15.5 38t38.5 15q25 0 41.5 -20.5t16.5 -46.5q0 -43 -23.5 -85t-59.5 -67q-9 -6 -14 -6t-11 7zM224 -133l-7 8q-4 6 -4 9q0 4 6 10q35 35 35 66q0 9 -5 17.5t-11 16.5
q-18 22 -18 38q0 23 15.5 38t38.5 15q25 0 41.5 -20.5t16.5 -46.5q0 -43 -23.5 -85t-59.5 -67q-9 -6 -14 -6t-11 7z" />
    <glyph glyph-name="quotedblleft" unicode="&#x201c;" horiz-adv-x="362" 
d="M48 499.5q-16 20.5 -16 46.5q0 43 23.5 85t58.5 67q9 6 14 6q6 0 12 -7l7 -9q3 -4 3 -9q0 -4 -5 -9q-35 -35 -35 -66q0 -9 5 -17.5t11 -16.5q18 -22 18 -38q0 -23 -16 -38t-39 -15q-25 0 -41 20.5zM224 499.5q-16 20.5 -16 46.5q0 43 23.5 85t58.5 67q9 6 14 6q6 0 12 -7
l7 -9q3 -4 3 -9q0 -4 -5 -9q-35 -35 -35 -66q0 -9 5 -17.5t11 -16.5q18 -22 18 -38q0 -23 -16 -38t-39 -15q-25 0 -41 20.5z" />
    <glyph glyph-name="quotedblright" unicode="&#x201d;" horiz-adv-x="362" 
d="M48 482l-7 8q-4 6 -4 9q0 4 6 10q35 35 35 66q0 9 -5 17.5t-11 16.5q-18 22 -18 38q0 23 15.5 38t38.5 15q25 0 41.5 -20.5t16.5 -46.5q0 -43 -23.5 -85t-59.5 -67q-9 -6 -14 -6t-11 7zM224 482l-7 8q-4 6 -4 9q0 4 6 10q35 35 35 66q0 9 -5 17.5t-11 16.5q-18 22 -18 38
q0 23 15.5 38t38.5 15q25 0 41.5 -20.5t16.5 -46.5q0 -43 -23.5 -85t-59.5 -67q-9 -6 -14 -6t-11 7z" />
    <glyph glyph-name="quoteleft" unicode="&#x2018;" horiz-adv-x="325" 
d="M113.5 499.5q-16.5 20.5 -16.5 46.5q0 43 23.5 85t59.5 67q9 6 14 6t11 -7l7 -9q4 -6 4 -9t-6 -9q-35 -35 -35 -66q0 -9 5 -17.5t11 -16.5q18 -22 18 -38q0 -23 -15.5 -38t-38.5 -15q-25 0 -41.5 20.5z" />
    <glyph glyph-name="quoteright" unicode="&#x2019;" horiz-adv-x="325" 
d="M117 486l-7 8q-4 6 -4 9q0 4 6 10q35 35 35 65q0 14 -16 34q-9 12 -13.5 20.5t-4.5 18.5q0 23 15.5 38t38.5 15q25 0 41.5 -21t16.5 -47q0 -43 -23 -84.5t-59 -66.5q-9 -6 -14 -6q-6 0 -12 7z" />
    <glyph glyph-name="quotesinglbase" unicode="&#x201a;" horiz-adv-x="325" 
d="M117 -133l-7 8q-4 6 -4 9q0 4 6 10q35 35 35 66q0 9 -5 17.5t-11 16.5q-18 22 -18 38q0 23 15.5 38t38.5 15q25 0 41.5 -20.5t16.5 -46.5q0 -43 -23.5 -85t-58.5 -67q-9 -6 -14 -6q-6 0 -12 7z" />
    <glyph glyph-name="uni00A0" unicode="&#xa0;" horiz-adv-x="232" 
 />
    <glyph glyph-name="cent" unicode="&#xa2;" 
d="M277.5 -92.5q-3.5 4.5 -3.5 16.5v68q-97 11 -148 77t-51 172q0 101 53 169t146 81v80q0 10 4 13.5t12 3.5h20q11 0 14 -3.5t3 -14.5v-76q29 -1 61.5 -9t55.5 -20q12 -7 12 -14q0 -1 -2 -9l-10 -30q-4 -12 -11 -12q-5 0 -9 3q-49 23 -97 24v-371q49 1 100 23q6 2 9 2
q6 0 10 -10l9 -28q2 -8 2 -10q0 -9 -12 -14q-50 -25 -118 -28v-68q0 -12 -3.5 -16t-16.5 -4h-14q-12 0 -15.5 4.5zM274 423q-52 -14 -81.5 -60t-29.5 -118q0 -71 27.5 -121t83.5 -64v363z" />
    <glyph glyph-name="currency" unicode="&#xa4;" 
d="M93 198q-8 8 -8 14t8 14l47 48q-17 32 -17 72t17 72l-47 48q-8 8 -8 14t8 14l22 22q7 7 13 7q7 0 15 -8l44 -44q39 28 88 28t88 -28l44 44q8 8 15 8q6 0 13 -7l22 -22q8 -8 8 -14t-8 -14l-47 -48q17 -32 17 -72t-17 -72l47 -48q8 -8 8 -14t-8 -14l-22 -22q-7 -7 -13 -7
q-7 0 -15 8l-44 44q-39 -28 -88 -28t-88 28l-44 -44q-8 -8 -15 -8q-6 0 -13 7zM335 283q20 24 20 63t-20 63t-60 24t-60 -24t-20 -63t20 -63t60 -24t60 24z" />
    <glyph glyph-name="dollar" unicode="$" 
d="M268 -96.5q-3 4.5 -3 16.5v70h-9q-73 0 -159 28q-15 5 -15 16q0 2 2 10l13 44q3 11 13 11q7 0 12 -2q81 -29 139 -29h4v256l-75 40q-52 27 -81 68t-29 93q0 50 25.5 88t68 60t91.5 27v80q0 16 15 16h21q10 0 13.5 -3.5t3.5 -13.5v-78q65 -3 132 -30q15 -5 15 -17v-2
q0 -5 -1 -7l-15 -40q-5 -11 -13 -11q-4 0 -7 1l-15 5q-52 21 -96 25v-234l39 -20q66 -33 102.5 -77t36.5 -109q0 -80 -49.5 -129t-128.5 -62v-74q0 -13 -3 -17t-16 -4h-16q-12 0 -15 4.5zM265 624q-38 -7 -59 -24q-34 -27 -34 -66q0 -42 23.5 -66.5t69.5 -47.5v204z
M383.5 111q24.5 26 24.5 69q0 39 -26 70t-64 46v-222q41 11 65.5 37z" />
    <glyph glyph-name="Euro" unicode="&#x20ac;" 
d="M178 59q-75 69 -98 184h-74q-11 0 -14 3.5t-3 14.5v20q0 11 3.5 14.5t14.5 3.5h65q-2 28 -2 44v3h-50q-10 0 -13 3t-3 14v22q0 11 3.5 14t14.5 3h52q11 84 50.5 152t106 107.5t153.5 39.5q49 0 90 -11t83 -34q5 -3 8.5 -6.5t3.5 -7.5t-3 -12l-16 -37q-4 -10 -12 -10
q-4 0 -9 3q-37 21 -68.5 30.5t-70.5 9.5q-48 0 -89 -20t-70 -56q-48 -59 -59 -148h203q18 0 18 -11l-1 -5l-6 -25q-2 -11 -5 -13t-13 -2h-199q0 -24 3 -47h183q17 0 17 -11q0 -4 -1 -6l-6 -23q-3 -12 -5.5 -14t-12.5 -2h-165q21 -82 73 -130.5t135 -48.5q35 0 66.5 9
t69.5 28q3 2 9 2q9 0 13 -11l13 -31q3 -6 3 -11q0 -11 -14 -17q-49 -23 -86.5 -33t-86.5 -10q-124 0 -199 69z" />
    <glyph glyph-name="florin" unicode="&#x192;" 
d="M-18 -172q-9 4 -9 13q0 3 2 9l12 33q3 9 11 9l8 -2q31 -13 63 -13q59 0 88 53q14 27 26 88l59 308h-64q-6 0 -9 1.5t-3 5.5v2l5 29q2 8 4.5 10.5t10.5 2.5h67l20 108q9 46 20 79q22 66 69.5 103t116.5 37q49 0 86 -17q8 -4 8 -13q0 -5 -2 -11l-12 -32q-3 -9 -11 -9
q-2 0 -8 2q-31 13 -64 13q-57 0 -86 -50q-13 -23 -26 -87l-24 -123h120q7 0 10 -1.5t3 -6.5v-5l-4 -24q-1 -9 -4.5 -11.5t-11.5 -2.5h-123l-57 -296q-10 -50 -20 -81q-22 -66 -69.5 -102t-116.5 -36q-48 0 -85 17z" />
    <glyph glyph-name="sterling" unicode="&#xa3;" 
d="M68 4.5q-5 4.5 -5 14.5v27q0 9 4 14.5t14 10.5q70 34 70 137v35h-51q-11 0 -14 3.5t-3 14.5v20q0 11 3.5 14.5t14.5 3.5h50v47h-52q-10 0 -13 3t-3 14v22q0 11 3.5 14t14.5 3h50v80q0 101 49 160t147 59q71 0 126 -24q13 -6 13 -15l-1 -4l-11 -40q-1 -5 -5 -8t-8 -3h-2
q-25 8 -53 14t-48 6q-61 0 -89 -37t-28 -101v-87h157q10 0 13.5 -3.5t3.5 -12.5v-25q0 -10 -3.5 -12.5t-14.5 -2.5h-157v-47h159q10 0 13 -3.5t3 -13.5v-23q0 -11 -3.5 -13.5t-14.5 -2.5h-157v-46q0 -40 -13.5 -71t-39.5 -50v-3h293q11 0 16 -4t5 -13v-38q0 -9 -4.5 -13.5
t-15.5 -4.5h-397q-11 0 -16 4.5z" />
    <glyph glyph-name="yen" unicode="&#xa5;" 
d="M239.5 4q-3.5 4 -3.5 15v140h-101q-11 0 -14 3.5t-3 15.5v20q0 11 3.5 14.5t14.5 3.5h100v46h-102q-10 0 -13 3.5t-3 14.5v22q0 11 3.5 14t14.5 3h81l-187 350q-3 6 -3 9q0 11 16 11h58q13 0 21 -4t12 -13l154 -306h1l149 304q6 12 11.5 15.5t18.5 3.5h46q7 0 11 -3t4 -8
q0 -2 -4 -12l-181 -347h89q10 0 13 -3.5t3 -12.5v-25q0 -10 -3.5 -13t-14.5 -3h-104v-46h107q10 0 13 -3.5t3 -13.5v-23q0 -11 -3.5 -14t-14.5 -3h-105v-141q0 -10 -3 -14t-12 -4h-60q-9 0 -12.5 4z" />
    <glyph glyph-name="dotmath" unicode="&#x22c5;" horiz-adv-x="216" 
d="M71.5 248q-18.5 15 -18.5 40q0 26 18 41.5t42 15.5t41.5 -15.5t17.5 -41.5q0 -25 -18 -40t-41 -15t-41.5 15z" />
    <glyph glyph-name="plus" unicode="+" horiz-adv-x="510" 
d="M220.5 46q-3.5 4 -3.5 15v164h-152q-13 0 -17 4.5t-4 14.5v37q0 11 4 14.5t15 3.5h154v162q0 13 4 17.5t16 4.5h37q12 0 17 -4t5 -16v-164h150q13 0 17.5 -4t4.5 -16v-32q0 -12 -4 -17t-16 -5h-152v-162q0 -13 -4.5 -17t-14.5 -4h-42q-11 0 -14.5 4z" />
    <glyph glyph-name="minus" unicode="&#x2212;" horiz-adv-x="510" 
d="M99.5 229.5q-4.5 4.5 -4.5 14.5v37q0 10 4.5 14t15.5 4h285q13 0 17.5 -4t4.5 -16v-32q0 -12 -4 -17t-16 -5h-285q-13 0 -17.5 4.5z" />
    <glyph glyph-name="multiply" unicode="&#xd7;" horiz-adv-x="510" 
d="M365 98l-110 110l-108 -107q-9 -9 -15 -9q-7 0 -14 7l-26 26q-7 7 -7 13t8 14l109 109l-109 109q-10 10 -10 16q0 5 8 13l26 27q9 9 16 9q6 0 14 -8l111 -110l106 106q4 5 8 7.5t7 2.5q6 0 15 -9l23 -23q6 -6 6 -14q0 -11 -4 -15l-109 -109l109 -108q9 -9 9 -15
q0 -4 -7 -13l-29 -30q-7 -7 -14 -7q-5 0 -13 8z" />
    <glyph glyph-name="divide" unicode="&#xf7;" horiz-adv-x="510" 
d="M212.5 397q-18.5 16 -18.5 41q0 26 18 41t42 15t41.5 -15t17.5 -41q0 -25 -18.5 -41t-40.5 -16q-23 0 -41.5 16zM48 229.5q-4 4.5 -4 14.5v37q0 11 4 14.5t15 3.5h379q13 0 17.5 -4t4.5 -16v-32q0 -12 -4 -17t-16 -5h-379q-13 0 -17 4.5zM212.5 49.5
q-18.5 15.5 -18.5 40.5q0 26 18 41.5t42 15.5t41.5 -15.5t17.5 -41.5q0 -25 -18 -40.5t-41 -15.5t-41.5 15.5z" />
    <glyph glyph-name="equal" unicode="=" horiz-adv-x="510" 
d="M93 329.5q-4 4.5 -4 14.5v34q0 11 4 15t15 4h291q13 0 17.5 -4t4.5 -16v-30q0 -12 -4 -17t-16 -5h-291q-13 0 -17 4.5zM93 155.5q-4 4.5 -4 14.5v34q0 11 4 15t15 4h291q13 0 17.5 -4t4.5 -16v-30q0 -12 -4 -17t-16 -5h-291q-13 0 -17 4.5z" />
    <glyph glyph-name="notequal" unicode="&#x2260;" horiz-adv-x="505" 
d="M113 59q-10 7 -10 13q0 5 4 10l36 63h-77q-15 0 -15 17v37q0 8 3 12t12 4h119l63 112h-182q-15 0 -15 18v36q0 8 3 12t12 4h223l51 87q6 11 14 11q5 0 10 -4l15 -9q10 -6 10 -13q0 -4 -3 -10l-35 -62h86q9 0 13 -3.5t4 -12.5v-36q0 -9 -4 -13.5t-13 -4.5h-128l-63 -112
h191q9 0 13 -3.5t4 -12.5v-37q0 -9 -3.5 -13t-13.5 -4h-233l-52 -89q-6 -10 -13 -10q-3 0 -11 4z" />
    <glyph glyph-name="greater" unicode="&#x3e;" horiz-adv-x="510" 
d="M107 130l-25 42q-3 6 -3 10q0 7 8 12l217 142l-217 141q-8 5 -8 13q0 5 3 9l27 43q7 11 14 11q5 0 13 -5l268 -181q7 -5 10 -9.5t3 -11.5v-19q0 -13 -14 -22l-268 -178q-9 -6 -15 -6q-7 0 -13 9z" />
    <glyph glyph-name="less" unicode="&#x3c;" horiz-adv-x="510" 
d="M358 127l-266 179q-7 5 -9.5 9.5t-2.5 11.5v19q0 13 13 22l269 178q8 6 14 6q7 0 13 -9l26 -42q3 -4 3 -9q0 -8 -8 -13l-217 -142l216 -140q9 -6 9 -13q0 -2 -4 -10l-27 -43q-6 -10 -14 -10q-6 0 -15 6z" />
    <glyph glyph-name="greaterequal" unicode="&#x2265;" horiz-adv-x="505" 
d="M120 151l-27 43q-4 6 -4 9q0 6 10 13l215 148l-216 149q-8 6 -8 12q0 5 4 10l23 39q4 7 10 7t11 -5l271 -185q12 -8 12 -19v-19q0 -7 -2.5 -11t-7.5 -8l-266 -187q-6 -5 -13 -5q-6 0 -12 9zM86 17v37q0 16 17 16h308q9 0 12 -4t3 -12v-37q0 -17 -15 -17h-308
q-17 0 -17 17z" />
    <glyph glyph-name="lessequal" unicode="&#x2264;" horiz-adv-x="505" 
d="M361 147l-266 187q-5 4 -7.5 8t-2.5 11v19q0 11 12 19l271 185q5 5 11 5t10 -7l23 -39q4 -5 4 -10q0 -6 -8 -12l-216 -149l215 -148q9 -6 9 -13q0 -4 -3 -9l-27 -43q-6 -9 -12 -9q-7 0 -13 5zM79 17v37q0 16 16 16h308q17 0 17 -16v-37q0 -17 -17 -17h-308q-16 0 -16 17z
" />
    <glyph glyph-name="plusminus" unicode="&#xb1;" horiz-adv-x="510" 
d="M220.5 168q-3.5 4 -3.5 15v146h-152q-13 0 -17 4.5t-4 14.5v37q0 11 4 15t15 4h154v144q0 13 4 17.5t16 4.5h37q12 0 17 -4t5 -16v-146h150q13 0 17.5 -4t4.5 -16v-33q0 -12 -4 -17t-16 -5h-152v-144q0 -13 -4.5 -17t-14.5 -4h-42q-11 0 -14.5 4zM88 18.5q-4 4.5 -4 14.5
v41q0 11 4 15t15 4h305q14 0 18.5 -4t4.5 -16v-37q0 -12 -4 -17t-16 -5h-306q-13 0 -17 4.5z" />
    <glyph glyph-name="approxequal" unicode="&#x2248;" horiz-adv-x="505" 
d="M310 303.5q-21 10.5 -47 30.5l-34 27q-20 17 -35.5 24.5t-33.5 7.5q-50 0 -79 -69q-5 -8 -11 -8q-5 0 -10 4l-25 21q-7 6 -7 13q0 6 3 13q20 51 55.5 78.5t75.5 27.5q45 0 87 -35l32 -26q23 -19 36.5 -27.5t28.5 -8.5q20 0 33 16.5t23 53.5q3 11 11 11q5 0 10 -5l27 -20
q7 -6 7 -14q0 -3 -2 -11q-13 -56 -39.5 -85t-63.5 -29q-21 0 -42 10.5zM258 119l-31 26q-25 20 -38.5 28.5t-28.5 8.5q-19 0 -32 -16.5t-24 -52.5q-3 -9 -12 -9q-5 0 -10 4l-26 18q-7 7 -7 15q0 3 2 11q13 56 40 85t63 29q38 0 89 -41l34 -27q20 -17 35.5 -24.5t33.5 -7.5
q50 0 79 69q7 9 12 9q4 0 9 -5l25 -21q7 -6 7 -13q0 -5 -3 -13q-20 -51 -55.5 -78.5t-75.5 -27.5q-44 0 -86 33z" />
    <glyph glyph-name="asciitilde" unicode="~" horiz-adv-x="537" 
d="M269 251q-26 13 -42 19.5t-35 6.5q-14 0 -34 -8.5t-49 -23.5q-11 -6 -16 -6q-6 0 -10 7l-17 28q-4 7 -4 11q0 7 14 16q38 24 61 35.5t50 11.5q34 0 81 -22q6 -3 22 -10.5t30 -12t25 -4.5q12 0 27.5 7.5t30.5 16t21 12.5q9 5 15 5t13 -8l16 -17q5 -7 5 -11q0 -8 -8 -14
l-16 -12q-34 -25 -56 -37t-52 -12q-32 0 -72 22z" />
    <glyph glyph-name="logicalnot" unicode="&#xac;" horiz-adv-x="518" 
d="M394.5 200.5q-4.5 4.5 -4.5 16.5v125h-318q-14 0 -18 4t-4 14v36q0 10 4.5 13.5t15.5 3.5h373q15 0 19.5 -4t4.5 -16v-173q0 -14 -4.5 -19t-16.5 -5h-34q-13 0 -17.5 4.5z" />
    <glyph glyph-name="infinity" unicode="&#x221e;" horiz-adv-x="826" 
d="M88.5 211q-47.5 41 -47.5 114q0 72 46.5 115t124.5 43q54 0 102.5 -27.5t98.5 -78.5q46 50 92.5 77t104.5 27q78 0 124.5 -40.5t46.5 -113.5q0 -74 -49 -114.5t-122 -40.5q-52 0 -97.5 24.5t-100.5 78.5q-98 -105 -203 -105q-73 0 -120.5 41zM219 245q40 0 78 23t69 60
q-40 41 -75 62.5t-78 21.5q-41 0 -65.5 -23t-24.5 -62t26.5 -60.5t68.5 -21.5h1zM604 245q41 0 68.5 23.5t27.5 58.5q0 41 -27.5 62t-69.5 21q-41 0 -76 -22t-68 -60q47 -47 77.5 -65t66.5 -18h1z" />
    <glyph glyph-name="integral" unicode="&#x222b;" horiz-adv-x="370" 
d="M23 -137q-9 1 -11.5 5.5t-1.5 12.5l7 38q1 15 17 10q19 -4 43 -4q52 0 75 34t23 89q0 12 -2 34q-5 48 -27 175q-11 59 -21 121t-13 107q-1 12 -1 35q0 200 183 200q21 0 53 -5q16 -3 13 -19l-7 -38q-1 -13 -17 -10q-25 5 -43 5q-97 0 -97 -126q0 -21 1 -31q6 -82 34 -234
q20 -106 27 -169q3 -22 3 -45q0 -88 -46 -139.5t-139 -51.5q-15 0 -53 6z" />
    <glyph glyph-name="uni2126" unicode="&#x2126;" horiz-adv-x="701" 
d="M45 17v36q0 16 17 16h101q-49 41 -75.5 111t-26.5 164q0 107 37.5 186.5t104 122.5t152.5 43q90 0 154.5 -43t98 -121t33.5 -183q0 -96 -30 -167t-82 -113h110q15 0 15 -16v-36q0 -17 -15 -17h-236q-15 0 -15 17v36q0 8 3 11.5t12 4.5q70 14 106.5 89t36.5 188
q0 134 -51.5 203t-143.5 69q-57 0 -102 -32.5t-70.5 -93.5t-25.5 -145q0 -115 35.5 -188t106.5 -90q9 -3 12 -6t3 -10v-36q0 -17 -15 -17h-233q-17 0 -17 17z" />
    <glyph glyph-name="uni2206" unicode="&#x2206;" horiz-adv-x="580" 
d="M57.5 2.5q-5.5 2.5 -9.5 9.5l-18 28q-4 7 -4 13q0 7 3 14l221 629q3 7 6.5 9.5t11.5 2.5h37q8 0 12.5 -2.5t7.5 -9.5l227 -630q2 -5 2 -12t-4 -14l-18 -29q-6 -11 -22 -11h-439q-8 0 -13.5 2.5zM455 73l-174 526l-175 -526h349z" />
    <glyph glyph-name="product" unicode="&#x220f;" horiz-adv-x="640" 
d="M117.5 -164.5q-2.5 2.5 -2.5 12.5v768h-69q-9 0 -12.5 4t-3.5 13v43q0 14 16 14h549q17 0 15 -12l-4 -47q-1 -9 -7 -12t-16 -3h-66v-767q0 -10 -2.5 -13t-11.5 -3h-62q-10 0 -12.5 2.5t-2.5 13.5v767h-220v-767q0 -10 -3 -13t-12 -3h-62q-9 0 -11.5 2.5z" />
    <glyph glyph-name="summation" unicode="&#x2211;" horiz-adv-x="605" 
d="M33.5 -164q-3.5 3 -3.5 11v36q0 13 10 23l315 362l-317 348q-8 7 -8 21v39q0 14 16 14h509q16 0 16 -12v-47q-1 -15 -23 -15h-392l264 -290q14 -14 14 -28v-26q0 -12 -2 -19.5t-11 -16.5l-284 -329h422q9 0 12.5 -4t3.5 -12v-44q0 -14 -19 -14h-511q-8 0 -11.5 3z" />
    <glyph glyph-name="radical" unicode="&#x221a;" horiz-adv-x="573" 
d="M243 2q-4 2 -7 9l-146 403h-63q-17 0 -17 17v37q0 16 17 16h117q15 0 19 -15l115 -359l195 583q3 9 7.5 12t14.5 3h45q9 0 11.5 -5t-0.5 -13l-240 -678q-3 -8 -6.5 -10t-11.5 -2h-37q-9 0 -13 2z" />
    <glyph glyph-name="uni00B5" unicode="&#xb5;" horiz-adv-x="532" 
d="M72 -164.5q-5 4.5 -5 15.5v612q0 20 19 20h47q19 0 19 -20v-282q0 -35 5.5 -58.5t19.5 -38.5q11 -12 30 -19t43 -7q33 0 67.5 16t62.5 41v348q0 20 20 20h46q20 0 20 -20v-441q0 -22 -20 -22h-44q-16 0 -18 19l-2 28q-29 -28 -64 -42.5t-72 -14.5q-67 0 -95 30v-169
q0 -11 -4.5 -15.5t-16.5 -4.5h-42q-11 0 -16 4.5z" />
    <glyph glyph-name="partialdiff" unicode="&#x2202;" horiz-adv-x="543" 
d="M107.5 50q-55.5 61 -55.5 162q0 67 27 117.5t72.5 77t101.5 26.5q81 0 138 -57q-2 116 -43 188.5t-126 72.5q-27 0 -49 -6t-48 -20q-3 -2 -7 -2q-8 0 -13 10l-16 39l-2 8q0 8 12 15q32 17 61.5 24.5t65.5 7.5q145 0 201.5 -115.5t56.5 -273.5q0 -157 -54 -246t-170 -89
q-97 0 -152.5 61zM366.5 129q28.5 65 28.5 166q-29 34 -60 49.5t-69 15.5q-60 0 -93 -44t-33 -106q0 -60 31 -103t91 -43q76 0 104.5 65z" />
    <glyph glyph-name="percent" unicode="%" horiz-adv-x="1000" 
d="M267 -5l-27 20q-7 4 -7 12t5 14l468 655q6 8 13 8q4 0 16 -7l27 -17q9 -6 9 -14q0 -5 -4 -12l-472 -659q-6 -8 -11 -8q-6 0 -17 8zM244 434q-33 44 -33 110t34 111.5t98 45.5t95 -44.5t31 -111.5q0 -65 -32.5 -110t-95.5 -45q-64 0 -97 44zM389.5 471q13.5 33 13.5 73
q0 41 -13.5 74t-48.5 33t-49 -32t-14 -73q0 -47 12 -77.5t52 -30.5q34 0 47.5 33zM567 34q-33 44 -33 110t34 111.5t98 45.5t95 -44.5t31 -111.5q0 -65 -32.5 -110t-95.5 -45q-64 0 -97 44zM712.5 71q13.5 33 13.5 73q0 41 -13.5 74t-48.5 33t-49 -32t-14 -73
q0 -47 12 -77.5t52 -30.5q34 0 47.5 33z" />
    <glyph glyph-name="perthousand" unicode="&#x2030;" horiz-adv-x="1000" 
d="M115 -5l-27 20q-7 4 -7 12t5 14l468 655q6 8 13 8q4 0 16 -7l27 -17q9 -6 9 -14q0 -5 -4 -12l-472 -659q-6 -8 -11 -8q-6 0 -17 8zM92 434q-33 44 -33 110t34 111.5t98 45.5t95 -44.5t31 -111.5q0 -65 -32.5 -110t-95.5 -45q-64 0 -97 44zM237.5 471q13.5 33 13.5 73
q0 41 -13.5 74t-48.5 33t-49 -32t-14 -73q0 -47 12 -77.5t52 -30.5q34 0 47.5 33zM415 34q-33 44 -33 110t34 111.5t98 45.5t95 -44.5t31 -111.5q0 -65 -32.5 -110t-95.5 -45q-64 0 -97 44zM730 34q-33 44 -33 110t34 111.5t98 45.5t95 -44.5t31 -111.5q0 -65 -32.5 -110
t-95.5 -45q-64 0 -97 44zM560.5 71q13.5 33 13.5 73q0 41 -13.5 74t-48.5 33t-49 -32t-14 -73q0 -47 12 -77.5t52 -30.5q34 0 47.5 33zM875.5 71q13.5 33 13.5 73q0 41 -13.5 74t-48.5 33t-49 -32t-14 -73q0 -47 12 -77.5t52 -30.5q34 0 47.5 33z" />
    <glyph glyph-name="lozenge" unicode="&#x25ca;" horiz-adv-x="487" 
d="M212.5 -19.5q-4.5 2.5 -7.5 8.5l-160 307q-9 23 -9 32v13q0 12 9 34l166 313q4 7 8 9.5t12 2.5h31q15 0 20 -12l159 -306q1 -2 5.5 -13t4.5 -21v-13q0 -9 -9 -32l-166 -313q-4 -7 -8 -9.5t-12 -2.5h-31q-8 0 -12.5 2.5zM372 339l-127 254l-128 -257l128 -253z" />
    <glyph glyph-name="uniF8FF" unicode="&#xf8ff;" horiz-adv-x="591" 
d="M100 659h391v-65h-326v-529h73v-65h-138v659zM230 267h196v66h-196v195h261v-65h-196v-65h196v-196h-261v65z" />
    <glyph glyph-name="at" unicode="@" horiz-adv-x="820" 
d="M228.5 29.5q-81.5 39.5 -128 113t-46.5 171.5q0 108 53 196.5t143 139.5t198 51q93 0 166 -38.5t114 -109.5t41 -164q0 -56 -22.5 -112.5t-64.5 -93.5t-98 -37q-41 0 -70.5 20.5t-32.5 64.5h-1q-21 -33 -49.5 -50t-60.5 -17q-54 0 -81.5 40t-27.5 98q0 51 21 102t60.5 84
t91.5 33q30 0 55 -15.5t33 -48.5l10 40q1 6 4.5 8t10.5 2h28q14 0 14 -10l-1 -5l-46 -198q-7 -33 -7 -59q0 -23 13 -36t38 -13q42 0 70.5 34.5t42.5 83.5q12 41 12 87q0 76 -34 132.5t-94 87t-137 30.5q-32 0 -67 -8t-64 -22q-82 -41 -126.5 -119.5t-44.5 -174.5
q0 -83 35 -144.5t98 -94.5t146 -33q40 0 84.5 10t81.5 28l8 2q6 0 9 -7l9 -24l2 -8q0 -6 -8 -10q-91 -46 -196 -46q-103 0 -184.5 39.5zM478 294l24 107q-2 27 -16 48t-42 21q-36 0 -60 -28.5t-35 -68t-11 -72.5t12.5 -56t41.5 -23q53 0 86 72z" />
    <glyph glyph-name="ampersand" unicode="&#x26;" horiz-adv-x="670" 
d="M139.5 14.5q-47.5 24.5 -75.5 68.5t-28 100q0 67 43.5 115t121.5 99l-31 37q-28 33 -42 62t-14 64q0 38 21 70.5t57 51.5t80 19q67 0 111.5 -38.5t44.5 -100.5q0 -48 -32 -87.5t-88 -80.5l173 -204q31 44 52 101t26 120q1 10 3.5 13t10.5 3h44q7 0 10 -3t3 -10
q0 -68 -29 -146.5t-72 -129.5q28 -27 62 -46t67 -29q12 -4 12 -12q0 -2 -2 -10l-12 -35q-4 -12 -16 -12q-3 0 -13 2q-38 8 -80 30.5t-74 54.5q-101 -91 -229 -91q-57 0 -104.5 24.5zM328 499.5q22 28.5 22 60.5q0 33 -21 54.5t-55 21.5q-32 0 -53.5 -21t-21.5 -53
q0 -19 11.5 -42.5t31.5 -46.5l26 -30q38 28 60 56.5zM350.5 81q42.5 18 75.5 49l-184 218q-55 -39 -85 -75.5t-30 -80.5q0 -57 39 -93t94 -36q48 0 90.5 18z" />
    <glyph glyph-name="paragraph" unicode="&#xb6;" horiz-adv-x="521" 
d="M205 -120v486q-45 2 -81 24t-57 58t-21 79q0 44 22 81.5t59.5 59t81.5 21.5h212q11 0 15 -4t4 -15v-792q0 -19 -17 -19h-32q-17 0 -17 20v742h-86v-741q0 -21 -19 -21h-45q-19 0 -19 21z" />
    <glyph glyph-name="section" unicode="&#xa7;" horiz-adv-x="465" 
d="M148.5 -2q-38.5 8 -67.5 20q-10 4 -10 12q0 1 2 9l11 33q3 11 11 11q4 0 6 -1q28 -11 62 -19t58 -8q43 0 70.5 20.5t27.5 54.5q0 28 -18.5 45.5t-56.5 33.5l-68 28q-103 42 -103 126q0 34 16.5 61t44.5 44q-56 40 -56 100q0 63 49.5 98t120.5 35q67 0 127 -24
q10 -3 10 -10q0 -4 -1 -6l-12 -38q-3 -10 -10 -10q-3 0 -5.5 1t-4.5 2q-56 21 -100 21q-39 0 -62.5 -18t-23.5 -44q0 -23 15.5 -40t47.5 -31l77 -33q45 -20 72.5 -51.5t27.5 -75.5q0 -34 -13.5 -62t-38.5 -48q47 -40 47 -95q0 -68 -51 -108.5t-131 -40.5q-32 0 -70.5 8z
M316 297.5q10 16.5 10 36.5q0 27 -19.5 45.5t-57.5 34.5l-41 17q-23 -7 -36 -23t-13 -36q0 -24 15.5 -40.5t48.5 -31.5l61 -27l4 -2q18 10 28 26.5z" />
    <glyph glyph-name="copyright" unicode="&#xa9;" horiz-adv-x="833" 
d="M234.5 36.5q-82.5 48.5 -130.5 130.5t-48 180t48 180t131 129.5t182 47.5t182 -47.5t131 -129.5t48 -180t-48.5 -180.5t-131.5 -130.5t-181 -48q-100 0 -182.5 48.5zM566.5 89.5q67.5 39.5 106.5 107.5t39 149t-39 149t-106.5 107.5t-149.5 39.5t-149.5 -39.5
t-106.5 -107.5t-39 -149t39 -149t106.5 -107.5t149.5 -39.5t149.5 39.5zM309 215q-40 51 -40 130q0 49 19 90.5t55.5 66.5t86.5 25q53 0 93 -23q8 -5 8 -10l-2 -8l-7 -18q-3 -8 -11 -8q-2 0 -6 2q-35 20 -72 20q-23 0 -43 -10t-34 -27q-30 -37 -30 -98q0 -59 27.5 -98.5
t79.5 -39.5q38 0 76 18q3 2 8 2q4 0 6 -5l10 -22q1 -2 1 -6q0 -3 -3 -5.5t-7 -4.5q-45 -22 -98 -22q-77 0 -117 51z" />
    <glyph glyph-name="registered" unicode="&#xae;" horiz-adv-x="833" 
d="M234.5 36.5q-82.5 48.5 -130.5 130.5t-48 180t48 180t131 129.5t182 47.5t182 -47.5t131 -129.5t48 -180t-48.5 -180.5t-131.5 -130.5t-181 -48q-100 0 -182.5 48.5zM566.5 89.5q67.5 39.5 106.5 107.5t39 149t-39 149t-106.5 107.5t-149.5 39.5t-149.5 -39.5
t-106.5 -107.5t-39 -149t39 -149t106.5 -107.5t149.5 -39.5t149.5 39.5zM317 171q-2 3 -2 10v327q0 8 2.5 10.5t9.5 2.5h74q130 0 130 -105q0 -35 -19 -60.5t-50 -37.5l80 -133q4 -6 4 -11q0 -6 -8 -6h-38q-6 0 -8.5 2.5t-6.5 8.5l-74 129h-42v-127q0 -7 -2 -10t-8 -3h-34
q-6 0 -8 3zM404 351q32 0 52 16.5t20 47.5q0 33 -20 47.5t-59 14.5h-28v-126h35z" />
    <glyph glyph-name="uni2117" unicode="&#x2117;" horiz-adv-x="833" 
d="M234.5 36.5q-82.5 48.5 -130.5 130.5t-48 180t48 180t131 129.5t182 47.5t182 -47.5t131 -129.5t48 -180t-48.5 -180.5t-131.5 -130.5t-181 -48q-100 0 -182.5 48.5zM566.5 89.5q67.5 39.5 106.5 107.5t39 149t-39 149t-106.5 107.5t-149.5 39.5t-149.5 -39.5
t-106.5 -107.5t-39 -149t39 -149t106.5 -107.5t149.5 -39.5t149.5 39.5zM337 171q-2 3 -2 10v327q0 8 2.5 10.5t9.5 2.5h74q130 0 130 -105q0 -50 -34.5 -78t-85.5 -30h-42v-127q0 -7 -2 -10t-8 -3h-34q-6 0 -8 3zM424 351q32 0 52 16.5t20 47.5q0 33 -20 47.5t-59 14.5h-28
v-126h35z" />
    <glyph glyph-name="trademark" unicode="&#x2122;" horiz-adv-x="637" 
d="M139 419v230h-70q-10 0 -10 9v21q0 10 9 10h196q10 0 10 -7v-3l-3 -21q-1 -9 -12 -9h-69v-230q0 -11 -11 -11h-29q-11 0 -11 11zM277 418v1l7 259q0 11 10 11h25q11 0 14 -8l91 -208l86 208q2 5 4 6.5t7 1.5h26q10 0 10 -10l9 -259v-1q0 -11 -10 -11h-28q-12 0 -12 13
l-3 174l-71 -180q-2 -7 -10 -7h-17q-7 0 -11 8l-78 180l-2 -178q0 -10 -11 -10h-27q-9 0 -9 10z" />
    <glyph glyph-name="degree" unicode="&#xb0;" horiz-adv-x="286" 
d="M77 541.5q-27 27.5 -27 66.5t27 66t66 27t66.5 -27t27.5 -66t-27.5 -66.5t-66.5 -27.5t-66 27.5zM172 579q12 12 12 29t-12 28.5t-29 11.5t-29 -11.5t-12 -28.5t12 -29t29 -12t29 12z" />
    <glyph glyph-name="bar" unicode="|" horiz-adv-x="206" 
d="M63 0v691q0 20 16 20h45q10 0 14.5 -4t4.5 -14v-693q0 -11 -4.5 -15.5t-14.5 -4.5h-40q-21 0 -21 20z" />
    <glyph glyph-name="brokenbar" unicode="&#xa6;" horiz-adv-x="206" 
d="M63 459v229q0 11 4 15.5t14 4.5h43q11 0 15 -3.5t4 -14.5v-231q0 -21 -19 -21h-41q-20 0 -20 21zM63 3v230q0 11 4 15.5t14 4.5h43q11 0 15 -3.5t4 -14.5v-232q0 -20 -19 -20h-41q-20 0 -20 20z" />
    <glyph glyph-name="uni2113" unicode="&#x2113;" horiz-adv-x="466" 
d="M111 194l-51 -30q-3 -2 -8 -2q-6 0 -11 8l-15 26q-3 5 -3 8q0 6 10 12l78 48v241q0 102 43 151q39 45 109 45q63 0 100.5 -43t37.5 -112q0 -91 -51.5 -166t-153.5 -150v-34q0 -71 19 -103t59 -32q58 0 107 70q6 8 12 8q5 0 12 -5l24 -17q7 -4 7 -12q0 -5 -3 -10
q-30 -49 -74 -77t-97 -28q-151 0 -151 204zM286.5 423.5q29.5 53.5 29.5 117.5q0 45 -16 68t-41 23q-30 0 -47 -30q-16 -29 -16 -92v-194q61 54 90.5 107.5z" />
    <glyph glyph-name="dagger" unicode="&#x2020;" horiz-adv-x="514" 
d="M224.5 4q-3.5 4 -3.5 15l-4 360l-147 -2q-9 0 -13 3t-4 11v42q0 9 3 12.5t12 3.5l149 -1l-3 225q0 9 3.5 12.5t12.5 3.5h52q11 0 14 -3.5t3 -11.5l-2 -226l149 1q9 0 12.5 -3.5t3.5 -12.5v-42q0 -9 -3.5 -11.5t-12.5 -2.5l-149 2l-4 -360q0 -19 -17 -19h-39q-9 0 -12.5 4
z" />
    <glyph glyph-name="daggerdbl" unicode="&#x2021;" horiz-adv-x="514" 
d="M224.5 4q-3.5 4 -3.5 15l-2 226l-132 -2q-8 0 -12 3t-4 11v42q0 9 3.5 12.5t11.5 3.5l132 -1l-1 122l-149 -2q-8 0 -11.5 2.5t-3.5 10.5v42q0 9 3 13t11 4l150 -2l-3 169q0 9 3.5 12.5t11.5 3.5h53q9 0 13 -3t4 -12l-2 -170l150 2q9 0 12 -4t3 -13v-41q0 -8 -3.5 -11
t-11.5 -3l-150 2l-2 -122l134 1q9 0 12.5 -3t3.5 -13v-42q0 -8 -4 -11t-13 -3l-133 2l-2 -226q0 -19 -17 -19h-39q-9 0 -12.5 4z" />
    <glyph glyph-name="estimated" unicode="&#x212e;" horiz-adv-x="867" 
d="M237.5 38.5q-90.5 47.5 -144 128.5t-53.5 177q0 97 53.5 178t144 128.5t196.5 47.5t196.5 -47.5t143.5 -128.5t53 -178v-8h-637q-5 0 -5 -5v-193q0 -10 9 -23q45 -48 108 -75.5t133 -27.5q75 0 141 31t111 85h58q-56 -63 -137 -100t-174 -37q-106 0 -196.5 47.5zM677 355
q5 0 5 5v195q0 13 -10 23q-45 46 -107 72.5t-130 26.5q-70 0 -132 -27t-108 -75q-10 -10 -10 -25v-190q0 -5 5 -5h487z" />
    <glyph glyph-name="uni2116" unicode="&#x2116;" horiz-adv-x="1003" 
d="M84.5 3.5q-4.5 3.5 -4.5 14.5v654q0 10 4.5 14t14.5 4h47q8 0 13.5 -3t10.5 -10l353 -514h2v510q0 17 17 17h56q9 0 12 -4.5t3 -13.5v-654q0 -10 -4.5 -14t-12.5 -4h-47q-16 0 -27 17l-352 513h-2v-511q0 -11 -4.5 -15t-13.5 -4h-50q-11 0 -15.5 3.5zM700 144
q-34 43 -34 110q0 64 35 108.5t100 44.5q66 0 100.5 -44t34.5 -110q0 -65 -34.5 -108.5t-100.5 -43.5q-67 0 -101 43zM857.5 178q16.5 31 16.5 76q0 44 -17.5 75t-56.5 31q-38 0 -55.5 -31t-17.5 -74q0 -46 17 -77t57 -31t56.5 31zM677 3.5q-4 4.5 -4 14.5v18q0 9 4 13t14 4
h224q9 0 13 -3.5t4 -13.5v-18q0 -11 -4 -15t-14 -4h-223q-10 0 -14 4.5z" />
    <glyph glyph-name="asciicircum" unicode="^" horiz-adv-x="537" 
d="M406 370l-139 214l-140 -210q-8 -11 -15 -11q-2 0 -10 4l-36 25q-9 6 -9 13t5 14l178 254q7 10 11.5 13t10.5 3h17q13 0 22 -14l175 -270q4 -8 4 -10q0 -6 -8 -11l-39 -20q-7 -4 -13 -4q-8 0 -14 10z" />
    <glyph glyph-name="uni0308" unicode="&#x308;" horiz-adv-x="0" 
d="M-286 587q-16 13 -16 35q0 23 15.5 36t36.5 13t36 -13.5t15 -35.5t-15.5 -35t-35.5 -13t-36 13zM-109.5 587q-16.5 13 -16.5 35q0 23 16 36t37 13t35.5 -13.5t14.5 -35.5t-15 -35t-35 -13t-36.5 13z" />
    <glyph glyph-name="uni0307" unicode="&#x307;" horiz-adv-x="0" 
d="M-202 602.5q-19 15.5 -19 39.5q0 25 18.5 40.5t41.5 15.5q22 0 40 -15.5t18 -39.5t-18.5 -40t-39.5 -16q-22 0 -41 15.5z" />
    <glyph glyph-name="gravecomb" unicode="&#x300;" horiz-adv-x="0" 
d="M-104 561l-151 75q-10 4 -10 13q0 7 4 12l21 33q7 10 15 10q5 0 14 -6l140 -90q9 -5 9 -13q0 -5 -4 -10l-12 -18q-6 -9 -14 -9q-5 0 -12 3z" />
    <glyph glyph-name="acutecomb" unicode="&#x301;" horiz-adv-x="0" 
d="M-247 564l-12 18q-4 5 -4 10q0 8 9 13l140 90q9 6 14 6q8 0 15 -10l21 -33q4 -5 4 -12q0 -9 -10 -13l-151 -75q-7 -3 -12 -3q-8 0 -14 9z" />
    <glyph glyph-name="uni030B" unicode="&#x30b;" horiz-adv-x="0" 
d="M-345 566l-10 15q-4 5 -4 10q0 8 9 13l140 91q7 5 13 5q8 0 15 -10l20 -30q4 -5 4 -12q0 -9 -10 -13l-151 -74q-10 -4 -12 -4q-8 0 -14 9zM-122 566l-10 15q-4 5 -4 10q0 8 9 13l140 91q7 5 13 5q8 0 15 -10l20 -30q4 -5 4 -12q0 -9 -10 -13l-152 -74q-10 -4 -11 -4
q-8 0 -14 9z" />
    <glyph glyph-name="uni0302" unicode="&#x302;" horiz-adv-x="0" 
d="M-59 556l-102 79l-94 -73q-10 -8 -17 -8q-6 0 -13 7l-12 13q-5 7 -5 10q0 5 6 11l108 98q10 8 20 8h14q11 0 19 -7l111 -100q6 -6 6 -12q0 -7 -5 -12l-13 -13q-6 -6 -11 -6t-12 5z" />
    <glyph glyph-name="uni030C" unicode="&#x30c;" horiz-adv-x="0" 
d="M-186 557l-108 98q-6 6 -6 11q0 3 5 10l12 13q7 7 13 7q7 0 17 -8l94 -73l102 79q7 5 12 5t11 -6l13 -13q5 -5 5 -12q0 -6 -6 -12l-111 -100q-8 -7 -19 -7h-14q-10 0 -20 8z" />
    <glyph glyph-name="uni0306" unicode="&#x306;" horiz-adv-x="0" 
d="M-233 582q-22 13 -37 32.5t-19 43.5q-1 3 -1 10q0 8 3.5 10.5t12.5 2.5h25q10 0 14 -3t9 -12q9 -19 27 -31.5t38 -12.5t38 12.5t27 31.5q5 9 9 12t14 3h25q9 0 12.5 -2.5t3.5 -10.5q0 -7 -1 -10q-4 -24 -19 -43.5t-37 -32.5q-33 -18 -72 -18t-72 18z" />
    <glyph glyph-name="uni030A" unicode="&#x30a;" horiz-adv-x="0" 
d="M-219 564.5q-24 23.5 -24 56.5t24 56.5t57 23.5t56.5 -23.5t23.5 -56.5t-23.5 -56.5t-56.5 -23.5t-57 23.5zM-140.5 599.5q8.5 8.5 8.5 21.5t-8.5 21.5t-21.5 8.5t-22 -8.5t-9 -21.5t9 -21.5t22 -8.5t21.5 8.5z" />
    <glyph glyph-name="tildecomb" unicode="&#x303;" horiz-adv-x="0" 
d="M-137 583q-12 5 -30 16q-16 9 -27.5 14t-22.5 5q-22 0 -65 -24q-10 -6 -16 -6q-8 0 -12 10l-9 23q-4 10 -4 11q0 7 14 16q21 14 45.5 23t45.5 9q15 0 30 -5.5t35 -16.5q12 -6 24.5 -11t21.5 -5q18 0 62 27q9 5 15 5q8 0 14 -9l11 -17q5 -8 5 -12q0 -8 -8 -14
q-57 -44 -104 -44q-13 0 -25 5z" />
    <glyph glyph-name="uni0304" unicode="&#x304;" horiz-adv-x="0" 
d="M-288.5 593.5q-5.5 5.5 -5.5 18.5v17q0 12 5 17t21 5h210q18 0 23.5 -4.5t5.5 -17.5v-17q0 -13 -6 -18.5t-23 -5.5h-210q-15 0 -20.5 5.5z" />
    <glyph glyph-name="uni0326" unicode="&#x326;" horiz-adv-x="0" 
d="M-190 -214l-6 6q-1 2 -2 3.5t-1 4.5q0 2 5 7q28 28 28 53q0 10 -13 27q-14 18 -14 31q0 19 12 30.5t31 11.5q20 0 33 -16.5t13 -37.5q0 -34 -18.5 -68t-46.5 -54q-7 -4 -12 -4t-9 6z" />
    <glyph glyph-name="uni0327" unicode="&#x327;" horiz-adv-x="0" 
d="M-223 -189q-14 6 -14 13q0 3 1 5l5 16q3 9 9 9q4 0 10 -3q24 -9 52 -9q18 0 30.5 9t12.5 27q0 33 -52 33h-18q-14 0 -19.5 6t-5.5 17q0 10 1 15l6 51h50l-3 -48h8q40 0 66 -18t26 -56q0 -35 -26 -57t-74 -22q-34 0 -65 12z" />
    <glyph glyph-name="uni0328" unicode="&#x328;" horiz-adv-x="0" 
d="M-226.5 -179.5q-26.5 21.5 -26.5 55.5q0 41 29 73q23 25 71 51h59q-49 -36 -69.5 -60.5t-20.5 -48.5q0 -41 52 -41q10 0 26.5 2.5t27.5 6.5l4 1q8 0 9 -7l5 -18q1 -2 1 -6q0 -11 -12 -15q-16 -6 -39 -10.5t-42 -4.5q-48 0 -74.5 21.5z" />
    <glyph glyph-name="acute" unicode="&#xb4;" horiz-adv-x="325" 
d="M78 564l-12 18q-4 5 -4 10q0 8 9 13l140 90q9 6 14 6q8 0 15 -10l21 -33q4 -5 4 -12q0 -9 -10 -13l-151 -75q-7 -3 -12 -3q-8 0 -14 9z" />
    <glyph glyph-name="breve" unicode="&#x2d8;" horiz-adv-x="325" 
d="M92 582q-22 13 -37 32.5t-19 43.5q-1 3 -1 10q0 8 3.5 10.5t12.5 2.5h25q10 0 14 -3t9 -12q9 -19 27 -31.5t38 -12.5t38 12.5t27 31.5q5 9 9 12t14 3h25q9 0 12.5 -2.5t3.5 -10.5q0 -7 -1 -10q-4 -24 -19 -43.5t-37 -32.5q-33 -18 -72 -18t-72 18z" />
    <glyph glyph-name="caron" unicode="&#x2c7;" horiz-adv-x="325" 
d="M139 557l-108 98q-6 6 -6 11q0 3 5 10l12 13q7 7 13 7q7 0 17 -8l94 -73l102 79q7 5 12 5t11 -6l13 -13q5 -5 5 -12q0 -6 -6 -12l-111 -100q-8 -7 -19 -7h-14q-10 0 -20 8z" />
    <glyph glyph-name="cedilla" unicode="&#xb8;" horiz-adv-x="325" 
d="M102 -189q-14 6 -14 13q0 3 1 5l5 16q3 9 9 9q4 0 10 -3q24 -9 52 -9q18 0 30.5 9t12.5 27q0 33 -52 33h-18q-14 0 -19.5 6t-5.5 17q0 10 1 15l6 51h50l-3 -48h8q40 0 66 -18t26 -56q0 -35 -26 -57t-74 -22q-34 0 -65 12z" />
    <glyph glyph-name="circumflex" unicode="&#x2c6;" horiz-adv-x="325" 
d="M266 556l-102 79l-94 -73q-10 -8 -17 -8q-6 0 -13 7l-12 13q-5 7 -5 10q0 5 6 11l108 98q10 8 20 8h14q11 0 19 -7l111 -100q6 -6 6 -12q0 -7 -5 -12l-13 -13q-6 -6 -11 -6t-12 5z" />
    <glyph glyph-name="dieresis" unicode="&#xa8;" horiz-adv-x="325" 
d="M39 587q-16 13 -16 35q0 23 15.5 36t36.5 13t36 -13.5t15 -35.5t-15.5 -35t-35.5 -13t-36 13zM215.5 587q-16.5 13 -16.5 35q0 23 16 36t37 13t35.5 -13.5t14.5 -35.5t-15 -35t-35 -13t-36.5 13z" />
    <glyph glyph-name="dotaccent" unicode="&#x2d9;" horiz-adv-x="325" 
d="M123 602.5q-19 15.5 -19 39.5q0 25 18.5 40.5t41.5 15.5q22 0 40 -15.5t18 -39.5t-18.5 -40t-39.5 -16q-22 0 -41 15.5z" />
    <glyph glyph-name="grave" unicode="`" horiz-adv-x="325" 
d="M221 561l-151 75q-10 4 -10 13q0 7 4 12l21 33q7 10 15 10q5 0 14 -6l140 -90q9 -5 9 -13q0 -5 -4 -10l-12 -18q-6 -9 -14 -9q-5 0 -12 3z" />
    <glyph glyph-name="hungarumlaut" unicode="&#x2dd;" horiz-adv-x="325" 
d="M-20 566l-10 15q-4 5 -4 10q0 8 9 13l140 91q7 5 13 5q8 0 15 -10l20 -30q4 -5 4 -12q0 -9 -10 -13l-151 -74q-10 -4 -12 -4q-8 0 -14 9zM203 566l-10 15q-4 5 -4 10q0 8 9 13l140 91q7 5 13 5q8 0 15 -10l20 -30q4 -5 4 -12q0 -9 -10 -13l-152 -74q-10 -4 -11 -4
q-8 0 -14 9z" />
    <glyph glyph-name="macron" unicode="&#xaf;" horiz-adv-x="325" 
d="M36.5 593.5q-5.5 5.5 -5.5 18.5v17q0 12 5 17t21 5h210q18 0 23.5 -4.5t5.5 -17.5v-17q0 -13 -6 -18.5t-23 -5.5h-210q-15 0 -20.5 5.5z" />
    <glyph glyph-name="ogonek" unicode="&#x2db;" horiz-adv-x="325" 
d="M98.5 -179.5q-26.5 21.5 -26.5 55.5q0 41 29 73q23 25 71 51h59q-49 -36 -69.5 -60.5t-20.5 -48.5q0 -41 52 -41q10 0 26.5 2.5t27.5 6.5l4 1q8 0 9 -7l5 -18q1 -2 1 -6q0 -11 -12 -15q-16 -6 -39 -10.5t-42 -4.5q-48 0 -74.5 21.5z" />
    <glyph glyph-name="ring" unicode="&#x2da;" horiz-adv-x="325" 
d="M106 564.5q-24 23.5 -24 56.5t24 56.5t57 23.5t56.5 -23.5t23.5 -56.5t-23.5 -56.5t-56.5 -23.5t-57 23.5zM184.5 599.5q8.5 8.5 8.5 21.5t-8.5 21.5t-21.5 8.5t-22 -8.5t-9 -21.5t9 -21.5t22 -8.5t21.5 8.5z" />
    <glyph glyph-name="tilde" unicode="&#x2dc;" horiz-adv-x="325" 
d="M188 583q-12 5 -30 16q-16 9 -27.5 14t-22.5 5q-22 0 -65 -24q-10 -6 -16 -6q-8 0 -12 10l-9 23q-4 10 -4 11q0 7 14 16q21 14 45.5 23t45.5 9q15 0 30 -5.5t35 -16.5q12 -6 24.5 -11t21.5 -5q18 0 62 27q9 5 15 5q8 0 14 -9l11 -17q5 -8 5 -12q0 -8 -8 -14
q-57 -44 -104 -44q-13 0 -25 5z" />
	k="4" />
  </font>
</defs>
</svg>
